<svg width="138" height="228" viewBox="0 0 138 228" fill="none" xmlns="http://www.w3.org/2000/svg">
<path d="M15.7292 47.1178C6.65401 57.4192 -2.12191 72.8896 1.87319 87.6852C5.76652 102.397 20.147 107.408 31.8304 105.005C43.5137 102.603 54.4844 95.1561 66.3205 93.6216C74.2388 92.5902 84.0654 96.468 85.4462 106.797C86.7188 116.016 80.3147 123.677 74.4955 129.217C64.1483 139.218 53.4449 149.671 46.7423 164.055C39.957 178.463 38.0184 198.147 45.4861 211.889C54.7793 229.078 73.9042 230.362 89.5116 225.51C100.489 222.064 111.002 216.472 120.637 208.859C126.526 204.213 132.39 198.431 135.219 190.254C138.049 182.077 136.846 170.779 131.046 166.022C127.096 162.876 122.173 163.112 117.594 163.816C113.015 164.52 108.225 165.516 103.913 163.281C99.62 161.154 96.1915 154.533 97.9974 148.954C99.1992 145.387 102.087 143.482 104.662 141.785C114.921 135.241 125.497 128.029 131.984 115.883C138.553 103.712 139.429 84.9227 130.982 75.0231C124.297 67.2187 114.541 67.2072 105.662 66.2432C102.559 65.9276 99.1304 65.253 97.0123 62.1225C93.8065 57.2641 96.0193 49.0457 100.102 45.5195C104.185 41.9932 109.356 41.6815 114.323 41.2028C119.208 40.7493 124.493 39.6024 127.972 35.1161C136.671 23.6709 127.792 7.84248 118.563 3.89747C108.965 -0.164246 94.9921 -0.382259 84.9433 1.41019C60.5526 5.84081 34.0895 26.2226 15.7292 47.1178Z" fill="#FCDAA4"/>
</svg>
