<svg width="174" height="208" viewBox="0 0 174 208" fill="none" xmlns="http://www.w3.org/2000/svg">
<path d="M159.588 2.2978C173.188 13.8269 177.288 38.7856 169.188 56.6495C160.088 77.0472 138.088 80.3412 122.888 69.1922C116.588 64.6312 109.088 55.8893 114.188 46.1339C119.088 36.7585 130.988 38.1522 137.988 42.4597C146.288 47.6542 150.688 59.1833 150.288 70.7125C149.888 82.7484 144.488 93.264 136.988 100.486C128.888 108.214 118.588 112.395 108.588 112.015C100.088 111.635 88.2881 108.341 83.0881 98.8385C78.7881 91.1102 81.4881 80.2145 88.0881 76.287C96.0881 71.4727 106.288 77.3006 110.888 86.1691C116.088 96.0513 115.288 109.227 110.788 119.11C105.888 129.752 97.0881 136.087 87.8881 138.874C78.0881 141.914 67.2881 140.774 58.3881 134.693C51.7881 130.132 45.2881 121.137 51.5881 112.015C58.6881 101.752 69.5881 109.101 73.8881 118.983C79.0881 131.272 73.8881 144.575 66.1881 152.937C56.7881 163.199 44.6881 165.86 33.1881 170.547C21.6881 175.108 8.2881 184.99 10.1881 202.854C10.8881 208.936 0.888092 208.935 0.188095 202.601C-1.5119 186.384 8.58807 173.208 19.2881 166.62C32.1881 158.765 48.3881 158.765 59.3881 145.969C63.8881 140.774 67.6881 132.539 65.4881 124.557C65.0881 123.037 62.1881 116.322 60.7881 116.576C57.5881 116.956 59.7881 122.91 60.7881 124.177C70.7881 135.706 89.7881 132.032 98.6881 120.376C103.188 114.422 105.588 105.427 104.288 97.3182C103.488 92.5039 97.3881 79.7078 92.5881 85.2823C87.3881 91.3636 94.4881 97.6983 98.5881 99.8521C105.088 103.146 112.688 103.4 119.288 100.739C131.588 95.7979 142.888 81.7349 140.088 64.1244C138.788 55.7626 133.588 48.161 126.388 48.9211C123.888 49.1745 122.088 51.3283 122.988 54.7491C123.788 57.9164 127.288 60.577 129.488 62.0973C141.188 70.3324 156.488 65.7714 161.688 49.4279C166.188 35.2382 162.788 17.6278 152.688 9.01258C150.688 7.36555 151.088 3.94482 152.788 2.2978C154.588 0.144001 157.588 0.650776 159.588 2.2978Z" fill="#FCE9EE"/>
</svg>
