<svg width="188" height="197" viewBox="0 0 188 197" fill="none" xmlns="http://www.w3.org/2000/svg">
<path d="M144.169 196.098L102.524 174.684C116.782 147.479 131.079 120.026 139.618 90.5089C142.737 79.7335 145.011 67.9853 140.92 57.4495C134.852 41.8606 113.814 34.4513 99.2371 42.564C89.5425 47.9846 83.7177 58.2655 78.3631 67.981C64.8468 92.6962 51.4826 116.593 37.9663 141.308L0.223597 121.9C7.19144 108.349 26.5934 74.2816 38.1903 52.0778C49.7871 29.8741 66.6946 8.15853 90.8168 1.54527C106.171 -2.66961 130.431 3.70576 144.73 10.7891C161.477 19.0418 175.123 33.3249 182.709 50.3224C192.938 73.3438 184.438 96.1534 177.564 120.337C170.688 144.699 156.441 174.152 144.169 196.098Z" fill="#E9DFF7"/>
</svg>
