<svg width="264" height="219" viewBox="0 0 264 219" fill="none" xmlns="http://www.w3.org/2000/svg">
<path d="M149.371 0.0922931C132.011 14.3656 112.24 25.3178 92.8059 36.5173C73.2595 47.6344 53.7735 59.1416 37.263 74.3817C20.7525 89.6219 7.1653 108.903 2.487 130.897C-2.1913 152.892 3.04471 177.645 19.254 193.307C30.6636 204.421 46.4184 210.069 61.9532 213.653C82.0509 218.328 103.091 220.061 123.358 215.523C149.692 209.545 172.474 193.533 194.424 177.95C217.258 161.63 240.204 145.392 263.038 129.072C226.383 86.5204 185.914 42.562 149.371 0.0922931ZM98.1667 186.373C90.5936 190.342 81.4875 192.153 73.3889 189.513C64.3372 186.522 57.7104 178.561 51.8419 170.983C47.5065 165.563 43.1408 159.948 40.1623 153.619C37.1838 147.291 35.5621 140.052 37.0997 133.224C38.4505 127.123 42.1281 121.859 45.836 116.791C51.027 109.696 56.8031 102.51 64.5107 98.1202C95.8136 80.3884 126.868 119.015 124.006 148.218C122.299 164.26 112.398 178.975 98.1667 186.373Z" fill="#FCE9EE"/>
</svg>
