<svg width="89" height="96" viewBox="0 0 89 96" fill="none" xmlns="http://www.w3.org/2000/svg">
<path d="M74.9776 0.864133C72.8887 2.01596 72.5714 5.21288 72.6326 7.47755C72.9174 14.3008 73.1876 21.1746 73.4725 27.9978C73.6461 32.1583 72.7886 37.611 68.6573 38.2291C65.6205 38.6693 63.169 35.935 61.5579 33.3333C59.7155 30.3909 57.7147 26.8548 53.8307 26.9961C51.78 27.0628 49.9445 28.2877 48.8328 30.0499C46.3766 34.0006 47.2308 38.4668 47.81 42.7442C48.2962 46.3919 48.4775 50.3354 46.3852 53.4044C45.1428 55.2386 43.054 56.3905 40.8803 56.3121C37.0185 56.1858 36.59 52.7191 34.4413 50.8394C31.7933 48.5966 27.3058 49.8793 25.2864 52.6953C23.2524 55.5619 23.1587 59.3165 23.638 62.7978C24.0963 65.7798 24.9242 68.8135 24.3971 71.7855C23.8701 74.7576 21.3215 77.6952 18.3006 77.3179C15.0624 76.9328 13.279 73.4045 10.179 72.7304C7.12966 72.0709 3.67689 74.145 2.0422 76.5787C-1.4015 81.6698 1.00557 88.9401 4.98901 93.9793C6.80364 96.256 10.3405 95.7955 11.5335 93.1797C12.4501 91.142 13.5765 89.3292 14.4827 89.0423C18.9994 87.6584 21.4627 91.8758 25.3537 91.901C28.5273 91.9386 30.7731 88.1465 31.3141 85.5073C31.9717 82.4632 31.5209 79.2642 32.0917 76.1403C32.6479 73.0671 34.784 69.8462 37.9145 69.6522C41.9944 69.403 44.7827 74.2074 48.8175 74.8768C53.7939 75.708 57.4779 69.9737 57.8854 64.9394C58.3881 59.3844 56.9207 53.4261 60.038 48.515C60.6484 47.54 61.8595 46.9573 62.9894 47.2281C65.2998 47.7843 65.0047 50.7136 65.479 52.8781C67.0528 60.1824 75.8299 58.8753 79.5625 54.3059C85.2485 47.3399 88.2873 37.7477 88.4483 28.8059C88.5558 21.3832 86.6925 13.9407 83.1972 7.39806C81.8756 4.93459 79.9276 0.262778 76.7394 0.27572C76.1089 0.36804 75.4998 0.576175 74.9776 0.864133Z" fill="#FCDAA4"/>
</svg>
