<svg width="414" height="418" viewBox="0 0 414 418" fill="none" xmlns="http://www.w3.org/2000/svg">
<path d="M127.239 144.674C121.198 133.009 117.895 119.885 118.102 106.048C118.81 58.7025 160.342 20.9343 210.866 21.6899L209.712 98.8715C216.782 87.7605 226.507 78.2828 238.626 71.4879C279.989 48.297 333.585 65.1396 358.336 109.107L290.529 147.125C303.743 147.664 316.871 151.332 328.86 158.429C369.668 182.585 381.853 237.329 356.078 280.703L289.372 241.216C295.413 252.881 298.716 266.005 298.509 279.842C297.801 327.187 256.27 364.955 205.744 364.2L206.898 287.018C199.829 298.129 190.105 307.607 177.985 314.402C136.622 337.593 83.0267 320.75 58.2759 276.783L126.082 238.765C112.868 238.226 99.7408 234.558 87.7507 227.461C46.9434 203.304 34.7578 148.561 60.5335 105.187L127.239 144.674ZM208.356 192.749C208.341 192.72 208.325 192.693 208.309 192.665L208.308 192.748C208.324 192.749 208.34 192.749 208.356 192.749ZM208.302 193.141L208.301 193.224L208.254 193.14L208.302 193.141Z" fill="white"/>
<mask id="mask0_229_2347" style="mask-type:alpha" maskUnits="userSpaceOnUse" x="47" y="21" width="323" height="344">
<path d="M127.239 144.674C121.198 133.009 117.895 119.885 118.102 106.048C118.81 58.7025 160.342 20.9343 210.866 21.6899L209.712 98.8715C216.782 87.7605 226.507 78.2828 238.626 71.4879C279.989 48.297 333.585 65.1396 358.336 109.107L290.529 147.125C303.743 147.664 316.871 151.332 328.86 158.429C369.668 182.585 381.853 237.329 356.078 280.703L289.372 241.216C295.413 252.881 298.716 266.005 298.509 279.842C297.801 327.187 256.27 364.955 205.744 364.2L206.898 287.018C199.829 298.129 190.105 307.607 177.985 314.402C136.622 337.593 83.0267 320.75 58.2759 276.783L126.082 238.765C112.868 238.226 99.7408 234.558 87.7507 227.461C46.9434 203.304 34.7578 148.561 60.5335 105.187L127.239 144.674ZM208.356 192.749C208.341 192.72 208.325 192.693 208.309 192.665L208.308 192.748C208.324 192.749 208.34 192.749 208.356 192.749ZM208.302 193.141L208.301 193.224L208.254 193.14L208.302 193.141Z" fill="white"/>
</mask>
<g mask="url(#mask0_229_2347)">
<path d="M161.124 127.166C162.589 126.016 164.087 124.722 165.613 123.342C165.675 123.647 165.725 123.936 165.79 124.227C166.344 123.753 166.903 123.251 167.495 122.723C167.508 122.74 167.506 122.754 167.506 122.754C166.893 123.324 166.334 123.826 165.796 124.287C164.295 125.596 163.029 126.491 161.495 127.499C161.379 127.587 161.265 127.66 161.151 127.734C161.136 127.732 161.138 127.717 161.124 127.715C161.238 127.642 161.352 127.568 161.468 127.48C161.346 127.39 161.242 127.286 161.124 127.166Z" fill="#EF6E22" stroke="black" stroke-width="0.373973" stroke-miterlimit="10"/>
<path d="M234.579 386.539C242.888 387.076 251.87 394.142 259.643 396.104C271.066 398.993 265.179 392.778 264.204 385.63C269.387 385.772 271.622 391.623 277.3 391.624C277.169 390.182 277.846 388.48 278.195 386.792C280.607 387.194 282.681 387.788 284.353 389.81C286.546 388.329 284.013 373.3 284.02 370.409C287.364 371.828 292.658 377.487 297.14 382.561C301.816 396.042 303.487 412.377 301.549 434.598C267.254 416.851 246.896 401.86 234.579 386.539Z" fill="#A35525" stroke="black" stroke-width="0.373973" stroke-miterlimit="10"/>
<path d="M285.276 264.279L284.724 264.189C284.976 264.194 285.151 264.218 285.276 264.279Z" fill="#A57C52" stroke="black" stroke-width="0.373973" stroke-miterlimit="10"/>
<path d="M273.742 266.516C274.066 266.427 274.39 266.338 274.7 266.246C274.768 267.709 274.804 269.197 274.791 270.708C274.79 270.827 274.789 270.945 274.787 271.064C274.846 283.961 273.304 298.464 268.326 315.615C266.672 314.767 264.475 314.097 262.528 313.877C261.065 313.708 259.205 313.944 257.443 314.327C258.517 304.032 258.077 295.028 258.13 290.378C258.174 286.231 258.269 282.581 257.223 270.172C262.581 269.566 268.641 267.958 273.742 266.516Z" fill="#EF6E22" stroke="black" stroke-width="0.373973" stroke-miterlimit="10"/>
<path d="M284.952 265.262C281.548 268.877 277.703 270.594 276.211 271.177C276.224 269.666 276.188 268.178 276.12 266.715C275.81 266.806 275.768 266.406 276.074 266.319C280.149 265.166 283.367 264.229 284.726 264.193L285.279 264.283C285.544 264.408 285.457 264.722 284.952 265.262Z" fill="#A57C52" stroke="black" stroke-width="0.373973" stroke-miterlimit="10"/>
<path d="M274.458 230.995C273.857 228.971 273.307 227.116 272.883 225.531C272.272 223.356 271.844 221.696 271.667 220.812C271.648 220.735 271.643 220.66 271.622 220.598C271.558 220.634 271.492 220.684 271.409 220.747C271.214 220.869 271.013 221.034 270.795 221.212C270.309 221.621 269.8 222.086 269.382 222.429C269.382 222.429 269.384 222.415 269.369 222.413C269.367 222.427 269.35 222.44 269.317 222.465C269.293 222.536 269.239 222.603 269.185 222.669C266.688 225.296 263.839 229.417 261.552 233.66C261.232 234.269 260.926 234.88 260.62 235.491C259.989 236.74 259.4 238.009 258.807 239.308C257.31 242.664 255.962 246.129 254.786 249.425C253.419 253.244 252.307 256.83 251.507 259.762C251.494 260.072 251.404 261.394 251.355 262.188C251.346 262.469 251.325 262.733 251.308 262.968C251.282 263.38 251.268 263.808 251.24 264.234C252.879 263.33 254.8 262.538 256.861 261.81C262.462 259.858 269.15 258.439 274.533 256.665C277.224 255.785 279.585 254.816 281.32 253.643L281.397 253.624C279.265 246.793 276.506 237.904 274.458 230.995Z" fill="#E6E8E6" stroke="black" stroke-width="0.373973" stroke-miterlimit="10"/>
<path d="M269.372 222.413C269.848 221.973 270.321 221.562 270.8 221.212C270.313 221.621 269.803 222.086 269.385 222.429C269.385 222.429 269.387 222.415 269.372 222.413Z" fill="#E6E8E6" stroke="black" stroke-width="0.373973" stroke-miterlimit="10"/>
<path d="M278.711 136.638C275.983 132.218 272.575 128.432 268.221 125.912C267.491 125.812 270.406 124.489 274.4 120.582C274.4 120.582 272.344 119.309 264.735 118.763C264.735 118.763 266.64 117.539 272.089 108.402C267.118 109.877 260.98 111.4 256.478 110.521C269.088 103.367 298.489 65.5403 311.948 62.9661C312.283 62.9078 312.601 62.8621 312.901 62.8436C305.448 81.7934 294.323 129.27 278.711 136.638Z" fill="#A35525" stroke="black" stroke-width="0.373973" stroke-miterlimit="10"/>
<path d="M274.574 177.47L274.572 177.484C279.569 189.911 260.564 202.232 247.651 211.614C243.923 214.325 239.414 216.337 234.79 218.096C225.838 221.52 216.43 224.038 211.299 228.976C210.28 230.128 209.375 231.324 208.629 232.543C208.342 233.127 208.094 233.746 207.903 234.387L207.669 236.432L211.521 236.852C215.035 236.04 219.029 234.863 223.292 233.351C238.551 228.797 259.936 221.383 265.129 217.951L265.116 217.935C265.467 217.76 265.786 217.596 266.122 217.419C267.096 216.929 268.052 216.451 269.059 215.935C269.362 215.783 269.713 215.609 270.082 215.407C273.207 213.844 278.224 211.383 280.102 210.362C280.326 210.245 280.502 210.15 280.631 210.078C283.478 206.847 274.675 176.401 274.574 177.47Z" fill="#E6E8E6" stroke="black" stroke-width="0.373973" stroke-miterlimit="10"/>
<path d="M269.193 222.671C266.696 225.298 263.846 229.419 261.56 233.661C263.712 229.534 266.085 225.852 268.582 223.226C268.826 222.962 269.085 222.701 269.325 222.467C269.3 222.537 269.247 222.604 269.193 222.671Z" fill="#E6E8E6" stroke="black" stroke-width="0.373973" stroke-miterlimit="10"/>
<path d="M269.433 216.356C269.305 216.205 269.19 216.071 269.06 215.935C268.053 216.45 267.096 216.928 266.123 217.419C267.404 218.928 268.547 220.908 269.344 222.366C269.357 222.382 269.369 222.399 269.367 222.413C269.843 221.974 270.315 221.564 270.794 221.213C271.011 221.035 271.212 220.87 271.407 220.748C271.49 220.685 271.556 220.635 271.62 220.599C271.249 218.739 270.348 217.385 269.433 216.356Z" fill="#E6E8E6" stroke="black" stroke-width="0.373973" stroke-miterlimit="10"/>
<path d="M248.589 321.602C248.894 321.985 249.157 322.347 249.393 322.69C272.144 344.562 289.116 359.315 297.144 382.566C292.662 377.492 287.368 371.833 284.024 370.414C284.017 373.305 286.55 388.333 284.357 389.815C282.685 387.793 280.611 387.199 278.199 386.797C277.85 388.485 277.173 390.187 277.304 391.629C271.626 391.628 269.39 385.777 264.208 385.635C265.183 392.783 271.07 398.998 259.647 396.109C251.874 394.147 242.892 387.081 234.583 386.544C232.867 384.412 231.302 382.256 229.873 380.089C236.806 364.628 240.246 355.292 242.071 336.526C243.306 336.294 244.593 335.905 245.889 335.444C245.949 335.437 246.014 335.401 246.076 335.38C246.034 335.36 245.98 335.323 245.921 335.315C246.514 333.037 247.063 330.531 247.542 327.882C247.919 325.872 248.265 323.768 248.589 321.602Z" fill="#EF6E22" stroke="black" stroke-width="0.373973" stroke-miterlimit="10"/>
<path d="M245.875 335.44C244.579 335.902 243.293 336.29 242.057 336.523C242.153 335.601 242.236 334.663 242.308 333.694C243.561 334.206 244.767 334.741 245.908 335.311C245.902 335.355 245.896 335.399 245.875 335.44Z" fill="#A57C52" stroke="black" stroke-width="0.373973" stroke-miterlimit="10"/>
<path d="M253.421 270.762C252.528 270.774 251.686 270.734 250.883 270.624C251.015 268.343 251.129 266.194 251.247 264.237C252.886 263.333 254.807 262.541 256.868 261.813C262.469 259.86 269.157 258.442 274.54 256.667C277.231 255.788 279.592 254.818 281.327 253.645L281.404 253.626C283.315 259.685 285.421 264.303 285.421 264.303L285.275 264.283C285.15 264.221 284.975 264.198 284.723 264.193C283.261 264.231 279.651 265.312 275.138 266.582C269.851 268.088 263.353 269.859 257.661 270.508C256.182 270.678 254.756 270.781 253.421 270.762Z" fill="#E6E8E6" stroke="black" stroke-width="0.373973" stroke-miterlimit="10"/>
<path d="M242.058 336.525C242.154 335.603 242.237 334.666 242.309 333.697C242.255 333.659 242.184 333.635 242.128 333.612C242.03 333.569 241.946 333.528 241.819 333.481C241.019 333.135 240.185 332.814 239.338 332.491C230.751 329.187 220.319 326.448 208.799 324.273C206.96 323.919 205.102 323.592 203.213 323.276C198.767 322.523 194.191 321.856 189.518 321.25C175.89 319.5 161.458 318.411 147.253 317.947C146.943 317.935 146.647 317.924 146.337 317.912C142.899 347.553 146.863 356.324 153.799 387.495C157.232 389.029 168.144 390.099 171.33 384.377C172.557 382.174 171.01 376.219 171.233 373.59C171.502 370.436 172.028 368.812 171.005 365.57C170.634 364.396 169.583 363.428 169.277 362.633C168.226 359.893 172.007 359.182 171.952 356.213C171.896 353.215 172.448 350.263 172.813 347.299C173.111 344.877 172.704 341.867 173.563 339.598C173.867 338.797 204.691 344.344 207.631 344.745C209.179 344.957 210.735 345.234 212.297 345.287C212.192 348.142 210.536 351.067 210.149 353.977C209.692 357.412 209.789 360.992 210.764 364.334C211.569 367.094 211.955 367.491 210.093 369.879C209.299 370.898 208.295 371.6 207.906 372.865C207.168 375.269 207.941 378.184 207.467 380.736C206.83 384.174 206.074 387.593 205.282 390.998C207.169 397.336 218.139 398.531 221.859 397.732C224.951 390.841 227.585 385.133 229.862 380.088C236.794 364.627 240.234 355.291 242.058 336.525Z" fill="#00567D" stroke="black" stroke-width="0.373973" stroke-miterlimit="10"/>
<path d="M146.158 309.878C165.478 310.326 215.771 314.483 247.48 327.859C247.507 327.878 247.522 327.88 247.536 327.882C247.057 330.531 246.508 333.037 245.916 335.314C244.775 334.744 243.569 334.209 242.316 333.697C242.262 333.66 242.191 333.636 242.134 333.613C242.036 333.57 241.953 333.529 241.84 333.484L241.825 333.482C241.025 333.136 240.192 332.815 239.344 332.492C230.758 329.188 220.325 326.449 208.806 324.274C206.967 323.92 205.109 323.593 203.22 323.277C198.774 322.524 194.198 321.857 189.525 321.251C175.897 319.5 161.465 318.412 147.26 317.948C146.95 317.936 146.654 317.925 146.344 317.913C146.137 317.899 145.931 317.886 145.723 317.888C145.808 315.407 145.963 312.952 146.156 310.442L146.158 309.878Z" fill="#E6E8E6" stroke="black" stroke-width="0.373973" stroke-miterlimit="10"/>
<path d="M275.59 176.759C275.59 176.759 275.372 175.292 274.685 174.162C272.544 178.424 268.694 183.018 264.149 187.59C262.734 189.029 261.232 190.457 259.701 191.88C257.284 194.132 254.769 196.341 252.295 198.466C250.915 199.658 249.538 200.82 248.196 201.943C248.163 201.968 248.128 202.008 248.095 202.033C238.308 210.283 220.252 218.684 211.302 228.976C216.432 224.038 225.84 221.52 234.793 218.096C239.416 216.337 243.926 214.325 247.653 211.614C260.567 202.232 280.588 189.186 275.59 176.759Z" fill="#E6E8E6" stroke="black" stroke-width="0.373973" stroke-miterlimit="10"/>
<path d="M211.297 228.98C210.278 230.132 209.372 231.329 208.627 232.548C209.282 231.228 210.186 230.045 211.297 228.98Z" fill="#E6E8E6" stroke="black" stroke-width="0.373973" stroke-miterlimit="10"/>
<path d="M199.319 188.235C201.215 192.438 207.289 202.416 212.856 197.982C217.021 203.74 225.54 195.747 228.504 192.205C231.455 188.647 243.664 171.768 247.625 168.109C251.517 164.515 254.74 169.121 255.677 175.449C255.264 175.645 254.847 175.87 254.445 176.097C254.525 179.222 250.515 182.696 242.191 188.06C233.638 193.571 226.545 199.281 222.526 202.827C218.525 206.347 214.014 208.151 210.906 207.728C207.797 207.305 203.932 204.362 201.017 199.901C198.091 195.41 192.781 188.013 186.011 180.418C179.422 173.025 176.486 168.606 177.398 165.616C177.425 165.53 177.451 165.445 177.478 165.359L177.421 165.233C179.988 159.145 184.478 155.307 187.315 159.905C190.155 164.488 197.411 184.015 199.319 188.235Z" fill="#F28B4E" stroke="black" stroke-width="0.373973" stroke-miterlimit="10"/>
<path d="M207.878 233.863C208.102 233.419 208.355 232.978 208.637 232.542C208.35 233.126 208.102 233.745 207.911 234.386C207.906 234.208 207.9 234.029 207.878 233.863Z" fill="#A35525" stroke="black" stroke-width="0.373973" stroke-miterlimit="10"/>
<path d="M274.383 171.068C268.214 171.519 261.343 172.646 255.685 175.451C255.272 175.647 254.855 175.872 254.453 176.099C254.533 179.224 250.523 182.698 242.199 188.062C233.646 193.573 226.553 199.283 222.534 202.829C218.532 206.349 214.022 208.153 210.913 207.73C207.805 207.307 203.94 204.364 201.025 199.903C198.099 195.412 192.788 188.015 186.019 180.42C179.43 173.027 176.494 168.608 177.406 165.618C172.717 160.975 166.06 157.8 159.884 155.566C161.919 161.256 164.686 167.239 167.873 173.205C170.181 177.539 172.7 181.856 175.312 186.038C181.877 196.557 189.042 206.268 194.917 213.341C199.743 219.159 202.612 222.975 204.334 225.835C206.377 228.293 207.699 230.92 207.878 233.866C208.102 233.422 208.355 232.982 208.637 232.546C209.293 231.226 210.197 230.044 211.307 228.979C220.258 218.687 238.313 210.286 248.1 202.036C248.134 202.011 248.169 201.971 248.202 201.946C249.543 200.823 250.92 199.661 252.301 198.469C254.775 196.344 257.29 194.135 259.707 191.883C261.238 190.459 262.74 189.032 264.154 187.593C268.7 183.02 272.55 178.427 274.69 174.165C274.663 173.167 274.566 172.131 274.383 171.068Z" fill="#A35525" stroke="black" stroke-width="0.373973" stroke-miterlimit="10"/>
<path d="M158.08 236.272C159.676 235.139 160.461 237.56 158.815 245.508C158.717 246.014 158.6 246.547 158.478 247.109C158.491 244.07 158.377 240.317 158.08 236.272Z" fill="#EF9F20" stroke="black" stroke-width="0.373973" stroke-miterlimit="10"/>
<path d="M185.128 226.183C191.391 230.179 197.23 233.466 201.528 235.741L207.677 236.429L211.528 236.849C215.042 236.037 219.037 234.86 223.3 233.348C238.558 228.794 259.943 221.38 265.123 217.932C265.474 217.757 265.794 217.593 266.13 217.416C267.411 218.926 268.553 220.905 269.351 222.363C269.347 222.393 269.341 222.436 269.322 222.463C269.082 222.698 268.824 222.959 268.58 223.223C266.082 225.849 263.709 229.531 261.557 233.658C261.237 234.267 260.931 234.878 260.625 235.489C259.994 236.738 259.405 238.008 258.812 239.307C257.315 242.663 255.967 246.128 254.791 249.424C253.424 253.242 252.312 256.829 251.512 259.76C251.499 260.07 251.409 261.393 251.36 262.187C251.349 262.378 251.342 262.54 251.328 262.642C251.328 262.746 251.315 262.848 251.313 262.967C251.287 263.378 251.273 263.807 251.245 264.233C251.128 266.19 251.013 268.34 250.882 270.621C251.684 270.73 252.526 270.77 253.419 270.758C253.203 274.422 252.704 281.147 252.026 288.975C251.985 289.385 251.959 289.796 251.918 290.206C251.483 294.573 251.608 299.348 250.508 303.608C250.052 305.377 249.219 305.47 248.393 306.896C247.519 308.406 248.589 309.457 249.093 310.828C249.805 312.764 249.662 313.412 249.291 315.435C248.541 319.542 248.216 323.737 247.482 327.854C215.772 314.478 165.479 310.321 146.16 309.873L146.163 308.761C146.69 302.587 148.057 296.44 149.263 290.373C149.871 287.317 149.549 283.75 150.488 280.898C151.473 277.905 153.964 275.657 154.961 272.647C155.806 270.091 154.263 268.849 153.976 266.477C153.666 263.916 155.063 261.743 155.812 259.442C156.64 256.902 156.977 254.098 157.549 251.487C157.902 249.874 158.221 248.404 158.487 247.106C158.608 246.544 158.725 246.011 158.824 245.505C160.47 237.557 159.684 235.136 158.089 236.269C157.835 232.778 157.462 229.079 156.916 225.445C156.691 224.035 156.463 222.654 156.189 221.282C155.175 215.953 153.753 210.999 151.799 207.336C153.187 205.983 154.842 204.636 156.784 203.357C159.75 206.683 163.205 209.911 166.9 213.01C172.72 217.865 179.124 222.355 185.128 226.183Z" fill="#E6E8E6" stroke="black" stroke-width="0.373973" stroke-miterlimit="10"/>
<path d="M131.395 233.249C132.753 234.843 134.77 236.408 137.128 237.975C141.842 241.123 147.907 244.276 152.784 247.654C154.575 248.906 156.215 250.182 157.552 251.491C157.143 253.408 156.679 255.511 156.197 257.744C154.199 257.457 151.991 256.757 149.696 255.821C144.385 253.675 138.596 250.233 133.903 247.369C129.893 244.94 126.703 242.934 125.305 242.507L125.315 242.434C125.315 242.434 127.866 238.539 131.326 233.21L131.395 233.249Z" fill="#E6E8E6" stroke="black" stroke-width="0.373973" stroke-miterlimit="10"/>
<path d="M212.876 197.982C207.309 202.416 201.235 192.438 199.339 188.235C197.431 184.016 190.175 164.489 187.335 159.905C184.498 155.307 180.008 159.145 177.441 165.233L177.498 165.36C177.471 165.445 177.445 165.53 177.418 165.616C172.729 160.973 166.072 157.798 159.896 155.564C159.783 155.519 159.668 155.489 159.556 155.444C157.134 154.565 154.794 153.847 152.693 153.234C150.161 152.504 147.964 151.939 146.364 151.469L146.392 151.369C148.116 145.908 155.372 139.983 165.748 134.721C161.041 132.834 158.52 133.233 156.132 130.683C157.663 129.809 159.373 128.603 161.143 127.168C161.261 127.287 161.365 127.391 161.487 127.481C161.371 127.569 161.257 127.643 161.143 127.716C161.157 127.718 161.155 127.733 161.17 127.735C161.284 127.661 161.398 127.588 161.514 127.5C163.048 126.492 164.314 125.597 165.815 124.288C166.353 123.827 166.912 123.325 167.525 122.756C167.525 122.756 167.527 122.741 167.514 122.724C166.922 123.252 166.363 123.754 165.808 124.228C165.744 123.937 165.694 123.649 165.632 123.343C173.457 116.295 181.813 107.198 185.428 104.768C185.623 104.646 185.82 104.509 186.015 104.388C191.174 101.1 198.461 99.0949 201.84 98.8425C201.866 98.7571 201.893 98.6718 201.904 98.5844C202.792 95.3383 202.91 92.2842 200.942 90.8002C208.701 92.1078 214.339 94.3581 217.393 99.223C216.129 92.1246 215.647 88.351 212.645 86.7116C229.726 92.2537 245.996 100.148 247.327 106.751C253.274 88.3823 265.712 70.9115 311.967 62.9059L311.974 62.9662C298.515 65.5404 269.114 103.367 256.504 110.521C261.007 111.4 267.144 109.877 272.115 108.402C266.666 117.539 264.761 118.763 264.761 118.763C272.37 119.309 274.426 120.582 274.426 120.582C270.432 124.489 267.517 125.813 268.247 125.912C272.601 128.432 276.009 132.218 278.737 136.638C280.905 140.152 282.629 144.08 284.061 148.086C278.905 149.609 274.18 149.708 273.234 149.342C281.931 155.657 289.044 164.664 288.647 170.75C286.814 170.783 284.073 170.721 280.854 170.788C279.321 170.802 277.693 170.862 275.986 170.956C275.461 170.988 274.937 171.021 274.396 171.066C268.226 171.517 261.355 172.644 255.697 175.449C254.76 169.121 251.537 164.515 247.645 168.109C243.684 171.768 231.475 188.647 228.524 192.205C225.56 195.747 217.041 203.74 212.876 197.982Z" fill="#EF6E22" stroke="black" stroke-width="0.373973" stroke-miterlimit="10"/>
<path d="M165.614 123.341C164.671 118.585 163.439 112.129 164.16 109.78C165.919 113.238 169.6 113.486 169.6 113.486C169.6 113.486 167.92 105.842 165.18 100.53C173.043 104.566 176.309 104.269 176.309 104.269C176.309 104.269 170.757 95.4748 167.811 87.747C175.05 95.4951 182.041 101.682 185.998 104.386C185.803 104.507 185.606 104.644 185.411 104.766C181.796 107.196 173.439 116.293 165.614 123.341Z" fill="#C57251" stroke="black" stroke-width="0.373973" stroke-miterlimit="10"/>
<path d="M149.573 203.992C150.707 201.773 151.905 200.616 153.47 199.821C154.85 201.254 155.952 202.442 156.535 203.071C156.638 203.188 156.73 203.275 156.793 203.358C154.851 204.636 153.196 205.983 151.808 207.337C151.137 206.044 150.383 204.918 149.573 203.992Z" fill="#E6E8E6" stroke="black" stroke-width="0.373973" stroke-miterlimit="10"/>
<path d="M158.084 236.272C157.831 232.782 157.457 229.083 156.911 225.449C156.687 224.039 156.458 222.658 156.184 221.286C155.17 215.957 153.749 211.002 151.795 207.34C151.123 206.047 150.37 204.921 149.56 203.995C149.523 204.05 149.498 204.121 149.459 204.189C149.194 204.717 148.74 205.545 148.122 206.588C147.175 208.195 145.876 210.317 144.373 212.738C140.515 218.917 135.311 227.019 131.318 233.21L131.387 233.249C132.745 234.843 134.762 236.407 137.12 237.974C141.834 241.122 147.9 244.276 152.776 247.653C154.567 248.905 156.207 250.181 157.545 251.491C157.898 249.878 158.217 248.408 158.483 247.109C158.495 244.07 158.381 240.317 158.084 236.272Z" fill="#E6E8E6" stroke="black" stroke-width="0.373973" stroke-miterlimit="10"/>
<path d="M207.91 234.387C207.904 234.208 207.899 234.03 207.877 233.863C207.698 230.917 206.376 228.29 204.333 225.832C199.882 220.421 191.977 215.816 184.947 210.469C181.471 207.831 178.213 205.014 175.675 201.821C166.548 190.361 153.136 175.113 157.319 164.469C157.464 161.656 141.975 187.349 143.855 190.24C144.113 190.637 144.553 190.899 144.912 191.214C144.875 191.269 144.837 191.323 144.813 191.394C147.575 193.816 150.96 197.228 153.46 199.823C154.841 201.256 155.942 202.445 156.526 203.073C156.629 203.19 156.721 203.277 156.784 203.36C159.75 206.685 163.205 209.914 166.9 213.012C172.719 217.868 179.123 222.358 185.127 226.186C191.39 230.182 197.23 233.468 201.528 235.744L207.676 236.432L207.91 234.387Z" fill="#E6E8E6" stroke="black" stroke-width="0.373973" stroke-miterlimit="10"/>
<path d="M194.922 213.34C189.048 206.267 181.882 196.557 175.318 186.038C172.706 181.856 170.187 177.538 167.879 173.205C164.692 167.239 161.924 161.256 159.889 155.565C159.777 155.52 159.662 155.49 159.549 155.445C158.099 158.57 155.907 161.075 155.763 163.888C151.58 174.532 166.555 190.363 175.682 201.824C178.22 205.017 181.478 207.833 184.954 210.471C191.984 215.818 199.889 220.423 204.339 225.834C202.618 222.975 199.749 219.158 194.922 213.34Z" fill="#E6E8E6" stroke="black" stroke-width="0.373973" stroke-miterlimit="10"/>
<path d="M131.071 251.785C131.494 250.211 131.956 248.672 132.443 247.166C137.136 250.029 142.925 253.472 148.236 255.618C143.913 267.296 143.029 270.839 141.964 274.847C140.773 279.342 137.944 287.901 136.228 298.109C134.634 297.269 132.904 296.545 131.449 296.317C129.514 296.009 127.217 296.068 125.398 296.443C125.181 278.586 127.57 264.197 131.071 251.785Z" fill="#EF6E22" stroke="black" stroke-width="0.373973" stroke-miterlimit="10"/>
<path d="M133.892 247.367C133.404 248.873 132.942 250.412 132.52 251.986L132.19 251.897C132.19 251.897 127.745 249.067 124.791 243.474C124.295 242.531 124.522 242.281 125.294 242.504C126.692 242.932 129.882 244.938 133.892 247.367Z" fill="#A57C52" stroke="black" stroke-width="0.373973" stroke-miterlimit="10"/>
<path d="M143.486 50.6074C152.461 57.5088 171.171 69.2054 175.335 73.2277C179.078 76.8515 196.981 90.7669 201.893 98.584C201.881 98.6713 201.854 98.7567 201.828 98.8421C198.45 99.0945 191.162 101.099 186.003 104.387C182.046 101.683 175.055 95.4968 167.816 87.7487C157.44 76.6223 146.561 62.3127 143.486 50.6074Z" fill="#EF6E22" stroke="black" stroke-width="0.373973" stroke-miterlimit="10"/>
<path d="M143.485 50.6079C146.56 62.3132 157.439 76.6227 167.815 87.7491C170.762 95.4769 176.313 104.271 176.313 104.271C176.313 104.271 173.047 104.568 165.185 100.532C167.925 105.844 169.605 113.489 169.605 113.489C169.605 113.489 165.923 113.24 164.164 109.782C163.443 112.131 164.675 118.588 165.619 123.343C164.093 124.723 162.595 126.017 161.13 127.168C139.563 107.844 142.657 65.8758 143.279 50.5946L143.485 50.6079Z" fill="#A35525" stroke="black" stroke-width="0.373973" stroke-miterlimit="10"/>
<path d="M150.832 325.287C150.014 323.544 147.945 322.803 145.658 320.385C145.203 319.908 144.743 319.356 144.28 318.715C144.066 318.433 143.885 318.127 143.718 317.822C141.672 314.073 142.553 309.017 140.038 304.67L140.086 304.647C140.164 304.613 140.243 304.58 140.324 304.531C139.289 304.168 138.301 303.559 137.031 302.956C134.952 301.961 132.088 300.949 126.948 300.932C126.754 300.935 126.546 300.936 126.337 300.938L126.338 301.042C125.995 301.158 125.663 301.306 125.34 301.499C119.585 304.469 118.283 314.481 117.893 316.579C117.488 318.793 116.808 323.461 114.899 327.77C112.991 332.078 112.453 335.372 113.952 337.356C115.222 339.056 117.046 338.756 118.755 338.321C118.731 339.044 118.846 339.727 119.119 340.343C119.197 340.532 119.307 340.71 119.417 340.888C120.806 343.02 124.292 342.96 126.309 341.899C127.527 343.978 130.621 344.503 131.861 344.242C135.261 343.503 135.127 338.041 134.07 333.137C133.149 328.873 134.624 324.15 135.739 321.958C136.867 319.783 138.681 322.403 139.469 325.239C140.236 328.013 142.754 331.9 146.15 332.066C146.252 332.079 146.341 332.077 146.446 332.076C149.99 332.024 151.826 327.38 150.832 325.287Z" fill="#754D24" stroke="black" stroke-width="0.373973" stroke-miterlimit="10"/>
<path d="M142.624 301.624C142.07 301 140.027 299.521 137.694 298.313C136.099 297.473 134.37 296.749 132.915 296.521C130.98 296.213 128.683 296.272 126.863 296.647C125.339 296.929 124.155 297.436 123.854 298.121C123.237 299.491 123.057 300.371 125.341 301.498C125.665 301.304 125.997 301.157 126.34 301.04L126.339 300.936C126.548 300.935 126.756 300.934 126.949 300.93C132.089 300.947 134.954 301.96 137.033 302.955C138.303 303.558 139.291 304.167 140.326 304.53C142.031 303.798 143.516 302.606 142.624 301.624Z" fill="#754D24" stroke="black" stroke-width="0.373973" stroke-miterlimit="10"/>
<path d="M238.997 337.278C240.251 335.817 242.443 335.655 245.292 333.937C245.859 333.599 246.449 333.19 247.066 332.695C247.348 332.481 247.605 332.234 247.847 331.985C250.82 328.919 251.322 323.811 254.906 320.294L254.867 320.259C254.799 320.205 254.732 320.152 254.667 320.084C255.762 320.01 256.876 319.687 258.262 319.445C260.531 319.042 263.562 318.832 268.52 320.188C268.705 320.243 268.906 320.3 269.106 320.357L269.078 320.457C269.377 320.661 269.657 320.892 269.918 321.165C274.67 325.563 273.25 335.56 273.065 337.685C272.864 339.927 272.272 344.608 272.961 349.27C273.649 353.932 273.287 357.249 271.313 358.76C269.635 360.06 267.957 359.283 266.427 358.407C266.257 359.111 265.963 359.738 265.536 360.259C265.41 360.419 265.257 360.562 265.104 360.704C263.195 362.387 259.852 361.399 258.192 359.838C256.462 361.516 253.34 361.195 252.216 360.612C249.137 358.992 250.725 353.765 253.053 349.32C255.08 345.458 254.92 340.512 254.431 338.102C253.925 335.704 251.477 337.745 249.96 340.267C248.48 342.736 245.015 345.809 241.698 345.061C241.596 345.047 241.511 345.021 241.41 344.993C238.009 343.996 237.481 339.029 238.997 337.278Z" fill="#754D24" stroke="black" stroke-width="0.373973" stroke-miterlimit="10"/>
<path d="M253.225 316.671C253.926 316.218 256.29 315.338 258.86 314.798C260.622 314.415 262.482 314.178 263.945 314.348C265.892 314.568 268.089 315.238 269.743 316.085C271.136 316.765 272.142 317.569 272.249 318.31C272.478 319.795 272.416 320.691 269.913 321.166C269.653 320.894 269.373 320.663 269.073 320.459L269.102 320.359C268.902 320.302 268.701 320.245 268.515 320.19C263.558 318.833 260.527 319.044 258.258 319.447C256.872 319.689 255.758 320.012 254.663 320.086C253.216 318.925 252.104 317.379 253.225 316.671Z" fill="#754D24" stroke="black" stroke-width="0.373973" stroke-miterlimit="10"/>
<path d="M236.577 161.358C236.577 161.358 236.713 161.174 236.952 160.849C237.075 160.69 237.223 160.497 237.394 160.276C237.574 160.06 237.738 159.79 237.988 159.547C238.502 159.078 239.056 158.428 239.764 157.901C240.123 157.642 240.494 157.373 240.87 157.1C241.255 156.838 241.683 156.627 242.095 156.387C242.501 156.132 242.939 155.941 243.385 155.785C243.829 155.626 244.249 155.419 244.694 155.328C245.135 155.227 245.561 155.128 245.968 155.052C246.372 154.966 246.776 154.983 247.136 154.947C247.499 154.936 247.828 154.875 248.125 154.932C248.419 154.966 248.676 154.997 248.888 155.022C249.307 155.082 249.546 155.118 249.546 155.118L249.396 156.214C249.396 156.214 249.18 156.223 248.8 156.237C248.613 156.24 248.385 156.241 248.125 156.245C247.866 156.233 247.571 156.315 247.251 156.338C246.934 156.39 246.583 156.388 246.225 156.489C245.866 156.588 245.486 156.673 245.092 156.761C244.697 156.845 244.313 157.027 243.904 157.149C243.493 157.273 243.091 157.433 242.698 157.626C242.303 157.811 241.889 157.967 241.511 158.175C241.138 158.395 240.771 158.614 240.415 158.824C239.686 159.226 239.099 159.715 238.535 160.084C237.474 160.946 236.753 161.526 236.753 161.526L236.577 161.358Z" fill="black"/>
<path d="M248.008 151.677C250.953 147.055 250.698 141.63 247.438 139.559C244.178 137.489 239.147 139.558 236.202 144.18C233.257 148.802 233.512 154.227 236.772 156.297C240.032 158.368 245.063 156.299 248.008 151.677Z" fill="black"/>
<path d="M242.316 146.29C243.626 146.468 244.826 145.594 244.997 144.338C245.168 143.082 244.245 141.919 242.935 141.741C241.626 141.562 240.425 142.436 240.255 143.693C240.084 144.949 241.007 146.112 242.316 146.29Z" fill="white"/>
<path d="M199.11 156.403C199.11 156.403 198.57 155.652 197.778 154.537C197.332 154.03 196.896 153.401 196.302 152.821C196.016 152.522 195.72 152.215 195.419 151.903C195.111 151.6 194.753 151.34 194.423 151.057C194.094 150.767 193.749 150.504 193.388 150.275C193.028 150.048 192.704 149.771 192.346 149.583C191.99 149.392 191.647 149.209 191.328 149.019C191.009 148.826 190.672 148.734 190.379 148.599C190.077 148.491 189.814 148.334 189.562 148.276C189.312 148.203 189.093 148.139 188.913 148.088C188.551 147.972 188.345 147.907 188.345 147.907L188.494 146.811C188.494 146.811 188.733 146.842 189.153 146.894C189.364 146.927 189.618 146.966 189.913 147.011C190.214 147.036 190.515 147.182 190.861 147.29C191.199 147.42 191.591 147.512 191.959 147.703C192.331 147.884 192.715 148.094 193.113 148.309C193.515 148.517 193.867 148.827 194.252 149.099C194.642 149.369 195.013 149.669 195.335 150.024C195.667 150.366 196.022 150.682 196.325 151.038C196.615 151.402 196.9 151.76 197.177 152.106C197.719 152.804 198.078 153.577 198.448 154.166C198.626 154.467 198.711 154.771 198.826 155.027C198.932 155.286 199.023 155.512 199.099 155.697C199.242 156.074 199.324 156.289 199.324 156.289L199.11 156.403Z" fill="black"/>
<path d="M200.492 151.353C204.186 150.229 205.882 145.069 204.278 139.829C202.674 134.588 198.379 131.25 194.685 132.375C190.99 133.499 189.295 138.659 190.898 143.9C192.502 149.14 196.797 152.478 200.492 151.353Z" fill="black"/>
<path d="M197.799 140.224C199.109 140.403 200.309 139.529 200.48 138.272C200.651 137.016 199.728 135.853 198.418 135.675C197.109 135.497 195.908 136.371 195.738 137.627C195.567 138.883 196.49 140.046 197.799 140.224Z" fill="white"/>
<path d="M185.567 127.995C193.025 122.335 197.6 121.475 202.077 121.342" stroke="black" stroke-width="1.27889" stroke-miterlimit="10"/>
<path d="M256.157 137.596C250.482 130.15 246.303 128.098 242.024 126.774" stroke="black" stroke-width="1.27889" stroke-miterlimit="10"/>
<path d="M213.357 195.2L213.021 195.154C206.966 194.331 204.302 184.743 203.413 181.552C202.526 178.346 206.308 176.443 215.603 177.707C224.898 178.972 228.033 181.816 226.337 184.67C224.628 187.508 219.5 196.036 213.444 195.212L213.357 195.2Z" fill="black"/>
<path d="M219.779 180.434C216.15 179.666 208.447 177.705 207.15 181.198C206.463 183.049 208.642 185.847 210.559 185.703C212.405 185.564 211.42 182.292 213.417 181.925C215.916 181.468 217.955 181.338 222.607 181.884C222.607 181.885 223.406 181.202 219.779 180.434Z" fill="#676767"/>
<path d="M159.19 77.2138C158.038 82.9201 164.473 87.895 164.723 93.4822C163.722 92.5212 162.406 91.7016 160.987 91.6034C161.554 93.7199 162.324 96.3208 163.376 98.1296C162.552 97.4153 161.542 97.4574 160.627 97.1163C159.395 101.272 162.115 107.534 163.853 111.218" stroke="black" stroke-width="0.35722" stroke-miterlimit="10"/>
<path d="M262.573 106.486C270.924 107.423 280.229 93.9339 287.903 90.5269C282.647 96.3719 276.614 111.601 270.541 116.414C274.828 115.555 282.026 111.99 286.358 112.812C284.304 113.151 277.349 118.632 276.366 120.164C278.782 120.66 283.077 120.259 284.647 122.078C275.173 124.022 273.478 127.375 269.83 126.879" stroke="black" stroke-width="0.35722" stroke-miterlimit="10"/>
<path d="M246.769 108.907C238.491 111.489 231.006 105.429 226.523 101.469C226.176 103.612 228.717 105.072 228.642 107.14C209.241 108.004 210.088 99.9613 200.273 101.099" stroke="black" stroke-width="0.35722" stroke-miterlimit="10"/>
<path d="M253.49 252.579C255.377 250.746 269.146 239.463 270.402 245.734C271.173 249.591 254.217 257.526 251.621 260.853" stroke="black" stroke-width="0.35722" stroke-miterlimit="10"/>
<path d="M157.859 236.233C151.838 238.501 146.706 220.212 140.752 223.444C136.745 225.619 150.059 239.333 151.927 241.605" stroke="black" stroke-width="0.35722" stroke-miterlimit="10"/>
<path d="M249.68 296.925C248.293 307.119 230.431 304.346 224.004 303.775C219.073 303.335 206.195 301.828 203.124 306.329C208.818 308.416 215.101 308.028 220.996 309.357C227.522 310.828 234.76 313.035 240.958 315.515" stroke="black" stroke-width="0.35722" stroke-miterlimit="10"/>
<path d="M194.788 212.021C202.302 203.217 191.378 193.388 180.749 192.313C181.89 190.551 183.343 189.626 185.575 188.826C182.108 184.759 178.096 183.119 175.906 177.772C173.616 172.182 170.907 167.245 172.902 162.14" stroke="black" stroke-width="0.357088" stroke-miterlimit="10"/>
<path d="M226.259 216.49C221.37 205.999 234.903 200.176 245.433 201.98C244.805 199.976 243.651 198.697 241.714 197.33C246.141 194.337 250.446 193.828 253.985 189.26C257.684 184.485 261.687 178.668 260.872 173.737" stroke="black" stroke-width="0.357088" stroke-miterlimit="10"/>
<path d="M165.048 359.081C163.493 362.102 156.898 361.736 154.255 364.275C155.354 366.08 157.969 365.789 159.968 366.173C162.828 366.726 165.389 368.115 168.186 368.777" stroke="black" stroke-width="0.35722" stroke-miterlimit="10"/>
<path d="M213.359 364.539C214.112 366.06 219.679 368.347 218.341 370.543C217.788 371.45 211.766 371.885 210.445 372.3" stroke="black" stroke-width="0.35722" stroke-miterlimit="10"/>
<path d="M198.619 228.747C198.37 234.118 194.477 238.928 192.724 243.943C190.639 249.908 189.691 257.034 188.493 263.209C186.369 274.167 184.226 285.826 185.903 296.727" stroke="black" stroke-width="2.80446" stroke-miterlimit="10"/>
<path d="M216.226 231.142C215.031 236.384 217.498 242.059 217.848 247.361C218.264 253.666 217.273 260.787 216.778 267.057C215.898 278.184 214.849 289.992 210.321 300.049" stroke="black" stroke-width="2.80446" stroke-miterlimit="10"/>
</g>
<g clip-path="url(#clip0_229_2347)">
<path d="M161.131 127.165C162.595 126.015 164.094 124.721 165.619 123.341C165.682 123.646 165.732 123.935 165.796 124.226C166.351 123.752 166.91 123.25 167.502 122.722C167.515 122.739 167.513 122.753 167.513 122.753C166.9 123.323 166.341 123.825 165.803 124.286C164.302 125.595 163.036 126.49 161.502 127.498C161.386 127.586 161.272 127.659 161.158 127.733C161.143 127.731 161.145 127.716 161.131 127.714C161.245 127.641 161.359 127.567 161.475 127.479C161.353 127.389 161.248 127.285 161.131 127.165Z" fill="#EF6E22" stroke="black" stroke-width="0.373973" stroke-miterlimit="10"/>
<path d="M285.281 264.278L284.729 264.188C284.981 264.193 285.156 264.217 285.281 264.278Z" fill="#A57C52" stroke="black" stroke-width="0.373973" stroke-miterlimit="10"/>
<path d="M273.749 266.515C274.073 266.426 274.397 266.337 274.707 266.245C274.775 267.708 274.811 269.196 274.798 270.707C274.797 270.826 274.796 270.944 274.795 271.063C274.853 283.96 273.311 298.463 268.333 315.614C266.68 314.766 264.482 314.096 262.535 313.876C261.072 313.707 259.212 313.943 257.451 314.326C258.524 304.031 258.084 295.027 258.137 290.377C258.181 286.23 258.277 282.58 257.23 270.171C262.588 269.566 268.648 267.957 273.749 266.515Z" fill="#EF6E22" stroke="black" stroke-width="0.373973" stroke-miterlimit="10"/>
<path d="M284.96 265.26C281.555 268.875 277.71 270.592 276.218 271.175C276.231 269.664 276.195 268.176 276.127 266.713C275.817 266.804 275.775 266.404 276.081 266.317C280.156 265.164 283.375 264.227 284.733 264.191L285.286 264.281C285.551 264.406 285.464 264.72 284.96 265.26Z" fill="#A2AAA2" stroke="black" stroke-width="0.373973" stroke-miterlimit="10"/>
<path d="M274.465 230.995C273.864 228.97 273.314 227.115 272.89 225.53C272.28 223.355 271.851 221.695 271.674 220.811C271.655 220.734 271.651 220.659 271.629 220.597C271.565 220.633 271.499 220.683 271.416 220.746C271.221 220.868 271.02 221.033 270.803 221.211C270.316 221.62 269.807 222.085 269.389 222.428C269.389 222.428 269.391 222.414 269.376 222.412C269.374 222.426 269.357 222.439 269.324 222.464C269.3 222.535 269.246 222.602 269.192 222.668C266.695 225.295 263.846 229.416 261.559 233.659C261.239 234.268 260.933 234.879 260.627 235.49C259.996 236.739 259.407 238.008 258.814 239.307C257.317 242.663 255.969 246.128 254.793 249.424C253.426 253.243 252.314 256.829 251.514 259.761C251.501 260.071 251.411 261.393 251.362 262.187C251.354 262.468 251.333 262.732 251.315 262.967C251.289 263.379 251.275 263.807 251.247 264.233C252.886 263.329 254.807 262.537 256.868 261.809C262.469 259.857 269.157 258.438 274.54 256.664C277.231 255.784 279.592 254.815 281.327 253.642L281.404 253.623C279.272 246.792 276.513 237.903 274.465 230.995Z" fill="#E6E8E6" stroke="black" stroke-width="0.373973" stroke-miterlimit="10"/>
<path d="M269.379 222.412C269.855 221.972 270.328 221.561 270.807 221.211C270.32 221.62 269.81 222.085 269.392 222.428C269.392 222.428 269.394 222.414 269.379 222.412Z" fill="#E6E8E6" stroke="black" stroke-width="0.373973" stroke-miterlimit="10"/>
<path d="M278.718 136.637C275.99 132.217 272.582 128.431 268.228 125.911C267.498 125.812 270.413 124.488 274.407 120.581C274.407 120.581 272.351 119.308 264.742 118.762C264.742 118.762 266.647 117.538 272.096 108.401C267.125 109.876 260.988 111.399 256.485 110.52C269.095 103.366 298.496 65.5393 311.955 62.9651C312.29 62.9068 312.608 62.8611 312.908 62.8426C305.455 81.7925 294.33 129.269 278.718 136.637Z" fill="#A35525" stroke="black" stroke-width="0.373973" stroke-miterlimit="10"/>
<path d="M274.581 177.469L274.579 177.483C279.577 189.91 260.571 202.231 247.658 211.613C243.93 214.324 239.421 216.336 234.797 218.095C225.845 221.52 216.437 224.037 211.306 228.975C210.288 230.127 209.382 231.323 208.636 232.542C208.349 233.126 208.101 233.745 207.91 234.386L207.676 236.431L211.528 236.851C215.042 236.039 219.036 234.862 223.299 233.35C238.558 228.796 259.943 221.382 265.136 217.95L265.123 217.934C265.474 217.759 265.793 217.595 266.129 217.418C267.103 216.928 268.06 216.45 269.066 215.934C269.369 215.782 269.72 215.608 270.089 215.406C273.215 213.843 278.231 211.382 280.109 210.361C280.333 210.244 280.509 210.149 280.638 210.077C283.485 206.846 274.682 176.4 274.581 177.469Z" fill="#E6E8E6" stroke="black" stroke-width="0.373973" stroke-miterlimit="10"/>
<path d="M269.2 222.67C266.702 225.297 263.853 229.418 261.567 233.66C263.718 229.533 266.092 225.851 268.589 223.225C268.833 222.961 269.092 222.7 269.332 222.466C269.307 222.536 269.254 222.603 269.2 222.67Z" fill="#E6E8E6" stroke="black" stroke-width="0.373973" stroke-miterlimit="10"/>
<path d="M269.44 216.355C269.312 216.204 269.197 216.07 269.067 215.934C268.06 216.449 267.103 216.927 266.13 217.418C267.411 218.927 268.554 220.907 269.351 222.365C269.364 222.381 269.376 222.398 269.374 222.412C269.85 221.973 270.322 221.563 270.801 221.212C271.018 221.034 271.219 220.869 271.414 220.747C271.497 220.684 271.563 220.634 271.627 220.598C271.256 218.738 270.356 217.384 269.44 216.355Z" fill="#E6E8E6" stroke="black" stroke-width="0.373973" stroke-miterlimit="10"/>
<path d="M253.428 270.761C252.535 270.773 251.693 270.733 250.89 270.624C251.022 268.343 251.137 266.193 251.254 264.236C252.893 263.332 254.814 262.54 256.875 261.812C262.476 259.859 269.164 258.441 274.547 256.666C277.238 255.787 279.599 254.817 281.334 253.644L281.411 253.625C283.322 259.684 285.428 264.302 285.428 264.302L285.282 264.282C285.157 264.22 284.982 264.197 284.73 264.192C283.268 264.23 279.658 265.311 275.145 266.581C269.858 268.087 263.36 269.858 257.669 270.507C256.189 270.677 254.763 270.78 253.428 270.761Z" fill="#E6E8E6" stroke="black" stroke-width="0.373973" stroke-miterlimit="10"/>
<path d="M146.166 309.879C165.485 310.327 215.778 314.484 247.487 327.86C247.514 327.879 247.529 327.881 247.544 327.882C247.064 330.532 246.515 333.038 245.923 335.315C244.782 334.745 243.577 334.21 242.323 333.698C242.269 333.661 242.198 333.637 242.142 333.614C242.043 333.571 241.96 333.53 241.847 333.485L241.833 333.483C241.032 333.137 240.199 332.816 239.351 332.493C230.765 329.189 220.333 326.45 208.813 324.275C206.974 323.921 205.116 323.594 203.227 323.278C198.781 322.525 194.205 321.858 189.532 321.252C175.904 319.501 161.472 318.413 147.267 317.949C146.957 317.937 146.661 317.926 146.351 317.914C146.145 317.9 145.938 317.887 145.73 317.889C145.815 315.408 145.97 312.953 146.163 310.443L146.166 309.879Z" fill="#E6E8E6" stroke="black" stroke-width="0.373973" stroke-miterlimit="10"/>
<path d="M275.597 176.759C275.597 176.759 275.379 175.292 274.692 174.162C272.551 178.424 268.701 183.018 264.156 187.59C262.741 189.029 261.239 190.457 259.708 191.88C257.291 194.132 254.776 196.341 252.303 198.466C250.922 199.658 249.545 200.82 248.203 201.943C248.17 201.968 248.135 202.008 248.102 202.033C238.315 210.283 220.259 218.684 211.309 228.976C216.439 224.038 225.848 221.52 234.8 218.096C239.423 216.337 243.933 214.325 247.66 211.614C260.574 202.232 280.595 189.186 275.597 176.759Z" fill="#E6E8E6" stroke="black" stroke-width="0.373973" stroke-miterlimit="10"/>
<path d="M211.304 228.979C210.285 230.131 209.379 231.328 208.634 232.547C209.289 231.227 210.193 230.044 211.304 228.979Z" fill="#E6E8E6" stroke="black" stroke-width="0.373973" stroke-miterlimit="10"/>
<path d="M199.326 188.234C201.222 192.437 207.296 202.415 212.863 197.981C217.029 203.739 225.547 195.746 228.511 192.204C231.462 188.646 243.671 171.767 247.632 168.108C251.524 164.514 254.747 169.12 255.684 175.448C255.271 175.644 254.854 175.869 254.452 176.096C254.532 179.221 250.522 182.695 242.198 188.059C233.646 193.57 226.552 199.28 222.533 202.826C218.532 206.346 214.021 208.15 210.913 207.727C207.805 207.304 203.94 204.361 201.024 199.9C198.098 195.409 192.788 188.012 186.018 180.417C179.429 173.024 176.493 168.605 177.405 165.615C177.432 165.529 177.458 165.444 177.485 165.358L177.428 165.232C179.995 159.144 184.485 155.306 187.322 159.904C190.162 164.487 197.419 184.014 199.326 188.234Z" fill="#F28B4E" stroke="black" stroke-width="0.373973" stroke-miterlimit="10"/>
<path d="M207.885 233.862C208.109 233.418 208.362 232.978 208.645 232.541C208.357 233.125 208.109 233.744 207.918 234.385C207.913 234.207 207.907 234.028 207.885 233.862Z" fill="#A35525" stroke="black" stroke-width="0.373973" stroke-miterlimit="10"/>
<path d="M274.39 171.067C268.221 171.518 261.35 172.645 255.692 175.45C255.279 175.646 254.862 175.871 254.46 176.098C254.54 179.223 250.53 182.697 242.206 188.061C233.653 193.572 226.56 199.282 222.541 202.828C218.54 206.348 214.029 208.152 210.921 207.729C207.812 207.306 203.947 204.363 201.032 199.902C198.106 195.411 192.795 188.014 186.026 180.419C179.437 173.026 176.501 168.607 177.413 165.617C172.724 160.974 166.067 157.799 159.891 155.565C161.926 161.255 164.694 167.238 167.88 173.204C170.189 177.538 172.707 181.855 175.319 186.037C181.884 196.556 189.049 206.267 194.924 213.34C199.75 219.158 202.619 222.974 204.341 225.834C206.384 228.292 207.706 230.919 207.885 233.865C208.109 233.421 208.362 232.981 208.645 232.545C209.3 231.225 210.204 230.043 211.315 228.978C220.265 218.686 238.321 210.285 248.107 202.035C248.141 202.01 248.176 201.97 248.209 201.945C249.551 200.822 250.927 199.66 252.308 198.468C254.782 196.343 257.297 194.134 259.714 191.882C261.245 190.458 262.747 189.031 264.161 187.592C268.707 183.019 272.557 178.426 274.697 174.164C274.67 173.166 274.573 172.13 274.39 171.067Z" fill="#A2AAA2" stroke="black" stroke-width="0.373973" stroke-miterlimit="10"/>
<path d="M158.087 236.272C159.683 235.139 160.468 237.56 158.822 245.508C158.724 246.014 158.607 246.547 158.486 247.109C158.498 244.07 158.384 240.317 158.087 236.272Z" fill="#EF9F20" stroke="black" stroke-width="0.373973" stroke-miterlimit="10"/>
<path d="M185.135 226.185C191.398 230.181 197.238 233.467 201.535 235.743L207.684 236.431L211.535 236.851C215.049 236.039 219.044 234.862 223.307 233.35C238.566 228.796 259.95 221.382 265.13 217.934C265.481 217.759 265.801 217.595 266.137 217.418C267.418 218.928 268.56 220.907 269.358 222.365C269.354 222.395 269.348 222.438 269.329 222.465C269.089 222.7 268.831 222.961 268.587 223.225C266.09 225.851 263.716 229.533 261.564 233.66C261.244 234.269 260.938 234.88 260.632 235.491C260.001 236.74 259.412 238.01 258.819 239.309C257.322 242.665 255.974 246.13 254.798 249.426C253.431 253.244 252.319 256.831 251.519 259.762C251.506 260.072 251.416 261.395 251.367 262.189C251.356 262.38 251.349 262.542 251.335 262.644C251.336 262.748 251.322 262.85 251.32 262.969C251.294 263.38 251.28 263.809 251.252 264.235C251.135 266.192 251.021 268.341 250.889 270.622C251.691 270.732 252.533 270.772 253.426 270.76C253.21 274.424 252.711 281.149 252.033 288.977C251.992 289.387 251.966 289.798 251.925 290.208C251.49 294.575 251.615 299.35 250.515 303.61C250.059 305.379 249.226 305.472 248.4 306.898C247.526 308.408 248.596 309.459 249.1 310.83C249.812 312.766 249.669 313.414 249.298 315.437C248.548 319.544 248.223 323.739 247.489 327.856C215.779 314.48 165.486 310.323 146.167 309.875L146.17 308.763C146.698 302.589 148.064 296.442 149.27 290.375C149.878 287.319 149.556 283.752 150.495 280.9C151.481 277.907 153.971 275.659 154.968 272.649C155.813 270.093 154.27 268.851 153.983 266.478C153.673 263.918 155.07 261.745 155.819 259.444C156.647 256.904 156.984 254.1 157.556 251.489C157.909 249.876 158.228 248.406 158.494 247.108C158.615 246.546 158.732 246.013 158.831 245.507C160.477 237.559 159.691 235.138 158.096 236.271C157.842 232.78 157.469 229.081 156.923 225.447C156.698 224.037 156.47 222.656 156.196 221.284C155.182 215.955 153.76 211.001 151.806 207.338C153.194 205.985 154.849 204.638 156.791 203.359C159.757 206.685 163.212 209.913 166.907 213.012C172.727 217.867 179.131 222.357 185.135 226.185Z" fill="#E6E8E6" stroke="black" stroke-width="0.373973" stroke-miterlimit="10"/>
<path d="M131.402 233.249C132.76 234.843 134.777 236.408 137.135 237.975C141.849 241.123 147.915 244.276 152.791 247.654C154.582 248.906 156.222 250.182 157.559 251.491C157.15 253.408 156.686 255.511 156.204 257.744C154.206 257.457 151.998 256.757 149.703 255.821C144.392 253.675 138.603 250.233 133.91 247.369C129.9 244.94 126.71 242.934 125.312 242.507L125.322 242.434C125.322 242.434 127.873 238.539 131.333 233.21L131.402 233.249Z" fill="#E6E8E6" stroke="black" stroke-width="0.373973" stroke-miterlimit="10"/>
<path d="M212.883 197.981C207.316 202.415 201.242 192.437 199.347 188.234C197.439 184.015 190.182 164.488 187.343 159.904C184.505 155.306 180.015 159.144 177.448 165.232L177.505 165.359C177.479 165.444 177.452 165.529 177.426 165.615C172.736 160.972 166.079 157.797 159.903 155.563C159.79 155.518 159.676 155.488 159.563 155.443C157.141 154.564 154.801 153.846 152.7 153.233C150.169 152.504 147.972 151.938 146.371 151.468L146.399 151.368C148.123 145.907 155.379 139.982 165.756 134.72C161.048 132.833 158.527 133.232 156.139 130.682C157.67 129.808 159.38 128.602 161.15 127.167C161.268 127.286 161.373 127.39 161.494 127.48C161.378 127.568 161.264 127.642 161.15 127.715C161.165 127.717 161.163 127.732 161.177 127.734C161.291 127.66 161.405 127.587 161.521 127.499C163.055 126.491 164.322 125.596 165.822 124.287C166.361 123.826 166.919 123.324 167.532 122.755C167.532 122.755 167.534 122.74 167.521 122.723C166.929 123.251 166.371 123.753 165.816 124.227C165.751 123.936 165.701 123.648 165.639 123.342C173.464 116.294 181.82 107.197 185.436 104.767C185.63 104.645 185.827 104.508 186.022 104.387C191.181 101.099 198.468 99.0939 201.847 98.8416C201.873 98.7562 201.9 98.6708 201.912 98.5834C202.799 95.3373 202.917 92.2832 200.949 90.7992C208.708 92.1068 214.347 94.3571 217.4 99.2221C216.137 92.1237 215.654 88.3501 212.652 86.7106C229.733 92.2527 246.003 100.147 247.334 106.75C253.281 88.3813 265.719 70.9106 311.974 62.905L311.981 62.9652C298.522 65.5394 269.122 103.366 256.511 110.52C261.014 111.399 267.151 109.876 272.122 108.402C266.673 117.538 264.768 118.762 264.768 118.762C272.378 119.308 274.434 120.581 274.434 120.581C270.439 124.488 267.525 125.812 268.254 125.911C272.608 128.431 276.016 132.217 278.744 136.637C280.912 140.151 282.637 144.079 284.068 148.085C278.912 149.608 274.187 149.707 273.241 149.341C281.938 155.656 289.051 164.663 288.654 170.749C286.821 170.782 284.08 170.72 280.861 170.787C279.328 170.801 277.7 170.861 275.993 170.955C275.469 170.987 274.944 171.02 274.403 171.065C268.233 171.516 261.362 172.643 255.704 175.448C254.767 169.121 251.544 164.514 247.652 168.108C243.691 171.767 231.482 188.646 228.531 192.204C225.567 195.746 217.049 203.739 212.883 197.981Z" fill="#EF6E22" stroke="black" stroke-width="0.373973" stroke-miterlimit="10"/>
<path d="M165.621 123.34C164.678 118.585 163.446 112.128 164.167 109.779C165.926 113.237 169.607 113.485 169.607 113.485C169.607 113.485 167.928 105.841 165.187 100.529C173.05 104.565 176.316 104.268 176.316 104.268C176.316 104.268 170.765 95.4739 167.818 87.7461C175.057 95.4942 182.048 101.681 186.005 104.385C185.81 104.506 185.613 104.643 185.418 104.765C181.803 107.195 173.446 116.292 165.621 123.34Z" fill="#C57251" stroke="black" stroke-width="0.373973" stroke-miterlimit="10"/>
<path d="M149.576 203.992C150.71 201.773 151.908 200.616 153.473 199.821C154.853 201.254 155.955 202.442 156.538 203.071C156.641 203.188 156.733 203.275 156.796 203.358C154.854 204.636 153.199 205.983 151.811 207.337C151.14 206.044 150.387 204.918 149.576 203.992Z" fill="#E6E8E6" stroke="black" stroke-width="0.373973" stroke-miterlimit="10"/>
<path d="M158.092 236.273C157.838 232.783 157.465 229.084 156.918 225.45C156.694 224.04 156.466 222.659 156.192 221.287C155.178 215.958 153.756 211.003 151.802 207.341C151.131 206.048 150.377 204.922 149.567 203.996C149.53 204.051 149.506 204.122 149.466 204.19C149.201 204.718 148.747 205.546 148.129 206.589C147.183 208.196 145.883 210.318 144.38 212.739C140.522 218.918 135.318 227.02 131.325 233.211L131.394 233.25C132.753 234.844 134.769 236.408 137.127 237.975C141.841 241.123 147.907 244.277 152.783 247.654C154.575 248.906 156.214 250.182 157.552 251.492C157.905 249.879 158.224 248.409 158.49 247.11C158.502 244.071 158.388 240.318 158.092 236.273Z" fill="#E6E8E6" stroke="black" stroke-width="0.373973" stroke-miterlimit="10"/>
<path d="M207.917 234.387C207.912 234.208 207.906 234.03 207.884 233.863C207.705 230.917 206.383 228.29 204.34 225.832C199.889 220.421 191.985 215.816 184.954 210.469C181.478 207.831 178.22 205.014 175.682 201.821C166.555 190.361 153.143 175.113 157.326 164.469C157.471 161.656 141.982 187.349 143.862 190.24C144.12 190.637 144.56 190.899 144.919 191.214C144.882 191.269 144.845 191.323 144.82 191.394C147.582 193.816 150.967 197.228 153.468 199.823C154.848 201.256 155.95 202.445 156.533 203.073C156.636 203.19 156.728 203.277 156.791 203.36C159.757 206.685 163.212 209.914 166.907 213.012C172.726 217.868 179.131 222.358 185.134 226.186C191.398 230.182 197.237 233.468 201.535 235.744L207.683 236.432L207.917 234.387Z" fill="#E6E8E6" stroke="black" stroke-width="0.373973" stroke-miterlimit="10"/>
<path d="M194.929 213.339C189.055 206.266 181.89 196.556 175.325 186.037C172.713 181.855 170.194 177.537 167.886 173.204C164.699 167.238 161.931 161.255 159.897 155.564C159.784 155.519 159.669 155.489 159.556 155.444C158.106 158.569 155.915 161.074 155.77 163.887C151.587 174.531 166.562 190.362 175.689 201.823C178.227 205.016 181.485 207.832 184.961 210.47C191.991 215.817 199.896 220.422 204.347 225.833C202.625 222.974 199.756 219.157 194.929 213.339Z" fill="#E6E8E6" stroke="black" stroke-width="0.373973" stroke-miterlimit="10"/>
<path d="M131.079 251.785C131.501 250.211 131.963 248.672 132.45 247.166C137.143 250.029 142.932 253.472 148.243 255.618C143.92 267.296 143.037 270.839 141.971 274.847C140.78 279.342 137.951 287.901 136.236 298.109C134.641 297.269 132.911 296.545 131.456 296.317C129.521 296.009 127.224 296.068 125.405 296.443C125.189 278.586 127.577 264.197 131.079 251.785Z" fill="#EF6E22" stroke="black" stroke-width="0.373973" stroke-miterlimit="10"/>
<path d="M133.899 247.367C133.411 248.873 132.949 250.412 132.527 251.986L132.198 251.897C132.198 251.897 127.752 249.067 124.798 243.474C124.302 242.531 124.529 242.281 125.301 242.504C126.699 242.932 129.889 244.938 133.899 247.367Z" fill="#A2AAA2" stroke="black" stroke-width="0.373973" stroke-miterlimit="10"/>
<path d="M143.494 50.6074C152.468 57.5088 171.178 69.2054 175.343 73.2277C179.085 76.8515 196.989 90.7669 201.9 98.584C201.888 98.6713 201.862 98.7567 201.835 98.8421C198.457 99.0945 191.169 101.099 186.011 104.387C182.053 101.683 175.063 95.4968 167.824 87.7487C157.447 76.6223 146.568 62.3127 143.494 50.6074Z" fill="#EF6E22" stroke="black" stroke-width="0.373973" stroke-miterlimit="10"/>
<path d="M143.492 50.6069C146.567 62.3122 157.446 76.6217 167.822 87.7481C170.769 95.4759 176.32 104.27 176.32 104.27C176.32 104.27 173.055 104.567 165.192 100.531C167.932 105.843 169.612 113.488 169.612 113.488C169.612 113.488 165.93 113.239 164.171 109.781C163.45 112.13 164.683 118.587 165.626 123.342C164.101 124.722 162.602 126.016 161.137 127.167C139.57 107.844 142.664 65.8748 143.286 50.5937L143.492 50.6069Z" fill="#A35525" stroke="black" stroke-width="0.373973" stroke-miterlimit="10"/>
<path d="M150.841 325.289C150.023 323.546 147.954 322.804 145.667 320.387C145.211 319.91 144.751 319.358 144.289 318.717C144.074 318.435 143.893 318.129 143.726 317.824C141.68 314.075 142.561 309.019 140.046 304.672L140.094 304.649C140.173 304.615 140.252 304.581 140.333 304.533C139.297 304.17 138.31 303.561 137.04 302.958C134.96 301.963 132.096 300.951 126.956 300.934C126.762 300.937 126.554 300.938 126.346 300.94L126.347 301.044C126.004 301.16 125.672 301.308 125.348 301.501C119.594 304.471 118.291 314.483 117.902 316.581C117.497 318.795 116.817 323.463 114.908 327.772C112.999 332.08 112.462 335.374 113.961 337.358C115.23 339.058 117.055 338.758 118.764 338.323C118.74 339.046 118.855 339.729 119.128 340.345C119.206 340.534 119.316 340.712 119.425 340.89C120.814 343.022 124.3 342.962 126.317 341.901C127.535 343.98 130.63 344.505 131.869 344.244C135.269 343.505 135.135 338.043 134.078 333.138C133.157 328.875 134.632 324.152 135.748 321.96C136.876 319.785 138.689 322.404 139.478 325.241C140.245 328.015 142.763 331.902 146.158 332.068C146.261 332.081 146.35 332.079 146.454 332.078C149.998 332.026 151.834 327.381 150.841 325.289Z" fill="#754D24" stroke="black" stroke-width="0.373973" stroke-miterlimit="10"/>
<path d="M142.632 301.626C142.078 301.002 140.035 299.523 137.703 298.315C136.108 297.475 134.378 296.751 132.923 296.523C130.988 296.215 128.692 296.274 126.872 296.649C125.347 296.931 124.164 297.438 123.862 298.123C123.245 299.493 123.066 300.373 125.35 301.5C125.674 301.306 126.006 301.159 126.349 301.042L126.348 300.938C126.556 300.937 126.764 300.936 126.958 300.932C132.098 300.949 134.962 301.962 137.042 302.957C138.312 303.56 139.299 304.169 140.335 304.532C142.039 303.8 143.524 302.608 142.632 301.626Z" fill="#754D24" stroke="black" stroke-width="0.373973" stroke-miterlimit="10"/>
<path d="M236.583 161.354C236.583 161.354 236.72 161.17 236.959 160.845C237.081 160.686 237.229 160.493 237.401 160.272C237.58 160.056 237.745 159.786 237.995 159.543C238.509 159.074 239.062 158.424 239.77 157.898C240.13 157.638 240.5 157.37 240.877 157.096C241.261 156.834 241.69 156.624 242.102 156.383C242.508 156.128 242.945 155.937 243.392 155.781C243.835 155.622 244.256 155.415 244.701 155.325C245.141 155.223 245.568 155.124 245.975 155.048C246.379 154.963 246.782 154.979 247.142 154.943C247.505 154.932 247.834 154.871 248.131 154.928C248.425 154.962 248.683 154.993 248.895 155.019C249.313 155.078 249.552 155.114 249.552 155.114L249.403 156.21C249.403 156.21 249.186 156.22 248.807 156.233C248.619 156.236 248.392 156.237 248.131 156.241C247.873 156.229 247.578 156.311 247.258 156.334C246.94 156.386 246.59 156.384 246.231 156.485C245.873 156.585 245.493 156.669 245.099 156.757C244.704 156.841 244.32 157.023 243.911 157.145C243.5 157.269 243.098 157.429 242.704 157.622C242.309 157.807 241.896 157.963 241.518 158.171C241.145 158.392 240.778 158.61 240.422 158.82C239.693 159.222 239.106 159.712 238.541 160.08C237.48 160.943 236.759 161.522 236.759 161.522L236.583 161.354Z" fill="black"/>
<path d="M248.017 151.677C250.962 147.055 250.707 141.63 247.447 139.559C244.187 137.489 239.156 139.558 236.211 144.18C233.266 148.802 233.521 154.227 236.781 156.297C240.041 158.368 245.072 156.299 248.017 151.677Z" fill="black"/>
<path d="M242.325 146.289C243.635 146.467 244.835 145.593 245.006 144.337C245.177 143.081 244.254 141.918 242.944 141.74C241.635 141.561 240.434 142.435 240.263 143.692C240.093 144.948 241.016 146.111 242.325 146.289Z" fill="white"/>
<path d="M199.119 156.4C199.119 156.4 198.579 155.649 197.787 154.534C197.341 154.027 196.905 153.398 196.311 152.818C196.025 152.519 195.729 152.212 195.428 151.9C195.12 151.597 194.762 151.337 194.432 151.054C194.102 150.764 193.758 150.501 193.397 150.272C193.037 150.045 192.713 149.768 192.355 149.58C191.999 149.389 191.656 149.206 191.337 149.016C191.018 148.823 190.681 148.731 190.388 148.596C190.086 148.488 189.823 148.331 189.571 148.273C189.321 148.2 189.102 148.136 188.922 148.085C188.56 147.969 188.353 147.904 188.353 147.904L188.503 146.808C188.503 146.808 188.742 146.839 189.162 146.891C189.373 146.924 189.627 146.964 189.921 147.008C190.223 147.033 190.524 147.179 190.87 147.287C191.208 147.417 191.6 147.509 191.967 147.7C192.34 147.881 192.724 148.091 193.121 148.307C193.524 148.514 193.876 148.824 194.261 149.096C194.651 149.366 195.022 149.666 195.344 150.021C195.676 150.363 196.031 150.679 196.334 151.035C196.624 151.399 196.909 151.757 197.186 152.103C197.728 152.801 198.087 153.574 198.457 154.163C198.634 154.464 198.719 154.768 198.835 155.024C198.941 155.283 199.032 155.509 199.108 155.694C199.251 156.071 199.333 156.286 199.333 156.286L199.119 156.4Z" fill="black"/>
<path d="M200.498 151.355C204.193 150.231 205.888 145.071 204.285 139.83C202.681 134.59 198.386 131.252 194.691 132.377C190.997 133.501 189.302 138.661 190.905 143.902C192.509 149.142 196.804 152.48 200.498 151.355Z" fill="black"/>
<path d="M197.806 140.226C199.116 140.405 200.316 139.531 200.487 138.274C200.658 137.018 199.735 135.855 198.425 135.677C197.115 135.499 195.915 136.373 195.744 137.629C195.573 138.885 196.496 140.048 197.806 140.226Z" fill="white"/>
<path d="M185.574 127.995C193.032 122.335 197.607 121.475 202.084 121.342" stroke="black" stroke-width="1.27889" stroke-miterlimit="10"/>
<path d="M256.164 137.595C250.489 130.149 246.31 128.097 242.031 126.773" stroke="black" stroke-width="1.27889" stroke-miterlimit="10"/>
<path d="M213.364 195.199L213.029 195.153C206.973 194.33 204.309 184.742 203.42 181.551C202.534 178.345 206.315 176.442 215.61 177.706C224.905 178.971 228.041 181.815 226.344 184.669C224.636 187.507 219.507 196.035 213.452 195.211L213.364 195.199Z" fill="black"/>
<path d="M219.786 180.436C216.157 179.668 208.454 177.707 207.157 181.199C206.47 183.05 208.649 185.849 210.566 185.705C212.412 185.566 211.427 182.294 213.424 181.927C215.924 181.469 217.962 181.34 222.614 181.886C222.614 181.887 223.413 181.204 219.786 180.436Z" fill="#676767"/>
<path d="M159.198 77.2148C158.045 82.9211 164.48 87.896 164.731 93.4831C163.729 92.5222 162.414 91.7025 160.994 91.6044C161.561 93.7209 162.331 96.3218 163.384 98.1306C162.559 97.4163 161.549 97.4583 160.634 97.1173C159.403 101.273 162.122 107.534 163.861 111.219" stroke="black" stroke-width="0.35722" stroke-miterlimit="10"/>
<path d="M262.58 106.486C270.931 107.423 280.236 93.9339 287.91 90.5269C282.654 96.3719 276.621 111.601 270.548 116.414C274.835 115.555 282.033 111.99 286.365 112.812C284.311 113.151 277.356 118.632 276.373 120.164C278.789 120.66 283.084 120.259 284.654 122.078C275.18 124.022 273.486 127.375 269.838 126.879" stroke="black" stroke-width="0.35722" stroke-miterlimit="10"/>
<path d="M246.776 108.906C238.498 111.488 231.013 105.428 226.53 101.468C226.184 103.611 228.724 105.071 228.649 107.139C209.248 108.003 210.095 99.9604 200.28 101.098" stroke="black" stroke-width="0.35722" stroke-miterlimit="10"/>
<path d="M253.497 252.578C255.384 250.745 269.153 239.462 270.409 245.733C271.18 249.59 254.224 257.525 251.628 260.852" stroke="black" stroke-width="0.35722" stroke-miterlimit="10"/>
<path d="M157.866 236.233C151.845 238.501 146.713 220.212 140.76 223.444C136.753 225.619 150.066 239.333 151.934 241.605" stroke="black" stroke-width="0.35722" stroke-miterlimit="10"/>
<path d="M249.687 296.926C248.3 307.12 230.438 304.347 224.011 303.776C219.08 303.336 206.202 301.829 203.131 306.33C208.825 308.417 215.108 308.029 221.003 309.358C227.529 310.829 234.767 313.036 240.965 315.516" stroke="black" stroke-width="0.35722" stroke-miterlimit="10"/>
<path d="M194.795 212.021C202.309 203.217 191.385 193.388 180.756 192.313C181.897 190.551 183.35 189.626 185.582 188.826C182.115 184.759 178.103 183.119 175.913 177.772C173.623 172.182 170.914 167.245 172.909 162.14" stroke="black" stroke-width="0.357088" stroke-miterlimit="10"/>
<path d="M226.266 216.49C221.377 205.999 234.91 200.176 245.44 201.98C244.812 199.976 243.659 198.697 241.721 197.33C246.148 194.337 250.453 193.828 253.992 189.26C257.691 184.485 261.694 178.668 260.879 173.737" stroke="black" stroke-width="0.357088" stroke-miterlimit="10"/>
<path d="M198.626 228.746C198.377 234.117 194.485 238.927 192.731 243.942C190.646 249.907 189.698 257.033 188.5 263.208C186.376 274.166 184.233 285.825 185.91 296.726" stroke="black" stroke-width="2.80446" stroke-miterlimit="10"/>
<path d="M216.233 231.142C215.038 236.384 217.505 242.059 217.855 247.361C218.271 253.666 217.28 260.787 216.785 267.057C215.905 278.184 214.856 289.992 210.328 300.049" stroke="black" stroke-width="2.80446" stroke-miterlimit="10"/>
</g>
<defs>
<clipPath id="clip0_229_2347">
<rect width="210.601" height="241.42" fill="white" transform="translate(143.15 38.0078) rotate(7.74669)"/>
</clipPath>
</defs>
</svg>
