<svg width="112" height="142" viewBox="0 0 112 142" fill="none" xmlns="http://www.w3.org/2000/svg">
<path d="M12.9201 29.6898C5.53077 36.0738 -1.61487 45.6611 1.63805 54.8301C4.80811 63.9474 16.5171 67.0529 26.0301 65.5638C35.543 64.0746 44.4757 59.4599 54.113 58.5089C60.5603 57.8698 68.5614 60.2729 69.6857 66.6741C70.7219 72.3871 65.5075 77.1348 60.7694 80.5679C52.3443 86.7659 43.6293 93.2436 38.1718 102.157C32.647 111.087 31.0685 123.285 37.1489 131.801C44.7157 142.454 60.2878 143.249 72.9958 140.243C81.9339 138.107 90.4938 134.641 98.339 129.923C103.134 127.044 107.908 123.461 110.213 118.394C112.517 113.326 111.537 106.325 106.814 103.377C103.598 101.427 99.5899 101.573 95.8613 102.01C92.1328 102.446 88.2333 103.063 84.7221 101.678C81.2264 100.36 78.4349 96.2569 79.9053 92.7993C80.8839 90.5891 83.2348 89.4082 85.3321 88.3568C93.6848 84.3012 102.296 79.8316 107.578 72.3048C112.927 64.7624 113.64 53.118 106.763 46.9831C101.32 42.1465 93.3757 42.1394 86.1464 41.5421C83.6192 41.3465 80.8279 40.9284 79.1033 38.9884C76.493 35.9775 78.2947 30.8845 81.6192 28.6992C84.9437 26.5139 89.1539 26.3207 93.1983 26.0241C97.1755 25.743 101.479 25.0323 104.311 22.2521C111.395 15.1592 104.165 5.3501 96.6505 2.90532C88.8358 0.388217 77.4584 0.253125 69.2763 1.36395C49.4167 4.1097 27.8696 16.7407 12.9201 29.6898Z" fill="#F1EBFA"/>
</svg>
