<svg width="106" height="113" viewBox="0 0 106 113" fill="none" xmlns="http://www.w3.org/2000/svg">
<g opacity="0.3">
<path d="M22.2345 79.9342C24.578 80.4944 27.2793 80.6845 29.245 79.1525C31.2959 77.5976 31.8438 74.5263 31.1813 72.0535C30.313 68.8133 27.5689 66.0757 24.3209 65.2096C11.8238 61.8866 10.7729 77.0649 22.2345 79.9342Z" fill="#FE5C38"/>
<path d="M45.1991 53.7664C46.8604 54.5094 48.9648 54.8594 50.425 53.8284C51.8851 52.7974 52.0646 50.7387 51.8635 48.9648C51.3364 45.6332 49.2058 42.457 45.9974 41.3975C42.9824 40.3776 38.1449 41.7652 37.6716 45.4562C37.1984 49.1473 42.286 52.445 45.1991 53.7664Z" fill="#FE5C38"/>
<path d="M18.6377 25.2408C19.1538 24.0972 19.6242 22.7831 19.5373 21.4355C19.4504 20.0879 18.7438 18.815 17.5773 18.2136C16.7352 17.7995 15.8368 17.8574 14.9384 17.9154C9.33801 18.5021 -1.45891 24.5939 2.93924 31.4578C7.52016 39.0039 16.4089 30.2248 18.6377 25.2408Z" fill="#FE5C38"/>
<path d="M58.7201 100.134C63.066 101.346 67.8823 101.244 71.9401 99.3338C75.9979 97.424 79.2516 93.5363 79.9684 89.0488C80.6852 84.5614 78.5469 79.6508 74.507 77.5346C72.2823 76.3943 69.7287 76.0733 67.2893 76.1786C54.0693 76.9791 39.7209 94.7152 58.7201 100.134Z" fill="#FE5C38"/>
<path d="M90.7344 42.9361C92.0407 41.6721 92.237 39.3348 91.1207 37.8974C88.6262 34.7274 84.3187 37.0697 83.777 40.5049C83.0083 44.4579 88.3089 45.1396 90.7344 42.9361Z" fill="#FE5C38"/>
<path d="M52.7185 22.1405C54.3675 22.1556 56.2039 21.8463 57.0154 20.4408C57.4523 19.684 57.4797 18.7627 57.3364 17.8872C56.884 15.1753 54.3622 12.9265 51.5756 12.7593C48.8972 12.6544 45.2094 14.922 45.3041 18.0039C45.615 21.2107 50.2334 22.0752 52.7185 22.1405Z" fill="#FE5C38"/>
<path d="M70.5767 38.6498C71.1385 37.6767 71.2907 36.5392 71.1018 35.4932C71.021 34.5095 70.5991 33.6173 70.0067 32.7707C66.6122 28.2882 61.924 30.9152 62.3051 35.7482C62.5948 40.2402 67.5637 44.118 70.5767 38.6498Z" fill="#FE5C38"/>
</g>
</svg>
