<svg width="327" height="132" viewBox="0 0 327 132" fill="none" xmlns="http://www.w3.org/2000/svg">
<rect x="57" y="13.5293" width="266" height="68" rx="17.77" transform="rotate(-2.91545 57 13.5293)" fill="#FB4F9B"/>
<path d="M90.335 31.457C92.9916 31.3217 95.3214 31.6517 97.3244 32.4468C99.326 33.214 100.9 34.3955 102.047 35.9912C103.192 37.559 103.821 39.4475 103.933 41.6566C104.046 43.8657 103.612 45.8083 102.632 47.4843C101.652 49.1603 100.206 50.4956 98.2942 51.4901C96.3809 52.4567 94.096 53.0076 91.4394 53.1429L86.3221 53.4036L86.713 61.0796L78.4078 61.5026L76.9124 32.1406L90.335 31.457ZM90.6028 46.625C92.3086 46.5382 93.5764 46.1091 94.4063 45.3379C95.2347 44.5388 95.614 43.4541 95.5443 42.0838C95.4745 40.7136 94.9869 39.6731 94.0816 38.9622C93.1763 38.2513 91.8707 37.9393 90.1649 38.0262L85.5509 38.2612L85.9888 46.86L90.6028 46.625ZM119.685 51.5783L115.155 51.809L115.552 59.6109L107.247 60.0338L105.752 30.6719L119.174 29.9883C121.831 29.853 124.161 30.1829 126.164 30.9781C128.165 31.7453 129.739 32.9267 130.886 34.5225C132.031 36.0903 132.66 37.9787 132.773 40.1879C132.881 42.3131 132.472 44.1983 131.547 45.8435C130.648 47.4594 129.298 48.7617 127.498 49.7505L134.302 58.656L125.409 59.1089L119.685 51.5783ZM124.384 40.6151C124.314 39.2449 123.826 38.2043 122.921 37.4935C122.016 36.7826 120.71 36.4706 119.004 36.5575L114.39 36.7924L114.828 45.3913L119.442 45.1563C121.148 45.0694 122.416 44.6404 123.246 43.8692C124.074 43.07 124.453 41.9853 124.384 40.6151ZM151.456 58.3712C148.352 58.5292 145.522 58.0145 142.966 56.8269C140.438 55.638 138.402 53.9193 136.858 51.6709C135.341 49.4212 134.509 46.8422 134.361 43.9339C134.213 41.0257 134.779 38.3755 136.059 35.9833C137.367 33.5897 139.218 31.673 141.612 30.2334C144.033 28.7924 146.796 27.9928 149.9 27.8347C153.004 27.6766 155.82 28.1921 158.348 29.3811C160.904 30.5686 162.94 32.2873 164.456 34.5371C166 36.7854 166.847 39.3637 166.995 42.272C167.143 45.1802 166.563 47.8311 165.255 50.2247C163.975 52.6169 162.124 54.5336 159.702 55.9746C157.308 57.4142 154.559 58.2131 151.456 58.3712ZM151.105 51.4921C152.587 51.4166 153.912 50.9987 155.079 50.2384C156.245 49.478 157.146 48.4509 157.781 47.1569C158.415 45.835 158.69 44.3491 158.606 42.6992C158.522 41.0493 158.098 39.613 157.335 38.3903C156.57 37.1395 155.569 36.1952 154.331 35.5574C153.093 34.9195 151.733 34.6383 150.251 34.7138C148.769 34.7893 147.444 35.2072 146.277 35.9675C145.11 36.7279 144.21 37.769 143.577 39.0909C142.942 40.3849 142.666 41.8568 142.75 43.5067C142.834 45.1565 143.259 46.6068 144.023 47.8576C144.786 49.0803 145.787 50.0106 147.025 50.6485C148.263 51.2864 149.623 51.5675 151.105 51.4921ZM191.911 56.1006C189.478 56.2245 187.257 55.8329 185.248 54.9259C183.239 54.0189 181.63 52.6991 180.421 50.9663C179.239 49.2322 178.59 47.2326 178.475 44.9675C178.361 42.7304 178.804 40.6893 179.803 38.8441C180.831 36.9974 182.284 35.5356 184.164 34.4586C186.07 33.3522 188.253 32.7363 190.714 32.611C193.175 32.4857 195.41 32.8765 197.419 33.7835C199.426 34.6626 201.02 35.9692 202.202 37.7033C203.382 39.4095 204.03 41.3951 204.146 43.6602C204.261 45.9252 203.819 47.9804 202.82 49.8256C201.82 51.6708 200.367 53.1466 198.461 54.253C196.555 55.3594 194.371 55.9753 191.911 56.1006ZM191.588 49.7668C192.986 49.6956 194.109 49.1618 194.955 48.1655C195.8 47.1412 196.179 45.7761 196.092 44.0703C196.007 42.3925 195.492 41.101 194.549 40.1958C193.606 39.2906 192.435 38.8736 191.037 38.9448C189.639 39.016 188.516 39.5498 187.67 40.5461C186.824 41.5425 186.443 42.8796 186.529 44.5574C186.615 46.2632 187.131 47.5826 188.076 48.5158C189.019 49.421 190.19 49.838 191.588 49.7668ZM219.783 33.5277C221.992 33.4152 223.93 33.7511 225.596 34.5354C227.261 35.2917 228.553 36.4454 229.473 37.9966C230.42 39.5185 230.946 41.328 231.053 43.4253C231.163 45.5785 230.7 47.5085 229.666 49.2154C228.658 50.8928 227.199 52.2428 225.288 53.2653C223.404 54.2584 221.246 54.8169 218.813 54.9408C214.814 55.1444 211.563 54.0624 209.059 51.6947C206.556 49.3269 205.177 45.6543 204.924 40.6768C204.448 31.3369 208.309 25.6731 216.506 23.6856L227.431 21.0265L228.861 27.6403L219.39 29.9311C216.98 30.5024 215.227 31.3206 214.132 32.3857C213.063 33.4214 212.465 34.8817 212.336 36.7667C214.281 34.7612 216.763 33.6815 219.783 33.5277ZM218.547 48.8985C219.973 48.8258 221.069 48.3075 221.832 47.3434C222.624 46.3778 222.985 45.2099 222.916 43.8397C222.842 42.3856 222.365 41.2744 221.484 40.5062C220.603 39.71 219.463 39.3475 218.065 39.4187C216.638 39.4914 215.513 39.9692 214.689 40.8523C213.893 41.7339 213.532 42.9018 213.606 44.3559C213.677 45.7541 214.169 46.8785 215.081 47.7292C215.994 48.5799 217.149 48.9697 218.547 48.8985ZM256.203 29.6543L257.149 48.2362C257.365 52.4587 256.393 55.6763 254.235 57.889C252.106 60.1281 248.93 61.3552 244.708 61.5703C242.498 61.6828 240.416 61.5365 238.461 61.1314C236.534 60.7249 234.874 60.0665 233.482 59.1561L236.092 53.4299C237.026 54.1394 238.174 54.6697 239.538 55.0208C240.931 55.3984 242.298 55.553 243.641 55.4847C245.654 55.3821 247.113 54.8453 248.016 53.874C248.92 52.9028 249.326 51.5084 249.233 49.6907L249.208 49.1874C247.584 50.8962 245.5 51.8153 242.956 51.9449C240.02 52.0945 237.626 51.3472 235.776 49.7032C233.954 48.0577 232.955 45.5013 232.778 42.0337L232.21 30.8762L240.18 30.4703L240.682 40.3276C240.77 42.0613 241.156 43.3033 241.839 44.0535C242.522 44.8038 243.479 45.1475 244.709 45.0849C245.967 45.0208 246.965 44.5214 247.703 43.5867C248.468 42.6505 248.805 41.2876 248.714 39.4979L248.233 30.0602L256.203 29.6543ZM278.666 39.3603C281.311 40.0948 282.702 41.8182 282.84 44.5307C282.944 46.5721 282.229 48.2206 280.695 49.4762C279.16 50.7039 276.84 51.3968 273.736 51.5549L260.942 52.2064L259.785 29.4719L271.991 28.8503C274.955 28.6993 277.274 29.0999 278.949 30.0519C280.651 31.0025 281.55 32.4146 281.646 34.2882C281.701 35.3788 281.471 36.3578 280.954 37.2252C280.438 38.0926 279.675 38.8043 278.666 39.3603ZM267.381 38.2529L271.743 38.0307C273.589 37.9367 274.477 37.2046 274.407 35.8344C274.34 34.5201 273.384 33.91 271.538 34.0039L267.176 34.2261L267.381 38.2529ZM272.76 46.4319C274.689 46.3336 275.619 45.5854 275.547 44.1872C275.476 42.789 274.504 42.1376 272.63 42.2331L267.597 42.4894L267.81 46.684L272.76 46.4319ZM296.587 51.064C288.925 51.4542 284.93 48.4195 284.601 41.9599L283.902 28.2436L291.83 27.8399L292.197 35.0545C292.793 34.6317 293.601 34.2681 294.623 33.9637C295.673 33.658 296.869 33.4709 298.211 33.4025C301.064 33.2573 303.337 33.8564 305.031 35.2C306.753 36.5141 307.684 38.5554 307.825 41.3238C307.977 44.3159 307.044 46.6484 305.027 48.3212C303.036 49.9646 300.223 50.8788 296.587 51.064ZM296.268 45.6132C297.442 45.5534 298.321 45.2002 298.905 44.5537C299.488 43.8792 299.751 42.9966 299.696 41.906C299.642 40.8434 299.293 40.0481 298.649 39.5202C298.032 38.9628 297.164 38.7127 296.045 38.7696C295.234 38.8109 294.515 38.9878 293.886 39.3002C293.285 39.6111 292.815 40.0136 292.475 40.5075L292.565 42.2692C292.622 43.3877 292.96 44.2397 293.578 44.825C294.225 45.4088 295.121 45.6716 296.268 45.6132Z" fill="white"/>
<circle cx="71.9149" cy="67.7448" r="6" transform="rotate(-35.7304 71.9149 67.7448)" fill="#F4F1FB"/>
<mask id="mask0_301_2284" style="mask-type:alpha" maskUnits="userSpaceOnUse" x="47" y="37" width="39" height="38">
<ellipse cx="66.5282" cy="55.9076" rx="18.5924" ry="18.6654" transform="rotate(-35.7304 66.5282 55.9076)" fill="#F4F1FB"/>
</mask>
<g mask="url(#mask0_301_2284)">
<path d="M17.9469 100.044C9.36582 58.0656 60.7704 52.8735 75.1403 71.1445C93.1569 94.0521 26.8911 143.8 17.9469 100.044Z" stroke="#D7D2F9" stroke-width="2"/>
</g>
<path d="M17.9469 100.044C9.36582 58.0655 60.7704 52.8734 75.1403 71.1444C93.1569 94.052 26.8911 143.8 17.9469 100.044Z" stroke="#D7D2F9" stroke-width="2"/>
</svg>
