<svg width="559" height="587" viewBox="0 0 559 587" fill="none" xmlns="http://www.w3.org/2000/svg">
<g clip-path="url(#clip0_230_4312)">
<g clip-path="url(#clip1_230_4312)">
<path d="M192.864 536.464C156.133 523.24 135.978 484.443 145.239 447.365C109.195 460.075 68.6729 443.66 52.0511 408.337C35.4288 373.015 48.6098 331.329 81.3772 311.657C46.904 295.159 29.8569 254.899 43.0802 218.169C56.3035 181.438 95.1005 161.282 132.18 170.542C119.469 134.5 135.884 93.9778 171.207 77.3558C206.529 60.7339 248.216 73.9148 267.887 106.682C284.385 72.2089 324.645 55.1618 361.375 68.3851C398.106 81.6084 418.262 120.405 409.001 157.484C445.044 144.774 485.567 161.189 502.188 196.511C518.81 231.834 505.629 273.521 472.862 293.191C507.335 309.69 524.382 349.949 511.159 386.68C497.936 423.411 459.138 443.566 422.06 434.305C434.77 470.349 418.355 510.871 383.032 527.492C347.711 544.115 306.024 530.935 286.354 498.167C269.854 532.64 229.595 549.687 192.864 536.464Z" fill="#E1DBFC"/>
<mask id="mask0_230_4312" style="mask-type:alpha" maskUnits="userSpaceOnUse" x="38" y="63" width="478" height="478">
<path d="M192.864 536.464C156.133 523.24 135.978 484.443 145.239 447.365C109.195 460.075 68.6729 443.66 52.0511 408.337C35.4288 373.015 48.6098 331.329 81.3772 311.657C46.904 295.159 29.8569 254.899 43.0802 218.169C56.3035 181.438 95.1005 161.282 132.18 170.542C119.469 134.5 135.884 93.9778 171.207 77.3558C206.529 60.7339 248.216 73.9148 267.887 106.682C284.385 72.2089 324.645 55.1618 361.375 68.3851C398.106 81.6084 418.262 120.405 409.001 157.484C445.044 144.774 485.567 161.189 502.188 196.511C518.81 231.834 505.629 273.521 472.862 293.191C507.335 309.69 524.382 349.949 511.159 386.68C497.936 423.411 459.138 443.566 422.06 434.305C434.77 470.349 418.355 510.871 383.032 527.492C347.711 544.115 306.024 530.935 286.354 498.167C269.854 532.64 229.595 549.687 192.864 536.464Z" fill="#E1DBFC"/>
</mask>
<g mask="url(#mask0_230_4312)">
<path d="M195.79 166.277C198.051 164.34 200.357 162.172 202.7 159.865C202.82 160.348 202.919 160.806 203.042 161.265C203.896 160.472 204.755 159.631 205.664 158.749C205.686 158.774 205.683 158.798 205.683 158.798C204.744 159.748 203.885 160.589 203.057 161.361C200.749 163.553 198.787 165.069 196.405 166.783C196.226 166.931 196.049 167.056 195.872 167.181C195.848 167.179 195.85 167.156 195.827 167.154C196.004 167.029 196.181 166.903 196.36 166.755C196.16 166.618 195.986 166.461 195.79 166.277Z" fill="#EF6E22" stroke="black" stroke-width="0.597833" stroke-miterlimit="10"/>
<path d="M330.701 575.556C344.008 575.85 358.833 586.526 371.381 589.133C389.821 592.972 379.996 583.446 377.955 572.095C386.242 571.97 390.21 581.163 399.277 580.78C398.971 578.486 399.937 575.721 400.379 573.002C404.26 573.481 407.613 574.288 410.42 577.404C413.822 574.889 408.757 551.059 408.572 546.441C414.009 548.48 422.849 557.16 430.351 564.96C438.733 586.173 442.511 612.149 440.923 647.772C384.944 621.753 351.412 599.191 330.701 575.556Z" fill="#A35525" stroke="black" stroke-width="0.597833" stroke-miterlimit="10"/>
<path d="M403.38 376.849L402.492 376.743C402.895 376.733 403.176 376.759 403.38 376.849Z" fill="#A57C52" stroke="black" stroke-width="0.597833" stroke-miterlimit="10"/>
<path d="M385.109 381.203C385.621 381.038 386.133 380.874 386.621 380.707C386.83 383.039 386.987 385.413 387.07 387.827C387.076 388.016 387.082 388.206 387.088 388.395C388.057 408.99 386.578 432.259 379.789 459.989C377.091 458.747 373.536 457.826 370.412 457.606C368.063 457.435 365.108 457.938 362.321 458.67C363.338 442.154 362.025 427.803 361.794 420.373C361.583 413.747 361.487 407.91 358.974 388.163C367.491 386.832 377.06 383.852 385.109 381.203Z" fill="#EF6E22" stroke="black" stroke-width="0.597833" stroke-miterlimit="10"/>
<path d="M402.93 378.439C397.737 384.445 391.713 387.447 389.37 388.48C389.288 386.066 389.13 383.691 388.922 381.36C388.433 381.527 388.339 380.89 388.822 380.73C395.251 378.612 400.329 376.897 402.496 376.747L403.385 376.854C403.817 377.035 403.699 377.544 402.93 378.439Z" fill="#A57C52" stroke="black" stroke-width="0.597833" stroke-miterlimit="10"/>
<path d="M383.845 324.422C382.747 321.229 381.743 318.304 380.959 315.801C379.836 312.37 379.04 309.747 378.697 308.347C378.661 308.226 378.649 308.107 378.61 308.009C378.51 308.07 378.408 308.155 378.28 308.261C377.976 308.469 377.667 308.747 377.332 309.046C376.582 309.731 375.801 310.508 375.156 311.085C375.156 311.085 375.158 311.062 375.135 311.059C375.132 311.083 375.107 311.104 375.056 311.146C375.021 311.261 374.94 311.372 374.859 311.482C371.048 315.847 366.777 322.622 363.413 329.553C362.942 330.547 362.495 331.544 362.047 332.54C361.125 334.578 360.27 336.646 359.412 338.76C357.249 344.222 355.33 349.848 353.675 355.192C351.751 361.383 350.218 367.187 349.139 371.923C349.14 372.419 349.085 374.538 349.061 375.809C349.067 376.258 349.051 376.682 349.039 377.058C349.025 377.717 349.033 378.402 349.016 379.085C351.573 377.53 354.587 376.135 357.829 374.832C366.643 371.334 377.228 368.614 385.706 365.415C389.944 363.828 393.649 362.12 396.341 360.129L396.462 360.093C392.594 349.327 387.584 335.317 383.845 324.422Z" fill="#F8F7F5" stroke="black" stroke-width="0.597833" stroke-miterlimit="10"/>
<path d="M375.139 311.06C375.87 310.325 376.597 309.637 377.338 309.045C376.588 309.731 375.806 310.508 375.161 311.086C375.161 311.086 375.163 311.062 375.139 311.06Z" fill="#F8F7F5" stroke="black" stroke-width="0.597833" stroke-miterlimit="10"/>
<path d="M384.238 173.429C379.581 166.555 373.88 160.739 366.756 157.009C365.584 156.9 370.15 154.587 376.264 148.078C376.264 148.078 372.894 146.183 360.703 145.828C360.703 145.828 363.663 143.744 371.747 128.781C363.907 131.473 354.208 134.322 346.957 133.223C366.612 120.942 411.005 58.533 432.326 53.5088C432.857 53.3931 433.362 53.2985 433.839 53.2485C423.222 84.02 408.673 160.602 384.238 173.429Z" fill="#A35525" stroke="black" stroke-width="0.597833" stroke-miterlimit="10"/>
<path d="M380.399 238.925L380.397 238.948C389.222 258.456 359.703 279.423 339.714 295.284C333.945 299.867 326.879 303.386 319.614 306.509C305.548 312.586 290.692 317.244 282.833 325.479C281.284 327.388 279.918 329.361 278.81 331.358C278.391 332.31 278.037 333.315 277.775 334.352L277.541 337.634L283.721 338.044C289.278 336.508 295.578 334.357 302.284 331.654C326.346 323.346 359.998 310.054 368.059 304.221L368.038 304.195C368.586 303.892 369.085 303.608 369.61 303.303C371.132 302.454 372.627 301.626 374.2 300.734C374.673 300.471 375.222 300.168 375.798 299.821C380.684 297.113 388.529 292.841 391.459 291.084C391.809 290.881 392.084 290.718 392.285 290.595C396.613 285.24 380.488 237.21 380.399 238.925Z" fill="#F8F7F5" stroke="black" stroke-width="0.597833" stroke-miterlimit="10"/>
<path d="M374.871 311.484C371.06 315.849 366.789 322.624 363.425 329.555C366.582 322.817 370.123 316.776 373.934 312.412C374.305 311.974 374.7 311.539 375.068 311.149C375.033 311.263 374.952 311.374 374.871 311.484Z" fill="#F8F7F5" stroke="black" stroke-width="0.597833" stroke-miterlimit="10"/>
<path d="M374.826 301.383C374.612 301.15 374.418 300.944 374.201 300.735C372.629 301.627 371.133 302.455 369.612 303.304C371.76 305.628 373.719 308.712 375.091 310.987C375.113 311.013 375.134 311.038 375.132 311.062C375.862 310.327 376.588 309.64 377.329 309.048C377.664 308.749 377.974 308.471 378.277 308.263C378.405 308.157 378.507 308.072 378.607 308.011C377.888 305.065 376.358 302.964 374.826 301.383Z" fill="#F8F7F5" stroke="black" stroke-width="0.597833" stroke-miterlimit="10"/>
<path d="M348.673 470.89C349.186 471.48 349.63 472.04 350.03 472.573C387.85 505.963 415.958 528.375 430.357 564.966C422.855 557.166 414.016 548.486 408.578 546.447C408.764 551.065 413.829 574.895 410.426 577.41C407.619 574.294 404.266 573.487 400.386 573.008C399.943 575.727 398.977 578.492 399.284 580.786C390.216 581.169 386.248 571.976 377.961 572.101C380.003 583.452 389.827 592.978 371.387 589.139C358.839 586.532 344.015 575.856 330.707 575.562C327.821 572.274 325.176 568.936 322.747 565.572C332.772 540.409 337.633 525.264 339.274 495.168C341.232 494.713 343.26 494.005 345.299 493.18C345.395 493.165 345.495 493.104 345.593 493.066C345.525 493.036 345.436 492.98 345.342 492.972C346.133 489.294 346.84 485.254 347.426 480.99C347.893 477.754 348.302 474.371 348.673 470.89Z" fill="#EF6E22" stroke="black" stroke-width="0.597833" stroke-miterlimit="10"/>
<path d="M345.277 493.177C343.238 494.001 341.209 494.709 339.252 495.164C339.342 493.686 339.411 492.183 339.461 490.63C341.497 491.362 343.459 492.134 345.32 492.968C345.313 493.038 345.307 493.109 345.277 493.177Z" fill="#A57C52" stroke="black" stroke-width="0.597833" stroke-miterlimit="10"/>
<path d="M352.942 389.363C351.516 389.442 350.169 389.435 348.88 389.315C348.936 385.663 348.972 382.221 349.027 379.088C351.584 377.533 354.598 376.138 357.84 374.835C366.654 371.337 377.239 368.618 385.717 365.419C389.955 363.831 393.66 362.123 396.352 360.132L396.473 360.096C399.936 369.644 403.613 376.876 403.613 376.876L403.379 376.854C403.174 376.764 402.893 376.738 402.49 376.748C400.158 376.908 394.466 378.88 387.345 381.214C379.002 383.977 368.744 387.246 359.698 388.67C357.346 389.041 355.076 389.302 352.942 389.363Z" fill="#F8F7F5" stroke="black" stroke-width="0.597833" stroke-miterlimit="10"/>
<path d="M339.254 495.168C339.345 493.69 339.414 492.186 339.463 490.634C339.374 490.578 339.259 490.544 339.167 490.512C339.008 490.45 338.871 490.39 338.665 490.323C337.364 489.825 336.011 489.369 334.635 488.91C320.697 484.216 303.849 480.548 285.303 477.856C282.341 477.415 279.352 477.019 276.313 476.642C269.162 475.74 261.808 474.985 254.303 474.334C232.418 472.464 209.294 471.704 186.575 471.927C186.079 471.928 185.606 471.931 185.109 471.932C181.629 519.507 188.555 533.246 201.747 582.561C207.333 584.779 224.834 585.747 229.534 576.392C231.345 572.79 228.47 563.384 228.649 559.17C228.864 554.115 229.593 551.486 227.74 546.377C227.068 544.526 225.323 543.052 224.782 541.803C222.918 537.498 228.908 536.106 228.619 531.367C228.326 526.583 229.007 521.831 229.388 517.072C229.7 513.184 228.847 508.404 230.064 504.721C230.495 503.421 280.103 510.191 284.826 510.632C287.313 510.866 289.816 511.203 292.315 511.18C292.341 515.749 289.894 520.532 289.473 525.205C288.976 530.723 289.374 536.435 291.158 541.707C292.631 546.06 293.274 546.667 290.463 550.608C289.263 552.29 287.708 553.478 287.173 555.526C286.156 559.414 287.588 564.019 287.005 568.127C286.221 573.66 285.244 579.173 284.211 584.664C287.655 594.659 305.256 595.824 311.143 594.296C315.615 583.079 319.435 573.784 322.729 565.573C332.752 540.409 337.613 525.265 339.254 495.168Z" fill="#00567D" stroke="black" stroke-width="0.597833" stroke-miterlimit="10"/>
<path d="M184.279 459.112C215.166 458.517 295.773 461.745 347.326 480.958C347.37 480.986 347.394 480.988 347.417 480.99C346.832 485.254 346.125 489.294 345.333 492.972C343.472 492.138 341.511 491.365 339.474 490.633C339.385 490.578 339.27 490.543 339.178 490.511C339.019 490.449 338.882 490.389 338.699 490.325L338.676 490.323C337.374 489.824 336.022 489.368 334.646 488.91C320.708 484.215 303.86 480.548 285.314 477.855C282.352 477.415 279.363 477.018 276.324 476.641C269.173 475.74 261.819 474.985 254.314 474.334C232.429 472.463 209.305 471.704 186.587 471.926C186.09 471.927 185.617 471.93 185.12 471.931C184.79 471.924 184.459 471.917 184.127 471.933C184.094 467.966 184.176 464.034 184.314 460.012L184.279 459.112Z" fill="#F8F7F5" stroke="black" stroke-width="0.597833" stroke-miterlimit="10"/>
<path d="M381.974 237.721C381.974 237.721 381.526 235.393 380.352 233.634C377.222 240.587 371.385 248.184 364.435 255.796C362.273 258.19 359.971 260.572 357.622 262.949C353.915 266.709 350.048 270.408 346.241 273.971C344.116 275.967 341.996 277.917 339.929 279.801C339.878 279.844 339.825 279.91 339.773 279.952C324.702 293.792 296.433 308.434 282.837 325.479C290.696 317.244 305.552 312.586 319.617 306.509C326.883 303.386 333.949 299.867 339.718 295.284C359.707 279.423 390.799 257.229 381.974 237.721Z" fill="#F8F7F5" stroke="black" stroke-width="0.597833" stroke-miterlimit="10"/>
<path d="M282.829 325.488C281.28 327.397 279.914 329.37 278.806 331.367C279.763 329.214 281.127 327.265 282.829 325.488Z" fill="#F8F7F5" stroke="black" stroke-width="0.597833" stroke-miterlimit="10"/>
<path d="M260.936 261.223C264.248 267.807 274.626 283.331 283.217 275.872C290.261 284.785 303.324 271.442 307.817 265.584C312.29 259.7 330.645 231.914 336.722 225.802C342.695 219.798 348.155 226.936 350.082 236.978C349.435 237.319 348.784 237.707 348.157 238.097C348.497 243.084 342.328 248.904 329.397 258.036C316.111 267.418 305.17 277.017 298.99 282.955C292.838 288.848 285.756 292.035 280.763 291.57C275.77 291.106 269.398 286.667 264.439 279.74C259.46 272.765 250.478 261.311 239.151 249.64C228.126 238.279 223.137 231.421 224.391 226.582C224.427 226.444 224.464 226.306 224.5 226.168L224.4 225.97C228.087 216.072 234.999 209.637 239.843 216.789C244.688 223.917 257.603 254.613 260.936 261.223Z" fill="#F28B4E" stroke="black" stroke-width="0.597833" stroke-miterlimit="10"/>
<path d="M277.7 333.518C278.028 332.793 278.402 332.073 278.824 331.357C278.404 332.309 278.05 333.315 277.788 334.352C277.768 334.067 277.747 333.782 277.7 333.518Z" fill="#A35525" stroke="black" stroke-width="0.597833" stroke-miterlimit="10"/>
<path d="M379.661 228.713C369.838 229.852 358.94 232.118 350.094 236.981C349.448 237.322 348.797 237.71 348.169 238.1C348.509 243.087 342.341 248.907 329.409 258.039C316.124 267.421 305.182 277.02 299.002 282.958C292.851 288.851 285.769 292.038 280.776 291.573C275.783 291.109 269.41 286.67 264.451 279.743C259.473 272.768 250.49 261.314 239.163 249.643C228.138 238.282 223.149 231.424 224.403 226.585C216.599 219.489 205.751 214.869 195.735 211.72C199.371 220.67 204.198 230.038 209.691 239.35C213.673 246.115 217.988 252.84 222.443 259.342C233.642 275.697 245.744 290.721 255.607 301.619C263.71 310.584 268.551 316.485 271.495 320.935C274.925 324.723 277.215 328.829 277.7 333.523C278.028 332.798 278.402 332.078 278.824 331.362C279.78 329.21 281.144 327.26 282.846 325.484C296.443 308.439 324.711 293.797 339.783 279.956C339.834 279.914 339.888 279.848 339.939 279.806C342.006 277.922 344.126 275.972 346.25 273.975C350.057 270.412 353.924 266.714 357.632 262.953C359.981 260.576 362.283 258.195 364.444 255.8C371.394 248.189 377.232 240.591 380.361 233.639C380.249 232.047 380.024 230.398 379.661 228.713Z" fill="#A35525" stroke="black" stroke-width="0.597833" stroke-miterlimit="10"/>
<path d="M198.328 340.743C200.8 338.826 202.218 342.639 200.128 355.446C200.005 356.26 199.855 357.119 199.699 358.025C199.513 353.17 199.077 347.184 198.328 340.743Z" fill="#EF9F20" stroke="black" stroke-width="0.597833" stroke-miterlimit="10"/>
<path d="M240.843 322.795C251.118 328.753 260.667 333.606 267.686 336.949L277.553 337.631L283.733 338.04C289.29 336.505 295.59 334.354 302.296 331.651C326.358 323.342 360.01 310.051 368.05 304.192C368.598 303.889 369.097 303.605 369.622 303.3C371.771 305.623 373.73 308.708 375.102 310.983C375.098 311.03 375.091 311.1 375.064 311.144C374.696 311.535 374.301 311.97 373.929 312.407C370.119 316.772 366.578 322.813 363.421 329.551C362.95 330.545 362.503 331.542 362.055 332.538C361.133 334.576 360.278 336.644 359.42 338.758C357.256 344.22 355.338 349.846 353.682 355.19C351.759 361.381 350.226 367.185 349.147 371.921C349.148 372.417 349.093 374.536 349.069 375.807C349.064 376.114 349.064 376.373 349.048 376.537C349.057 376.703 349.041 376.867 349.047 377.056C349.033 377.715 349.04 378.4 349.024 379.083C348.969 382.216 348.933 385.658 348.877 389.31C350.166 389.43 351.513 389.437 352.939 389.357C352.842 395.224 352.502 405.999 351.949 418.547C351.912 419.204 351.898 419.864 351.86 420.521C351.462 427.524 351.985 435.143 350.517 442.021C349.909 444.878 348.584 445.083 347.363 447.416C346.069 449.887 347.848 451.494 348.747 453.649C350.015 456.693 349.831 457.738 349.376 460.994C348.456 467.605 348.221 474.326 347.328 480.951C295.776 461.739 215.168 458.51 184.282 459.105L184.211 457.329C184.635 447.432 186.401 437.521 187.915 427.75C188.678 422.828 187.922 417.151 189.229 412.533C190.6 407.686 194.425 403.927 195.813 399.052C196.99 394.912 194.441 393.032 193.822 389.263C193.154 385.195 195.237 381.63 196.277 377.904C197.428 373.79 197.775 369.29 198.512 365.08C198.967 362.48 199.376 360.111 199.713 358.019C199.868 357.113 200.019 356.254 200.142 355.44C202.232 342.633 200.813 338.82 198.342 340.738C197.7 335.18 196.853 329.297 195.734 323.53C195.28 321.293 194.822 319.104 194.291 316.931C192.31 308.488 189.704 300.671 186.334 294.955C188.459 292.698 191.011 290.435 194.026 288.261C198.989 293.371 204.726 298.294 210.838 302.992C220.462 310.352 230.995 317.089 240.843 322.795Z" fill="#F8F7F5" stroke="black" stroke-width="0.597833" stroke-miterlimit="10"/>
<path d="M155.502 337.726C157.78 340.18 161.107 342.542 164.979 344.884C172.722 349.592 182.624 354.218 190.641 359.282C193.587 361.16 196.292 363.087 198.518 365.087C197.994 368.177 197.395 371.566 196.776 375.166C193.567 374.844 189.993 373.874 186.263 372.536C177.635 369.468 168.156 364.363 160.466 360.108C153.898 356.5 148.667 353.513 146.404 352.925L146.415 352.808C146.415 352.808 150.226 346.414 155.39 337.668L155.502 337.726Z" fill="#F8F7F5" stroke="black" stroke-width="0.597833" stroke-miterlimit="10"/>
<path d="M283.249 275.871C274.658 283.33 264.281 267.807 260.968 261.222C257.635 254.612 244.72 223.916 239.875 216.788C235.031 209.636 228.119 216.072 224.432 225.969L224.532 226.167C224.496 226.306 224.459 226.444 224.423 226.582C216.619 219.485 205.77 214.866 195.755 211.716C195.572 211.652 195.386 211.611 195.203 211.547C191.275 210.308 187.49 209.319 184.092 208.484C180 207.49 176.452 206.735 173.864 206.093L173.903 205.931C176.285 197.093 187.473 187.138 203.689 178.029C196.042 175.335 192.042 176.143 188.056 172.233C190.441 170.732 193.09 168.69 195.821 166.278C196.017 166.461 196.191 166.619 196.391 166.755C196.212 166.904 196.035 167.029 195.858 167.154C195.881 167.156 195.879 167.18 195.902 167.182C196.08 167.057 196.257 166.932 196.436 166.783C198.818 165.07 200.779 163.554 203.088 161.362C203.916 160.589 204.775 159.749 205.714 158.798C205.714 158.798 205.716 158.775 205.695 158.749C204.785 159.632 203.927 160.472 203.073 161.266C202.95 160.806 202.851 160.349 202.73 159.865C214.75 148.077 227.48 132.981 233.089 128.854C233.392 128.646 233.697 128.415 234 128.208C242.017 122.606 253.52 118.91 258.899 118.278C258.935 118.14 258.972 118.002 258.985 117.861C260.182 112.617 260.164 107.731 256.92 105.494C269.4 107.056 278.559 110.268 283.766 117.831C281.266 106.579 280.24 100.585 275.334 98.1701C302.99 105.863 329.512 117.368 332.086 127.824C340.338 98.0829 359.019 69.3358 432.353 53.4125L432.368 53.5082C411.047 58.5325 366.654 120.941 346.999 133.223C354.25 134.322 363.949 131.473 371.789 128.781C363.705 143.743 360.745 145.827 360.745 145.827C372.936 146.183 376.306 148.077 376.306 148.077C370.192 154.587 365.626 156.899 366.798 157.008C373.922 160.738 379.623 166.554 384.28 173.429C387.98 178.893 391.001 185.05 393.559 191.352C385.427 194.134 377.888 194.613 376.352 194.092C390.671 203.588 402.642 217.491 402.421 227.239C399.496 227.415 395.114 227.503 389.977 227.827C387.53 227.953 384.933 228.16 382.213 228.426C381.378 228.513 380.542 228.601 379.681 228.71C369.857 229.848 358.96 232.114 350.114 236.978C348.187 226.936 342.727 219.798 336.755 225.801C330.677 231.913 312.322 259.7 307.849 265.584C303.356 271.442 290.293 284.785 283.249 275.871Z" fill="#EF6E22" stroke="black" stroke-width="0.597833" stroke-miterlimit="10"/>
<path d="M202.702 159.863C200.873 152.332 198.467 142.103 199.459 138.302C202.503 143.706 208.4 143.853 208.4 143.853C208.4 143.853 205.199 131.758 200.462 123.46C213.294 129.373 218.489 128.676 218.489 128.676C218.489 128.676 209.027 115.007 203.797 102.865C215.884 114.749 227.469 124.156 233.972 128.205C233.669 128.413 233.364 128.644 233.061 128.852C227.452 132.979 214.722 148.075 202.702 159.863Z" fill="#C57251" stroke="black" stroke-width="0.597833" stroke-miterlimit="10"/>
<path d="M182.552 289.763C184.213 286.143 186.047 284.213 188.493 282.836C190.794 285.033 192.635 286.855 193.609 287.819C193.781 288 193.934 288.133 194.041 288.26C191.025 290.434 188.474 292.698 186.349 294.954C185.189 292.935 183.909 291.187 182.552 289.763Z" fill="#F8F7F5" stroke="black" stroke-width="0.597833" stroke-miterlimit="10"/>
<path d="M198.335 340.744C197.693 335.187 196.846 329.303 195.727 323.536C195.273 321.3 194.815 319.11 194.284 316.937C192.303 308.494 189.697 300.678 186.327 294.961C185.168 292.942 183.888 291.195 182.531 289.771C182.475 289.86 182.441 289.975 182.383 290.087C181.996 290.948 181.326 292.301 180.41 294.009C179.007 296.64 177.076 300.117 174.839 304.085C169.097 314.216 161.334 327.51 155.377 337.668L155.49 337.725C157.768 340.179 161.095 342.541 164.967 344.883C172.71 349.591 182.611 354.217 190.628 359.281C193.575 361.159 196.28 363.086 198.505 365.087C198.96 362.486 199.37 360.118 199.706 358.025C199.519 353.171 199.083 347.184 198.335 340.744Z" fill="#F8F7F5" stroke="black" stroke-width="0.597833" stroke-miterlimit="10"/>
<path d="M277.786 334.352C277.766 334.067 277.745 333.782 277.699 333.518C277.213 328.825 274.923 324.719 271.493 320.931C264.017 312.591 251.08 305.771 239.488 297.709C233.759 293.731 228.364 289.454 224.094 284.526C208.739 266.84 186.284 243.397 192.242 226.114C192.283 221.611 169.287 263.696 172.487 268.187C172.926 268.803 173.646 269.191 174.24 269.671C174.185 269.76 174.129 269.85 174.095 269.964C178.67 273.646 184.308 278.866 188.478 282.841C190.78 285.037 192.62 286.86 193.594 287.823C193.766 288.004 193.92 288.137 194.026 288.265C198.988 293.375 204.725 298.297 210.837 302.995C220.461 310.355 230.994 317.092 240.843 322.799C251.117 328.757 260.667 333.609 267.685 336.952L277.552 337.634L277.786 334.352Z" fill="#F8F7F5" stroke="black" stroke-width="0.597833" stroke-miterlimit="10"/>
<path d="M255.616 301.617C245.754 290.719 233.651 275.695 222.452 259.34C217.998 252.838 213.682 246.113 209.701 239.348C204.207 230.036 199.38 220.668 195.745 211.718C195.561 211.653 195.376 211.613 195.193 211.548C193.088 216.638 189.758 220.788 189.718 225.291C183.759 242.574 208.751 266.843 224.105 284.529C228.375 289.456 233.77 293.733 239.5 297.711C251.092 305.774 264.028 312.593 271.504 320.934C268.561 316.483 263.719 310.582 255.616 301.617Z" fill="#F8F7F5" stroke="black" stroke-width="0.597833" stroke-miterlimit="10"/>
<path d="M156.243 367.352C156.811 364.809 157.444 362.32 158.12 359.882C165.811 364.137 175.29 369.242 183.918 372.31C177.805 391.255 176.634 396.974 175.205 403.447C173.607 410.708 169.669 424.569 167.622 440.99C165.017 439.757 162.206 438.716 159.866 438.452C156.755 438.091 153.091 438.34 150.21 439.063C148.654 410.557 151.492 387.414 156.243 367.352Z" fill="#EF6E22" stroke="black" stroke-width="0.597833" stroke-miterlimit="10"/>
<path d="M160.448 360.104C159.772 362.542 159.138 365.031 158.57 367.574L158.038 367.454C158.038 367.454 150.746 363.236 145.648 354.503C144.792 353.031 145.138 352.615 146.386 352.92C148.648 353.508 153.879 356.496 160.448 360.104Z" fill="#A57C52" stroke="black" stroke-width="0.597833" stroke-miterlimit="10"/>
<path d="M162.428 45.1969C177.229 55.6109 207.906 73.0232 214.83 79.1651C221.053 84.6991 250.592 105.71 258.966 117.862C258.953 118.002 258.916 118.14 258.88 118.279C253.501 118.911 241.998 122.607 233.982 128.208C227.478 124.158 215.893 114.751 203.806 102.867C186.479 85.8004 168.132 63.6836 162.428 45.1969Z" fill="#EF6E22" stroke="black" stroke-width="0.597833" stroke-miterlimit="10"/>
<path d="M162.426 45.1959C168.13 63.6826 186.477 85.7994 203.804 102.866C209.034 115.009 218.497 128.678 218.497 128.678C218.497 128.678 213.301 129.374 200.469 123.462C205.206 131.759 208.408 143.855 208.408 143.855C208.408 143.855 202.511 143.707 199.467 138.304C198.475 142.105 200.881 152.333 202.71 159.865C200.367 162.172 198.061 164.341 195.8 166.277C160.044 136.878 162.138 69.6374 162.096 45.1887L162.426 45.1959Z" fill="#A35525" stroke="black" stroke-width="0.597833" stroke-miterlimit="10"/>
<path d="M192.789 483.405C191.364 480.677 188.01 479.633 184.193 475.928C183.434 475.196 182.662 474.346 181.879 473.353C181.518 472.918 181.207 472.441 180.921 471.966C177.398 466.117 178.462 457.981 174.151 451.209L174.226 451.169C174.349 451.11 174.473 451.05 174.599 450.968C172.92 450.458 171.302 449.552 169.232 448.675C165.844 447.227 161.201 445.805 152.99 446.126C152.681 446.144 152.348 446.161 152.016 446.177L152.024 446.343C151.484 446.552 150.964 446.811 150.46 447.141C141.471 452.275 140.07 468.354 139.59 471.731C139.093 475.295 138.324 482.797 135.567 489.808C132.811 496.819 132.176 502.116 134.705 505.183C136.848 507.813 139.741 507.209 142.441 506.398C142.452 507.555 142.682 508.638 143.16 509.603C143.298 509.899 143.485 510.176 143.672 510.453C146.035 513.764 151.599 513.432 154.748 511.601C156.835 514.839 161.813 515.468 163.774 514.966C169.154 513.555 168.57 504.841 166.55 497.079C164.789 490.332 166.825 482.688 168.458 479.112C170.112 475.561 173.186 479.623 174.637 484.099C176.051 488.478 180.336 494.516 185.771 494.55C185.935 494.565 186.078 494.554 186.244 494.546C191.901 494.223 194.518 486.68 192.789 483.405Z" fill="#754D24" stroke="black" stroke-width="0.597833" stroke-miterlimit="10"/>
<path d="M178.074 446.168C177.147 445.209 173.783 442.984 169.976 441.214C167.372 439.981 164.56 438.941 162.221 438.676C159.11 438.316 155.445 438.565 152.565 439.288C150.149 439.842 148.293 440.731 147.858 441.847C146.965 444.076 146.738 445.494 150.463 447.138C150.966 446.808 151.487 446.549 152.027 446.34L152.018 446.174C152.351 446.158 152.683 446.142 152.993 446.123C161.203 445.802 165.847 447.225 169.235 448.672C171.305 449.549 172.923 450.455 174.601 450.965C177.275 449.68 179.565 447.675 178.074 446.168Z" fill="#754D24" stroke="black" stroke-width="0.597833" stroke-miterlimit="10"/>
<path d="M334.416 496.577C336.319 494.159 339.809 493.752 344.244 490.814C345.125 490.236 346.041 489.542 346.993 488.71C347.429 488.35 347.822 487.938 348.191 487.524C352.732 482.425 353.187 474.233 358.674 468.373L358.608 468.319C358.497 468.238 358.386 468.157 358.278 468.053C360.022 467.861 361.779 467.269 363.975 466.789C367.572 465.992 372.399 465.45 380.409 467.28C380.709 467.355 381.033 467.433 381.357 467.51L381.318 467.672C381.81 467.977 382.274 468.327 382.708 468.745C390.596 475.448 389.007 491.51 388.856 494.917C388.687 498.512 388.058 506.027 389.474 513.427C390.89 520.826 390.537 526.149 387.486 528.697C384.895 530.886 382.162 529.759 379.658 528.464C379.434 529.599 379.008 530.621 378.361 531.481C378.171 531.747 377.936 531.984 377.701 532.222C374.767 535.04 369.36 533.688 366.603 531.308C363.954 534.105 358.946 533.804 357.111 532.949C352.083 530.57 354.265 522.114 357.683 514.858C360.657 508.551 360.067 500.663 359.122 496.847C358.151 493.052 354.38 496.476 352.128 500.608C349.931 504.651 344.606 509.795 339.258 508.826C339.094 508.81 338.956 508.774 338.794 508.735C333.293 507.374 332.113 499.478 334.416 496.577Z" fill="#754D24" stroke="black" stroke-width="0.597833" stroke-miterlimit="10"/>
<path d="M355.743 462.701C356.832 461.929 360.548 460.363 364.616 459.326C367.403 458.594 370.358 458.091 372.707 458.262C375.831 458.482 379.386 459.403 382.084 460.645C384.356 461.635 386.017 462.851 386.238 464.028C386.705 466.383 386.666 467.819 382.702 468.748C382.268 468.33 381.804 467.98 381.312 467.675L381.351 467.513C381.027 467.436 380.703 467.359 380.403 467.284C372.392 465.453 367.566 465.995 363.969 466.793C361.773 467.273 360.015 467.864 358.271 468.056C355.881 466.3 354 463.907 355.743 462.701Z" fill="#754D24" stroke="black" stroke-width="0.597833" stroke-miterlimit="10"/>
<path d="M318.619 215.77C318.619 215.77 318.824 215.466 319.184 214.931C319.369 214.67 319.593 214.351 319.851 213.986C320.123 213.629 320.368 213.187 320.751 212.781C321.54 211.998 322.38 210.922 323.475 210.033C324.031 209.594 324.605 209.14 325.187 208.678C325.784 208.233 326.454 207.868 327.095 207.456C327.727 207.021 328.413 206.687 329.115 206.407C329.813 206.123 330.471 205.764 331.175 205.589C331.871 205.397 332.546 205.209 333.191 205.062C333.831 204.897 334.476 204.896 335.049 204.815C335.627 204.772 336.149 204.653 336.627 204.723C337.099 204.758 337.513 204.789 337.853 204.816C338.525 204.883 338.909 204.924 338.909 204.924L338.745 206.685C338.745 206.685 338.4 206.714 337.795 206.762C337.495 206.779 337.132 206.797 336.716 206.82C336.302 206.819 335.837 206.969 335.328 207.028C334.824 207.132 334.264 207.153 333.698 207.339C333.132 207.522 332.531 207.683 331.908 207.849C331.283 208.011 330.681 208.327 330.036 208.551C329.389 208.776 328.757 209.059 328.142 209.394C327.523 209.716 326.873 209.993 326.285 210.351C325.703 210.729 325.132 211.103 324.578 211.462C323.44 212.153 322.536 212.975 321.66 213.602C320.024 215.052 318.912 216.026 318.912 216.026L318.619 215.77Z" fill="black"/>
<path d="M336.22 199.53C340.61 191.948 339.834 183.301 334.487 180.215C329.14 177.13 321.246 180.775 316.855 188.357C312.465 195.939 313.24 204.587 318.588 207.672C323.935 210.757 331.829 207.112 336.22 199.53Z" fill="black"/>
<path d="M326.764 191.314C328.868 191.509 330.725 190.032 330.913 188.014C331.101 185.996 329.547 184.201 327.444 184.006C325.34 183.81 323.482 185.287 323.295 187.305C323.107 189.323 324.66 191.118 326.764 191.314Z" fill="white"/>
<path d="M258.442 210.397C258.442 210.397 257.529 209.233 256.188 207.506C255.443 206.727 254.704 205.752 253.715 204.865C253.238 204.408 252.745 203.937 252.243 203.459C251.73 202.996 251.14 202.606 250.594 202.175C250.048 201.735 249.48 201.337 248.888 200.997C248.297 200.659 247.762 200.238 247.178 199.962C246.596 199.682 246.035 199.412 245.512 199.13C244.991 198.843 244.446 198.72 243.968 198.524C243.479 198.372 243.049 198.139 242.642 198.063C242.238 197.964 241.884 197.877 241.592 197.808C241.007 197.647 240.672 197.557 240.672 197.557L240.836 195.795C240.836 195.795 241.221 195.829 241.894 195.884C242.234 195.923 242.643 195.968 243.116 196.019C243.599 196.038 244.09 196.251 244.65 196.4C245.198 196.586 245.83 196.706 246.431 196.986C247.037 197.25 247.666 197.559 248.315 197.876C248.972 198.18 249.555 198.652 250.189 199.06C250.829 199.464 251.442 199.918 251.98 200.463C252.534 200.987 253.123 201.469 253.63 202.016C254.119 202.578 254.598 203.13 255.063 203.664C255.977 204.743 256.603 205.952 257.234 206.868C257.538 207.337 257.694 207.816 257.896 208.217C258.082 208.624 258.243 208.979 258.377 209.27C258.632 209.862 258.778 210.199 258.778 210.199L258.442 210.397Z" fill="black"/>
<path d="M260.307 202.238C266.132 200.192 268.489 191.835 265.573 183.574C262.656 175.312 255.57 170.273 249.745 172.319C243.921 174.365 241.563 182.721 244.48 190.983C247.396 199.245 254.482 204.284 260.307 202.238Z" fill="black"/>
<path d="M255.252 184.645C257.356 184.84 259.213 183.363 259.401 181.345C259.589 179.327 258.036 177.532 255.932 177.337C253.828 177.141 251.971 178.618 251.783 180.636C251.595 182.654 253.148 184.449 255.252 184.645Z" fill="white"/>
<path d="M234.885 165.943C246.413 156.398 253.663 154.713 260.804 154.197" stroke="black" stroke-width="2.04444" stroke-miterlimit="10"/>
<path d="M348.281 176.489C338.712 164.981 331.897 161.987 324.974 160.163" stroke="black" stroke-width="2.04444" stroke-miterlimit="10"/>
<path d="M283.829 271.395L283.289 271.344C273.562 270.439 268.657 255.307 267.021 250.27C265.387 245.211 271.298 241.914 286.229 243.304C301.161 244.693 306.362 249.023 303.846 253.696C301.309 258.345 293.697 272.313 283.969 271.408L283.829 271.395V271.395Z" fill="black"/>
<path d="M293.084 247.376C287.236 246.395 274.801 243.785 272.966 249.452C271.994 252.455 275.663 256.777 278.716 256.416C281.654 256.069 279.86 250.91 283.024 250.189C286.985 249.288 290.233 248.944 297.7 249.5C297.7 249.502 298.929 248.356 293.084 247.376Z" fill="#676767"/>
<path d="M189.314 86.6257C187.861 95.8177 198.475 103.327 199.255 112.234C197.589 110.767 195.433 109.547 193.16 109.486C194.208 112.828 195.614 116.93 197.418 119.748C196.053 118.663 194.442 118.798 192.958 118.316C191.273 125.037 196.041 134.853 199.068 140.62" stroke="black" stroke-width="0.571052" stroke-miterlimit="10"/>
<path d="M356.418 126.366C369.82 127.297 383.766 105.122 395.792 99.1596C387.793 108.852 379.191 133.584 369.817 141.683C376.606 140.021 387.861 133.838 394.836 134.858C391.578 135.538 380.842 144.763 379.376 147.277C383.268 147.906 390.1 146.975 392.732 149.772C377.731 153.521 375.253 158.991 369.392 158.445" stroke="black" stroke-width="0.571052" stroke-miterlimit="10"/>
<path d="M331.34 131.304C318.295 135.99 305.929 126.819 298.5 120.798C298.092 124.245 302.249 126.404 302.27 129.711C271.341 132.407 272.149 119.505 256.55 121.987" stroke="black" stroke-width="0.571052" stroke-miterlimit="10"/>
<path d="M351.818 360.316C354.708 357.261 375.935 338.307 378.366 348.237C379.859 354.346 353.315 368.169 349.395 373.658" stroke="black" stroke-width="0.571052" stroke-miterlimit="10"/>
<path d="M197.973 340.696C188.509 344.726 179.072 315.864 169.783 321.429C163.531 325.175 185.724 346.175 188.862 349.678" stroke="black" stroke-width="0.571052" stroke-miterlimit="10"/>
<path d="M348.741 431.405C347.218 447.78 318.502 444.563 308.197 444.086C300.292 443.719 279.621 442.185 275.023 449.581C284.258 452.529 294.266 451.482 303.771 453.207C314.295 455.113 326.005 458.147 336.071 461.688" stroke="black" stroke-width="0.571052" stroke-miterlimit="10"/>
<path d="M255.312 299.52C266.716 284.949 248.602 269.992 231.553 268.995C233.255 266.103 235.513 264.527 239.025 263.098C233.211 256.838 226.691 254.49 222.831 246.099C218.795 237.326 214.133 229.625 216.973 221.336" stroke="black" stroke-width="0.570841" stroke-miterlimit="10"/>
<path d="M305.879 304.523C297.358 288.098 318.579 277.881 335.519 280.047C334.379 276.89 332.451 274.924 329.263 272.872C336.131 267.792 342.973 266.687 348.315 259.152C353.899 251.274 359.898 241.712 358.262 233.891" stroke="black" stroke-width="0.570841" stroke-miterlimit="10"/>
<path d="M217.786 536.416C215.507 541.347 204.949 541.21 200.9 545.444C202.778 548.252 206.935 547.61 210.154 548.088C214.759 548.776 218.943 550.822 223.456 551.69" stroke="black" stroke-width="0.571052" stroke-miterlimit="10"/>
<path d="M262.565 325.976C262.532 334.571 256.641 342.517 254.18 350.646C251.254 360.314 250.224 371.761 248.73 381.704C246.081 399.35 243.448 418.116 246.866 435.413" stroke="black" stroke-width="4.48322" stroke-miterlimit="10"/>
<path d="M290.849 328.607C289.296 337.061 293.621 345.958 294.54 354.401C295.632 364.443 294.532 375.883 294.167 385.932C293.515 403.763 292.641 422.693 286.091 439.063" stroke="black" stroke-width="4.48322" stroke-miterlimit="10"/>
</g>
</g>
<g clip-path="url(#clip2_230_4312)">
<path d="M195.801 166.273C198.062 164.336 200.368 162.167 202.71 159.861C202.831 160.344 202.93 160.801 203.053 161.261C203.907 160.468 204.765 159.627 205.675 158.744C205.696 158.77 205.694 158.793 205.694 158.793C204.754 159.744 203.896 160.585 203.068 161.357C200.759 163.549 198.798 165.065 196.416 166.778C196.236 166.927 196.059 167.052 195.882 167.177C195.859 167.175 195.861 167.152 195.838 167.149C196.015 167.024 196.192 166.899 196.371 166.751C196.171 166.614 195.997 166.456 195.801 166.273Z" fill="#EF6E22" stroke="black" stroke-width="0.597833" stroke-miterlimit="10"/>
<path d="M403.388 376.845L402.5 376.739C402.902 376.729 403.183 376.755 403.388 376.845Z" fill="#A57C52" stroke="black" stroke-width="0.597833" stroke-miterlimit="10"/>
<path d="M385.12 381.199C385.632 381.034 386.144 380.869 386.632 380.702C386.841 383.034 386.998 385.408 387.081 387.823C387.087 388.012 387.093 388.201 387.099 388.391C388.067 408.985 386.588 432.254 379.8 459.984C377.102 458.742 373.546 457.821 370.422 457.602C368.074 457.43 365.119 457.934 362.332 458.666C363.348 442.149 362.035 427.799 361.804 420.369C361.593 413.742 361.498 407.905 358.985 388.158C367.502 386.827 377.071 383.848 385.12 381.199Z" fill="#EF6E22" stroke="black" stroke-width="0.597833" stroke-miterlimit="10"/>
<path d="M402.94 378.432C397.748 384.438 391.723 387.44 389.381 388.473C389.298 386.059 389.14 383.684 388.932 381.353C388.443 381.52 388.349 380.883 388.832 380.723C395.261 378.605 400.339 376.89 402.507 376.74L403.395 376.847C403.828 377.028 403.709 377.537 402.94 378.432Z" fill="#A2AAA2" stroke="black" stroke-width="0.597833" stroke-miterlimit="10"/>
<path d="M383.856 324.418C382.758 321.225 381.753 318.3 380.97 315.796C379.847 312.365 379.05 309.743 378.708 308.342C378.672 308.221 378.659 308.102 378.621 308.004C378.521 308.065 378.418 308.15 378.29 308.256C377.987 308.464 377.677 308.742 377.342 309.041C376.593 309.726 375.811 310.503 375.166 311.08C375.166 311.08 375.169 311.057 375.145 311.055C375.143 311.078 375.117 311.099 375.066 311.142C375.032 311.256 374.951 311.367 374.869 311.477C371.059 315.842 366.787 322.617 363.423 329.548C362.953 330.543 362.505 331.539 362.058 332.536C361.135 334.573 360.281 336.641 359.422 338.756C357.259 344.217 355.341 349.843 353.685 355.187C351.761 361.379 350.228 367.182 349.149 371.919C349.151 372.414 349.095 374.533 349.072 375.805C349.077 376.254 349.061 376.677 349.05 377.053C349.036 377.713 349.043 378.398 349.027 379.08C351.583 377.525 354.597 376.13 357.84 374.827C366.653 371.329 377.238 368.61 385.717 365.411C389.955 363.823 393.66 362.115 396.351 360.124L396.473 360.088C392.604 349.322 387.595 335.313 383.856 324.418Z" fill="#F8F7F5" stroke="black" stroke-width="0.597833" stroke-miterlimit="10"/>
<path d="M375.15 311.055C375.881 310.321 376.607 309.633 377.349 309.04C376.599 309.726 375.817 310.504 375.171 311.081C375.171 311.081 375.173 311.058 375.15 311.055Z" fill="#F8F7F5" stroke="black" stroke-width="0.597833" stroke-miterlimit="10"/>
<path d="M384.248 173.425C379.592 166.55 373.891 160.735 366.767 157.005C365.595 156.896 370.16 154.583 376.275 148.073C376.275 148.073 372.904 146.179 360.714 145.824C360.714 145.824 363.674 143.739 371.757 128.777C363.917 131.469 354.218 134.318 346.968 133.219C366.623 120.938 411.015 58.5288 432.336 53.5046C432.867 53.3888 433.372 53.2942 433.85 53.2443C423.232 84.0157 408.683 160.598 384.248 173.425Z" fill="#A35525" stroke="black" stroke-width="0.597833" stroke-miterlimit="10"/>
<path d="M380.41 238.921L380.408 238.944C389.232 258.453 359.714 279.42 339.725 295.28C333.955 299.863 326.89 303.383 319.624 306.505C305.558 312.582 290.702 317.24 282.843 325.475C281.294 327.384 279.929 329.357 278.821 331.354C278.401 332.306 278.048 333.311 277.786 334.349L277.551 337.63L283.731 338.04C289.289 336.504 295.589 334.353 302.295 331.65C326.357 323.342 360.008 310.05 368.07 304.217L368.048 304.192C368.597 303.889 369.096 303.605 369.621 303.3C371.142 302.45 372.638 301.622 374.21 300.73C374.684 300.467 375.232 300.164 375.809 299.817C380.695 297.11 388.54 292.837 391.469 291.081C391.819 290.877 392.095 290.714 392.295 290.591C396.624 285.237 380.499 237.207 380.41 238.921Z" fill="#F8F7F5" stroke="black" stroke-width="0.597833" stroke-miterlimit="10"/>
<path d="M374.881 311.479C371.071 315.844 366.799 322.62 363.435 329.55C366.592 322.813 370.133 316.771 373.944 312.407C374.315 311.969 374.711 311.534 375.078 311.144C375.044 311.259 374.962 311.369 374.881 311.479Z" fill="#F8F7F5" stroke="black" stroke-width="0.597833" stroke-miterlimit="10"/>
<path d="M374.837 301.378C374.622 301.146 374.429 300.939 374.212 300.73C372.639 301.622 371.143 302.45 369.622 303.299C371.77 305.623 373.73 308.707 375.102 310.982C375.123 311.008 375.145 311.033 375.142 311.057C375.873 310.322 376.599 309.635 377.339 309.043C377.675 308.744 377.984 308.466 378.287 308.258C378.415 308.152 378.518 308.067 378.618 308.006C377.899 305.061 376.369 302.96 374.837 301.378Z" fill="#F8F7F5" stroke="black" stroke-width="0.597833" stroke-miterlimit="10"/>
<path d="M352.953 389.358C351.527 389.438 350.18 389.43 348.89 389.31C348.946 385.658 348.983 382.217 349.038 379.084C351.594 377.528 354.609 376.133 357.851 374.831C366.664 371.333 377.249 368.613 385.728 365.414C389.966 363.826 393.671 362.118 396.363 360.127L396.484 360.091C399.946 369.639 403.624 376.871 403.624 376.871L403.389 376.849C403.185 376.759 402.904 376.733 402.501 376.743C400.169 376.904 394.476 378.875 387.355 381.209C379.012 383.972 368.754 387.242 359.708 388.665C357.357 389.036 355.086 389.297 352.953 389.358Z" fill="#F8F7F5" stroke="black" stroke-width="0.597833" stroke-miterlimit="10"/>
<path d="M381.985 237.719C381.985 237.719 381.537 235.391 380.363 233.632C377.233 240.585 371.396 248.182 364.446 255.794C362.284 258.188 359.982 260.57 357.633 262.947C353.926 266.707 350.059 270.406 346.252 273.969C344.127 275.965 342.007 277.915 339.94 279.799C339.889 279.842 339.836 279.908 339.784 279.95C324.713 293.79 296.444 308.432 282.848 325.477C290.707 317.242 305.563 312.584 319.628 306.507C326.894 303.384 333.96 299.865 339.729 295.282C359.718 279.421 390.81 257.227 381.985 237.719Z" fill="#F8F7F5" stroke="black" stroke-width="0.597833" stroke-miterlimit="10"/>
<path d="M282.84 325.484C281.291 327.392 279.925 329.365 278.817 331.362C279.774 329.21 281.137 327.26 282.84 325.484Z" fill="#F8F7F5" stroke="black" stroke-width="0.597833" stroke-miterlimit="10"/>
<path d="M260.947 261.218C264.259 267.803 274.637 283.327 283.227 275.867C290.271 284.781 303.335 271.438 307.828 265.58C312.3 259.696 330.656 231.91 336.733 225.797C342.706 219.794 348.166 226.932 350.092 236.974C349.446 237.315 348.795 237.703 348.168 238.093C348.507 243.079 342.339 248.9 329.407 258.031C316.122 267.413 305.18 277.013 299.001 282.951C292.849 288.843 285.767 292.031 280.774 291.566C275.781 291.102 269.408 286.663 264.449 279.736C259.471 272.761 250.488 261.307 239.161 249.635C228.136 238.275 223.147 231.416 224.401 226.578C224.438 226.44 224.474 226.302 224.511 226.164L224.411 225.966C228.098 216.068 235.01 209.633 239.853 216.784C244.699 223.913 257.613 254.608 260.947 261.218Z" fill="#F28B4E" stroke="black" stroke-width="0.597833" stroke-miterlimit="10"/>
<path d="M277.711 333.513C278.039 332.788 278.413 332.068 278.834 331.352C278.415 332.304 278.061 333.31 277.799 334.347C277.778 334.062 277.757 333.777 277.711 333.513Z" fill="#A35525" stroke="black" stroke-width="0.597833" stroke-miterlimit="10"/>
<path d="M379.672 228.709C369.848 229.848 358.95 232.114 350.105 236.977C349.458 237.318 348.807 237.706 348.18 238.096C348.52 243.083 342.351 248.903 329.42 258.035C316.134 267.417 305.193 277.017 299.013 282.954C292.861 288.847 285.779 292.034 280.786 291.57C275.793 291.105 269.421 286.666 264.462 279.74C259.483 272.764 250.501 261.311 239.174 249.639C228.149 238.278 223.16 231.42 224.414 226.582C216.61 219.485 205.761 214.866 195.746 211.716C199.382 220.666 204.208 230.034 209.702 239.347C213.683 246.111 217.999 252.836 222.454 259.338C233.652 275.694 245.755 290.717 255.617 301.616C263.72 310.581 268.562 316.482 271.505 320.932C274.936 324.719 277.226 328.826 277.711 333.519C278.039 332.794 278.413 332.074 278.834 331.358C279.791 329.206 281.155 327.256 282.857 325.48C296.453 308.435 324.722 293.793 339.794 279.953C339.845 279.91 339.898 279.844 339.949 279.802C342.016 277.918 344.136 275.968 346.261 273.971C350.068 270.409 353.935 266.71 357.642 262.949C359.991 260.572 362.293 258.191 364.455 255.797C371.405 248.185 377.242 240.588 380.372 233.635C380.26 232.044 380.035 230.395 379.672 228.709Z" fill="#EAE1D8" stroke="black" stroke-width="0.597833" stroke-miterlimit="10"/>
<path d="M198.339 340.74C200.81 338.823 202.229 342.636 200.139 355.442C200.016 356.257 199.865 357.116 199.71 358.021C199.523 353.167 199.087 347.18 198.339 340.74Z" fill="#EF9F20" stroke="black" stroke-width="0.597833" stroke-miterlimit="10"/>
<path d="M240.854 322.795C251.128 328.753 260.678 333.605 267.697 336.948L277.563 337.63L283.744 338.04C289.301 336.504 295.601 334.353 302.307 331.65C326.369 323.342 360.021 310.05 368.061 304.191C368.609 303.888 369.108 303.605 369.633 303.299C371.781 305.623 373.74 308.707 375.113 310.982C375.109 311.029 375.102 311.099 375.074 311.144C374.707 311.534 374.312 311.97 373.94 312.407C370.129 316.771 366.588 322.813 363.432 329.55C362.961 330.545 362.513 331.541 362.066 332.538C361.144 334.576 360.289 336.643 359.43 338.758C357.267 344.219 355.349 349.845 353.693 355.189C351.769 361.381 350.237 367.184 349.157 371.921C349.159 372.417 349.103 374.535 349.08 375.807C349.075 376.113 349.074 376.373 349.059 376.536C349.067 376.702 349.052 376.866 349.058 377.055C349.044 377.715 349.051 378.4 349.035 379.083C348.98 382.216 348.943 385.657 348.887 389.309C350.177 389.429 351.524 389.436 352.95 389.357C352.853 395.223 352.513 405.998 351.96 418.546C351.923 419.204 351.908 419.863 351.871 420.52C351.472 427.524 351.995 435.142 350.528 442.02C349.919 444.878 348.595 445.083 347.373 447.416C346.079 449.886 347.859 451.493 348.758 453.649C350.026 456.692 349.841 457.737 349.387 460.993C348.467 467.604 348.232 474.326 347.339 480.951C295.787 461.738 215.179 458.509 184.293 459.104L184.221 457.328C184.646 447.432 186.412 437.521 187.926 427.749C188.689 422.827 187.933 417.151 189.24 412.532C190.611 407.686 194.436 403.927 195.824 399.051C197.001 394.911 194.452 393.032 193.833 389.263C193.164 385.194 195.248 381.629 196.287 377.903C197.438 373.789 197.786 369.289 198.523 365.08C198.978 362.479 199.387 360.111 199.724 358.018C199.879 357.113 200.03 356.254 200.153 355.439C202.243 342.633 200.824 338.82 198.352 340.737C197.711 335.18 196.863 329.296 195.745 323.529C195.291 321.293 194.833 319.103 194.302 316.93C192.321 308.487 189.714 300.671 186.345 294.954C188.47 292.698 191.021 290.434 194.037 288.261C199 293.371 204.736 298.293 210.849 302.991C220.472 310.351 231.005 317.089 240.854 322.795Z" fill="#F8F7F5" stroke="black" stroke-width="0.597833" stroke-miterlimit="10"/>
<path d="M155.513 337.721C157.791 340.175 161.118 342.537 164.99 344.879C172.733 349.587 182.634 354.213 190.651 359.277C193.598 361.155 196.303 363.082 198.528 365.083C198.004 368.172 197.405 371.561 196.787 375.161C193.578 374.839 190.003 373.869 186.274 372.531C177.646 369.463 168.167 364.358 160.476 360.103C153.908 356.496 148.677 353.508 146.415 352.92L146.426 352.803C146.426 352.803 150.236 346.409 155.4 337.664L155.513 337.721Z" fill="#F8F7F5" stroke="black" stroke-width="0.597833" stroke-miterlimit="10"/>
<path d="M283.26 275.867C274.669 283.326 264.291 267.802 260.979 261.218C257.645 254.608 244.731 223.912 239.885 216.784C235.042 209.632 228.13 216.068 224.443 225.965L224.543 226.163C224.506 226.301 224.47 226.44 224.433 226.578C216.629 219.481 205.781 214.862 195.766 211.712C195.582 211.648 195.397 211.607 195.214 211.543C191.286 210.304 187.501 209.315 184.103 208.48C180.01 207.485 176.463 206.731 173.875 206.089L173.913 205.927C176.296 197.088 187.483 187.134 203.699 178.024C196.053 175.331 192.053 176.139 188.066 172.228C190.452 170.728 193.101 168.686 195.832 166.273C196.027 166.457 196.202 166.615 196.402 166.751C196.223 166.9 196.045 167.025 195.868 167.15C195.892 167.152 195.89 167.175 195.913 167.178C196.09 167.053 196.267 166.927 196.447 166.779C198.828 165.066 200.79 163.549 203.098 161.357C203.927 160.585 204.785 159.745 205.725 158.794C205.725 158.794 205.727 158.771 205.706 158.745C204.796 159.628 203.938 160.468 203.084 161.262C202.961 160.802 202.862 160.344 202.741 159.861C214.761 148.073 227.491 132.976 233.1 128.85C233.403 128.642 233.708 128.411 234.011 128.203C242.027 122.602 253.531 118.906 258.909 118.274C258.946 118.136 258.982 117.997 258.995 117.857C260.193 112.612 260.174 107.726 256.931 105.49C269.411 107.052 278.569 110.264 283.777 117.827C281.277 106.575 280.25 100.581 275.344 98.1659C303.001 105.859 329.523 117.363 332.096 127.82C340.348 98.0787 359.03 69.3315 432.364 53.4082L432.378 53.504C411.057 58.5282 366.665 120.937 347.01 133.218C354.26 134.318 363.959 131.468 371.799 128.776C363.716 143.739 360.756 145.823 360.756 145.823C372.947 146.178 376.317 148.073 376.317 148.073C370.202 154.583 365.637 156.895 366.809 157.004C373.933 160.734 379.634 166.55 384.29 173.425C387.991 178.889 391.012 185.045 393.57 191.347C385.438 194.13 377.898 194.608 376.363 194.088C390.682 203.584 402.652 217.487 402.431 227.234C399.507 227.411 395.124 227.498 389.987 227.823C387.54 227.949 384.944 228.156 382.224 228.422C381.388 228.509 380.552 228.597 379.691 228.705C369.868 229.844 358.97 232.11 350.124 236.974C348.198 226.931 342.738 219.793 336.765 225.797C330.688 231.909 312.332 259.696 307.86 265.579C303.367 271.438 290.304 284.781 283.26 275.867Z" fill="#EF6E22" stroke="black" stroke-width="0.597833" stroke-miterlimit="10"/>
<path d="M202.713 159.86C200.884 152.328 198.478 142.1 199.47 138.299C202.514 143.702 208.411 143.849 208.411 143.849C208.411 143.849 205.209 131.754 200.473 123.456C213.305 129.369 218.5 128.672 218.5 128.672C218.5 128.672 209.038 115.004 203.807 102.861C215.895 114.745 227.48 124.152 233.983 128.202C233.68 128.409 233.375 128.641 233.072 128.848C227.463 132.975 214.733 148.071 202.713 159.86Z" fill="#C57251" stroke="black" stroke-width="0.597833" stroke-miterlimit="10"/>
<path d="M182.556 289.76C184.217 286.14 186.052 284.21 188.497 282.833C190.799 285.03 192.639 286.852 193.613 287.816C193.785 287.997 193.939 288.13 194.045 288.257C191.029 290.431 188.478 292.694 186.353 294.951C185.193 292.932 183.913 291.184 182.556 289.76Z" fill="#F8F7F5" stroke="black" stroke-width="0.597833" stroke-miterlimit="10"/>
<path d="M198.346 340.741C197.704 335.184 196.857 329.301 195.738 323.534C195.284 321.297 194.826 319.107 194.295 316.935C192.314 308.492 189.708 300.675 186.339 294.958C185.179 292.939 183.899 291.192 182.542 289.768C182.486 289.857 182.452 289.972 182.394 290.085C182.007 290.945 181.337 292.299 180.422 294.007C179.018 296.637 177.087 300.115 174.85 304.083C169.108 314.214 161.346 327.507 155.388 337.665L155.501 337.723C157.779 340.176 161.106 342.539 164.978 344.881C172.721 349.589 182.623 354.215 190.639 359.278C193.586 361.157 196.291 363.084 198.516 365.084C198.971 362.484 199.381 360.115 199.717 358.023C199.53 353.168 199.094 347.182 198.346 340.741Z" fill="#F8F7F5" stroke="black" stroke-width="0.597833" stroke-miterlimit="10"/>
<path d="M277.797 334.35C277.776 334.065 277.756 333.779 277.709 333.516C277.224 328.822 274.934 324.716 271.503 320.928C264.028 312.588 251.091 305.769 239.499 297.706C233.769 293.728 228.374 289.451 224.104 284.523C208.75 266.838 186.294 243.395 192.253 226.111C192.293 221.608 169.298 263.693 172.497 268.184C172.937 268.8 173.657 269.188 174.251 269.668C174.195 269.758 174.14 269.847 174.105 269.962C178.681 273.643 184.319 278.863 188.488 282.838C190.79 285.034 192.63 286.857 193.605 287.82C193.777 288.002 193.93 288.134 194.036 288.262C198.999 293.372 204.736 298.294 210.848 302.992C220.472 310.352 231.005 317.09 240.853 322.796C251.128 328.754 260.677 333.606 267.696 336.949L277.563 337.631L277.797 334.35Z" fill="#F8F7F5" stroke="black" stroke-width="0.597833" stroke-miterlimit="10"/>
<path d="M255.626 301.613C245.764 290.715 233.662 275.691 222.463 259.336C218.008 252.834 213.692 246.109 209.711 239.344C204.218 230.032 199.391 220.664 195.755 211.714C195.572 211.649 195.387 211.609 195.203 211.544C193.099 216.634 189.769 220.784 189.728 225.287C183.77 242.57 208.761 266.839 224.115 284.525C228.386 289.452 233.78 293.729 239.51 297.707C251.102 305.77 264.039 312.589 271.515 320.93C268.571 316.479 263.73 310.578 255.626 301.613Z" fill="#F8F7F5" stroke="black" stroke-width="0.597833" stroke-miterlimit="10"/>
<path d="M156.254 367.347C156.821 364.804 157.455 362.315 158.131 359.876C165.821 364.131 175.3 369.237 183.928 372.304C177.815 391.249 176.645 396.968 175.215 403.442C173.618 410.702 169.68 424.564 167.632 440.984C165.028 439.751 162.216 438.711 159.877 438.446C156.766 438.086 153.101 438.335 150.221 439.058C148.664 410.551 151.503 387.409 156.254 367.347Z" fill="#EF6E22" stroke="black" stroke-width="0.597833" stroke-miterlimit="10"/>
<path d="M160.458 360.101C159.782 362.539 159.149 365.029 158.581 367.571L158.049 367.451C158.049 367.451 150.757 363.233 145.658 354.501C144.802 353.029 145.148 352.613 146.397 352.918C148.659 353.506 153.89 356.494 160.458 360.101Z" fill="#A2AAA2" stroke="black" stroke-width="0.597833" stroke-miterlimit="10"/>
<path d="M162.439 45.1931C177.24 55.6071 207.917 73.0195 214.841 79.1613C221.064 84.6953 250.602 105.706 258.977 117.858C258.964 117.999 258.927 118.137 258.891 118.275C253.512 118.907 242.008 122.603 233.992 128.204C227.489 124.155 215.904 114.748 203.816 102.864C186.489 85.7966 168.143 63.6798 162.439 45.1931Z" fill="#EF6E22" stroke="black" stroke-width="0.597833" stroke-miterlimit="10"/>
<path d="M162.437 45.1916C168.141 63.6783 186.488 85.7952 203.815 102.862C209.045 115.005 218.507 128.674 218.507 128.674C218.507 128.674 213.312 129.37 200.48 123.457C205.217 131.755 208.418 143.851 208.418 143.851C208.418 143.851 202.521 143.703 199.477 138.3C198.485 142.101 200.891 152.329 202.72 159.861C200.378 162.168 198.072 164.336 195.811 166.273C160.055 136.874 162.149 69.6332 162.106 45.1845L162.437 45.1916Z" fill="#A35525" stroke="black" stroke-width="0.597833" stroke-miterlimit="10"/>
<path d="M178.087 446.168C177.16 445.209 173.797 442.985 169.989 441.215C167.385 439.982 164.574 438.941 162.234 438.677C159.123 438.316 155.459 438.565 152.578 439.288C150.162 439.842 148.306 440.731 147.871 441.847C146.978 444.076 146.751 445.494 150.476 447.139C150.98 446.808 151.5 446.55 152.04 446.34L152.032 446.174C152.364 446.158 152.697 446.142 153.006 446.124C161.216 445.802 165.86 447.225 169.248 448.673C171.318 449.55 172.936 450.455 174.615 450.965C177.288 449.68 179.578 447.676 178.087 446.168Z" fill="#754D24" stroke="black" stroke-width="0.597833" stroke-miterlimit="10"/>
<path d="M318.629 215.761C318.629 215.761 318.834 215.457 319.194 214.922C319.379 214.661 319.602 214.342 319.861 213.976C320.133 213.619 320.377 213.177 320.76 212.772C321.55 211.989 322.39 210.913 323.484 210.024C324.041 209.585 324.615 209.131 325.197 208.668C325.794 208.224 326.464 207.859 327.105 207.447C327.737 207.012 328.423 206.677 329.125 206.398C329.823 206.114 330.48 205.755 331.185 205.58C331.881 205.387 332.556 205.2 333.201 205.053C333.841 204.888 334.486 204.887 335.059 204.805C335.637 204.762 336.159 204.643 336.637 204.714C337.109 204.748 337.522 204.78 337.863 204.807C338.535 204.874 338.919 204.914 338.919 204.914L338.755 206.676C338.755 206.676 338.41 206.705 337.805 206.753C337.505 206.77 337.142 206.788 336.726 206.81C336.312 206.81 335.847 206.96 335.337 207.019C334.834 207.123 334.274 207.144 333.708 207.329C333.142 207.513 332.541 207.674 331.918 207.84C331.293 208.001 330.691 208.318 330.046 208.541C329.399 208.767 328.767 209.05 328.152 209.384C327.533 209.707 326.883 209.984 326.294 210.342C325.713 210.72 325.142 211.093 324.588 211.453C323.45 212.144 322.546 212.966 321.67 213.592C320.034 215.042 318.922 216.017 318.922 216.017L318.629 215.761Z" fill="black"/>
<path d="M336.233 199.528C340.624 191.946 339.848 183.298 334.501 180.213C329.153 177.127 321.259 180.772 316.869 188.354C312.478 195.936 313.254 204.584 318.601 207.669C323.948 210.755 331.842 207.11 336.233 199.528Z" fill="black"/>
<path d="M326.777 191.309C328.881 191.505 330.739 190.028 330.926 188.01C331.114 185.992 329.561 184.197 327.457 184.001C325.354 183.806 323.496 185.283 323.308 187.301C323.121 189.319 324.674 191.114 326.777 191.309Z" fill="white"/>
<path d="M258.456 210.389C258.456 210.389 257.542 209.225 256.202 207.498C255.456 206.719 254.717 205.744 253.728 204.857C253.251 204.399 252.758 203.929 252.256 203.45C251.744 202.988 251.153 202.598 250.607 202.167C250.062 201.727 249.493 201.329 248.901 200.989C248.311 200.651 247.775 200.23 247.191 199.954C246.609 199.674 246.048 199.404 245.526 199.122C245.004 198.835 244.46 198.712 243.981 198.516C243.492 198.364 243.062 198.131 242.655 198.055C242.251 197.956 241.897 197.869 241.606 197.8C241.02 197.639 240.686 197.549 240.686 197.549L240.85 195.787C240.85 195.787 241.234 195.821 241.908 195.876C242.247 195.915 242.656 195.96 243.129 196.011C243.612 196.03 244.103 196.243 244.664 196.392C245.212 196.578 245.844 196.698 246.444 196.978C247.051 197.242 247.679 197.551 248.328 197.868C248.986 198.172 249.568 198.644 250.202 199.052C250.843 199.456 251.456 199.91 251.994 200.455C252.548 200.979 253.137 201.461 253.644 202.008C254.133 202.57 254.611 203.122 255.077 203.656C255.991 204.735 256.616 205.944 257.247 206.859C257.551 207.329 257.707 207.808 257.909 208.209C258.096 208.616 258.257 208.971 258.39 209.262C258.645 209.854 258.791 210.191 258.791 210.191L258.456 210.389Z" fill="black"/>
<path d="M260.317 202.237C266.142 200.191 268.5 191.835 265.583 183.573C262.667 175.311 255.58 170.272 249.756 172.318C243.931 174.365 241.573 182.721 244.49 190.982C247.407 199.244 254.493 204.283 260.317 202.237Z" fill="black"/>
<path d="M255.262 184.644C257.366 184.84 259.224 183.363 259.411 181.345C259.599 179.327 258.046 177.532 255.942 177.336C253.839 177.141 251.981 178.618 251.793 180.636C251.605 182.654 253.159 184.448 255.262 184.644Z" fill="white"/>
<path d="M234.896 165.939C246.424 156.394 253.673 154.709 260.814 154.193" stroke="black" stroke-width="2.04444" stroke-miterlimit="10"/>
<path d="M348.291 176.485C338.722 164.977 331.908 161.984 324.984 160.16" stroke="black" stroke-width="2.04444" stroke-miterlimit="10"/>
<path d="M283.839 271.391L283.3 271.34C273.572 270.435 268.667 255.303 267.032 250.266C265.398 245.207 271.308 241.91 286.24 243.3C301.171 244.689 306.372 249.019 303.857 253.692C301.32 258.341 293.708 272.309 283.98 271.404L283.839 271.391V271.391Z" fill="black"/>
<path d="M293.094 247.375C287.246 246.395 274.812 243.784 272.977 249.451C272.005 252.454 275.674 256.776 278.727 256.416C281.665 256.069 279.871 250.909 283.035 250.189C286.996 249.288 290.244 248.944 297.711 249.499C297.71 249.501 298.94 248.356 293.094 247.375Z" fill="#676767"/>
<path d="M189.325 86.6234C187.871 95.8154 198.486 103.325 199.265 112.231C197.6 110.764 195.444 109.545 193.17 109.484C194.219 112.826 195.625 116.928 197.429 119.745C196.064 118.66 194.453 118.796 192.968 118.313C191.284 125.035 196.052 134.85 199.079 140.618" stroke="black" stroke-width="0.571052" stroke-miterlimit="10"/>
<path d="M356.428 126.364C369.83 127.294 383.776 105.119 395.803 99.1571C387.804 108.849 379.202 133.581 369.828 141.68C376.617 140.018 387.872 133.836 394.846 134.855C391.589 135.536 380.852 144.761 379.386 147.274C383.279 147.903 390.111 146.972 392.742 149.77C377.742 153.518 375.263 158.988 369.403 158.443" stroke="black" stroke-width="0.571052" stroke-miterlimit="10"/>
<path d="M331.351 131.3C318.306 135.986 305.94 126.815 298.511 120.794C298.103 124.241 302.259 126.4 302.28 129.707C271.352 132.403 272.16 119.501 256.561 121.983" stroke="black" stroke-width="0.571052" stroke-miterlimit="10"/>
<path d="M351.829 360.311C354.719 357.256 375.945 338.302 378.376 348.232C379.87 354.341 353.325 368.164 349.405 373.653" stroke="black" stroke-width="0.571052" stroke-miterlimit="10"/>
<path d="M197.983 340.693C188.52 344.723 179.083 315.861 169.794 321.426C163.541 325.172 185.735 346.172 188.873 349.675" stroke="black" stroke-width="0.571052" stroke-miterlimit="10"/>
<path d="M348.752 431.402C347.228 447.777 318.512 444.56 308.208 444.083C300.303 443.715 279.632 442.182 275.033 449.578C284.269 452.525 294.277 451.479 303.782 453.204C314.306 455.11 326.016 458.144 336.082 461.685" stroke="black" stroke-width="0.571052" stroke-miterlimit="10"/>
<path d="M255.323 299.518C266.727 284.947 248.613 269.99 231.564 268.993C233.266 266.101 235.524 264.525 239.035 263.096C233.222 256.836 226.702 254.488 222.842 246.097C218.806 237.324 214.144 229.623 216.984 221.334" stroke="black" stroke-width="0.570841" stroke-miterlimit="10"/>
<path d="M305.889 304.52C297.369 288.096 318.589 277.878 335.529 280.044C334.39 276.887 332.462 274.922 329.274 272.87C336.142 267.789 342.983 266.684 348.325 259.149C353.91 251.271 359.909 241.71 358.272 233.889" stroke="black" stroke-width="0.570841" stroke-miterlimit="10"/>
<path d="M262.576 325.971C262.542 334.566 256.651 342.512 254.19 350.641C251.265 360.309 250.235 371.756 248.74 381.7C246.091 399.346 243.459 418.111 246.876 435.408" stroke="black" stroke-width="4.48322" stroke-miterlimit="10"/>
<path d="M290.859 328.603C289.307 337.056 293.631 345.953 294.55 354.396C295.642 364.438 294.542 375.879 294.177 385.927C293.526 403.759 292.651 422.688 286.102 439.058" stroke="black" stroke-width="4.48322" stroke-miterlimit="10"/>
</g>
</g>
<defs>
<clipPath id="clip0_230_4312">
<rect width="510.146" height="541.151" fill="white" transform="translate(50.5801 0.767334) rotate(5.31518)"/>
</clipPath>
<clipPath id="clip1_230_4312">
<rect width="499.895" height="545.659" fill="white" transform="translate(51.9168 -10.1696) rotate(5.31518)"/>
</clipPath>
<clipPath id="clip2_230_4312">
<rect width="336.666" height="415.315" fill="white" transform="translate(163.758 -4.15926) rotate(5.31518)"/>
</clipPath>
</defs>
</svg>
