<svg width="167" height="122" viewBox="0 0 167 122" fill="none" xmlns="http://www.w3.org/2000/svg">
<path d="M120.658 120.53C128.358 121.796 136.558 122.964 143.858 120.044C157.258 114.787 161.558 98.6283 164.058 84.8056C166.858 69.5227 169.358 52.7797 161.158 39.5411C155.158 29.7094 144.358 23.7715 133.758 19.0017C115.658 10.9222 96.4579 5.27636 76.7579 2.16138C63.9579 0.117179 50.1579 -0.661565 38.9579 5.56839C27.3579 12.0904 21.0579 24.745 16.0579 36.8155C10.9579 48.9834 6.55793 61.3459 2.65793 73.9032C0.857928 79.6464 -0.842072 85.6816 0.457928 91.5222C4.25793 108.752 37.6579 107.486 51.2579 109.628C74.3579 113.132 97.5579 116.831 120.658 120.53Z" fill="#B8B8FF"/>
</svg>
