<svg width="147" height="213" viewBox="0 0 147 213" fill="none" xmlns="http://www.w3.org/2000/svg">
<path d="M6.18397 93.0819C11.1309 98.3309 18.6498 99.3333 23.1925 105.19C26.978 110.071 27.8928 117.35 27.0238 123.996C26.193 130.568 23.9043 136.853 22.1322 143.122C18.1659 157.268 16.8481 172.497 18.2284 187.428C18.9814 195.498 20.9026 204.246 26.3977 209.097C30.8392 213.053 36.9383 213.695 42.3139 212.17C47.6896 210.644 52.6068 207.253 57.2814 203.678C84.5137 183.138 108.396 156.727 129.619 127.805C137.557 117.058 145.446 104.955 146.784 90.6538C148.528 72.1972 139.07 55.2342 129.795 40.3366C118.933 22.8225 105.916 4.09032 87.8498 0.918682C75.692 -1.24772 63.3841 4.27987 52.4556 11.0498C39.6087 19.2129 26.1576 28.8471 16.3819 41.9608C7.36098 54.1225 -7.96726 77.9561 6.18397 93.0819Z" fill="#E1DBFC"/>
</svg>
