<svg width="1536" height="108" viewBox="0 0 1536 108" fill="none" xmlns="http://www.w3.org/2000/svg">
<path fill-rule="evenodd" clip-rule="evenodd" d="M1536 61.8152C1511.57 65.1515 1487.44 68.5401 1463.92 71.844C1393.85 81.6844 1329.13 90.7736 1277.76 95.4926C1026.73 118.55 849.921 102.826 697.027 89.229C616.472 82.0653 542.557 75.4921 467.927 75.492C410.613 75.4921 360.2 71.1395 312.441 67.016C210.051 58.1757 119.857 50.3885 0 88.7999V53H1536V61.8152Z" fill="white"/>
<path d="M1185 101.728L1216.5 100.065L1225 99.6158L1236.66 99C1238.18 94.3386 1239.22 89.4407 1240.06 84.8056C1242.86 69.5227 1245.36 52.7797 1237.16 39.5411C1231.16 29.7094 1220.36 23.7715 1209.76 19.0017C1191.66 10.9222 1172.46 5.27636 1152.76 2.16138C1139.96 0.117179 1126.16 -0.661565 1114.96 5.56839C1103.36 12.0904 1097.06 24.745 1092.06 36.8155C1086.96 48.9834 1082.56 61.3459 1078.66 73.9032C1076.86 79.6464 1075.16 85.6816 1076.46 91.5222C1078.38 100.223 1088.85 104.155 1099.5 106.243L1148.5 103.656L1185 101.728Z" fill="#B8B8FF"/>
</svg>
