<svg width="101" height="117" viewBox="0 0 101 117" fill="none" xmlns="http://www.w3.org/2000/svg">
<path d="M51.1627 1.21445C23.9391 0.849711 1.56952 22.7563 1.207 50.1466C0.981025 67.2313 10.6614 77.6317 24.2862 91.5063C32.604 99.9765 48.4078 115.66 49.58 115.755C50.7262 115.849 51.132 115.745 52.2916 115.745C52.9186 115.745 65.4309 102.96 75.4324 92.5057C88.3764 78.9745 99.5684 68.7231 99.7972 51.4681C100.16 24.0779 78.3864 1.57919 51.1627 1.21445Z" fill="#FE5C38"/>
<path fill-rule="evenodd" clip-rule="evenodd" d="M-0.0414312 50.1297C0.330125 22.0567 23.2594 -0.408529 51.1796 -0.034458C79.0999 0.339615 101.417 23.4118 101.046 51.4843C100.827 67.9822 90.8556 78.314 79.224 90.3658C78.2706 91.3537 77.306 92.3531 76.3348 93.3684L75.4912 92.5615L76.3348 93.3684C71.3309 98.5989 65.6973 104.414 61.2342 108.924C59.0037 111.178 57.0596 113.111 55.6307 114.484C54.918 115.169 54.3226 115.725 53.8794 116.114C53.6604 116.306 53.4605 116.473 53.2933 116.599C53.212 116.659 53.1138 116.729 53.0102 116.789C52.9587 116.819 52.8831 116.859 52.7914 116.896C52.7197 116.924 52.5344 116.994 52.2918 116.994C51.9712 116.994 51.6808 117.006 51.3905 117.017C50.8261 117.04 50.2623 117.063 49.4782 116.999L49.5801 115.755L49.4794 116.999C49.479 116.999 49.4786 116.999 49.4782 116.999C49.1875 116.975 48.9557 116.861 48.8634 116.815C48.7363 116.75 48.6117 116.673 48.4988 116.597C48.2709 116.444 48.0033 116.24 47.7115 116.003C47.1232 115.526 46.3567 114.854 45.4628 114.041C43.6711 112.411 41.3143 110.165 38.7426 107.667C33.5969 102.667 27.5594 96.6211 23.3954 92.3808C9.81741 78.5538 -0.275191 67.803 -0.0414315 50.1297L1.20711 50.1462L-0.0414312 50.1297ZM51.1461 2.46262C24.619 2.10721 2.80913 23.4552 2.45565 50.1627C2.23746 66.6588 11.5056 76.7087 25.1772 90.631C29.331 94.8609 35.3543 100.892 40.4829 105.876C43.0485 108.368 45.3822 110.591 47.1433 112.193C48.0259 112.996 48.7513 113.631 49.2842 114.063C49.5529 114.281 49.7532 114.431 49.8896 114.523C49.8913 114.524 49.893 114.525 49.8946 114.526C50.4126 114.561 50.7014 114.547 51.0865 114.528C51.3113 114.517 51.5689 114.504 51.9241 114.499C52.0052 114.433 52.1074 114.346 52.2323 114.237C52.6325 113.886 53.1956 113.361 53.9004 112.684C55.3064 111.333 57.233 109.417 59.4592 107.167C63.9093 102.671 69.5325 96.8662 74.5302 91.6421C75.465 90.665 76.3878 89.7072 77.2956 88.765C89.079 76.535 98.3437 66.9193 98.5488 51.4513C98.9023 24.7432 77.6731 2.81802 51.1461 2.46262Z" fill="#FE5C38"/>
<path d="M50.6442 41.6568C53.9674 41.6568 57.1436 42.0912 60.088 42.9503L61.014 43.2241L61.5881 42.4308C63.5045 39.7954 70.4203 31.1539 81.0305 26.7809C81.8171 30.3344 83.6576 39.7364 79.6497 48.2386C79.0343 49.5437 78.3054 50.8449 77.3659 52.0659C75.8774 54.0008 74.2984 55.7617 74.3128 55.8342C74.3273 55.9135 75.1138 56.1225 76.5014 56.7127C78.3592 57.5021 79.9372 58.4503 82.7056 61.0102L76.4562 64.2687C76.4562 64.2687 78.465 65.0998 79.2525 65.4306C80.0391 65.7702 81.2334 66.3565 82.4748 67.2059C83.0393 66.4223 83.5576 65.629 84.0576 64.8066C84.3538 64.3064 84.65 63.8053 84.9279 63.2954C84.974 63.2103 85.0202 63.1251 85.0577 63.04C85.4654 62.3037 85.8443 61.5481 86.1962 60.7829C86.2327 60.7074 86.2702 60.6223 86.3078 60.5468L86.1414 60.3862C82.9104 57.3067 81.7027 55.6562 79.4074 54.769C89.5454 42.1879 83.5489 25.1952 83.3182 24.4579C83.3182 24.4579 83.2441 24.2403 83.1326 23.9955C83.021 23.7497 82.8643 23.4856 82.7066 23.4005C82.3825 23.2399 81.5219 23.5514 81.5219 23.5514C70.2809 27.6409 62.6891 36.3773 59.9303 39.9666C57.0051 39.211 53.8847 38.824 50.6442 38.824H50.4624C47.2219 38.824 44.1025 39.211 41.1763 39.9666C38.4175 36.3773 30.8257 27.6409 19.5866 23.5514C19.5866 23.5514 18.726 23.2399 18.4019 23.4005C18.2442 23.4856 18.0875 23.7497 17.976 23.9955C17.8644 24.2412 17.7904 24.4579 17.7904 24.4579C17.5586 25.1942 11.5631 42.1879 21.7012 54.769C19.4049 55.6572 18.1981 57.3077 14.9671 60.3862L14.8008 60.5468C14.8383 60.6223 14.8748 60.7074 14.9123 60.7829C15.2643 61.5481 15.6441 62.3037 16.0509 63.04C16.0874 63.1251 16.1345 63.2103 16.1807 63.2954C16.4586 63.8053 16.7547 64.3064 17.0509 64.8066C17.5509 65.628 18.0692 66.4213 18.6337 67.2059C19.8741 66.3555 21.0684 65.7702 21.856 65.4306C22.6426 65.0998 24.6523 64.2687 24.6523 64.2687L18.4029 61.0102C21.1713 58.4503 22.7493 57.5021 24.6071 56.7127C25.9947 56.1225 26.7813 55.9135 26.7957 55.8342C26.8101 55.7626 25.2312 54.0018 23.7426 52.0659C22.8041 50.8459 22.0743 49.5437 21.4589 48.2386C17.4509 39.7354 19.2924 30.3344 20.078 26.7809C30.6882 31.1539 37.604 39.7963 39.5205 42.4308L40.0945 43.2241L41.0205 42.9503C43.9649 42.0912 47.1401 41.6568 50.4644 41.6568H50.6442Z" fill="white"/>
<path d="M73.1961 64.1938C72.3903 64.2412 71.5479 64.1754 70.7335 64.1938C65.8726 64.3641 59.8646 65.11 55.3922 66.0262C54.6797 65.7708 53.8373 65.5821 52.8276 65.4883C51.6237 65.3848 50.3746 65.498 49.1707 65.6015C48.8563 65.6295 48.5505 65.6586 48.2447 65.6866C47.661 65.7243 46.9946 65.913 46.3378 66.1587C41.8107 65.1864 35.4411 64.3737 30.3398 64.1938C29.5253 64.1754 28.6916 64.2412 27.8772 64.1938C26.2386 64.099 26.3867 64.2509 26.155 66.2623C25.8405 68.9161 25.9886 71.891 26.4511 74.5265C26.5156 74.9231 26.6088 75.3101 26.7108 75.6787C26.905 75.82 27.0992 75.9719 27.2944 76.1131C27.5166 76.2921 27.7483 76.4527 27.9791 76.623C29.7292 77.8788 31.5899 78.9933 33.5342 79.9385C33.7746 80.0711 34.0246 80.1843 34.266 80.2975C35.6642 80.9495 37.1085 81.5252 38.5893 81.9973C40.7558 81.5533 42.8203 80.5239 44.3291 78.8801C46.458 76.594 47.8379 73.0336 48.6716 69.4636C49.9121 69.2082 51.2824 69.1144 52.3286 69.1424C53.1527 72.8169 54.5595 76.5185 56.7452 78.8801C58.2635 80.5239 60.3184 81.5533 62.4945 81.9973C63.9754 81.5252 65.4197 80.9486 66.8179 80.2975C67.0496 80.1843 67.29 80.0798 67.5217 79.9482C69.4747 79.004 71.345 77.8894 73.1048 76.624C73.3365 76.4633 73.5673 76.2931 73.7894 76.1141C73.9837 75.9728 74.1779 75.8306 74.3731 75.67C74.475 75.3111 74.5673 74.9241 74.6327 74.5274C75.0866 71.892 75.2347 68.917 74.9193 66.2632C74.6866 64.2509 74.8347 64.1 73.1961 64.1938Z" fill="white"/>
</svg>
