<svg width="157" height="106" viewBox="0 0 157 106" fill="none" xmlns="http://www.w3.org/2000/svg">
<path d="M152.8 0.694559C158.118 11.6004 157.995 25.0151 152.438 35.8127C146.881 46.6102 136.029 54.4912 124.057 56.4779C108.734 59.0226 91.7768 52.5298 77.9735 59.7936C62.7575 67.8113 58.9666 88.7325 44.9629 98.7429C38.7031 103.21 30.8878 105.105 23.1743 105.338C15.4609 105.571 7.84796 104.373 0.281359 103.152C1.87505 99.0278 3.49156 94.9501 5.08526 90.826C14.7227 93.3286 25.9555 95.4478 34.5047 90.3707C39.764 87.2604 43.0966 81.8764 46.4736 76.8158C54.1597 65.1992 63.4158 53.6146 76.5119 48.8867C84.2398 46.1138 92.6916 45.9774 100.889 45.9088C109.109 45.8864 117.491 45.842 125.311 43.2544C133.13 40.6667 140.39 34.9588 142.582 27.0283C144.538 20.1355 142.433 12.8269 140.093 6.09434L152.8 0.694559Z" fill="#FE5C38"/>
</svg>
