<svg width="119" height="80" viewBox="0 0 119 80" fill="none" xmlns="http://www.w3.org/2000/svg">
<path d="M1.06722 66.1904C3.17274 72.5963 8.88234 76.5222 15.167 78.0337C21.4516 79.5453 28.3411 78.9936 35.0999 78.4347C46.2493 77.5066 57.3141 76.6029 68.4634 75.6748C72.508 75.3155 76.7293 74.9952 80.5786 72.8489C84.4739 70.7343 87.9212 66.411 87.8168 62.1247C87.726 58.5089 85.1575 55.8338 82.1931 54.6219C79.1828 53.3784 75.7467 53.247 72.4887 52.6596C69.9835 52.2593 67.2494 51.2057 66.8102 48.5899C66.4543 46.4445 67.7598 43.954 69.5781 42.3945C71.3963 40.8351 73.5431 40.0799 75.6973 39.4126C86.3527 36.2441 97.232 35.7087 107.729 31.1921C111.87 29.4113 116.305 26.5111 117.962 22.0308C119.301 18.4065 118.411 14.5719 116.411 11.9573C114.412 9.34268 111.463 7.81139 108.53 6.45564C88.7032 -2.38412 64.2863 -1.98421 41.5916 7.45037C28.7783 12.7711 16.4091 21.7853 8.02096 34.2806C2.30233 42.9921 -1.7476 57.5613 1.06722 66.1904Z" fill="#F4C9DC"/>
</svg>
