<svg width="732" height="613" viewBox="0 0 732 613" fill="none" xmlns="http://www.w3.org/2000/svg">
<path d="M698.468 271.453C707.554 326.792 678.768 384.77 624.712 433.783C570.664 482.789 491.414 522.767 399.771 542.07C308.128 561.373 221.488 556.337 155.499 532.615C89.5002 508.889 44.238 466.507 35.1524 411.168C26.0669 355.829 54.8522 297.851 108.909 248.838C162.957 199.831 242.207 159.854 333.85 140.551C425.493 121.248 512.133 126.284 578.121 150.006C644.12 173.732 689.383 216.113 698.468 271.453Z" stroke="#BF9EDD" stroke-width="0.945312"/>
<path d="M677.096 226.011C687.452 280.292 661.223 338.079 610.283 387.643C559.35 437.201 483.768 478.474 395.606 499.685C307.444 520.896 223.438 518.019 158.895 496.243C94.3436 474.465 49.3344 433.817 38.978 379.536C28.6217 325.255 54.8504 267.468 105.791 217.904C156.724 168.346 232.306 127.073 320.468 105.862C408.63 84.651 492.635 87.5287 557.178 109.304C621.73 131.082 666.739 171.73 677.096 226.011Z" stroke="#BF9EDD" stroke-width="0.945312"/>
<path d="M681.883 197.487C692.239 251.768 666.011 309.554 615.071 359.119C564.137 408.677 488.555 449.95 400.393 471.161C312.231 492.372 228.226 489.494 163.683 467.719C99.1309 445.941 54.1217 405.293 43.7654 351.012C33.409 296.731 59.6377 238.944 110.578 189.379C161.511 139.822 237.093 98.5486 325.255 77.3376C413.417 56.1266 497.423 59.0043 561.966 80.7796C626.518 102.558 671.527 143.206 681.883 197.487Z" stroke="#BF9EDD" stroke-width="0.945312"/>
</svg>
