<svg width="24" height="24" viewBox="0 0 24 24" fill="none" xmlns="http://www.w3.org/2000/svg">
<path fill-rule="evenodd" clip-rule="evenodd" d="M12.606 3.27L14.056 2.561C14.725 2.234 15.534 2.496 15.883 3.155L16.64 4.581C16.84 4.957 17.202 5.22 17.622 5.294L19.212 5.573C19.946 5.702 20.445 6.389 20.341 7.127L20.115 8.725C20.055 9.147 20.194 9.573 20.49 9.879L21.612 11.039C22.13 11.574 22.13 12.424 21.612 12.96L20.49 14.12C20.194 14.426 20.055 14.852 20.115 15.274L20.341 16.872C20.445 17.61 19.946 18.297 19.212 18.426L17.622 18.705C17.202 18.779 16.84 19.042 16.64 19.418L15.883 20.844C15.534 21.502 14.726 21.765 14.056 21.438L12.606 20.729C12.223 20.542 11.776 20.542 11.393 20.729L9.94301 21.438C9.27401 21.765 8.46501 21.503 8.11601 20.844L7.36001 19.418C7.16001 19.042 6.79801 18.779 6.37801 18.705L4.78801 18.426C4.05401 18.297 3.55501 17.61 3.65901 16.872L3.88501 15.274C3.94501 14.852 3.80601 14.426 3.51001 14.12L2.38801 12.96C1.87001 12.425 1.87001 11.575 2.38801 11.039L3.51001 9.879C3.80601 9.573 3.94501 9.147 3.88501 8.725L3.66001 7.127C3.55501 6.39 4.05501 5.702 4.78901 5.574L6.37901 5.295C6.79801 5.221 7.16001 4.958 7.36001 4.582L8.11701 3.156C8.46601 2.498 9.27401 2.235 9.94401 2.562L11.394 3.271C11.776 3.458 12.224 3.458 12.606 3.27Z" fill="#9381FF"/>
<path fill-rule="evenodd" clip-rule="evenodd" d="M15.375 16H8.625C8.073 16 7.625 15.552 7.625 15V11.376C7.625 10.824 8.073 10.376 8.625 10.376H15.374C15.926 10.376 16.374 10.824 16.374 11.376V15C16.374 15.552 15.926 16 15.375 16Z" stroke="white" stroke-linecap="round" stroke-linejoin="round"/>
<path fill-rule="evenodd" clip-rule="evenodd" d="M12.067 10.381C12.621 10.381 13.764 10.201 14.491 9.442C15.026 8.883 15.026 7.978 14.491 7.419C13.956 6.86 13.088 6.86 12.553 7.419C11.734 8.275 12.067 10.381 12.067 10.381V10.381Z" stroke="white" stroke-linecap="round" stroke-linejoin="round"/>
<path fill-rule="evenodd" clip-rule="evenodd" d="M11.933 10.381C11.379 10.381 10.236 10.201 9.50904 9.442C8.97404 8.883 8.97404 7.978 9.50904 7.419C10.044 6.86 10.912 6.86 11.447 7.419C12.266 8.275 11.933 10.381 11.933 10.381V10.381Z" stroke="white" stroke-linecap="round" stroke-linejoin="round"/>
<path d="M12 10.38V16" stroke="white" stroke-linecap="round" stroke-linejoin="round"/>
</svg>
