<svg width="188" height="201" viewBox="0 0 188 201" fill="none" xmlns="http://www.w3.org/2000/svg">
<path d="M39.5056 142.875C43.6675 143.87 48.4648 144.208 51.9552 141.489C55.5971 138.73 56.5693 133.278 55.392 128.889C53.8493 123.137 48.9754 118.277 43.2071 116.739C21.0128 110.837 19.1503 137.779 39.5056 142.875Z" fill="#F3C8DB"/>
<path d="M80.2909 96.4298C83.2414 97.7489 86.9786 98.3707 89.5715 96.5411C92.1643 94.7114 92.4826 91.0573 92.125 87.9085C91.188 81.9947 87.4036 76.3564 81.7056 74.4749C76.351 72.6638 67.7605 75.1256 66.921 81.6771C66.0815 88.2287 75.1174 94.0835 80.2909 96.4298Z" fill="#F3C8DB"/>
<path d="M33.1145 45.8013C34.0308 43.7714 34.8658 41.4388 34.7111 39.0467C34.5565 36.6546 33.3012 34.395 31.2295 33.3272C29.7339 32.5919 28.1384 32.6945 26.543 32.7971C16.5971 33.8372 -2.57609 44.6479 5.23647 56.833C13.3738 70.2291 29.1575 54.6477 33.1145 45.8013Z" fill="#F3C8DB"/>
<path d="M104.307 178.728C112.025 180.88 120.579 180.699 127.785 177.31C134.991 173.921 140.768 167.021 142.04 159.055C143.312 151.09 139.513 142.373 132.338 138.615C128.387 136.591 123.851 136.02 119.519 136.206C96.0416 137.624 70.5642 169.104 104.307 178.728Z" fill="#F3C8DB"/>
<path d="M161.163 77.2075C163.482 74.9642 163.83 70.8153 161.847 68.2637C157.417 62.6361 149.767 66.7927 148.806 72.8903C147.442 79.9069 156.856 81.1183 161.163 77.2075Z" fill="#F3C8DB"/>
<path d="M93.6453 40.298C96.574 40.3252 99.8351 39.7767 101.276 37.282C102.052 35.9387 102.1 34.3035 101.845 32.7493C101.041 27.9354 96.5622 23.9431 91.6134 23.6455C86.8567 23.4587 80.308 27.4829 80.4769 32.9535C81.0299 38.6458 89.2321 40.1815 93.6453 40.298Z" fill="#F3C8DB"/>
<path d="M125.361 69.6002C126.359 67.8732 126.629 65.8542 126.293 63.9974C126.149 62.2514 125.4 60.6675 124.348 59.1647C118.318 51.2074 109.994 55.8693 110.671 64.4479C111.187 72.4212 120.012 79.3056 125.361 69.6002Z" fill="#F3C8DB"/>
</svg>
