<svg width="178" height="272" viewBox="0 0 178 272" fill="none" xmlns="http://www.w3.org/2000/svg">
<path d="M122.623 2.90585C118.479 7.04429 119.904 14.8039 121.587 20.1062C126.896 36.0134 132.204 52.0498 137.513 67.957C140.75 77.6564 142.433 91.1064 133.111 95.3741C126.248 98.478 118.609 93.6929 113.041 88.6492C106.697 82.9588 99.5756 75.9752 90.5122 78.9497C85.7215 80.5016 82.2256 84.6401 80.8013 89.5545C77.6938 100.547 82.7435 110.505 87.0162 120.205C90.6416 128.482 93.7491 137.664 90.9006 146.329C89.2174 151.502 85.0741 155.64 79.8949 156.933C70.702 159.261 67.3355 151.372 60.9911 148.398C53.2224 144.906 43.5115 150.984 40.663 159.003C37.8145 167.15 40.1451 176.074 43.641 183.963C46.7485 190.688 50.7623 197.283 51.5392 204.655C52.3161 212.026 48.3022 220.691 40.922 221.855C33.0238 223.149 26.4204 216.036 18.6517 216.553C11.0125 217.07 4.27961 224.312 2.07848 231.167C-2.58274 245.522 8.03448 261.041 20.8528 270.223C26.6794 274.362 34.707 270.87 35.7428 263.886C36.5197 258.455 37.944 253.411 39.8861 252.118C49.597 245.781 58.2721 254.058 67.465 251.471C74.9748 249.402 77.6938 238.926 77.1759 232.331C76.658 224.7 73.421 217.458 72.6442 209.699C71.8673 202.068 74.7158 193.015 81.9666 190.429C91.4185 187.066 101.259 196.507 111.229 195.343C123.529 193.921 128.32 177.884 125.86 165.728C123.27 152.278 115.76 139.216 119.774 125.507C120.551 122.791 123.011 120.593 125.86 120.463C131.686 120.205 132.981 127.318 135.571 132.103C144.246 148.269 164.056 139.216 169.753 125.895C178.428 105.591 179.075 80.8896 173.378 59.6801C168.588 42.0917 159.136 25.7966 146.447 12.7347C141.656 7.82025 133.887 -1.87923 126.378 0.319321C124.953 0.965953 123.659 1.87124 122.623 2.90585Z" fill="#FCDAA4"/>
</svg>
