<svg width="40" height="51" viewBox="0 0 40 51" fill="none" xmlns="http://www.w3.org/2000/svg">
<path d="M14.4394 15.5317C15.2251 13.742 15.8986 11.9524 16.3476 10.0509L18.7049 0.76701C18.9294 -0.127821 20.0519 -0.239695 20.6131 0.431428C22.4091 3.22778 22.2969 7.14266 22.1846 10.4983C22.0724 14.6369 22.5214 19.6703 26.1134 21.6837C29.8177 23.8089 35.0934 21.6837 38.91 23.3615C39.808 23.697 39.808 25.0393 39.0222 25.4867C35.8792 27.1645 31.6137 26.6053 28.3584 28.2831C24.9909 29.9609 23.1949 33.652 22.2969 37.3432C21.5111 41.0344 21.5111 44.8374 20.6131 48.4168C20.3886 49.4235 20.0519 50.4301 19.0416 50.8775C18.1436 51.2131 17.0211 50.7657 16.4598 49.8709C15.8986 49.0879 15.6741 48.0812 15.5619 47.0745C15.0006 42.9359 15.0006 38.5736 13.6536 34.5469C12.3066 30.632 7.7043 26.829 3.55103 26.2697C0.969265 25.9341 -1.1635 24.9274 2.98978 23.9207C7.81655 22.6903 11.1841 22.5785 14.4394 15.5317Z" fill="#9F8FFE"/>
</svg>
