<svg width="166" height="202" viewBox="0 0 166 202" fill="none" xmlns="http://www.w3.org/2000/svg">
<path d="M24.8911 22.4796C12.1069 29.2269 -1.39317 40.6769 0.243206 54.9893C1.77731 69.1996 17.6297 77.5826 31.8457 78.6049C46.0617 79.6272 60.4823 75.9469 74.6983 77.7871C84.2097 79.0138 94.9484 85.1477 94.437 94.7575C94.0279 103.345 84.9256 108.457 76.9483 111.83C62.7323 117.964 48.0049 124.405 37.1639 135.446C26.2206 146.487 19.8797 163.56 25.8116 177.872C33.1753 195.763 55.3686 202.101 74.6983 201.999C88.3006 201.897 101.801 199.75 114.687 195.558C122.562 193.002 130.642 189.424 135.653 182.881C140.665 176.339 141.585 165.911 135.756 160.084C131.767 156.199 125.937 155.074 120.415 154.461C114.892 153.848 109.062 153.439 104.46 150.269C99.8575 147.203 97.1984 140.353 100.471 135.855C102.619 132.992 106.403 132.072 109.778 131.254C123.176 128.187 137.085 124.609 147.21 115.511C157.437 106.412 162.347 89.8504 154.472 78.7071C148.233 69.9152 136.778 67.2572 126.551 63.9858C122.971 62.8612 119.085 61.3277 117.244 57.9541C114.483 52.7402 118.778 45.9929 124.301 43.9483C129.824 41.9037 135.96 43.0282 141.892 43.9483C147.722 44.8684 154.165 45.2773 159.176 42.2104C171.756 34.3385 164.597 17.777 154.574 11.7453C144.142 5.50913 127.778 1.52208 115.608 0.397526C86.0506 -2.2605 50.7663 8.78055 24.8911 22.4796Z" fill="#F0FBF6"/>
</svg>
