<svg width="100" height="100" viewBox="0 0 100 100" fill="none" xmlns="http://www.w3.org/2000/svg">
<path d="M69.5 6.74997C62.4999 6.45115 55.6115 8.5795 50 12.775C44.3885 8.5795 37.5001 6.45115 30.5 6.74997C11 6.74997 1.25 18.45 1.25 36C1.25 62.975 26.25 81.675 45.3 92.05C46.7413 92.8377 48.3575 93.2505 50 93.2505C51.6425 93.2505 53.2587 92.8377 54.7 92.05C73.875 81.675 98.75 62.975 98.75 36C98.75 18.45 89 6.74997 69.5 6.74997Z" fill="#FED1C7"/>
<path d="M70.9 16.7749C81.85 15.6249 85.675 21.7749 87.25 26.1749" stroke="white" stroke-width="3" stroke-linecap="round"/>
</svg>
