<svg width="100" height="100" viewBox="0 0 100 100" fill="none" xmlns="http://www.w3.org/2000/svg">
<path d="M75.038 75.4683C91.2658 59.2152 105.949 25.2152 96.2785 19.4177C69.5696 3.39238 37.1645 5.13922 20.9367 21.3671C7.8734 34.4304 4.1772 49.8228 12.6329 64.7595C11.1392 66 9.46834 67.5949 7.5696 69.5949C4.07593 73.0379 0.556945 77.8481 0.683527 79.2152C0.151881 81.5443 3.54429 85.5696 6.63289 87.924C9.7215 90.2785 14.5569 92.5569 16.5569 91.443C18.0253 91.1898 21.6202 86.6076 24.1519 82.4557C24.7342 81.4683 25.2658 80.5569 25.7468 79.6962C42.405 93.0379 60.1266 90.2531 75.038 75.4683Z" fill="#D0CFFF"/>
<path d="M68.1519 17.4177C74.5801 17.985 80.8167 19.9 86.4557 23.038" stroke="white" stroke-width="3" stroke-linecap="round"/>
</svg>
