<svg width="100" height="100" viewBox="0 0 100 100" fill="none" xmlns="http://www.w3.org/2000/svg">
<path d="M95.6 34.6C90.7227 32.2944 85.5736 30.6144 80.275 29.6C76.2915 28.8131 72.2557 28.3201 68.2 28.125C66.8026 24.5754 65.1308 21.14 63.2 17.85C60.6342 13.109 57.4847 8.70811 53.825 4.75004C52.6803 3.67609 51.1696 3.07837 49.6 3.07837C48.0304 3.07837 46.5197 3.67609 45.375 4.75004C41.7151 8.74458 38.5659 13.1786 36 17.95C34.159 21.2818 32.5388 24.7309 31.15 28.275C27.3158 28.4828 23.5039 28.9927 19.75 29.8C14.452 30.7864 9.29624 32.4238 4.39997 34.675C3.04966 35.4588 2.0432 36.7215 1.58014 38.2125C1.11708 39.7036 1.23123 41.3142 1.89997 42.725C4.52514 47.428 7.72467 51.7864 11.425 55.7C14.069 58.52 16.8914 61.1671 19.875 63.625C18.7436 67.5927 17.9491 71.6488 17.5 75.75C16.8312 81.0875 16.8312 86.4876 17.5 91.825C17.793 93.3727 18.6641 94.7507 19.9364 95.6794C21.2086 96.6081 22.7867 97.0177 24.35 96.825C29.6285 95.7952 34.7592 94.1158 39.625 91.825C43.0701 90.184 46.4099 88.3305 49.625 86.275C52.8337 88.3411 56.1742 90.1951 59.625 91.825C64.4894 94.1191 69.6205 95.7987 74.9 96.825C76.4633 97.0177 78.0413 96.6081 79.3136 95.6794C80.5858 94.7507 81.4569 93.3727 81.75 91.825C82.4187 86.4876 82.4187 81.0875 81.75 75.75C81.3375 71.8249 80.6187 67.938 79.6 64.125C82.8701 61.5562 85.9069 58.7034 88.675 55.6C92.3722 51.6779 95.579 47.3209 98.225 42.625C98.8881 41.2041 98.9859 39.5841 98.4984 38.0938C98.0109 36.6034 96.9747 35.3544 95.6 34.6Z" fill="#95E1C2"/>
<path d="M53.7999 14.6001C56.1984 17.9551 58.2743 21.5293 59.9999 25.2751" stroke="white" stroke-width="3" stroke-linecap="round"/>
</svg>
