<svg width="24" height="25" viewBox="0 0 24 25" fill="none" xmlns="http://www.w3.org/2000/svg">
<g clip-path="url(#clip0_408_659)">
<path fill-rule="evenodd" clip-rule="evenodd" d="M24 12.7158C24 19.3432 18.6274 24.7158 12 24.7158C5.37258 24.7158 0 19.3432 0 12.7158C0 6.0884 5.37258 0.71582 12 0.71582C18.6274 0.71582 24 6.0884 24 12.7158ZM12.43 9.57475C11.2628 10.0602 8.93014 11.065 5.43189 12.5891C4.86383 12.815 4.56626 13.036 4.53917 13.2521C4.49339 13.6173 4.95071 13.7611 5.57347 13.9569C5.65818 13.9836 5.74595 14.0112 5.83594 14.0404C6.44864 14.2396 7.27283 14.4726 7.70129 14.4819C8.08994 14.4902 8.52373 14.33 9.00264 14.0012C12.2712 11.7948 13.9584 10.6796 14.0643 10.6556C14.139 10.6386 14.2426 10.6173 14.3128 10.6797C14.3829 10.742 14.376 10.8601 14.3686 10.8918C14.3233 11.085 12.5281 12.7539 11.5991 13.6176C11.3095 13.8868 11.1041 14.0778 11.0621 14.1215C10.968 14.2192 10.8721 14.3116 10.78 14.4004C10.2108 14.9491 9.78391 15.3606 10.8036 16.0326C11.2936 16.3555 11.6858 16.6226 12.0769 16.889C12.5042 17.1799 12.9303 17.4701 13.4816 17.8315C13.6221 17.9236 13.7562 18.0192 13.8869 18.1123C14.3841 18.4668 14.8307 18.7852 15.3826 18.7345C15.7032 18.7049 16.0345 18.4034 16.2027 17.5042C16.6002 15.379 17.3816 10.7743 17.5622 8.87679C17.578 8.71055 17.5581 8.49779 17.5422 8.40439C17.5262 8.311 17.4928 8.17793 17.3714 8.07942C17.2276 7.96276 17.0056 7.93816 16.9064 7.9399C16.455 7.94785 15.7626 8.18864 12.43 9.57475Z" fill="white"/>
</g>
<defs>
<clipPath id="clip0_408_659">
<rect width="24" height="24" fill="white" transform="translate(0 0.71582)"/>
</clipPath>
</defs>
</svg>
