<svg width="24" height="25" viewBox="0 0 24 25" fill="none" xmlns="http://www.w3.org/2000/svg">
<g clip-path="url(#clip0_408_663)">
<path d="M17.0725 0.71582H13.0278V17.0636C13.0278 19.0115 11.4722 20.6115 9.53626 20.6115C7.60034 20.6115 6.04469 19.0115 6.04469 17.0636C6.04469 15.1506 7.56577 13.5854 9.43257 13.5158V9.41149C5.31872 9.48102 2 12.855 2 17.0636C2 21.3072 5.38786 24.7158 9.57085 24.7158C13.7538 24.7158 17.1416 21.2724 17.1416 17.0636V8.68102C18.6627 9.79409 20.5295 10.455 22.5 10.4898V6.38539C19.4579 6.28104 17.0725 3.77669 17.0725 0.71582Z" fill="white"/>
</g>
<defs>
<clipPath id="clip0_408_663">
<rect width="24" height="24" fill="white" transform="translate(0 0.71582)"/>
</clipPath>
</defs>
</svg>
