<svg width="24" height="18" viewBox="0 0 24 18" fill="none" xmlns="http://www.w3.org/2000/svg">
<path d="M23.7609 3.91563C23.7609 3.91563 23.5266 2.26094 22.8047 1.53438C21.8906 0.578125 20.8688 0.573437 20.4 0.517187C17.0438 0.273437 12.0047 0.273438 12.0047 0.273438H11.9953C11.9953 0.273438 6.95625 0.273437 3.6 0.517187C3.13125 0.573437 2.10938 0.578125 1.19531 1.53438C0.473438 2.26094 0.24375 3.91563 0.24375 3.91563C0.24375 3.91563 0 5.86094 0 7.80156V9.62031C0 11.5609 0.239062 13.5063 0.239062 13.5063C0.239062 13.5063 0.473437 15.1609 1.19062 15.8875C2.10469 16.8438 3.30469 16.8109 3.83906 16.9141C5.76094 17.0969 12 17.1531 12 17.1531C12 17.1531 17.0438 17.1438 20.4 16.9047C20.8688 16.8484 21.8906 16.8438 22.8047 15.8875C23.5266 15.1609 23.7609 13.5063 23.7609 13.5063C23.7609 13.5063 24 11.5656 24 9.62031V7.80156C24 5.86094 23.7609 3.91563 23.7609 3.91563ZM9.52031 11.8281V5.08281L16.0031 8.46719L9.52031 11.8281Z" fill="white"/>
</svg>
