<svg width="169" height="228" viewBox="0 0 169 228" fill="none" xmlns="http://www.w3.org/2000/svg">
<path d="M25.5422 221.288C36.2211 229.457 50.0147 229.457 62.0285 224.828C74.0423 220.198 84.7213 211.484 95.1777 202.906C112.42 188.746 129.55 174.721 146.792 160.561C153.022 155.387 159.585 150.077 163.478 142.18C167.483 134.282 168.262 123.254 163.256 116.309C159.029 110.455 151.798 108.957 145.569 110.318C139.228 111.68 133.444 115.356 127.437 118.079C122.876 120.258 117.203 121.62 113.532 117.807C110.529 114.676 109.861 109.093 111.085 104.464C112.308 99.8342 114.978 96.158 117.759 92.6178C131.664 75.3257 148.906 62.1184 161.031 42.7839C165.814 35.159 169.819 25.3556 167.483 16.0968C165.592 8.60811 159.807 3.29794 153.578 1.25557C147.349 -0.786804 140.786 0.0301361 134.445 1.1194C91.9518 9.01659 52.3507 37.3376 25.7647 78.5936C10.7475 101.877 0.624741 130.742 0.958466 160.833C1.40341 181.665 11.1924 210.259 25.5422 221.288Z" fill="#F4C9DC"/>
</svg>
