<svg width="1321" height="1061" viewBox="0 0 1321 1061" fill="none" xmlns="http://www.w3.org/2000/svg">
<path fill-rule="evenodd" clip-rule="evenodd" d="M1116.1 692.238C1199.47 607.99 1237.31 514.45 1211.05 431.434C1184.8 348.417 1099.16 290.817 981.048 265.212C863.02 239.624 713.06 246.132 559.194 290.917C405.329 335.701 276.88 410.226 193.57 494.416C110.202 578.664 72.3619 672.204 98.6166 755.22C124.871 838.237 210.511 895.837 328.621 921.442C446.649 947.03 596.609 940.522 750.475 895.737C904.34 850.953 1032.79 776.428 1116.1 692.238ZM751.078 897.644C1059.33 807.924 1266.13 598.945 1212.97 430.875C1159.82 262.805 866.843 199.29 558.591 289.01C250.34 378.73 43.5427 587.709 96.6963 755.779C149.85 923.849 442.827 987.364 751.078 897.644Z" fill="#BF9EDD"/>
<path fill-rule="evenodd" clip-rule="evenodd" d="M1123.01 611.004C1206.38 526.757 1244.22 433.216 1217.97 350.2C1191.71 267.183 1106.07 209.583 987.962 183.978C869.934 158.39 719.974 164.898 566.109 209.683C412.243 254.467 283.794 328.992 200.484 413.182C117.116 497.43 79.276 590.97 105.531 673.986C131.785 757.003 217.425 814.603 335.535 840.209C453.563 865.796 603.523 859.288 757.389 814.504C911.254 769.719 1039.7 695.194 1123.01 611.004ZM757.992 816.41C1066.24 726.691 1273.04 517.711 1219.89 349.641C1166.73 181.571 873.757 118.056 565.505 207.776C257.254 297.496 50.4567 506.476 103.61 674.545C156.764 842.615 449.741 906.13 757.992 816.41Z" fill="#BF9EDD"/>
<path fill-rule="evenodd" clip-rule="evenodd" d="M1127.34 565.681C1210.71 481.433 1248.55 387.893 1222.29 304.877C1196.04 221.86 1110.4 164.26 992.286 138.654C874.258 113.067 724.298 119.575 570.433 164.359C416.567 209.144 288.118 283.669 204.808 367.859C121.44 452.107 83.6002 545.647 109.855 628.663C136.11 711.68 221.749 769.28 339.859 794.885C457.888 820.473 607.847 813.965 761.713 769.18C915.579 724.396 1044.03 649.871 1127.34 565.681ZM762.316 771.087C1070.57 681.367 1277.36 472.387 1224.21 304.318C1171.06 136.248 878.081 72.7326 569.83 162.453C261.578 252.172 54.7809 461.152 107.935 629.222C161.088 797.292 454.065 860.807 762.316 771.087Z" fill="#BF9EDD"/>
</svg>
