<svg width="208" height="137" viewBox="0 0 208 137" fill="none" xmlns="http://www.w3.org/2000/svg">
<path d="M2.62373 83.5828C16.0459 91.2486 33.6672 90.3074 45.8627 80.5326C51.3158 76.16 56.3068 69.2726 53.8675 62.0825C52.1709 57.048 45.6224 52.0128 40.2975 55.7243C34.4607 59.7184 37.3375 68.4606 41.8392 72.2645C47.5857 77.084 57.0972 78.0768 64.4243 77.6419C80.1609 76.6285 96.7753 66.9118 101.114 51.4166C103.093 44.2846 101.938 36.8168 97.25 30.8909C93.7866 26.6274 85.2651 20.8878 79.4629 24.3406C73.8624 27.6593 74.9284 36.8563 77.6634 41.4311C81.4068 47.697 88.7923 50.0451 95.9227 48.9922C115.025 46.0297 122.224 25.7546 135.354 14.7824C142.471 8.90121 154.754 4.48167 162.335 12.1707C169.793 19.7686 166.883 32.069 164.952 41.1267C160.455 61.795 157.351 84.5328 166.115 104.623C173.114 120.762 186.964 133.845 205.086 136.487C209.254 137.115 207.715 129.269 203.779 128.717C191.399 126.924 181.209 118.722 174.913 108.394C167.362 96.193 166.179 81.43 167.309 67.4337C168.547 53.4231 174.297 39.3508 173.419 25.1914C172.821 15.3957 167.823 4.89538 157.85 1.38775C146.489 -2.5799 134.702 3.81319 126.985 11.7061C118.022 20.9448 111.721 34.2315 99.2313 39.5372C94.3348 41.5818 85.054 43.0272 82.3291 36.9483C80.8683 33.5999 82.5567 30.6926 86.2914 31.378C90.3656 32.1258 93.7751 35.2158 95.0635 38.9091C99.5832 51.5122 84.8235 63.4518 74.322 67.2058C67.5062 69.7196 59.7757 70.4227 52.7246 68.889C51.706 68.702 50.5645 68.424 49.5164 68.0263C48.2519 67.6573 47.0808 67.1686 45.8951 66.5745C43.553 65.597 43.3466 64.1216 45.463 61.9089C49.2373 61.3011 47.706 66.1196 46.8445 67.8439C45.8895 69.688 44.2407 71.302 42.6708 72.6909C32.4732 81.7714 16.4854 83.3547 4.61803 76.5561C0.229189 74.3473 -0.731815 81.6664 2.62373 83.5828Z" fill="#FBF1DF"/>
</svg>
