<svg width="140" height="193" viewBox="0 0 140 193" fill="none" xmlns="http://www.w3.org/2000/svg">
<path d="M4.74463 65.3436C0.925529 70.7741 -2.41618 78.5319 2.35769 83.1865C8.88198 89.5479 21.1349 80.8592 28.9323 85.8242C33.0696 88.4618 34.0243 94.0474 32.7513 98.547C31.4783 103.046 28.2957 106.925 25.2722 110.649C17.7932 120.269 11.2689 130.354 5.69936 141.06C3.78981 144.939 1.8803 148.817 1.56205 153.162C1.24379 157.351 2.99419 162.006 6.81329 164.178C11.9054 167.126 18.4297 164.488 23.9992 162.471C29.5687 160.454 37.0478 159.678 40.3895 164.488C44.686 171.005 36.7296 180.004 40.0713 186.986C42.2991 191.64 48.6642 192.882 53.9155 192.727C80.6492 192.106 103.405 172.867 117.726 150.834C132.684 128.027 141.277 101.029 139.845 74.1875C138.731 51.0693 128.388 15.2283 105.792 2.97102C84.4683 -8.66566 53.2789 16.7799 38.0026 29.3475C25.4314 39.8981 14.1332 51.8451 4.74463 65.3436Z" fill="#FFC6BA"/>
</svg>
