<svg width="124" height="124" viewBox="0 0 124 124" fill="none" xmlns="http://www.w3.org/2000/svg">
<g clip-path="url(#clip0_229_3010)">
<path d="M2.49779 84.2855C1.77407 81.0879 1.39659 77.7597 1.40889 74.3397C1.49687 49.5363 21.677 29.8359 46.4756 30.3203C70.6263 30.7914 90.0287 50.6366 89.7837 74.9566C89.5434 98.759 70.21 118.253 46.4104 118.682C39.4645 118.807 32.8762 117.328 26.9909 114.592C23.4697 112.954 19.3932 113.201 15.9733 115.04C12.4653 116.928 8.51937 117.863 5.1855 118.318C1.84502 118.773 -0.837019 115.572 0.242419 112.378C5.05117 98.1536 2.49779 84.2865 2.49779 84.2855Z" fill="#9DE8C8"/>
<path d="M46.4754 30.3203C34.9318 30.0942 24.39 34.2417 16.4082 41.2434C15.1764 55.6299 16.972 79.2015 38.4387 92.5464C44.0176 96.0137 48.0099 101.571 49.2483 108.021C49.832 111.065 50.0297 114.594 49.4498 118.522C71.8341 116.571 89.5536 97.7364 89.7834 74.9566C90.0285 50.6366 70.626 30.7914 46.4754 30.3203Z" fill="#7FDEB6"/>
<path d="M121.502 59.0608C122.226 55.8632 122.604 52.5341 122.592 49.1151C122.503 24.3117 102.323 4.61122 77.5245 5.09465C53.3739 5.56578 33.9714 25.4119 34.2165 49.7319C34.4568 73.5334 53.7901 93.0286 77.5898 93.4571C84.5357 93.582 91.1239 92.1033 97.0093 89.3664C100.53 87.7298 104.607 87.9767 108.027 89.8158C111.536 91.7032 115.481 92.6379 118.816 93.0929C122.155 93.548 124.837 90.3475 123.758 87.1536C118.95 72.9289 121.502 59.0608 121.502 59.0608Z" fill="#D2F1E4"/>
<path d="M65.0074 37.0625H59.1135C56.2943 37.0625 54.0087 39.3472 54.0087 42.1664V49.2163C54.0087 52.0356 56.2943 54.3212 59.1135 54.3212C59.1135 54.3212 63.2572 54.2966 65.1427 58.1385C65.8134 59.5065 66.399 61.2216 66.6336 63.2197C66.9411 65.845 70.3979 66.5668 71.7432 64.2916C74.3326 59.9114 76.2464 53.1443 73.6211 43.593C72.5578 39.7266 69.0167 37.0625 65.0074 37.0625Z" fill="#5EC69A"/>
<path d="M92.9308 37.0625H87.0369C84.2177 37.0625 81.9321 39.3472 81.9321 42.1664V49.2163C81.9321 52.0356 84.2177 54.3212 87.0369 54.3212C87.0369 54.3212 91.1806 54.2966 93.0661 58.1385C93.7368 59.5065 94.3224 61.2216 94.557 63.2197C94.8645 65.845 98.3214 66.5668 99.6666 64.2916C102.256 59.9114 104.17 53.1443 101.545 43.593C100.481 39.7266 96.9401 37.0625 92.9308 37.0625Z" fill="#5EC69A"/>
</g>
<defs>
<clipPath id="clip0_229_3010">
<rect width="124" height="124" fill="white"/>
</clipPath>
</defs>
</svg>
