<svg width="24" height="25" viewBox="0 0 24 25" fill="none" xmlns="http://www.w3.org/2000/svg">
<path fill-rule="evenodd" clip-rule="evenodd" d="M1.684 2.39982C0 4.08382 0 6.79502 0 12.2158V13.2158C0 18.6358 0 21.3478 1.684 23.0318C3.368 24.7158 6.0792 24.7158 11.5 24.7158H12.5C17.92 24.7158 20.632 24.7158 22.316 23.0318C24 21.3478 24 18.6366 24 13.2158V12.2158C24 6.79582 24 4.08382 22.316 2.39982C20.632 0.71582 17.9208 0.71582 12.5 0.71582H11.5C6.08 0.71582 3.368 0.71582 1.684 2.39982ZM4.75039 8.21582H6.49999C6.94719 8.21582 7.11519 8.41182 7.28319 8.89662C8.13919 11.3894 9.58239 13.5686 10.1752 13.5686C10.3984 13.5686 10.5 13.4662 10.5 12.9006V10.3238C10.4599 9.59028 10.2036 9.27297 10.0138 9.03796C9.89664 8.89287 9.80479 8.77915 9.80479 8.61822C9.80479 8.42222 9.97199 8.21582 10.2496 8.21582H13C13.3712 8.21582 13.5 8.41422 13.5 8.85902V12.3262C13.5 12.6966 13.6608 12.827 13.772 12.827C13.9944 12.827 14.18 12.6966 14.588 12.2886C15.8488 10.8798 16.7384 8.71102 16.7384 8.71102C16.8496 8.45102 17.0552 8.21582 17.5 8.21582H19.2496C19.7792 8.21582 19.8912 8.48862 19.7792 8.85902C19.5568 9.87902 17.4248 12.8822 17.4248 12.8822C17.2392 13.179 17.1648 13.327 17.4248 13.6606C17.5165 13.7891 17.7123 13.981 17.9361 14.2004C18.165 14.4248 18.4233 14.6779 18.6296 14.9214C19.3816 15.767 19.948 16.4806 20.1056 16.9718C20.2504 17.4654 20 17.7158 19.5 17.7158H17.7496C17.281 17.7158 17.0452 17.4534 16.5353 16.8858C16.3192 16.6453 16.0539 16.35 15.7008 15.9966C14.6616 14.9958 14.2176 14.8662 13.9576 14.8662C13.6056 14.8662 13.5 14.9662 13.5 15.4662V17.0358C13.5 17.4654 13.3624 17.7158 12.2496 17.7158C10.396 17.7158 8.35839 16.5902 6.91279 14.5134C4.74319 11.4734 4.15039 9.17422 4.15039 8.71102C4.15039 8.45102 4.25039 8.21582 4.75039 8.21582Z" fill="white"/>
</svg>
