<svg width="239" height="239" viewBox="0 0 239 239" fill="none" xmlns="http://www.w3.org/2000/svg">
<path d="M33.2734 44.7903L53.4825 24.4326L64.965 35.9391L53.703 47.2613L52.27 48.718L53.7214 50.1563L60.8864 57.3479L53.3723 64.9083L33.2734 44.7903ZM50.1572 33.0072L48.6875 34.4824L44.8661 38.3916L43.4698 39.8115L44.8477 41.2498L48.7977 45.3251L50.2491 46.8187L51.7188 45.3435L55.5402 41.4342L56.9364 40.0144L55.5402 38.576L51.6086 34.5008L50.1572 33.0072Z" fill="#9381FF"/>
<path d="M80.8393 13.1289L91.4767 39.5349L81.3354 43.6654L70.6797 17.2595L80.8393 13.1289Z" fill="#9381FF"/>
<path d="M133.27 27.5849L129.376 31.9736L125.407 36.2516C123.57 34.4445 120.888 31.8076 118.867 29.853L118.205 29.226L116.662 27.7324L115.248 29.3551L114.66 30.0374C112.841 32.1395 110.489 34.924 108.707 37.0445L104.353 33.1537L100.072 29.1523C101.799 27.382 104.445 24.6713 106.466 22.5692L107.09 21.9054L108.579 20.3564L106.962 18.9365L106.264 18.3464C104.077 16.4471 101.193 13.9946 99.3008 12.3904L103.159 8.03853L107.164 3.72358C109.001 5.53069 111.647 8.14917 113.704 10.1407L114.366 10.7676L115.927 12.2613L117.324 10.6386L117.912 9.93784C119.785 7.78037 122.192 4.92218 123.846 2.93066L128.218 6.83993L132.48 10.823C130.57 12.796 127.998 15.4329 126.105 17.4429L125.481 18.0883L123.993 19.6557L125.628 21.0571L126.307 21.6472C128.494 23.5465 131.433 26.0359 133.27 27.5849Z" fill="#9381FF"/>
<path d="M152.188 11.083L174.289 20.4874L172.709 24.2307L162.035 19.676L160.161 18.8831L159.353 20.764L157.773 24.5257L156.983 26.4066L158.857 27.1995L169.549 31.7542L167.969 35.4975L157.277 30.9428L155.403 30.1499L154.613 32.0308L153.014 35.7925L152.224 37.6734L154.098 38.4663L164.791 43.0025L163.211 46.7458L141.109 37.3599L152.188 11.083Z" fill="#9381FF"/>
<path d="M181.918 57.3302L183.387 58.7685L192.463 67.7119L189.579 70.6254L171.391 53.0153L191.434 32.7129L198.893 40.1442L183.351 55.8734L181.918 57.3302Z" fill="#9381FF"/>
<path d="M227.336 98.9674L225.388 99.4468L219.913 100.83L217.893 101.346L218.444 103.356L219.895 108.63L220.428 110.566L222.357 110.068L227.832 108.685L229.871 108.169L229.302 106.159L227.85 100.885L227.336 98.9674ZM215.247 102.158L213.281 102.692L203.489 105.348L200.715 95.0213L228.126 87.6084L235.585 115.361L219.932 119.583L215.78 104.131L215.247 102.158Z" fill="#9381FF"/>
<path d="M233.192 133.892L231.668 144.772L203.559 140.826L205.065 129.946L233.192 133.892Z" fill="#9381FF"/>
<path d="M214.459 164.281C217.178 163.323 220.742 162.05 223.075 161.202L224.894 166.734L226.621 172.358C224.141 173.059 220.558 174.055 217.803 174.866L216.939 175.106L214.881 175.714L215.58 177.743L215.874 178.609C216.81 181.32 218.078 184.842 218.96 187.276L213.412 189.102L207.827 190.835C207.092 188.18 206.1 184.639 205.328 181.984L205.071 181.099L204.465 179.052L202.444 179.753L201.58 180.048C198.843 181.007 195.242 182.316 192.964 183.127L191.145 177.558L189.418 171.971C191.917 171.27 195.517 170.256 198.218 169.482L199.1 169.223L201.158 168.615L200.459 166.586L200.166 165.72C199.265 163.101 198.034 159.653 197.097 157.053L202.627 155.227L208.231 153.494C208.892 155.891 209.903 159.542 210.711 162.345L210.968 163.212L211.556 165.296L213.595 164.577L214.459 164.281Z" fill="#9381FF"/>
<path d="M182.141 204.333L180.506 205.569L171.247 212.594L168.803 209.349L178.062 202.323L179.698 201.106L178.467 199.465L176.023 196.201L174.792 194.578L173.176 195.814L163.898 202.821L161.473 199.576L180.635 185.063L197.739 207.837L178.577 222.349L176.152 219.104L185.411 212.096L187.028 210.861L185.815 209.22L183.354 205.974L182.141 204.333Z" fill="#9381FF"/>
<path d="M127.684 210.566L151.971 203.559L159.449 231.126L149.326 233.911L143.52 212.539L142.987 210.547L141.003 211.101L128.749 214.53L127.684 210.566Z" fill="#9381FF"/>
<path d="M84.3621 229.208L84.8949 227.271L86.4565 221.813L87.026 219.803L85.0051 219.268L79.7324 217.904L77.8033 217.406L77.2521 219.324L75.7089 224.782L75.1394 226.792L77.1603 227.327L82.433 228.691L84.3621 229.208ZM87.6323 217.093L88.1651 215.12L90.7739 205.291L101.062 208.039L93.7685 235.569L66.082 228.175L70.2525 212.446L85.6665 216.576L87.6323 217.093Z" fill="#9381FF"/>
<path d="M60.1094 187.607L42.6562 210.066L51.2944 216.829L68.7475 194.369L60.1094 187.607Z" fill="#9381FF"/>
<path d="M49.3448 173.87L48.1689 179.605L46.8645 185.34C44.4762 184.713 40.8018 183.772 37.9725 183.072L37.0907 182.85L35.0147 182.334L34.6105 184.455L34.4451 185.358C33.894 188.18 33.2326 191.941 32.7917 194.375L27.0964 193.195L21.3827 191.886C22.0257 189.378 22.9443 185.764 23.6241 182.98L23.8446 182.094L24.359 179.992L22.2462 179.587L21.3644 179.421C18.5535 178.886 14.8791 178.222 12.3438 177.761L13.5379 172.026L14.8423 166.31C17.5063 167.011 21.052 167.914 23.7343 168.56L24.6162 168.781L26.6922 169.279L27.0964 167.177L27.2617 166.273C27.8129 163.415 28.4926 159.635 28.9152 157.256L34.6289 158.454L40.3242 159.745C39.6811 162.272 38.7442 165.904 38.0644 168.652L37.8623 169.537L37.3479 171.621L39.4423 172.026L40.3425 172.211C43.0432 172.727 46.6441 173.391 49.3448 173.87Z" fill="#9381FF"/>
<path d="M20.0379 136.733L22.0588 136.475L26.1006 135.977L28.1215 135.738L27.8643 133.709L26.4497 122.147L30.4731 121.649L33.4126 145.548L5.19341 149.051L2.25391 125.135L6.27735 124.637L7.69199 136.199L7.94919 138.227L9.9701 137.987L14.0119 137.489L16.0328 137.231L15.7756 135.203L14.361 123.641L18.3661 123.143L19.7991 134.705L20.0379 136.733Z" fill="#9381FF"/>
<path d="M37.885 86.7797L31.8039 111.397L4.24609 104.132L6.92839 93.9344L28.2765 99.577L30.2607 100.093L30.7567 98.1018L33.9351 85.7471L37.885 86.7797Z" fill="#9381FF"/>
<path d="M225.386 99.4462L227.334 98.9668L227.848 100.885L229.3 106.158L229.869 108.168L227.83 108.685L222.355 110.068L220.426 110.566L219.893 108.629L218.442 103.356L217.891 101.346L219.912 100.829L225.386 99.4462ZM227.334 106.712L225.901 101.438L220.408 102.821L221.859 108.095L227.334 106.712Z" fill="#9381FF"/>
<path d="M233.191 133.893L205.064 129.947L203.557 140.826L231.666 144.772L233.191 133.893ZM203.337 127.642L235.487 132.141L233.393 147.096L201.242 142.578L203.337 127.642Z" fill="#9381FF"/>
<path d="M213.28 102.692L215.246 102.158L215.778 104.131L219.93 119.583L235.583 115.361L228.124 87.6084L200.713 95.0213L203.488 105.348L213.28 102.692ZM202.055 107.855L198.215 93.583L229.557 85.1006L238.082 116.799L218.479 122.091L213.813 104.665L202.055 107.855Z" fill="#9381FF"/>
<path d="M202.233 181.982C198.687 183.218 193.653 185.043 191.687 185.763L189.189 178.184L186.855 170.55C188.876 169.996 194.039 168.558 197.64 167.507L198.522 167.249L198.228 166.382C196.997 162.823 195.178 157.752 194.461 155.761L201.994 153.271L209.618 150.911C210.188 152.958 211.602 158.14 212.65 161.772L212.907 162.639L213.77 162.344C217.334 161.108 222.368 159.283 224.334 158.564L226.833 166.124L229.166 173.777C227.145 174.33 221.983 175.768 218.363 176.819L217.5 177.077L217.794 177.944C219.025 181.503 220.862 186.574 221.578 188.547L214.009 191.055L206.403 193.415C205.852 191.368 204.419 186.187 203.353 182.554L203.096 181.687L202.233 181.982ZM200.451 166.585L201.149 168.613L199.091 169.222L198.209 169.48C195.509 170.255 191.908 171.269 189.409 171.97L191.136 177.557L192.955 183.126C195.233 182.314 198.834 181.005 201.571 180.046L202.435 179.751L204.456 179.05L205.062 181.097L205.319 181.982C206.091 184.638 207.083 188.178 207.818 190.834L213.403 189.1L218.951 187.275C218.069 184.841 216.802 181.319 215.865 178.608L215.571 177.741L214.873 175.713L216.93 175.104L217.794 174.865C220.55 174.053 224.132 173.058 226.612 172.357L224.885 166.733L223.066 161.201C220.733 162.049 217.169 163.321 214.45 164.28L213.587 164.575L211.547 165.294L210.959 163.211L210.702 162.344C209.894 159.541 208.883 155.89 208.222 153.493L202.619 155.226L197.089 157.052C198.026 159.652 199.256 163.1 200.157 165.718L200.451 166.585Z" fill="#9381FF"/>
<path d="M189.616 73.5017L168.488 53.0518L191.435 29.8359L201.778 40.1254L184.803 57.3114L195.366 67.6931L189.616 73.5017ZM192.464 67.7116L183.388 58.7682L181.918 57.3299L183.351 55.8731L198.894 40.1439L191.435 32.7126L171.391 53.0149L189.579 70.6251L192.464 67.7116Z" fill="#9381FF"/>
<path d="M181.015 182.204L200.6 208.241L178.186 225.224L173.281 218.715L184.175 210.454L181.732 207.209L170.837 215.451L165.95 208.942L176.845 200.699L174.383 197.435L163.507 205.697L158.602 199.187L181.015 182.204ZM183.349 205.973L185.81 209.219L187.023 210.86L185.406 212.095L176.147 219.102L178.572 222.348L197.734 207.836L180.629 185.062L161.468 199.575L163.893 202.82L173.17 195.813L174.787 194.577L176.018 196.2L178.462 199.464L179.692 201.105L178.057 202.322L168.798 209.348L171.241 212.593L180.501 205.568L182.136 204.332L183.349 205.973Z" fill="#9381FF"/>
<path d="M172.716 24.2297L174.296 20.4864L152.194 11.082L141.116 37.3589L163.217 46.7448L164.797 43.0015L154.105 38.4653L152.231 37.6724L153.021 35.7915L154.619 32.0298L155.409 30.1489L157.283 30.9418L167.976 35.4965L169.556 31.7532L158.863 27.1985L156.989 26.4056L157.779 24.5247L159.359 20.763L160.168 18.8821L162.041 19.675L172.716 24.2297ZM176.978 19.3984L173.799 26.9035L161.251 21.5743L159.653 25.3176L172.22 30.6652L169.06 38.1703L156.493 32.8227L154.913 36.5844L167.461 41.932L164.301 49.4371L138.434 38.4469L151.129 8.4082L176.978 19.3984Z" fill="#9381FF"/>
<path d="M159.447 231.127L151.97 203.559L127.682 210.567L128.748 214.531L141.002 211.101L142.986 210.548L143.519 212.54L149.324 233.911L159.447 231.127ZM141.553 213.074L127.315 217.057L125.184 209.165L153.384 201.015L161.946 232.565L147.891 236.419L141.553 213.074Z" fill="#9381FF"/>
<path d="M101.648 6.65682L107.086 0.792917C108.592 2.26811 112.395 6.0483 115.114 8.66677L115.776 9.29373L116.364 8.61145C118.825 5.75326 122.279 1.62271 123.639 0L129.573 5.32914L135.415 10.7689C133.927 12.2626 130.161 16.1165 127.57 18.8456L126.946 19.5095L127.644 20.0995C130.473 22.5705 134.57 26.0372 136.187 27.3833L130.877 33.3394L125.476 39.2033C123.97 37.7097 120.148 33.9479 117.448 31.3295L116.786 30.7025L116.198 31.3848C113.718 34.243 110.264 38.3551 108.905 39.9778L102.989 34.6671L97.1466 29.2273C98.6164 27.7152 102.383 23.8797 104.991 21.1506L105.616 20.4868L104.918 19.8967C102.089 17.4257 97.9917 13.959 96.375 12.6129L101.648 6.65682ZM108.574 20.3577L107.086 21.9066L106.461 22.5705C104.44 24.6726 101.795 27.3833 100.068 29.1535L104.348 33.155L108.703 37.0458C110.485 34.9252 112.836 32.1408 114.655 30.0387L115.243 29.3564L116.658 27.7337L118.201 29.2273L118.862 29.8543C120.883 31.8089 123.565 34.4458 125.403 36.2529L129.371 31.9748L133.266 27.5861C131.429 26.0372 128.489 23.5478 126.303 21.6485L125.623 21.0584L123.988 19.657L125.476 18.0896L126.101 17.4442C127.993 15.4342 130.565 12.7973 132.476 10.8242L128.213 6.84122L123.841 2.93195C122.188 4.92346 119.781 7.78165 117.907 9.93913L117.319 10.6398L115.923 12.2626L114.361 10.7689L113.7 10.142C111.642 8.15045 108.996 5.53198 107.159 3.72487L103.154 8.03981L99.2961 12.3916C101.188 13.9959 104.073 16.4484 106.259 18.3477L106.957 18.9378L108.574 20.3577Z" fill="#9381FF"/>
<path d="M82.9448 226.719L84.488 221.261L79.2153 219.878L77.672 225.355L82.9448 226.719ZM87.0233 219.804L86.4538 221.814L84.8922 227.273L84.3594 229.209L82.4304 228.692L77.1576 227.328L75.1367 226.793L75.7062 224.783L77.2495 219.325L77.8006 217.407L79.7297 217.905L85.0024 219.27L87.0233 219.804Z" fill="#9381FF"/>
<path d="M81.3313 43.6664L91.4726 39.5358L80.8353 13.1298L70.6756 17.2604L81.3313 43.6664ZM81.956 10.4561L94.1366 40.6607L80.1923 46.3402L68.0117 16.1356L81.956 10.4561Z" fill="#9381FF"/>
<path d="M93.7671 235.57L101.061 208.04L90.7724 205.292L88.1636 215.121L87.6308 217.094L85.6651 216.577L70.251 212.447L66.0806 228.176L93.7671 235.57ZM103.559 206.601L95.2001 238.078L63.582 229.633L68.818 209.957L86.1978 214.604L89.3211 202.784L103.559 206.601Z" fill="#9381FF"/>
<path d="M42.659 210.068L51.2938 216.835L68.7471 194.376L60.1123 187.608L42.659 210.068ZM51.6428 219.712L39.793 210.418L59.7632 184.731L71.6131 194.007L51.6428 219.712Z" fill="#9381FF"/>
<path d="M48.6825 34.484L50.1522 33.0088L51.6036 34.5024L55.5352 38.5777L56.9314 40.016L55.5352 41.4358L51.7138 45.3451L50.2441 46.8203L48.7927 45.3267L44.8427 41.2514L43.4648 39.8131L44.8611 38.3932L48.6825 34.484ZM54.0838 40.016L50.1338 35.9223L46.3125 39.8316L50.2441 43.9068L54.0838 40.016Z" fill="#9381FF"/>
<path d="M30.3867 44.8094L53.4802 21.5566L67.847 35.9213L55.152 48.7187L63.7684 57.3485L53.37 67.804L30.3867 44.8094ZM33.2711 44.791L53.37 64.9089L60.8841 57.3485L53.719 50.157L52.2676 48.7187L53.7007 47.2619L64.9626 35.9398L53.4802 24.4333L33.2711 44.791Z" fill="#9381FF"/>
<path d="M21.6576 182.5L21.8781 181.596L20.9779 181.43C17.2851 180.729 11.994 179.789 9.91797 179.42L11.5531 171.583L13.3168 163.802C15.3561 164.336 20.5553 165.682 24.2113 166.568L25.0932 166.789L25.2585 165.885C25.975 162.179 26.912 156.887 27.2794 154.821L35.0691 156.444L42.822 158.233C42.2893 160.261 40.9481 165.461 40.0479 169.131L39.8274 170.016L40.7276 170.2C44.4204 170.919 49.7115 171.86 51.7692 172.229L50.1524 180.029L48.3703 187.847C46.3494 187.312 41.1502 185.948 37.4942 185.063L36.6123 184.842L36.447 185.727C35.7305 189.433 34.7935 194.744 34.4261 196.809L26.6548 195.205L18.8835 193.398C19.4162 191.369 20.7574 186.151 21.6576 182.5ZM24.3583 179.992L23.8439 182.094L23.6234 182.979C22.9436 185.764 22.0251 189.378 21.382 191.886L27.0957 193.195L32.791 194.375C33.2319 191.941 33.8933 188.179 34.4445 185.358L34.6098 184.454L35.014 182.334L37.09 182.85L37.9719 183.071C40.8011 183.772 44.4755 184.712 46.8639 185.339L48.1683 179.605L49.3441 173.87C46.6434 173.39 43.0425 172.726 40.3418 172.21L39.4416 172.026L37.3472 171.62L37.8616 169.536L38.0637 168.651C38.7435 165.904 39.6804 162.271 40.3235 159.745L34.6282 158.454L28.9145 157.255C28.492 159.634 27.8122 163.414 27.261 166.272L27.0957 167.176L26.6915 169.278L24.6155 168.78L23.7336 168.559C21.0513 167.914 17.5056 167.01 14.8416 166.309L13.5372 172.026L12.3431 177.761C14.8784 178.222 18.5528 178.885 21.3637 179.42L22.2455 179.586L24.3583 179.992Z" fill="#9381FF"/>
<path d="M28.2763 99.5751L6.92813 93.9325L4.24583 104.13L31.8037 111.395L37.8848 86.7778L33.9348 85.7451L30.7565 98.0999L30.2604 100.091L28.2763 99.5751ZM5.47675 91.4431L28.7907 97.602L32.4651 83.2373L40.3466 85.321L33.2734 113.903L1.76563 105.587L5.47675 91.4431Z" fill="#9381FF"/>
<path d="M26.1065 135.976L22.0646 136.474L20.0437 136.732L19.8049 134.703L18.3719 123.142L14.3668 123.639L15.7815 135.201L16.0387 137.23L14.0178 137.488L9.97594 137.986L7.95503 138.225L7.69783 136.197L6.28319 124.635L2.25974 125.133L5.19925 149.05L33.4185 145.546L30.479 121.648L26.4555 122.146L27.8702 133.708L28.1274 135.736L26.1065 135.976ZM21.8258 134.445L25.8493 133.947L24.1774 120.357L32.2427 119.361L35.6782 147.335L3.43554 151.336L0 123.363L8.06526 122.367L9.73711 135.957L13.7606 135.459L12.0887 121.869L20.154 120.855L21.8258 134.445Z" fill="#9381FF"/>
</svg>
