<svg width="41" height="57" viewBox="0 0 41 57" fill="none" xmlns="http://www.w3.org/2000/svg">
<path d="M14.5165 17.8823C15.3436 15.9168 16.0526 13.9513 16.5253 11.8629L19.0066 1.6666C19.2429 0.683824 20.4245 0.560976 21.0154 1.29805C22.9059 4.36922 22.7877 8.66885 22.6696 12.3542C22.5514 16.8996 23.024 22.4277 26.8052 24.6389C30.7045 26.973 36.2581 24.6389 40.2755 26.4816C41.2208 26.8501 41.2208 28.3243 40.3937 28.8157C37.0852 30.6584 32.5951 30.0442 29.1684 31.8869C25.6236 33.7295 23.7331 37.7835 22.7878 41.8374C21.9606 45.8914 21.9606 50.0681 21.0154 53.9992C20.779 55.1049 20.4245 56.2105 19.3611 56.7019C18.4158 57.0704 17.2342 56.579 16.6434 55.5962C16.0526 54.7363 15.8163 53.6307 15.6981 52.5251C15.1073 47.9798 15.1073 43.1887 13.6894 38.7663C12.2714 34.4666 7.42685 30.2898 3.0549 29.6756C0.337205 29.3071 -1.90785 28.2015 2.4641 27.0958C7.54501 25.7445 11.0898 25.6217 14.5165 17.8823Z" fill="#F1BFD4"/>
</svg>
