<svg width="327" height="346" viewBox="0 0 327 346" fill="none" xmlns="http://www.w3.org/2000/svg">
<path d="M97.6258 119.689C92.6223 110.026 89.8861 99.1554 90.0575 87.6934C90.644 48.4761 125.046 17.1915 166.897 17.8173L165.941 81.7492C171.797 72.5457 179.853 64.695 189.891 59.0666C224.153 39.8568 268.549 53.8081 289.051 90.2277L232.884 121.719C243.83 122.165 254.704 125.204 264.635 131.082C298.437 151.092 308.531 196.438 287.18 232.366L231.926 199.657C236.93 209.32 239.665 220.191 239.494 231.653C238.907 270.87 204.506 302.155 162.654 301.529L163.61 237.597C157.754 246.8 149.699 254.651 139.66 260.28C105.398 279.49 61.0035 265.538 40.5016 229.119L96.6678 197.627C85.7219 197.181 74.8483 194.142 64.9165 188.264C31.1145 168.254 21.0209 122.908 42.3716 86.9804L97.6258 119.689ZM164.818 159.511C164.805 159.487 164.792 159.464 164.779 159.441L164.778 159.51C164.791 159.511 164.804 159.511 164.818 159.511ZM164.773 159.836L164.772 159.905L164.733 159.835L164.773 159.836Z" fill="white"/>
<mask id="mask0_408_668" style="mask-type:alpha" maskUnits="userSpaceOnUse" x="31" y="17" width="268" height="285">
<path d="M97.6258 119.689C92.6223 110.026 89.8861 99.1554 90.0575 87.6934C90.644 48.4761 125.046 17.1915 166.897 17.8173L165.941 81.7492C171.797 72.5457 179.853 64.695 189.891 59.0666C224.153 39.8568 268.549 53.8081 289.051 90.2277L232.884 121.719C243.83 122.165 254.704 125.204 264.635 131.082C298.437 151.092 308.531 196.438 287.18 232.366L231.926 199.657C236.93 209.32 239.665 220.191 239.494 231.653C238.907 270.87 204.506 302.155 162.654 301.529L163.61 237.597C157.754 246.8 149.699 254.651 139.66 260.28C105.398 279.49 61.0035 265.538 40.5016 229.119L96.6678 197.627C85.7219 197.181 74.8483 194.142 64.9165 188.264C31.1145 168.254 21.0209 122.908 42.3716 86.9804L97.6258 119.689ZM164.818 159.511C164.805 159.487 164.792 159.464 164.779 159.441L164.778 159.51C164.791 159.511 164.804 159.511 164.818 159.511ZM164.773 159.836L164.772 159.905L164.733 159.835L164.773 159.836Z" fill="white"/>
</mask>
<g mask="url(#mask0_408_668)">
<path d="M125.694 105.188C126.907 104.235 128.148 103.163 129.412 102.02C129.464 102.273 129.505 102.512 129.558 102.752C130.018 102.36 130.481 101.944 130.971 101.507C130.982 101.521 130.98 101.533 130.98 101.533C130.473 102.004 130.01 102.421 129.564 102.802C128.321 103.886 127.272 104.628 126.001 105.463C125.905 105.536 125.811 105.597 125.716 105.657C125.704 105.656 125.706 105.644 125.694 105.642C125.788 105.581 125.883 105.52 125.979 105.447C125.878 105.372 125.791 105.287 125.694 105.188Z" fill="#EF6E22" stroke="black" stroke-width="0.309773" stroke-miterlimit="10"/>
<path d="M186.539 320.034C193.422 320.478 200.862 326.331 207.301 327.956C216.762 330.349 211.886 325.202 211.078 319.281C215.371 319.398 217.223 324.245 221.926 324.245C221.817 323.051 222.379 321.641 222.667 320.243C224.666 320.576 226.384 321.068 227.769 322.743C229.585 321.516 227.487 309.067 227.493 306.672C230.263 307.848 234.648 312.536 238.36 316.739C242.233 327.905 243.618 341.435 242.013 359.842C213.605 345.142 196.742 332.724 186.539 320.034Z" fill="#A35525" stroke="black" stroke-width="0.309773" stroke-miterlimit="10"/>
<path d="M228.533 218.762L228.076 218.688C228.284 218.692 228.429 218.711 228.533 218.762Z" fill="#A57C52" stroke="black" stroke-width="0.309773" stroke-miterlimit="10"/>
<path d="M218.978 220.615C219.247 220.541 219.516 220.467 219.772 220.391C219.829 221.603 219.858 222.835 219.848 224.087C219.847 224.185 219.846 224.283 219.845 224.382C219.894 235.064 218.616 247.078 214.492 261.285C213.123 260.582 211.303 260.027 209.69 259.845C208.478 259.705 206.937 259.9 205.478 260.218C206.368 251.69 206.003 244.232 206.047 240.38C206.084 236.945 206.162 233.921 205.295 223.643C209.734 223.141 214.753 221.809 218.978 220.615Z" fill="#EF6E22" stroke="black" stroke-width="0.309773" stroke-miterlimit="10"/>
<path d="M228.265 219.576C225.445 222.57 222.26 223.992 221.024 224.475C221.035 223.224 221.005 221.991 220.949 220.779C220.692 220.855 220.657 220.524 220.911 220.451C224.286 219.496 226.952 218.72 228.078 218.69L228.535 218.765C228.755 218.868 228.683 219.129 228.265 219.576Z" fill="#A57C52" stroke="black" stroke-width="0.309773" stroke-miterlimit="10"/>
<path d="M219.572 191.192C219.074 189.515 218.618 187.978 218.268 186.665C217.762 184.864 217.407 183.489 217.261 182.757C217.245 182.693 217.241 182.631 217.223 182.579C217.17 182.609 217.115 182.651 217.046 182.703C216.885 182.804 216.718 182.941 216.538 183.088C216.135 183.427 215.714 183.811 215.367 184.096C215.367 184.096 215.369 184.084 215.357 184.082C215.355 184.094 215.341 184.105 215.314 184.126C215.294 184.184 215.249 184.24 215.205 184.295C213.136 186.471 210.776 189.885 208.882 193.399C208.616 193.903 208.363 194.409 208.109 194.915C207.587 195.95 207.099 197.002 206.608 198.077C205.368 200.857 204.251 203.728 203.277 206.458C202.145 209.621 201.224 212.591 200.561 215.02C200.551 215.276 200.475 216.372 200.435 217.03C200.428 217.262 200.411 217.481 200.397 217.676C200.375 218.017 200.363 218.372 200.34 218.725C201.698 217.976 203.289 217.32 204.996 216.717C209.635 215.099 215.175 213.924 219.634 212.455C221.863 211.726 223.819 210.923 225.256 209.951L225.32 209.935C223.554 204.277 221.268 196.914 219.572 191.192Z" fill="#E6E8E6" stroke="black" stroke-width="0.309773" stroke-miterlimit="10"/>
<path d="M215.359 184.083C215.754 183.719 216.145 183.378 216.542 183.088C216.138 183.427 215.716 183.812 215.37 184.097C215.37 184.097 215.371 184.085 215.359 184.083Z" fill="#E6E8E6" stroke="black" stroke-width="0.309773" stroke-miterlimit="10"/>
<path d="M223.095 113.033C220.835 109.372 218.012 106.236 214.406 104.148C213.801 104.066 216.216 102.969 219.524 99.7334C219.524 99.7334 217.821 98.6785 211.518 98.2265C211.518 98.2265 213.096 97.2126 217.61 89.6444C213.492 90.8656 208.408 92.1275 204.679 91.399C215.124 85.4731 239.478 54.1404 250.626 52.0081C250.903 51.9598 251.167 51.922 251.415 51.9066C245.242 67.6034 236.027 106.929 223.095 113.033Z" fill="#A35525" stroke="black" stroke-width="0.309773" stroke-miterlimit="10"/>
<path d="M219.668 146.855L219.666 146.867C223.806 157.16 208.063 167.366 197.367 175.137C194.279 177.383 190.544 179.05 186.714 180.507C179.298 183.343 171.505 185.428 167.255 189.519C166.412 190.473 165.661 191.464 165.044 192.474C164.806 192.957 164.601 193.47 164.442 194.001L164.249 195.695L167.439 196.043C170.35 195.37 173.659 194.395 177.19 193.143C189.829 189.371 207.542 183.23 211.844 180.387L211.834 180.373C212.124 180.229 212.389 180.093 212.667 179.946C213.473 179.54 214.266 179.144 215.1 178.717C215.351 178.591 215.641 178.447 215.947 178.279C218.536 176.985 222.691 174.946 224.247 174.101C224.432 174.003 224.578 173.925 224.685 173.866C227.043 171.189 219.751 145.969 219.668 146.855Z" fill="#E6E8E6" stroke="black" stroke-width="0.309773" stroke-miterlimit="10"/>
<path d="M215.211 184.297C213.142 186.472 210.782 189.886 208.888 193.4C210.67 189.981 212.636 186.932 214.705 184.756C214.907 184.538 215.121 184.321 215.32 184.127C215.3 184.186 215.255 184.241 215.211 184.297Z" fill="#E6E8E6" stroke="black" stroke-width="0.309773" stroke-miterlimit="10"/>
<path d="M215.41 179.066C215.304 178.941 215.208 178.83 215.1 178.717C214.267 179.144 213.474 179.54 212.668 179.946C213.729 181.196 214.675 182.836 215.336 184.044C215.346 184.057 215.357 184.071 215.355 184.083C215.749 183.719 216.14 183.379 216.537 183.089C216.717 182.942 216.883 182.805 217.045 182.704C217.113 182.652 217.168 182.61 217.222 182.58C216.914 181.04 216.168 179.918 215.41 179.066Z" fill="#E6E8E6" stroke="black" stroke-width="0.309773" stroke-miterlimit="10"/>
<path d="M198.144 266.244C198.396 266.561 198.614 266.861 198.809 267.146C217.655 285.263 231.713 297.483 238.363 316.742C234.651 312.539 230.266 307.852 227.496 306.676C227.49 309.071 229.588 321.52 227.772 322.747C226.387 321.072 224.669 320.58 222.67 320.247C222.382 321.645 221.821 323.055 221.929 324.249C217.226 324.249 215.374 319.402 211.082 319.285C211.889 325.206 216.765 330.353 207.304 327.96C200.865 326.335 193.425 320.482 186.542 320.038C185.12 318.272 183.825 316.486 182.641 314.691C188.384 301.884 191.233 294.151 192.745 278.606C193.768 278.414 194.834 278.092 195.907 277.71C195.957 277.704 196.011 277.674 196.062 277.657C196.028 277.64 195.983 277.609 195.934 277.603C196.425 275.716 196.88 273.64 197.276 271.446C197.589 269.781 197.875 268.038 198.144 266.244Z" fill="#EF6E22" stroke="black" stroke-width="0.309773" stroke-miterlimit="10"/>
<path d="M195.896 277.707C194.822 278.089 193.757 278.411 192.733 278.604C192.812 277.84 192.881 277.063 192.941 276.261C193.979 276.685 194.978 277.127 195.923 277.6C195.918 277.636 195.913 277.672 195.896 277.707Z" fill="#A57C52" stroke="black" stroke-width="0.309773" stroke-miterlimit="10"/>
<path d="M202.146 224.132C201.406 224.142 200.709 224.108 200.044 224.018C200.154 222.128 200.248 220.347 200.346 218.727C201.703 217.978 203.294 217.322 205.001 216.719C209.641 215.102 215.181 213.926 219.64 212.457C221.869 211.728 223.825 210.925 225.262 209.953L225.326 209.937C226.908 214.956 228.653 218.781 228.653 218.781L228.532 218.765C228.428 218.714 228.283 218.694 228.074 218.69C226.864 218.722 223.873 219.618 220.136 220.669C215.756 221.916 210.373 223.383 205.659 223.922C204.433 224.062 203.252 224.147 202.146 224.132Z" fill="#E6E8E6" stroke="black" stroke-width="0.309773" stroke-miterlimit="10"/>
<path d="M192.734 278.606C192.814 277.843 192.882 277.066 192.942 276.263C192.897 276.232 192.838 276.212 192.792 276.193C192.71 276.158 192.641 276.124 192.536 276.085C191.873 275.798 191.183 275.532 190.481 275.265C183.368 272.528 174.727 270.259 165.185 268.457C163.661 268.164 162.122 267.893 160.557 267.631C156.875 267.007 153.085 266.455 149.214 265.953C137.925 264.503 125.971 263.602 114.205 263.217C113.947 263.207 113.702 263.198 113.445 263.188C110.598 287.741 113.881 295.006 119.626 320.826C122.47 322.097 131.508 322.982 134.148 318.243C135.164 316.418 133.882 311.485 134.068 309.308C134.29 306.695 134.726 305.35 133.878 302.665C133.571 301.692 132.7 300.89 132.448 300.232C131.577 297.962 134.709 297.373 134.663 294.914C134.617 292.431 135.074 289.985 135.376 287.53C135.623 285.524 135.286 283.031 135.997 281.151C136.249 280.487 161.782 285.082 164.217 285.415C165.5 285.591 166.788 285.82 168.082 285.863C167.995 288.229 166.623 290.652 166.303 293.061C165.924 295.907 166.005 298.873 166.812 301.641C167.479 303.927 167.799 304.256 166.256 306.234C165.599 307.078 164.767 307.659 164.445 308.708C163.833 310.698 164.474 313.114 164.081 315.227C163.554 318.075 162.927 320.907 162.271 323.727C163.835 328.977 172.921 329.967 176.002 329.306C178.564 323.597 180.746 318.869 182.632 314.691C188.374 301.884 191.223 294.15 192.734 278.606Z" fill="#00567D" stroke="black" stroke-width="0.309773" stroke-miterlimit="10"/>
<path d="M113.298 256.533C129.3 256.904 170.959 260.347 197.225 271.427C197.248 271.442 197.26 271.444 197.272 271.445C196.875 273.64 196.42 275.716 195.93 277.602C194.985 277.13 193.986 276.687 192.948 276.263C192.903 276.232 192.844 276.212 192.797 276.193C192.716 276.158 192.647 276.124 192.553 276.086L192.541 276.085C191.879 275.798 191.189 275.532 190.486 275.265C183.374 272.528 174.732 270.259 165.19 268.457C163.667 268.164 162.128 267.893 160.563 267.631C156.881 267.007 153.09 266.455 149.219 265.953C137.931 264.503 125.976 263.602 114.21 263.217C113.953 263.207 113.708 263.198 113.451 263.188C113.28 263.177 113.109 263.166 112.937 263.167C113.007 261.113 113.136 259.078 113.296 256.999L113.298 256.533Z" fill="#E6E8E6" stroke="black" stroke-width="0.309773" stroke-miterlimit="10"/>
<path d="M220.51 146.266C220.51 146.266 220.329 145.051 219.76 144.115C217.987 147.646 214.798 151.45 211.032 155.238C209.861 156.43 208.617 157.612 207.348 158.791C205.346 160.657 203.263 162.486 201.214 164.247C200.07 165.234 198.93 166.197 197.818 167.127C197.791 167.148 197.762 167.181 197.734 167.201C189.628 174.035 174.671 180.994 167.258 189.519C171.507 185.428 179.301 183.343 186.716 180.507C190.546 179.05 194.281 177.383 197.369 175.137C208.065 167.366 224.649 156.56 220.51 146.266Z" fill="#E6E8E6" stroke="black" stroke-width="0.309773" stroke-miterlimit="10"/>
<path d="M167.253 189.523C166.41 190.477 165.659 191.468 165.042 192.478C165.584 191.384 166.333 190.405 167.253 189.523Z" fill="#E6E8E6" stroke="black" stroke-width="0.309773" stroke-miterlimit="10"/>
<path d="M157.332 155.772C158.902 159.254 163.934 167.519 168.545 163.846C171.996 168.615 179.052 161.995 181.507 159.061C183.951 156.113 194.064 142.132 197.345 139.101C200.569 136.124 203.239 139.94 204.015 145.181C203.673 145.343 203.328 145.53 202.994 145.718C203.061 148.307 199.739 151.184 192.844 155.627C185.76 160.192 179.885 164.922 176.555 167.86C173.241 170.775 169.504 172.269 166.93 171.919C164.355 171.569 161.154 169.131 158.739 165.436C156.315 161.715 151.916 155.588 146.309 149.297C140.851 143.173 138.419 139.513 139.175 137.036C139.196 136.965 139.218 136.895 139.24 136.824L139.193 136.719C141.319 131.676 145.039 128.497 147.389 132.305C149.741 136.102 155.752 152.277 157.332 155.772Z" fill="#F28B4E" stroke="black" stroke-width="0.309773" stroke-miterlimit="10"/>
<path d="M164.422 193.567C164.607 193.199 164.817 192.835 165.051 192.473C164.813 192.957 164.608 193.47 164.449 194.001C164.445 193.853 164.44 193.705 164.422 193.567Z" fill="#A35525" stroke="black" stroke-width="0.309773" stroke-miterlimit="10"/>
<path d="M219.51 141.552C214.4 141.926 208.708 142.859 204.022 145.183C203.68 145.345 203.334 145.532 203.001 145.72C203.067 148.309 199.746 151.186 192.85 155.629C185.766 160.194 179.891 164.924 176.561 167.861C173.247 170.777 169.511 172.271 166.936 171.921C164.361 171.571 161.16 169.133 158.745 165.438C156.321 161.717 151.922 155.59 146.315 149.299C140.857 143.175 138.425 139.515 139.181 137.038C135.297 133.192 129.782 130.562 124.667 128.712C126.352 133.425 128.645 138.381 131.284 143.323C133.196 146.912 135.283 150.489 137.446 153.953C142.884 162.666 148.819 170.71 153.685 176.568C157.683 181.388 160.06 184.549 161.486 186.917C163.179 188.954 164.274 191.13 164.422 193.57C164.607 193.202 164.817 192.838 165.051 192.476C165.593 191.383 166.342 190.404 167.262 189.522C174.676 180.996 189.632 174.038 197.739 167.204C197.767 167.183 197.796 167.15 197.823 167.13C198.934 166.2 200.075 165.237 201.219 164.25C203.268 162.489 205.351 160.659 207.353 158.794C208.621 157.615 209.865 156.433 211.037 155.241C214.802 151.453 217.991 147.648 219.764 144.118C219.741 143.291 219.661 142.433 219.51 141.552Z" fill="#A35525" stroke="black" stroke-width="0.309773" stroke-miterlimit="10"/>
<path d="M123.172 195.563C124.494 194.624 125.145 196.629 123.781 203.213C123.7 203.632 123.603 204.074 123.502 204.539C123.513 202.022 123.418 198.913 123.172 195.563Z" fill="#EF9F20" stroke="black" stroke-width="0.309773" stroke-miterlimit="10"/>
<path d="M145.577 187.206C150.765 190.516 155.602 193.238 159.162 195.123L164.255 195.693L167.445 196.041C170.356 195.368 173.665 194.393 177.196 193.141C189.835 189.369 207.549 183.228 211.84 180.371C212.13 180.227 212.395 180.091 212.674 179.944C213.735 181.194 214.681 182.834 215.342 184.042C215.338 184.066 215.333 184.102 215.318 184.125C215.119 184.319 214.905 184.535 214.703 184.754C212.634 186.929 210.668 189.979 208.886 193.398C208.62 193.902 208.367 194.408 208.113 194.914C207.591 195.949 207.103 197.001 206.612 198.076C205.372 200.856 204.255 203.727 203.281 206.457C202.149 209.62 201.228 212.591 200.565 215.019C200.555 215.276 200.48 216.371 200.439 217.029C200.43 217.187 200.424 217.322 200.413 217.406C200.413 217.492 200.402 217.577 200.401 217.675C200.379 218.016 200.368 218.371 200.344 218.724C200.247 220.345 200.152 222.125 200.043 224.015C200.708 224.105 201.405 224.139 202.145 224.129C201.966 227.164 201.553 232.734 200.991 239.218C200.957 239.558 200.935 239.899 200.901 240.238C200.541 243.855 200.644 247.81 199.733 251.339C199.356 252.805 198.666 252.882 197.982 254.063C197.258 255.313 198.144 256.185 198.562 257.32C199.151 258.924 199.032 259.46 198.726 261.136C198.104 264.538 197.835 268.013 197.227 271.423C170.961 260.343 129.302 256.9 113.299 256.529L113.301 255.608C113.738 250.494 114.87 245.402 115.869 240.377C116.372 237.845 116.106 234.89 116.884 232.528C117.7 230.049 119.763 228.187 120.589 225.693C121.289 223.576 120.011 222.547 119.773 220.582C119.517 218.461 120.674 216.661 121.294 214.755C121.98 212.651 122.259 210.329 122.733 208.166C123.025 206.83 123.29 205.612 123.51 204.537C123.61 204.071 123.707 203.63 123.789 203.211C125.152 196.627 124.501 194.622 123.18 195.56C122.97 192.669 122.66 189.605 122.208 186.595C122.022 185.427 121.833 184.283 121.606 183.146C120.766 178.732 119.589 174.628 117.97 171.595C119.12 170.473 120.49 169.357 122.099 168.299C124.556 171.053 127.418 173.728 130.479 176.294C135.299 180.316 140.604 184.035 145.577 187.206Z" fill="#E6E8E6" stroke="black" stroke-width="0.309773" stroke-miterlimit="10"/>
<path d="M101.068 193.059C102.194 194.38 103.864 195.676 105.817 196.974C109.722 199.581 114.746 202.193 118.785 204.991C120.269 206.028 121.627 207.085 122.736 208.17C122.396 209.758 122.012 211.499 121.612 213.349C119.958 213.112 118.129 212.531 116.228 211.757C111.828 209.979 107.033 207.127 103.146 204.756C99.8247 202.743 97.1824 201.082 96.0241 200.728L96.0323 200.667C96.0323 200.667 98.1454 197.441 101.011 193.027L101.068 193.059Z" fill="#E6E8E6" stroke="black" stroke-width="0.309773" stroke-miterlimit="10"/>
<path d="M168.562 163.846C163.95 167.519 158.919 159.254 157.349 155.772C155.769 152.277 149.758 136.102 147.406 132.306C145.056 128.497 141.336 131.676 139.21 136.719L139.257 136.824C139.235 136.895 139.213 136.965 139.191 137.036C135.307 133.191 129.793 130.561 124.677 128.71C124.583 128.673 124.488 128.647 124.395 128.61C122.389 127.883 120.451 127.287 118.71 126.78C116.613 126.176 114.794 125.707 113.468 125.318L113.491 125.235C114.919 120.711 120.93 115.804 129.525 111.445C125.625 109.882 123.537 110.212 121.559 108.1C122.827 107.376 124.243 106.377 125.71 105.188C125.807 105.287 125.894 105.373 125.995 105.448C125.899 105.521 125.804 105.582 125.71 105.643C125.722 105.644 125.72 105.656 125.732 105.658C125.827 105.597 125.921 105.536 126.017 105.463C127.288 104.629 128.337 103.887 129.58 102.803C130.026 102.421 130.489 102.005 130.996 101.534C130.996 101.534 130.998 101.522 130.987 101.508C130.497 101.945 130.034 102.361 129.574 102.753C129.521 102.512 129.48 102.273 129.428 102.021C135.91 96.182 142.832 88.6465 145.826 86.6336C145.988 86.5327 146.151 86.4198 146.312 86.3189C150.585 83.5953 156.622 81.9348 159.42 81.7257C159.442 81.655 159.464 81.5843 159.474 81.5119C160.209 78.823 160.307 76.2932 158.677 75.064C165.103 76.1471 169.774 78.0111 172.303 82.0409C171.257 76.1611 170.857 73.0353 168.37 71.6773C182.519 76.268 195.996 82.8068 197.099 88.2765C202.024 73.0612 212.328 58.5896 250.642 51.9583L250.648 52.0082C239.499 54.1405 215.146 85.4733 204.7 91.3992C208.43 92.1277 213.514 90.8658 217.632 89.6445C213.118 97.2128 211.54 98.2267 211.54 98.2267C217.843 98.6787 219.546 99.7335 219.546 99.7335C216.237 102.969 213.823 104.066 214.427 104.148C218.034 106.236 220.857 109.372 223.117 113.033C224.912 115.943 226.341 119.197 227.527 122.516C223.255 123.778 219.342 123.859 218.558 123.556C225.762 128.787 231.654 136.247 231.325 141.289C229.807 141.316 227.537 141.265 224.87 141.32C223.6 141.332 222.252 141.382 220.838 141.459C220.403 141.486 219.969 141.513 219.52 141.551C214.41 141.924 208.718 142.858 204.032 145.181C203.255 139.94 200.586 136.125 197.362 139.101C194.081 142.132 183.968 156.113 181.523 159.061C179.068 161.995 172.012 168.615 168.562 163.846Z" fill="#EF6E22" stroke="black" stroke-width="0.309773" stroke-miterlimit="10"/>
<path d="M129.413 102.019C128.632 98.0796 127.611 92.7316 128.208 90.7857C129.665 93.6499 132.715 93.8559 132.715 93.8559C132.715 93.8559 131.324 87.5238 129.054 83.1239C135.567 86.467 138.272 86.2207 138.272 86.2207C138.272 86.2207 133.674 78.9364 131.233 72.5352C137.229 78.9532 143.02 84.0778 146.298 86.3174C146.136 86.4183 145.973 86.5312 145.812 86.6321C142.817 88.645 135.895 96.1805 129.413 102.019Z" fill="#C57251" stroke="black" stroke-width="0.309773" stroke-miterlimit="10"/>
<path d="M116.126 168.825C117.065 166.987 118.058 166.028 119.354 165.369C120.497 166.557 121.41 167.541 121.893 168.061C121.978 168.159 122.054 168.231 122.107 168.299C120.498 169.358 119.127 170.474 117.977 171.595C117.421 170.524 116.797 169.592 116.126 168.825Z" fill="#E6E8E6" stroke="black" stroke-width="0.309773" stroke-miterlimit="10"/>
<path d="M123.176 195.563C122.966 192.672 122.657 189.608 122.204 186.598C122.018 185.43 121.829 184.286 121.602 183.15C120.762 178.735 119.585 174.632 117.966 171.598C117.41 170.527 116.786 169.595 116.115 168.828C116.084 168.872 116.064 168.931 116.031 168.988C115.812 169.425 115.436 170.111 114.924 170.975C114.14 172.306 113.064 174.064 111.818 176.069C108.623 181.187 104.312 187.899 101.005 193.027L101.062 193.059C102.187 194.379 103.857 195.675 105.811 196.973C109.715 199.58 114.74 202.193 118.779 204.99C120.263 206.028 121.621 207.085 122.729 208.169C123.022 206.833 123.286 205.616 123.506 204.54C123.516 202.023 123.422 198.914 123.176 195.563Z" fill="#E6E8E6" stroke="black" stroke-width="0.309773" stroke-miterlimit="10"/>
<path d="M164.448 194.001C164.444 193.853 164.439 193.705 164.421 193.567C164.273 191.127 163.178 188.951 161.485 186.915C157.798 182.432 151.251 178.618 145.427 174.189C142.548 172.004 139.849 169.671 137.747 167.026C130.187 157.533 119.077 144.903 122.542 136.086C122.662 133.756 109.832 155.038 111.39 157.433C111.603 157.762 111.968 157.978 112.265 158.24C112.234 158.285 112.203 158.33 112.183 158.388C114.471 160.395 117.275 163.221 119.346 165.37C120.489 166.558 121.402 167.542 121.885 168.062C121.97 168.16 122.047 168.232 122.099 168.3C124.556 171.055 127.417 173.729 130.478 176.296C135.299 180.318 140.603 184.037 145.576 187.208C150.764 190.518 155.602 193.24 159.162 195.125L164.255 195.695L164.448 194.001Z" fill="#E6E8E6" stroke="black" stroke-width="0.309773" stroke-miterlimit="10"/>
<path d="M153.69 176.568C148.824 170.709 142.889 162.665 137.451 153.952C135.288 150.488 133.201 146.912 131.289 143.322C128.65 138.38 126.357 133.425 124.671 128.711C124.578 128.674 124.483 128.649 124.39 128.611C123.188 131.2 121.373 133.275 121.253 135.605C117.788 144.422 130.193 157.535 137.753 167.028C139.855 169.673 142.554 172.006 145.433 174.191C151.257 178.62 157.804 182.435 161.491 186.917C160.065 184.548 157.688 181.387 153.69 176.568Z" fill="#E6E8E6" stroke="black" stroke-width="0.309773" stroke-miterlimit="10"/>
<path d="M100.801 208.413C101.15 207.109 101.533 205.834 101.937 204.587C105.824 206.959 110.619 209.81 115.018 211.588C111.437 221.261 110.706 224.196 109.823 227.516C108.837 231.239 106.493 238.329 105.072 246.785C103.751 246.089 102.319 245.489 101.113 245.3C99.5105 245.045 97.6081 245.094 96.1008 245.405C95.9217 230.613 97.9 218.695 100.801 208.413Z" fill="#EF6E22" stroke="black" stroke-width="0.309773" stroke-miterlimit="10"/>
<path d="M103.136 204.753C102.733 206 102.35 207.275 102 208.579L101.727 208.505C101.727 208.505 98.0452 206.161 95.5978 201.528C95.1869 200.748 95.3752 200.54 96.0148 200.725C97.1731 201.079 99.8154 202.741 103.136 204.753Z" fill="#A57C52" stroke="black" stroke-width="0.309773" stroke-miterlimit="10"/>
<path d="M111.084 41.7715C118.518 47.4881 134.016 57.1768 137.466 60.5086C140.566 63.5103 155.396 75.0368 159.464 81.5119C159.454 81.5843 159.432 81.655 159.41 81.7258C156.612 81.9348 150.575 83.5953 146.302 86.3189C143.024 84.0793 137.234 78.9547 131.237 72.5367C122.643 63.3204 113.631 51.4673 111.084 41.7715Z" fill="#EF6E22" stroke="black" stroke-width="0.309773" stroke-miterlimit="10"/>
<path d="M111.083 41.7711C113.63 51.4669 122.642 63.32 131.237 72.5363C133.677 78.9375 138.276 86.2218 138.276 86.2218C138.276 86.2218 135.571 86.4682 129.058 83.125C131.327 87.5249 132.719 93.8571 132.719 93.8571C132.719 93.8571 129.669 93.6511 128.212 90.7869C127.615 92.7328 128.636 98.0807 129.417 102.02C128.154 103.163 126.912 104.235 125.699 105.188C107.835 89.1819 110.397 54.418 110.913 41.7601L111.083 41.7711Z" fill="#A35525" stroke="black" stroke-width="0.309773" stroke-miterlimit="10"/>
<path d="M117.169 269.296C116.491 267.852 114.777 267.238 112.883 265.236C112.506 264.841 112.125 264.384 111.742 263.852C111.564 263.619 111.414 263.365 111.276 263.113C109.581 260.008 110.311 255.819 108.228 252.219L108.267 252.2C108.333 252.172 108.398 252.144 108.465 252.104C107.607 251.803 106.789 251.298 105.737 250.799C104.015 249.975 101.642 249.136 97.3846 249.122C97.2242 249.125 97.0517 249.126 96.8792 249.127L96.8798 249.213C96.5958 249.31 96.3207 249.432 96.0527 249.592C91.2862 252.052 90.2072 260.345 89.8847 262.083C89.549 263.917 88.986 267.784 87.4048 271.353C85.8237 274.922 85.3787 277.65 86.6201 279.293C87.6719 280.702 89.1831 280.453 90.5986 280.093C90.5786 280.692 90.674 281.258 90.9001 281.768C90.965 281.924 91.0557 282.071 91.1465 282.219C92.2974 283.985 95.1848 283.935 96.8555 283.057C97.8646 284.779 100.428 285.214 101.454 284.997C104.271 284.385 104.16 279.861 103.284 275.798C102.521 272.267 103.743 268.354 104.667 266.539C105.601 264.737 107.104 266.907 107.757 269.256C108.392 271.554 110.478 274.774 113.29 274.911C113.375 274.923 113.449 274.921 113.536 274.92C116.471 274.877 117.992 271.03 117.169 269.296Z" fill="#754D24" stroke="black" stroke-width="0.309773" stroke-miterlimit="10"/>
<path d="M110.37 249.696C109.911 249.179 108.218 247.953 106.286 246.953C104.965 246.258 103.532 245.657 102.327 245.469C100.724 245.214 98.8219 245.262 97.3146 245.573C96.0518 245.807 95.0714 246.226 94.8218 246.794C94.3104 247.929 94.162 248.658 96.054 249.591C96.322 249.431 96.5972 249.309 96.8811 249.212L96.8805 249.126C97.053 249.125 97.2255 249.124 97.386 249.121C101.644 249.135 104.016 249.974 105.738 250.798C106.791 251.297 107.609 251.802 108.466 252.103C109.878 251.496 111.108 250.509 110.37 249.696Z" fill="#754D24" stroke="black" stroke-width="0.309773" stroke-miterlimit="10"/>
<path d="M190.199 279.229C191.237 278.019 193.053 277.885 195.413 276.461C195.882 276.181 196.371 275.842 196.883 275.433C197.116 275.256 197.329 275.051 197.529 274.845C199.992 272.305 200.407 268.074 203.377 265.161L203.344 265.132C203.288 265.087 203.233 265.043 203.179 264.986C204.086 264.925 205.009 264.658 206.156 264.458C208.036 264.124 210.546 263.949 214.653 265.073C214.807 265.118 214.973 265.166 215.139 265.213L215.115 265.296C215.363 265.464 215.595 265.656 215.811 265.882C219.747 269.525 218.572 277.806 218.418 279.566C218.252 281.423 217.761 285.3 218.332 289.162C218.902 293.024 218.602 295.772 216.967 297.023C215.577 298.1 214.187 297.456 212.919 296.731C212.779 297.314 212.535 297.833 212.181 298.264C212.077 298.398 211.95 298.516 211.823 298.633C210.243 300.028 207.473 299.209 206.098 297.916C204.666 299.306 202.079 299.04 201.148 298.557C198.598 297.215 199.913 292.885 201.842 289.204C203.52 286.005 203.388 281.908 202.983 279.911C202.564 277.926 200.536 279.615 199.279 281.705C198.053 283.75 195.183 286.296 192.436 285.676C192.352 285.665 192.281 285.643 192.198 285.619C189.38 284.794 188.942 280.68 190.199 279.229Z" fill="#754D24" stroke="black" stroke-width="0.309773" stroke-miterlimit="10"/>
<path d="M201.984 262.16C202.565 261.784 204.523 261.055 206.652 260.608C208.111 260.29 209.652 260.095 210.864 260.235C212.476 260.417 214.297 260.972 215.666 261.674C216.821 262.237 217.653 262.903 217.742 263.517C217.932 264.747 217.88 265.489 215.808 265.883C215.592 265.657 215.36 265.466 215.112 265.297L215.135 265.214C214.969 265.167 214.803 265.12 214.65 265.074C210.543 263.951 208.032 264.125 206.153 264.459C205.005 264.659 204.082 264.927 203.175 264.988C201.977 264.026 201.055 262.746 201.984 262.16Z" fill="#754D24" stroke="black" stroke-width="0.309773" stroke-miterlimit="10"/>
<path d="M188.194 133.51C188.194 133.51 188.307 133.357 188.505 133.088C188.606 132.957 188.729 132.797 188.871 132.613C189.019 132.434 189.156 132.211 189.363 132.009C189.789 131.621 190.247 131.083 190.834 130.647C191.131 130.432 191.438 130.209 191.75 129.983C192.069 129.765 192.424 129.591 192.765 129.392C193.101 129.181 193.464 129.023 193.833 128.894C194.201 128.762 194.549 128.591 194.918 128.515C195.282 128.431 195.636 128.349 195.973 128.287C196.308 128.215 196.642 128.229 196.94 128.2C197.241 128.19 197.513 128.14 197.759 128.187C198.003 128.215 198.216 128.24 198.392 128.262C198.738 128.311 198.936 128.341 198.936 128.341L198.813 129.249C198.813 129.249 198.633 129.257 198.319 129.268C198.164 129.27 197.975 129.272 197.759 129.274C197.545 129.265 197.301 129.332 197.036 129.351C196.773 129.394 196.482 129.393 196.185 129.477C195.889 129.559 195.574 129.629 195.247 129.702C194.92 129.771 194.602 129.922 194.263 130.023C193.923 130.126 193.59 130.259 193.264 130.418C192.937 130.572 192.594 130.701 192.281 130.873C191.972 131.056 191.668 131.237 191.373 131.411C190.769 131.744 190.283 132.149 189.816 132.454C188.937 133.169 188.34 133.649 188.34 133.649L188.194 133.51Z" fill="black"/>
<path d="M197.662 125.49C200.102 121.661 199.891 117.167 197.19 115.452C194.49 113.737 190.323 115.451 187.883 119.28C185.444 123.108 185.655 127.602 188.355 129.317C191.056 131.032 195.223 129.318 197.662 125.49Z" fill="black"/>
<path d="M192.948 121.028C194.033 121.175 195.027 120.451 195.168 119.411C195.31 118.37 194.545 117.407 193.46 117.259C192.376 117.112 191.382 117.836 191.24 118.876C191.098 119.917 191.863 120.88 192.948 121.028Z" fill="white"/>
<path d="M157.159 129.405C157.159 129.405 156.711 128.783 156.055 127.859C155.687 127.439 155.325 126.918 154.833 126.437C154.596 126.19 154.351 125.936 154.102 125.677C153.847 125.426 153.55 125.211 153.276 124.976C153.004 124.736 152.718 124.518 152.419 124.329C152.121 124.141 151.853 123.911 151.556 123.756C151.261 123.597 150.977 123.446 150.713 123.288C150.449 123.128 150.17 123.052 149.926 122.94C149.676 122.851 149.459 122.721 149.25 122.673C149.043 122.613 148.862 122.56 148.712 122.517C148.413 122.421 148.242 122.367 148.242 122.367L148.365 121.459C148.365 121.459 148.563 121.485 148.911 121.528C149.086 121.556 149.297 121.588 149.54 121.625C149.79 121.645 150.039 121.767 150.326 121.856C150.606 121.964 150.93 122.04 151.235 122.198C151.543 122.348 151.862 122.522 152.191 122.701C152.525 122.872 152.816 123.13 153.135 123.355C153.458 123.578 153.765 123.826 154.032 124.121C154.307 124.404 154.601 124.666 154.852 124.961C155.093 125.262 155.328 125.559 155.557 125.845C156.007 126.424 156.304 127.064 156.611 127.551C156.758 127.801 156.828 128.053 156.923 128.265C157.011 128.479 157.087 128.667 157.15 128.82C157.268 129.132 157.337 129.31 157.337 129.31L157.159 129.405Z" fill="black"/>
<path d="M158.303 125.222C161.364 124.291 162.768 120.017 161.44 115.676C160.111 111.335 156.554 108.57 153.493 109.501C150.433 110.433 149.029 114.707 150.357 119.048C151.685 123.389 155.243 126.153 158.303 125.222Z" fill="black"/>
<path d="M156.073 116.003C157.158 116.151 158.152 115.427 158.294 114.386C158.435 113.346 157.671 112.383 156.586 112.235C155.501 112.087 154.507 112.811 154.365 113.852C154.224 114.893 154.988 115.856 156.073 116.003Z" fill="white"/>
<path d="M145.941 105.874C152.118 101.186 155.908 100.473 159.617 100.363" stroke="black" stroke-width="1.05935" stroke-miterlimit="10"/>
<path d="M204.413 113.826C199.712 107.658 196.25 105.959 192.706 104.862" stroke="black" stroke-width="1.05935" stroke-miterlimit="10"/>
<path d="M168.96 161.542L168.682 161.504C163.666 160.821 161.459 152.88 160.723 150.236C159.989 147.581 163.121 146.004 170.82 147.052C178.52 148.099 181.117 150.455 179.712 152.819C178.297 155.17 174.049 162.234 169.033 161.551L168.96 161.542Z" fill="black"/>
<path d="M174.279 149.31C171.273 148.674 164.893 147.05 163.819 149.943C163.25 151.476 165.054 153.794 166.643 153.675C168.171 153.56 167.356 150.849 169.01 150.546C171.08 150.167 172.769 150.06 176.622 150.511C176.622 150.513 177.284 149.947 174.279 149.31Z" fill="#676767"/>
<path d="M124.092 63.8102C123.138 68.5369 128.468 72.6577 128.675 77.2857C127.846 76.4898 126.756 75.8108 125.581 75.7295C126.05 77.4826 126.688 79.6371 127.56 81.1354C126.877 80.5437 126.04 80.5785 125.282 80.296C124.262 83.7386 126.515 88.9249 127.955 91.9772" stroke="black" stroke-width="0.295896" stroke-miterlimit="10"/>
<path d="M209.727 88.0567C216.645 88.8331 224.352 77.6598 230.709 74.8377C226.355 79.6793 221.358 92.2939 216.327 96.2805C219.878 95.5694 225.841 92.6162 229.429 93.2972C227.728 93.5781 221.967 98.1178 221.153 99.3867C223.154 99.7978 226.711 99.466 228.012 100.972C220.164 102.583 218.761 105.36 215.739 104.949" stroke="black" stroke-width="0.295896" stroke-miterlimit="10"/>
<path d="M196.636 90.062C189.78 92.2008 183.58 87.1814 179.866 83.9009C179.579 85.6765 181.683 86.8854 181.621 88.5982C165.551 89.3139 166.253 82.6523 158.123 83.5943" stroke="black" stroke-width="0.295896" stroke-miterlimit="10"/>
<path d="M202.203 209.07C203.766 207.551 215.172 198.205 216.212 203.4C216.851 206.595 202.805 213.168 200.655 215.923" stroke="black" stroke-width="0.295896" stroke-miterlimit="10"/>
<path d="M122.99 195.531C118.002 197.409 113.751 182.26 108.819 184.937C105.5 186.738 116.528 198.098 118.076 199.98" stroke="black" stroke-width="0.295896" stroke-miterlimit="10"/>
<path d="M199.047 245.804C197.899 254.248 183.103 251.951 177.779 251.478C173.695 251.114 163.028 249.865 160.484 253.593C165.2 255.322 170.405 255.001 175.288 256.102C180.694 257.32 186.689 259.148 191.823 261.203" stroke="black" stroke-width="0.295896" stroke-miterlimit="10"/>
<path d="M153.579 175.475C159.803 168.183 150.754 160.041 141.95 159.15C142.895 157.69 144.098 156.924 145.948 156.262C143.076 152.893 139.752 151.534 137.938 147.105C136.042 142.475 133.797 138.385 135.45 134.157" stroke="black" stroke-width="0.295787" stroke-miterlimit="10"/>
<path d="M179.647 179.177C175.597 170.486 186.807 165.663 195.529 167.157C195.009 165.498 194.054 164.438 192.449 163.305C196.116 160.826 199.682 160.405 202.613 156.621C205.678 152.666 208.993 147.847 208.318 143.763" stroke="black" stroke-width="0.295787" stroke-miterlimit="10"/>
<path d="M128.945 297.289C127.656 299.792 122.193 299.489 120.004 301.591C120.915 303.086 123.081 302.845 124.736 303.164C127.106 303.621 129.227 304.772 131.544 305.321" stroke="black" stroke-width="0.295896" stroke-miterlimit="10"/>
<path d="M168.962 301.81C169.586 303.069 174.197 304.965 173.089 306.783C172.631 307.534 167.643 307.895 166.548 308.239" stroke="black" stroke-width="0.295896" stroke-miterlimit="10"/>
<path d="M156.752 189.33C156.546 193.779 153.322 197.763 151.869 201.917C150.142 206.858 149.357 212.761 148.365 217.876C146.605 226.953 144.83 236.61 146.219 245.64" stroke="black" stroke-width="2.32302" stroke-miterlimit="10"/>
<path d="M171.337 191.314C170.347 195.656 172.39 200.357 172.68 204.748C173.025 209.971 172.204 215.869 171.794 221.063C171.065 230.28 170.196 240.061 166.445 248.391" stroke="black" stroke-width="2.32302" stroke-miterlimit="10"/>
</g>
<g clip-path="url(#clip0_408_668)">
<path d="M125.7 105.186C126.912 104.233 128.154 103.161 129.417 102.018C129.469 102.271 129.511 102.51 129.564 102.75C130.024 102.358 130.486 101.942 130.977 101.505C130.987 101.519 130.986 101.531 130.986 101.531C130.478 102.002 130.015 102.419 129.569 102.8C128.326 103.884 127.278 104.626 126.007 105.461C125.911 105.534 125.816 105.595 125.722 105.655C125.71 105.654 125.711 105.642 125.699 105.64C125.794 105.579 125.888 105.518 125.984 105.445C125.884 105.37 125.797 105.285 125.7 105.186Z" fill="#EF6E22" stroke="black" stroke-width="0.309773" stroke-miterlimit="10"/>
<path d="M228.537 218.76L228.079 218.686C228.288 218.69 228.433 218.709 228.537 218.76Z" fill="#A57C52" stroke="black" stroke-width="0.309773" stroke-miterlimit="10"/>
<path d="M218.984 220.613C219.253 220.539 219.521 220.465 219.778 220.389C219.834 221.601 219.864 222.833 219.854 224.085C219.852 224.183 219.851 224.281 219.85 224.38C219.899 235.062 218.622 247.076 214.498 261.283C213.128 260.58 211.308 260.025 209.696 259.843C208.484 259.703 206.943 259.898 205.484 260.216C206.373 251.688 206.009 244.23 206.053 240.378C206.089 236.943 206.168 233.919 205.301 223.641C209.74 223.139 214.759 221.807 218.984 220.613Z" fill="#EF6E22" stroke="black" stroke-width="0.309773" stroke-miterlimit="10"/>
<path d="M228.27 219.573C225.45 222.567 222.265 223.989 221.03 224.472C221.04 223.221 221.011 221.988 220.954 220.776C220.698 220.852 220.663 220.521 220.916 220.448C224.291 219.493 226.958 218.717 228.083 218.687L228.541 218.762C228.761 218.865 228.688 219.126 228.27 219.573Z" fill="#A2AAA2" stroke="black" stroke-width="0.309773" stroke-miterlimit="10"/>
<path d="M219.578 191.19C219.08 189.513 218.624 187.976 218.273 186.663C217.767 184.862 217.413 183.487 217.266 182.755C217.25 182.691 217.246 182.629 217.229 182.577C217.175 182.607 217.12 182.649 217.052 182.701C216.89 182.802 216.724 182.939 216.544 183.086C216.141 183.425 215.719 183.81 215.373 184.094C215.373 184.094 215.374 184.082 215.362 184.08C215.361 184.092 215.347 184.103 215.319 184.124C215.299 184.182 215.255 184.238 215.21 184.293C213.141 186.469 210.781 189.883 208.887 193.397C208.622 193.901 208.368 194.407 208.115 194.913C207.592 195.948 207.105 197 206.614 198.075C205.374 200.855 204.257 203.726 203.282 206.456C202.15 209.619 201.229 212.589 200.566 215.018C200.556 215.275 200.481 216.37 200.441 217.028C200.434 217.26 200.416 217.479 200.402 217.674C200.38 218.015 200.369 218.37 200.346 218.723C201.703 217.974 203.294 217.318 205.001 216.715C209.641 215.098 215.181 213.922 219.64 212.453C221.869 211.724 223.825 210.921 225.262 209.949L225.326 209.933C223.559 204.275 221.274 196.912 219.578 191.19Z" fill="#E6E8E6" stroke="black" stroke-width="0.309773" stroke-miterlimit="10"/>
<path d="M215.365 184.081C215.759 183.717 216.15 183.376 216.547 183.086C216.144 183.425 215.722 183.81 215.375 184.095C215.375 184.095 215.377 184.083 215.365 184.081Z" fill="#E6E8E6" stroke="black" stroke-width="0.309773" stroke-miterlimit="10"/>
<path d="M223.1 113.031C220.841 109.37 218.017 106.234 214.411 104.146C213.807 104.064 216.221 102.967 219.53 99.7314C219.53 99.7314 217.827 98.6766 211.523 98.2246C211.523 98.2246 213.102 97.2107 217.615 89.6424C213.497 90.8637 208.414 92.1255 204.684 91.397C215.13 85.4711 239.483 54.1384 250.631 52.0061C250.909 51.9578 251.172 51.92 251.421 51.9046C245.247 67.6014 236.032 106.927 223.1 113.031Z" fill="#A35525" stroke="black" stroke-width="0.309773" stroke-miterlimit="10"/>
<path d="M219.673 146.853L219.672 146.865C223.811 157.158 208.069 167.364 197.372 175.135C194.284 177.381 190.549 179.048 186.719 180.505C179.304 183.341 171.511 185.426 167.261 189.517C166.417 190.471 165.667 191.462 165.049 192.472C164.811 192.955 164.606 193.468 164.448 193.999L164.254 195.693L167.445 196.041C170.355 195.368 173.664 194.393 177.195 193.141C189.835 189.369 207.548 183.228 211.85 180.385L211.839 180.371C212.13 180.227 212.394 180.091 212.673 179.944C213.479 179.538 214.272 179.142 215.105 178.715C215.356 178.589 215.647 178.445 215.953 178.277C218.542 176.983 222.697 174.944 224.252 174.099C224.438 174.001 224.584 173.923 224.69 173.864C227.049 171.187 219.757 145.967 219.673 146.853Z" fill="#E6E8E6" stroke="black" stroke-width="0.309773" stroke-miterlimit="10"/>
<path d="M215.216 184.295C213.147 186.47 210.787 189.884 208.893 193.398C210.676 189.979 212.642 186.93 214.71 184.754C214.913 184.536 215.127 184.319 215.325 184.125C215.305 184.184 215.261 184.239 215.216 184.295Z" fill="#E6E8E6" stroke="black" stroke-width="0.309773" stroke-miterlimit="10"/>
<path d="M215.415 179.064C215.309 178.939 215.214 178.828 215.106 178.715C214.272 179.142 213.48 179.538 212.673 179.944C213.734 181.194 214.681 182.834 215.341 184.042C215.352 184.056 215.362 184.069 215.361 184.081C215.755 183.717 216.146 183.377 216.542 183.087C216.722 182.94 216.889 182.803 217.05 182.702C217.119 182.65 217.174 182.608 217.227 182.578C216.92 181.038 216.173 179.916 215.415 179.064Z" fill="#E6E8E6" stroke="black" stroke-width="0.309773" stroke-miterlimit="10"/>
<path d="M202.152 224.13C201.412 224.14 200.715 224.106 200.05 224.016C200.159 222.126 200.254 220.346 200.351 218.725C201.709 217.976 203.3 217.32 205.007 216.717C209.647 215.1 215.186 213.924 219.646 212.455C221.875 211.726 223.83 210.923 225.268 209.951L225.331 209.936C226.914 214.954 228.659 218.779 228.659 218.779L228.538 218.763C228.434 218.712 228.289 218.692 228.08 218.688C226.869 218.72 223.879 219.616 220.141 220.667C215.761 221.915 210.379 223.381 205.664 223.92C204.439 224.06 203.258 224.145 202.152 224.13Z" fill="#E6E8E6" stroke="black" stroke-width="0.309773" stroke-miterlimit="10"/>
<path d="M113.303 256.533C129.306 256.904 170.965 260.347 197.231 271.427C197.253 271.442 197.265 271.444 197.278 271.445C196.881 273.64 196.426 275.716 195.935 277.602C194.99 277.13 193.992 276.687 192.954 276.263C192.909 276.232 192.85 276.212 192.803 276.193C192.722 276.158 192.652 276.124 192.559 276.086L192.547 276.085C191.884 275.798 191.194 275.532 190.492 275.265C183.379 272.528 174.738 270.259 165.196 268.457C163.672 268.164 162.133 267.893 160.569 267.631C156.886 267.007 153.096 266.455 149.225 265.953C137.936 264.503 125.982 263.602 114.216 263.217C113.959 263.207 113.714 263.198 113.457 263.188C113.286 263.177 113.115 263.166 112.942 263.167C113.012 261.113 113.141 259.078 113.301 256.999L113.303 256.533Z" fill="#E6E8E6" stroke="black" stroke-width="0.309773" stroke-miterlimit="10"/>
<path d="M220.515 146.265C220.515 146.265 220.335 145.05 219.765 144.114C217.992 147.645 214.803 151.449 211.038 155.237C209.866 156.429 208.622 157.611 207.354 158.79C205.352 160.656 203.269 162.485 201.219 164.246C200.076 165.233 198.935 166.196 197.824 167.126C197.796 167.147 197.767 167.18 197.74 167.2C189.633 174.034 174.677 180.993 167.263 189.518C171.513 185.427 179.306 183.343 186.721 180.506C190.551 179.049 194.287 177.382 197.374 175.136C208.071 167.365 224.655 156.559 220.515 146.265Z" fill="#E6E8E6" stroke="black" stroke-width="0.309773" stroke-miterlimit="10"/>
<path d="M167.259 189.521C166.415 190.475 165.665 191.466 165.047 192.476C165.59 191.383 166.339 190.403 167.259 189.521Z" fill="#E6E8E6" stroke="black" stroke-width="0.309773" stroke-miterlimit="10"/>
<path d="M157.338 155.77C158.908 159.252 163.939 167.517 168.55 163.844C172.001 168.613 179.057 161.993 181.512 159.059C183.957 156.111 194.07 142.13 197.351 139.099C200.575 136.122 203.244 139.938 204.021 145.179C203.679 145.341 203.333 145.528 203 145.716C203.066 148.305 199.745 151.182 192.85 155.626C185.766 160.19 179.89 164.92 176.56 167.858C173.246 170.773 169.51 172.267 166.935 171.917C164.361 171.567 161.159 169.129 158.744 165.434C156.32 161.713 151.922 155.586 146.314 149.295C140.857 143.172 138.425 139.511 139.18 137.034C139.202 136.963 139.224 136.893 139.246 136.822L139.199 136.717C141.325 131.674 145.044 128.495 147.395 132.304C149.747 136.1 155.758 152.275 157.338 155.77Z" fill="#F28B4E" stroke="black" stroke-width="0.309773" stroke-miterlimit="10"/>
<path d="M164.427 193.565C164.613 193.197 164.823 192.833 165.056 192.471C164.818 192.955 164.613 193.468 164.455 193.999C164.45 193.851 164.446 193.703 164.427 193.565Z" fill="#A35525" stroke="black" stroke-width="0.309773" stroke-miterlimit="10"/>
<path d="M219.516 141.55C214.405 141.924 208.714 142.857 204.027 145.181C203.685 145.343 203.34 145.53 203.006 145.718C203.073 148.307 199.751 151.184 192.856 155.627C185.772 160.192 179.896 164.922 176.567 167.859C173.253 170.775 169.516 172.269 166.942 171.919C164.367 171.569 161.165 169.131 158.75 165.436C156.327 161.715 151.928 155.588 146.321 149.297C140.863 143.173 138.431 139.513 139.186 137.036C135.302 133.19 129.788 130.56 124.672 128.71C126.358 133.423 128.65 138.379 131.29 143.321C133.202 146.91 135.288 150.487 137.452 153.951C142.89 162.664 148.825 170.708 153.691 176.566C157.689 181.386 160.065 184.547 161.491 186.916C163.184 188.952 164.279 191.128 164.427 193.568C164.613 193.2 164.822 192.836 165.056 192.474C165.599 191.381 166.348 190.402 167.268 189.52C174.681 180.994 189.638 174.036 197.745 167.202C197.772 167.181 197.801 167.148 197.829 167.128C198.94 166.198 200.08 165.235 201.224 164.248C203.273 162.487 205.357 160.657 207.358 158.792C208.627 157.613 209.871 156.431 211.043 155.239C214.808 151.451 217.997 147.646 219.77 144.116C219.747 143.29 219.667 142.431 219.516 141.55Z" fill="#A2AAA2" stroke="black" stroke-width="0.309773" stroke-miterlimit="10"/>
<path d="M123.178 195.562C124.5 194.623 125.15 196.628 123.787 203.212C123.705 203.631 123.608 204.073 123.508 204.538C123.518 202.021 123.424 198.912 123.178 195.562Z" fill="#EF9F20" stroke="black" stroke-width="0.309773" stroke-miterlimit="10"/>
<path d="M145.582 187.206C150.77 190.516 155.608 193.238 159.168 195.123L164.261 195.693L167.451 196.041C170.362 195.368 173.67 194.393 177.202 193.141C189.841 189.369 207.554 183.228 211.845 180.371C212.136 180.227 212.401 180.091 212.679 179.944C213.74 181.194 214.687 182.834 215.347 184.042C215.344 184.066 215.339 184.102 215.324 184.125C215.125 184.319 214.911 184.535 214.709 184.754C212.64 186.929 210.674 189.979 208.892 193.398C208.626 193.902 208.372 194.408 208.119 194.914C207.597 195.949 207.109 197.001 206.618 198.076C205.378 200.856 204.261 203.727 203.286 206.457C202.154 209.62 201.233 212.591 200.57 215.019C200.56 215.276 200.485 216.371 200.445 217.029C200.436 217.187 200.43 217.322 200.418 217.406C200.419 217.492 200.407 217.577 200.406 217.675C200.384 218.016 200.373 218.371 200.35 218.724C200.252 220.345 200.158 222.125 200.048 224.015C200.713 224.105 201.41 224.139 202.15 224.129C201.971 227.164 201.558 232.734 200.996 239.218C200.963 239.558 200.941 239.899 200.907 240.238C200.547 243.855 200.65 247.81 199.739 251.339C199.361 252.805 198.671 252.882 197.987 254.063C197.263 255.313 198.149 256.185 198.567 257.32C199.157 258.924 199.038 259.46 198.731 261.136C198.11 264.538 197.84 268.013 197.232 271.423C170.966 260.343 129.307 256.9 113.304 256.529L113.307 255.608C113.744 250.494 114.876 245.402 115.875 240.377C116.378 237.845 116.111 234.89 116.89 232.528C117.706 230.049 119.769 228.187 120.594 225.693C121.295 223.576 120.016 222.547 119.779 220.582C119.522 218.461 120.679 216.661 121.299 214.755C121.985 212.651 122.264 210.329 122.738 208.166C123.031 206.83 123.295 205.612 123.515 204.537C123.616 204.071 123.712 203.63 123.794 203.211C125.158 196.627 124.507 194.622 123.185 195.56C122.975 192.669 122.666 189.605 122.214 186.595C122.028 185.427 121.839 184.283 121.612 183.146C120.772 178.732 119.594 174.628 117.976 171.595C119.125 170.473 120.496 169.357 122.105 168.299C124.562 171.053 127.423 173.728 130.484 176.294C135.305 180.316 140.609 184.035 145.582 187.206Z" fill="#E6E8E6" stroke="black" stroke-width="0.309773" stroke-miterlimit="10"/>
<path d="M101.074 193.058C102.199 194.378 103.869 195.674 105.823 196.972C109.727 199.579 114.752 202.191 118.791 204.989C120.275 206.026 121.633 207.083 122.741 208.168C122.402 209.756 122.017 211.497 121.618 213.347C119.964 213.11 118.134 212.529 116.233 211.755C111.834 209.977 107.039 207.125 103.151 204.754C99.8303 202.742 97.1879 201.08 96.0296 200.726L96.0379 200.665C96.0379 200.665 98.151 197.439 101.017 193.025L101.074 193.058Z" fill="#E6E8E6" stroke="black" stroke-width="0.309773" stroke-miterlimit="10"/>
<path d="M168.567 163.844C163.956 167.517 158.925 159.252 157.355 155.771C155.774 152.275 149.763 136.1 147.411 132.304C145.061 128.495 141.342 131.675 139.215 136.717L139.263 136.822C139.241 136.893 139.219 136.963 139.197 137.034C135.313 133.189 129.798 130.559 124.682 128.708C124.589 128.671 124.494 128.645 124.4 128.608C122.394 127.881 120.456 127.285 118.716 126.778C116.619 126.174 114.799 125.705 113.473 125.316L113.497 125.233C114.925 120.709 120.935 115.802 129.53 111.443C125.631 109.88 123.542 110.21 121.565 108.098C122.833 107.374 124.249 106.375 125.715 105.186C125.813 105.285 125.9 105.371 126 105.446C125.904 105.519 125.81 105.58 125.715 105.641C125.727 105.642 125.726 105.655 125.738 105.656C125.832 105.595 125.927 105.534 126.023 105.461C127.293 104.627 128.342 103.885 129.585 102.801C130.031 102.419 130.494 102.003 131.002 101.532C131.002 101.532 131.003 101.52 130.993 101.506C130.502 101.943 130.04 102.359 129.58 102.751C129.526 102.51 129.485 102.271 129.433 102.019C135.915 96.1801 142.837 88.6446 145.832 86.6317C145.993 86.5308 146.156 86.4178 146.318 86.3169C150.591 83.5933 156.627 81.9328 159.426 81.7238C159.448 81.653 159.469 81.5823 159.479 81.5099C160.214 78.8211 160.312 76.2913 158.682 75.0621C165.109 76.1452 169.78 78.0091 172.309 82.039C171.262 76.1591 170.863 73.0334 168.376 71.6754C182.524 76.266 196.002 82.8048 197.104 88.2745C202.03 73.0592 212.333 58.5877 250.648 51.9564L250.653 52.0063C239.505 54.1386 215.151 85.4713 204.706 91.3972C208.435 92.1257 213.519 90.8638 217.637 89.6426C213.124 97.2109 211.545 98.2247 211.545 98.2247C217.848 98.6768 219.552 99.7316 219.552 99.7316C216.243 102.967 213.829 104.064 214.433 104.146C218.039 106.234 220.863 109.37 223.122 113.031C224.918 115.942 226.346 119.195 227.532 122.514C223.261 123.776 219.347 123.857 218.564 123.554C225.768 128.785 231.659 136.245 231.331 141.287C229.813 141.314 227.542 141.263 224.876 141.318C223.606 141.33 222.257 141.38 220.843 141.458C220.409 141.484 219.974 141.511 219.526 141.549C214.415 141.922 208.724 142.856 204.038 145.179C203.261 139.938 200.591 136.123 197.367 139.099C194.087 142.13 183.973 156.111 181.529 159.059C179.074 161.993 172.018 168.614 168.567 163.844Z" fill="#EF6E22" stroke="black" stroke-width="0.309773" stroke-miterlimit="10"/>
<path d="M129.419 102.017C128.637 98.0777 127.617 92.7297 128.214 90.7838C129.671 93.648 132.721 93.854 132.721 93.854C132.721 93.854 131.329 87.5218 129.059 83.1219C135.572 86.4651 138.277 86.2188 138.277 86.2188C138.277 86.2188 133.679 78.9344 131.238 72.5332C137.235 78.9512 143.025 84.0758 146.303 86.3154C146.142 86.4163 145.979 86.5293 145.817 86.6301C142.823 88.6431 135.901 96.1786 129.419 102.017Z" fill="#C57251" stroke="black" stroke-width="0.309773" stroke-miterlimit="10"/>
<path d="M116.128 168.823C117.068 166.985 118.06 166.026 119.356 165.367C120.499 166.555 121.412 167.539 121.895 168.059C121.98 168.157 122.057 168.229 122.109 168.297C120.5 169.356 119.129 170.472 117.98 171.593C117.424 170.522 116.799 169.59 116.128 168.823Z" fill="#E6E8E6" stroke="black" stroke-width="0.309773" stroke-miterlimit="10"/>
<path d="M123.182 195.562C122.972 192.671 122.662 189.607 122.21 186.597C122.024 185.429 121.835 184.285 121.608 183.149C120.768 178.734 119.591 174.631 117.972 171.597C117.416 170.526 116.792 169.594 116.121 168.827C116.09 168.872 116.07 168.93 116.037 168.987C115.818 169.424 115.441 170.11 114.93 170.974C114.146 172.305 113.069 174.063 111.824 176.068C108.629 181.186 104.318 187.898 101.01 193.026L101.068 193.058C102.193 194.378 103.863 195.674 105.816 196.972C109.721 199.579 114.746 202.192 118.785 204.989C120.269 206.027 121.627 207.084 122.735 208.168C123.027 206.832 123.292 205.615 123.512 204.539C123.522 202.022 123.428 198.913 123.182 195.562Z" fill="#E6E8E6" stroke="black" stroke-width="0.309773" stroke-miterlimit="10"/>
<path d="M164.454 194C164.449 193.852 164.445 193.704 164.426 193.566C164.278 191.126 163.183 188.95 161.49 186.914C157.804 182.431 151.256 178.617 145.432 174.188C142.554 172.003 139.855 169.67 137.752 167.025C130.192 157.532 119.083 144.902 122.547 136.085C122.667 133.755 109.837 155.037 111.395 157.432C111.609 157.761 111.973 157.977 112.27 158.239C112.239 158.284 112.209 158.329 112.188 158.387C114.476 160.394 117.28 163.22 119.351 165.369C120.495 166.557 121.407 167.541 121.891 168.061C121.976 168.159 122.052 168.231 122.104 168.299C124.561 171.054 127.423 173.728 130.484 176.295C135.304 180.317 140.609 184.036 145.582 187.207C150.77 190.517 155.607 193.239 159.167 195.124L164.26 195.694L164.454 194Z" fill="#E6E8E6" stroke="black" stroke-width="0.309773" stroke-miterlimit="10"/>
<path d="M153.696 176.566C148.83 170.707 142.895 162.663 137.457 153.95C135.293 150.486 133.207 146.91 131.295 143.32C128.655 138.379 126.363 133.423 124.677 128.709C124.584 128.672 124.489 128.647 124.395 128.609C123.194 131.198 121.379 133.273 121.259 135.603C117.794 144.42 130.198 157.533 137.758 167.026C139.861 169.671 142.559 172.004 145.438 174.189C151.262 178.618 157.81 182.433 161.496 186.915C160.07 184.546 157.694 181.385 153.696 176.566Z" fill="#E6E8E6" stroke="black" stroke-width="0.309773" stroke-miterlimit="10"/>
<path d="M100.806 208.411C101.156 207.107 101.539 205.832 101.942 204.585C105.83 206.957 110.625 209.808 115.024 211.586C111.443 221.259 110.711 224.194 109.829 227.514C108.842 231.237 106.499 238.327 105.078 246.783C103.757 246.087 102.324 245.487 101.119 245.298C99.516 245.043 97.6136 245.092 96.1063 245.403C95.9272 230.611 97.9055 218.693 100.806 208.411Z" fill="#EF6E22" stroke="black" stroke-width="0.309773" stroke-miterlimit="10"/>
<path d="M103.142 204.752C102.738 205.999 102.356 207.274 102.006 208.578L101.733 208.504C101.733 208.504 98.0507 206.16 95.6033 201.527C95.1924 200.747 95.3807 200.539 96.0203 200.724C97.1786 201.078 99.821 202.74 103.142 204.752Z" fill="#A2AAA2" stroke="black" stroke-width="0.309773" stroke-miterlimit="10"/>
<path d="M111.09 41.7695C118.523 47.4862 134.022 57.1748 137.471 60.5066C140.571 63.5083 155.401 75.0349 159.469 81.51C159.46 81.5823 159.438 81.6531 159.416 81.7238C156.617 81.9328 150.581 83.5934 146.308 86.3169C143.03 84.0773 137.239 78.9528 131.243 72.5348C122.648 63.3184 113.636 51.4654 111.09 41.7695Z" fill="#EF6E22" stroke="black" stroke-width="0.309773" stroke-miterlimit="10"/>
<path d="M111.089 41.7691C113.636 51.465 122.647 63.318 131.242 72.5344C133.683 78.9355 138.281 86.2199 138.281 86.2199C138.281 86.2199 135.576 86.4662 129.063 83.123C131.333 87.523 132.724 93.8551 132.724 93.8551C132.724 93.8551 129.675 93.6491 128.218 90.7849C127.621 92.7308 128.641 98.0788 129.423 102.018C128.159 103.161 126.918 104.233 125.705 105.186C107.84 89.18 110.403 54.416 110.918 41.7582L111.089 41.7691Z" fill="#A35525" stroke="black" stroke-width="0.309773" stroke-miterlimit="10"/>
<path d="M117.176 269.296C116.498 267.852 114.784 267.238 112.89 265.236C112.513 264.841 112.132 264.384 111.749 263.852C111.571 263.619 111.421 263.365 111.283 263.113C109.588 260.008 110.318 255.819 108.234 252.219L108.274 252.2C108.339 252.172 108.405 252.144 108.472 252.104C107.614 251.803 106.796 251.298 105.744 250.799C104.022 249.975 101.649 249.136 97.3914 249.122C97.231 249.125 97.0585 249.126 96.886 249.127L96.8866 249.213C96.6026 249.31 96.3274 249.432 96.0594 249.592C91.2929 252.052 90.214 260.345 89.8914 262.083C89.5557 263.917 88.9927 267.784 87.4116 271.353C85.8304 274.922 85.3854 277.65 86.6269 279.293C87.6787 280.702 89.1898 280.453 90.6053 280.093C90.5854 280.692 90.6807 281.258 90.9068 281.768C90.9718 281.924 91.0625 282.071 91.1532 282.219C92.3041 283.985 95.1916 283.935 96.8622 283.057C97.8713 284.779 100.434 285.214 101.461 284.997C104.277 284.385 104.166 279.861 103.291 275.798C102.528 272.267 103.75 268.354 104.674 266.539C105.608 264.737 107.11 266.907 107.763 269.256C108.399 271.554 110.484 274.774 113.297 274.911C113.382 274.923 113.456 274.921 113.542 274.92C116.478 274.877 117.999 271.03 117.176 269.296Z" fill="#754D24" stroke="black" stroke-width="0.309773" stroke-miterlimit="10"/>
<path d="M110.376 249.696C109.917 249.179 108.225 247.953 106.293 246.953C104.972 246.258 103.539 245.657 102.334 245.469C100.731 245.214 98.8287 245.262 97.3214 245.573C96.0585 245.807 95.0782 246.226 94.8285 246.794C94.3172 247.929 94.1688 248.658 96.0608 249.591C96.3288 249.431 96.604 249.309 96.8879 249.212L96.8873 249.126C97.0598 249.125 97.2323 249.124 97.3927 249.121C101.65 249.135 104.023 249.974 105.745 250.798C106.798 251.297 107.615 251.802 108.473 252.103C109.885 251.496 111.115 250.509 110.376 249.696Z" fill="#754D24" stroke="black" stroke-width="0.309773" stroke-miterlimit="10"/>
<path d="M188.199 133.505C188.199 133.505 188.312 133.352 188.51 133.083C188.611 132.952 188.734 132.792 188.876 132.608C189.025 132.43 189.161 132.206 189.368 132.004C189.794 131.616 190.252 131.078 190.839 130.642C191.136 130.427 191.444 130.204 191.755 129.978C192.074 129.761 192.429 129.586 192.77 129.387C193.106 129.176 193.469 129.018 193.838 128.889C194.206 128.757 194.554 128.586 194.923 128.51C195.288 128.426 195.641 128.344 195.978 128.282C196.313 128.211 196.647 128.224 196.945 128.195C197.246 128.185 197.519 128.135 197.765 128.182C198.008 128.21 198.221 128.236 198.397 128.257C198.744 128.307 198.941 128.336 198.941 128.336L198.818 129.244C198.818 129.244 198.638 129.252 198.324 129.263C198.169 129.265 197.98 129.267 197.764 129.269C197.55 129.26 197.306 129.327 197.041 129.347C196.778 129.389 196.488 129.388 196.191 129.472C195.894 129.554 195.579 129.624 195.253 129.697C194.926 129.766 194.607 129.917 194.268 130.019C193.928 130.121 193.595 130.254 193.269 130.413C192.942 130.567 192.599 130.696 192.286 130.868C191.977 131.051 191.673 131.232 191.379 131.406C190.774 131.739 190.288 132.144 189.821 132.449C188.942 133.164 188.345 133.644 188.345 133.644L188.199 133.505Z" fill="black"/>
<path d="M197.669 125.489C200.109 121.66 199.898 117.166 197.197 115.451C194.497 113.737 190.33 115.45 187.89 119.279C185.451 123.107 185.662 127.601 188.362 129.316C191.063 131.031 195.23 129.317 197.669 125.489Z" fill="black"/>
<path d="M192.955 121.026C194.04 121.173 195.034 120.449 195.175 119.409C195.317 118.368 194.552 117.405 193.467 117.257C192.383 117.11 191.389 117.834 191.247 118.874C191.105 119.915 191.87 120.878 192.955 121.026Z" fill="white"/>
<path d="M157.166 129.401C157.166 129.401 156.719 128.779 156.062 127.855C155.694 127.435 155.332 126.914 154.84 126.433C154.603 126.186 154.358 125.932 154.109 125.673C153.854 125.422 153.557 125.207 153.283 124.972C153.011 124.732 152.725 124.514 152.426 124.325C152.128 124.137 151.86 123.907 151.563 123.752C151.268 123.594 150.984 123.442 150.72 123.284C150.456 123.124 150.177 123.048 149.934 122.937C149.683 122.847 149.466 122.717 149.257 122.669C149.05 122.609 148.869 122.556 148.719 122.513C148.42 122.417 148.249 122.363 148.249 122.363L148.372 121.455C148.372 121.455 148.571 121.481 148.918 121.524C149.093 121.552 149.304 121.584 149.547 121.621C149.797 121.641 150.046 121.763 150.333 121.852C150.613 121.96 150.937 122.036 151.242 122.194C151.55 122.344 151.869 122.518 152.198 122.697C152.532 122.869 152.823 123.126 153.142 123.351C153.465 123.574 153.772 123.822 154.039 124.117C154.314 124.4 154.608 124.662 154.859 124.957C155.1 125.259 155.335 125.555 155.564 125.841C156.014 126.42 156.311 127.06 156.618 127.547C156.765 127.797 156.835 128.049 156.931 128.261C157.018 128.476 157.094 128.663 157.157 128.816C157.275 129.128 157.344 129.306 157.344 129.306L157.166 129.401Z" fill="black"/>
<path d="M158.309 125.222C161.369 124.291 162.773 120.017 161.445 115.676C160.117 111.335 156.559 108.57 153.499 109.501C150.438 110.433 149.034 114.707 150.362 119.048C151.691 123.389 155.248 126.153 158.309 125.222Z" fill="black"/>
<path d="M156.079 116.003C157.163 116.151 158.157 115.427 158.299 114.386C158.441 113.346 157.676 112.383 156.591 112.235C155.506 112.087 154.512 112.811 154.371 113.852C154.229 114.893 154.994 115.856 156.079 116.003Z" fill="white"/>
<path d="M145.946 105.872C152.124 101.184 155.914 100.471 159.622 100.361" stroke="black" stroke-width="1.05935" stroke-miterlimit="10"/>
<path d="M204.418 113.824C199.718 107.656 196.256 105.957 192.711 104.86" stroke="black" stroke-width="1.05935" stroke-miterlimit="10"/>
<path d="M168.966 161.54L168.688 161.502C163.671 160.819 161.465 152.878 160.729 150.234C159.994 147.579 163.126 146.003 170.826 147.05C178.525 148.097 181.123 150.453 179.718 152.817C178.302 155.168 174.054 162.232 169.038 161.55L168.966 161.54Z" fill="black"/>
<path d="M174.285 149.31C171.279 148.674 164.899 147.05 163.825 149.943C163.255 151.476 165.06 153.794 166.648 153.675C168.177 153.56 167.361 150.849 169.015 150.546C171.086 150.167 172.775 150.06 176.628 150.511C176.628 150.513 177.29 149.947 174.285 149.31Z" fill="#676767"/>
<path d="M124.098 63.8092C123.143 68.5359 128.473 72.6568 128.681 77.2848C127.851 76.4888 126.762 75.8098 125.586 75.7285C126.055 77.4817 126.693 79.6361 127.565 81.1344C126.882 80.5427 126.045 80.5775 125.287 80.295C124.268 83.7376 126.52 88.9239 127.96 91.9762" stroke="black" stroke-width="0.295896" stroke-miterlimit="10"/>
<path d="M209.733 88.0557C216.65 88.8322 224.358 77.6588 230.715 74.8367C226.36 79.6783 221.364 92.2929 216.333 96.2796C219.884 95.5685 225.846 92.6152 229.435 93.2963C227.733 93.5771 221.972 98.1168 221.158 99.3858C223.159 99.7968 226.717 99.465 228.018 100.971C220.169 102.582 218.766 105.359 215.744 104.948" stroke="black" stroke-width="0.295896" stroke-miterlimit="10"/>
<path d="M196.642 90.0601C189.785 92.1988 183.585 87.1795 179.872 83.899C179.584 85.6745 181.689 86.8834 181.627 88.5962C165.556 89.312 166.258 82.6503 158.128 83.5923" stroke="black" stroke-width="0.295896" stroke-miterlimit="10"/>
<path d="M202.209 209.068C203.772 207.549 215.177 198.203 216.218 203.398C216.856 206.593 202.811 213.166 200.661 215.921" stroke="black" stroke-width="0.295896" stroke-miterlimit="10"/>
<path d="M122.995 195.53C118.007 197.408 113.756 182.259 108.825 184.936C105.506 186.737 116.534 198.097 118.081 199.979" stroke="black" stroke-width="0.295896" stroke-miterlimit="10"/>
<path d="M199.053 245.803C197.904 254.247 183.109 251.95 177.785 251.477C173.7 251.113 163.033 249.864 160.49 253.592C165.206 255.321 170.41 255 175.293 256.101C180.699 257.319 186.695 259.147 191.828 261.202" stroke="black" stroke-width="0.295896" stroke-miterlimit="10"/>
<path d="M153.585 175.474C159.809 168.182 150.76 160.04 141.956 159.149C142.9 157.689 144.104 156.923 145.953 156.261C143.081 152.892 139.758 151.533 137.944 147.104C136.047 142.474 133.803 138.384 135.455 134.156" stroke="black" stroke-width="0.295787" stroke-miterlimit="10"/>
<path d="M179.653 179.176C175.603 170.485 186.813 165.662 195.535 167.156C195.015 165.497 194.059 164.437 192.454 163.304C196.122 160.825 199.688 160.404 202.619 156.62C205.683 152.665 208.999 147.846 208.323 143.762" stroke="black" stroke-width="0.295787" stroke-miterlimit="10"/>
<path d="M156.758 189.328C156.552 193.777 153.327 197.761 151.874 201.915C150.147 206.856 149.363 212.759 148.37 217.874C146.611 226.951 144.836 236.608 146.224 245.638" stroke="black" stroke-width="2.32302" stroke-miterlimit="10"/>
<path d="M171.342 191.312C170.353 195.654 172.396 200.355 172.686 204.746C173.031 209.969 172.21 215.867 171.8 221.061C171.07 230.278 170.202 240.059 166.451 248.389" stroke="black" stroke-width="2.32302" stroke-miterlimit="10"/>
</g>
<defs>
<clipPath id="clip0_408_668">
<rect width="174.447" height="199.976" fill="white" transform="translate(110.806 31.334) rotate(7.74669)"/>
</clipPath>
</defs>
</svg>
