<svg width="104" height="41" viewBox="0 0 104 41" fill="none" xmlns="http://www.w3.org/2000/svg">
<path d="M103.447 2.91563C103.438 2.31526 103.197 1.7437 102.781 1.33013C102.383 0.935151 101.856 0.71582 101.309 0.71582C101.284 0.71582 101.26 0.71582 101.235 0.71675L70.3383 1.84686C69.2014 1.88868 68.2979 2.85337 68.2748 4.03831L68.0085 12.0123L67.7556 11.9983L67.3651 7.30225C67.3162 6.71024 67.0438 6.16285 66.6089 5.78088C66.2219 5.44166 65.7346 5.25671 65.2341 5.25671C65.1719 5.25671 65.1089 5.2595 65.0468 5.26508L38.3964 7.72047H38.3955L38.1346 4.25578C38.0494 3.12846 37.1752 2.2437 36.0959 2.19444L3.71112 0.717679C3.67917 0.71675 3.64722 0.71582 3.61615 0.71582C2.47832 0.71582 1.53131 1.65541 1.48161 2.85801L0.00206591 38.3794C-0.0236729 38.99 0.190226 39.5839 0.594059 40.0253C0.997893 40.4668 1.55527 40.7158 2.13839 40.7158H38.4639C39.0585 40.7158 39.6266 40.4565 40.0313 39.9993C40.436 39.543 40.641 38.9296 40.5958 38.3088L40.5603 37.8115C40.5603 37.8115 40.6268 37.7651 40.6322 37.792C40.8283 38.8376 41.7052 39.5987 42.7303 39.5987C42.8546 39.5987 43.0152 39.5876 43.1377 39.5643L67.2364 35.1154L67.2018 36.1545C67.2009 36.1805 67.2009 36.2065 67.2009 36.2325C67.2009 37.4695 68.1585 38.4844 69.339 38.4844H101.86C103.042 38.4844 103.999 37.4816 103.999 36.2456V36.0671L103.447 2.91563ZM2.13928 38.477L3.61793 2.95467L36.0027 4.43143L36.4749 10.7019L38.4648 38.476H2.13928V38.477ZM42.7676 37.3599H42.7312L38.5837 9.95095L65.2349 7.49649L67.3216 32.5931L67.3136 32.8283L42.7676 37.3599ZM101.861 36.2456H69.3399V36.2335L69.441 33.1963C69.4712 33.0123 69.4872 32.8236 69.4712 32.6285L69.4632 32.5337L70.412 4.09036V4.08478L101.308 2.9556L101.861 36.0681V36.2456Z" fill="white"/>
<path d="M101.31 2.95508L70.4133 4.08426V4.09077L69.3403 36.233V36.245H101.862V36.0666L101.31 2.95508Z" fill="#00567D"/>
<path d="M65.2276 7.49609L38.5764 9.95056L42.7239 37.3595H42.7603L67.3338 32.8223L65.2276 7.49609Z" fill="#45A041"/>
<path d="M36.471 10.7014L35.9988 4.43184L3.61405 2.95508L2.1354 38.4765H38.4609L36.471 10.7014Z" fill="#E9004C"/>
<path d="M61.4948 15.287C61.4824 15.3037 61.4691 15.3223 61.4549 15.34C60.933 16.0017 60.4111 16.6643 59.8892 17.326C58.8437 18.6522 57.7973 19.9775 56.7517 21.3037C56.6257 21.4636 56.5006 21.6234 56.3719 21.7814C56.3337 21.8279 56.3266 21.8539 56.3816 21.8957C58.8144 23.761 61.2463 25.629 63.679 27.4961C63.7811 27.5742 63.7802 27.5732 63.6959 27.6671C62.9087 28.5389 62.1223 29.4106 61.3368 30.2851C61.2924 30.3344 61.2685 30.3177 61.2294 30.2851C60.3197 29.5323 59.4082 28.7805 58.4976 28.0286C57.0677 26.8483 55.6379 25.668 54.2098 24.4859C54.1504 24.4366 54.1264 24.4468 54.0811 24.5035C53.151 25.6643 52.2182 26.8232 51.2862 27.9822C50.3907 29.0965 49.4934 30.2108 48.5996 31.327C48.5508 31.3883 48.526 31.3836 48.4718 31.3372C47.6659 30.6494 46.8583 29.9636 46.0497 29.2786C46.0036 29.2396 45.9947 29.2164 46.0382 29.1634C47.4831 27.3883 48.9271 25.6113 50.3703 23.8353C50.7715 23.3418 51.1709 22.8465 51.5738 22.3548C51.6155 22.3037 51.6137 22.2823 51.5632 22.2424C49.812 20.8483 48.0627 19.4524 46.3124 18.0574C45.9201 17.7442 45.5278 17.431 45.1347 17.1188C45.0965 17.089 45.0779 17.0705 45.1178 17.0193C45.7781 16.1708 46.4376 15.3214 47.0944 14.4692C47.1423 14.4078 47.168 14.4115 47.2239 14.4561C49.3851 16.1829 51.5472 17.9069 53.7084 19.6336C53.7625 19.6764 53.7829 19.6615 53.8184 19.616C54.5418 18.708 55.2669 17.8009 55.9911 16.8939C56.8316 15.8409 57.6721 14.7879 58.5126 13.735C58.6449 13.5695 58.778 13.4041 58.9085 13.2368C58.9422 13.1931 58.9626 13.1801 59.0114 13.221C59.82 13.892 60.6303 14.5602 61.4398 15.2294C61.4602 15.2452 61.4841 15.2563 61.4948 15.287Z" fill="white"/>
<path d="M24.0896 15.9921C24.1642 12.5256 22.3234 9.90942 19.2099 8.21425C16.2428 6.59994 11.7936 6.67801 7.40732 6.60645L7.23957 11.1492L9.7318 10.8955L9.54098 34.0711L14.229 34.2431L13.5234 24.0117C21.2273 23.5767 24.0204 19.1929 24.0896 15.9921ZM13.5296 20.0005L13.5802 10.5014C13.8314 10.4791 14.5512 10.4392 14.7393 10.4392C17.1384 10.455 19.864 11.9001 19.7833 15.3267C19.8791 19.3899 16.1204 20.5758 13.5296 20.0005Z" fill="white"/>
<path d="M30.3457 18.5147L27.0139 18.208V34.5649L31.3975 34.2461L30.3457 18.5147Z" fill="white"/>
<path d="M97.8264 6.58691L94.3995 6.71238L93.993 31.02H98.0296L97.8264 6.58691Z" fill="white"/>
<path d="M89.8313 24.5726C84.9117 27.4397 80.9532 28.6125 79.0716 27.0596C78.0882 26.2482 77.7989 24.8291 77.7297 23.3988L90.7934 21.3244C90.8236 19.475 90.2902 15.5233 87.5335 13.5679C85.0075 11.7761 80.7535 11.3244 77.2069 13.7241H77.2042C74.6792 15.5233 73.5981 18.264 73.323 21.1953H73.3203C73.0541 24.1274 73.7091 27.2687 75.7256 29.3932C79.9538 33.8514 88.042 30.7259 91.7804 27.7538L89.8313 24.5726ZM82.4212 15.6804C85.7353 15.4806 86.8856 17.2984 87.1128 18.6432L77.9249 19.5847C78.1752 18.002 79.1852 15.8737 82.4212 15.6804Z" fill="white"/>
<path d="M45.7076 29.182L51.3613 22.2229L44.7917 16.984L47.0824 14.0295L53.7292 19.3334L58.9418 12.8037L61.758 15.129L56.5587 21.7191L64.0576 27.4775L61.3231 30.5072L54.1517 24.5853L48.5291 31.5807L45.7076 29.182Z" fill="white"/>
<path d="M29.0743 16.4612C30.4424 16.4612 31.5515 15.2999 31.5515 13.8673C31.5515 12.4348 30.4424 11.2734 29.0743 11.2734C27.7063 11.2734 26.5972 12.4348 26.5972 13.8673C26.5972 15.2999 27.7063 16.4612 29.0743 16.4612Z" fill="white"/>
</svg>
