<svg width="94" height="36" viewBox="0 0 94 36" fill="none" xmlns="http://www.w3.org/2000/svg">
<path d="M93.1026 1.97983C93.0939 1.4395 92.8774 0.925093 92.5028 0.552881C92.1449 0.197398 91.6704 0 91.1784 0C91.156 0 91.1336 0 91.1113 0.000836431L63.3045 1.01794C62.2813 1.05558 61.4681 1.92379 61.4473 2.99024L61.2077 10.1668L60.98 10.1543L60.6286 5.92779C60.5846 5.39498 60.3394 4.90232 59.948 4.55855C59.5997 4.25325 59.1612 4.0868 58.7107 4.0868C58.6548 4.0868 58.598 4.08931 58.5421 4.09433L34.5568 6.30418H34.556L34.3212 3.18597C34.2445 2.17138 33.4577 1.37509 32.4863 1.33076L3.34002 0.00167286C3.31127 0.000836431 3.28251 0 3.25455 0C2.2305 0 1.37819 0.845632 1.33346 1.92797L0.00187305 33.8972C-0.0212919 34.4467 0.171217 34.9812 0.534667 35.3785C0.898117 35.7758 1.39976 36 1.92456 36H34.6175C35.1527 36 35.6639 35.7666 36.0282 35.3551C36.3924 34.9444 36.5769 34.3924 36.5362 33.8336L36.5043 33.3862C36.5043 33.3862 36.5642 33.3443 36.569 33.3686C36.7455 34.3096 37.5347 34.9946 38.4573 34.9946C38.5691 34.9946 38.7137 34.9846 38.8239 34.9637L60.5127 30.9597L60.4816 31.8948C60.4808 31.9182 60.4808 31.9416 60.4808 31.9651C60.4808 33.0783 61.3427 33.9917 62.4051 33.9917H91.6744C92.7376 33.9917 93.5987 33.0892 93.5987 31.9768V31.8162L93.1026 1.97983ZM1.92536 33.985L3.25615 2.01496L32.4025 3.34405L32.8274 8.98745L34.6183 33.9842H1.92536V33.985ZM38.4909 32.9796H38.4581L34.7253 8.31162L58.7115 6.1026L60.5894 28.6896L60.5822 28.9012L38.4909 32.9796ZM91.6752 31.9768H62.4059V31.9659L62.4969 29.2324C62.5241 29.0668 62.5385 28.897 62.5241 28.7214L62.5169 28.6361L63.3708 3.03708V3.03206L91.1776 2.0158L91.6752 31.817V31.9768Z" fill="white"/>
<path d="M91.1787 2.01562L63.372 3.03189V3.03774L62.4062 31.9657V31.9766H91.6756V31.816L91.1787 2.01562Z" fill="#00567D"/>
<path d="M58.7049 6.10254L34.7188 8.31155L38.4515 32.9796H38.4843L60.6004 28.8961L58.7049 6.10254Z" fill="#45A041"/>
<path d="M32.8239 8.98728L32.399 3.34471L3.25266 2.01562L1.92188 33.9849H34.6148L32.8239 8.98728Z" fill="#E9004C"/>
<path d="M55.3453 13.1141C55.3341 13.1291 55.3222 13.1458 55.3094 13.1617C54.8397 13.7573 54.37 14.3536 53.9003 14.9492C52.9593 16.1428 52.0176 17.3355 51.0766 18.5291C50.9632 18.673 50.8505 18.8168 50.7347 18.959C50.7004 19.0009 50.694 19.0243 50.7435 19.0619C52.933 20.7406 55.1217 22.4219 57.3112 24.1023C57.403 24.1725 57.4022 24.1717 57.3263 24.2562C56.6178 25.0407 55.9101 25.8253 55.2031 26.6124C55.1632 26.6567 55.1416 26.6417 55.1065 26.6124C54.2877 25.9349 53.4674 25.2582 52.6478 24.5815C51.361 23.5193 50.0741 22.457 48.7888 21.3931C48.7353 21.3487 48.7138 21.3579 48.673 21.4089C47.8359 22.4536 46.9964 23.4967 46.1576 24.5397C45.3516 25.5426 44.5441 26.5455 43.7397 27.55C43.6957 27.6052 43.6734 27.601 43.6247 27.5592C42.8994 26.9403 42.1725 26.323 41.4448 25.7065C41.4032 25.6714 41.3952 25.6505 41.4344 25.6028C42.7348 24.0052 44.0344 22.406 45.3333 20.8076C45.6943 20.3634 46.0538 19.9176 46.4164 19.4751C46.454 19.4291 46.4524 19.4099 46.4068 19.3739C44.8308 18.1193 43.2564 16.8629 41.6812 15.6075C41.3281 15.3256 40.9751 15.0437 40.6212 14.7627C40.5869 14.7359 40.5701 14.7192 40.606 14.6732C41.2003 13.9095 41.7938 13.145 42.3849 12.378C42.4281 12.3228 42.4512 12.3261 42.5016 12.3663C44.4466 13.9204 46.3925 15.472 48.3375 17.026C48.3863 17.0645 48.4046 17.0511 48.4366 17.0102C49.0876 16.193 49.7402 15.3766 50.392 14.5602C51.1485 13.6126 51.9049 12.6649 52.6614 11.7172C52.7804 11.5683 52.9002 11.4194 53.0176 11.2689C53.048 11.2296 53.0664 11.2179 53.1103 11.2547C53.838 11.8586 54.5673 12.46 55.2958 13.0622C55.3142 13.0764 55.3357 13.0865 55.3453 13.1141Z" fill="white"/>
<path d="M21.6807 13.7489C21.7478 10.629 20.0911 8.27443 17.2889 6.74878C14.6186 5.2959 10.6142 5.36616 6.6666 5.30176L6.51562 9.39023L8.75863 9.16189L8.58689 30.02L12.8061 30.1747L12.1711 20.9664C19.1046 20.575 21.6184 16.6295 21.6807 13.7489ZM12.1767 17.3564L12.2222 8.80724C12.4483 8.78717 13.0961 8.7512 13.2654 8.7512C15.4245 8.76542 17.8776 10.0661 17.8049 13.15C17.8912 16.8069 14.5083 17.8742 12.1767 17.3564Z" fill="white"/>
<path d="M27.3112 16.0192L24.3125 15.7432V30.4644L28.2577 30.1775L27.3112 16.0192Z" fill="white"/>
<path d="M88.0437 5.28418L84.9596 5.3971L84.5938 27.274H88.2267L88.0437 5.28418Z" fill="white"/>
<path d="M80.8482 21.471C76.4205 24.0514 72.8579 25.107 71.1645 23.7093C70.2794 22.9791 70.019 21.7018 69.9567 20.4146L81.7141 18.5477C81.7413 16.8832 81.2612 13.3267 78.7802 11.5668C76.5068 9.95417 72.6782 9.54766 69.4862 11.7073H69.4838C67.2113 13.3267 66.2383 15.7933 65.9907 18.4314H65.9883C65.7487 21.0703 66.3382 23.8975 68.153 25.8096C71.9585 29.8219 79.2379 27.009 82.6024 24.3341L80.8482 21.471ZM74.1791 13.468C77.1618 13.2882 78.197 14.9242 78.4015 16.1346L70.1324 16.9819C70.3577 15.5574 71.2667 13.642 74.1791 13.468Z" fill="white"/>
<path d="M41.1369 25.6193L46.2252 19.3561L40.3125 14.6412L42.3742 11.9822L48.3563 16.7557L53.0476 10.8789L55.5822 12.9717L50.9029 18.9028L57.6519 24.0853L55.1908 26.8121L48.7366 21.4823L43.6762 27.7782L41.1369 25.6193Z" fill="white"/>
<path d="M26.1669 14.1709C27.3982 14.1709 28.3964 13.1257 28.3964 11.8364C28.3964 10.5471 27.3982 9.50195 26.1669 9.50195C24.9356 9.50195 23.9375 10.5471 23.9375 11.8364C23.9375 13.1257 24.9356 14.1709 26.1669 14.1709Z" fill="white"/>
</svg>
