<svg width="97" height="112" viewBox="0 0 97 112" fill="none" xmlns="http://www.w3.org/2000/svg">
<path d="M7.33752 59.321C11.3501 60.957 16.3012 60.1036 20.1565 62.1023C23.3691 63.7678 25.149 67.0912 25.6891 70.427C26.2416 73.7213 25.8187 77.1365 25.722 80.4523C25.5244 87.9287 27.191 95.4543 30.5259 102.358C32.333 106.089 34.9952 109.937 39.2912 111.285C42.7692 112.391 46.7573 111.617 49.9282 109.934C53.0992 108.25 55.6714 105.754 58.059 103.214C72.0148 88.5495 82.8725 71.6687 91.6238 54.0572C94.9089 47.5037 97.9395 40.3101 96.4384 33.2252C94.5124 24.0788 85.7008 17.6342 77.3463 12.1459C67.5503 5.68635 56.1824 -0.974288 44.1605 0.710864C36.0649 1.82959 29.1395 6.65883 23.2966 11.8383C16.4618 18.025 9.48433 25.0232 5.41892 33.0357C1.67733 40.4585 -4.15902 54.5883 7.33752 59.321Z" fill="#FCDAA4"/>
</svg>
