<svg width="41" height="57" viewBox="0 0 41 57" fill="none" xmlns="http://www.w3.org/2000/svg">
<path d="M14.5165 17.8914C15.3436 15.9258 16.0526 13.9603 16.5253 11.8719L19.0066 1.67563C19.2429 0.692857 20.4245 0.570009 21.0154 1.30709C22.9059 4.37825 22.7877 8.67788 22.6696 12.3633C22.5514 16.9086 23.024 22.4367 26.8052 24.6479C30.7045 26.982 36.2581 24.6479 40.2755 26.4906C41.2208 26.8592 41.2208 28.3333 40.3937 28.8247C37.0852 30.6674 32.5951 30.0532 29.1684 31.8959C25.6236 33.7386 23.7331 37.7925 22.7878 41.8465C21.9606 45.9004 21.9606 50.0772 21.0154 54.0083C20.779 55.1139 20.4245 56.2195 19.3611 56.7109C18.4158 57.0794 17.2342 56.588 16.6434 55.6053C16.0526 54.7453 15.8163 53.6397 15.6981 52.5341C15.1073 47.9888 15.1073 43.1978 13.6894 38.7753C12.2714 34.4757 7.42685 30.2989 3.0549 29.6846C0.337205 29.3161 -1.90785 28.2105 2.4641 27.1049C7.54501 25.7536 11.0898 25.6307 14.5165 17.8914Z" fill="#9381FF"/>
</svg>
