<svg width="208" height="208" viewBox="0 0 208 208" fill="none" xmlns="http://www.w3.org/2000/svg">
<path d="M29.0693 39.1309L46.725 21.3455L56.7566 31.3981L46.9176 41.2897L45.6656 42.5624L46.9336 43.819L53.1934 50.1019L46.6287 56.707L29.0693 39.1309ZM43.8198 28.8366L42.5358 30.1254L39.1973 33.5408L37.9774 34.7812L39.1812 36.0378L42.6321 39.5981L43.9001 40.903L45.1841 39.6142L48.5226 36.1989L49.7425 34.9584L48.5226 33.7019L45.0878 30.1415L43.8198 28.8366Z" fill="#9381FF"/>
<path d="M70.6252 11.4702L79.9185 34.5398L71.0586 38.1484L61.7493 15.0789L70.6252 11.4702Z" fill="#9381FF"/>
<path d="M116.432 24.0997L113.029 27.9338L109.562 31.6714C107.957 30.0926 105.613 27.7889 103.848 26.0812L103.27 25.5335L101.922 24.2285L100.686 25.6462L100.172 26.2423C98.5833 28.0788 96.5288 30.5115 94.9719 32.3641L91.1679 28.9649L87.4282 25.469C88.9369 23.9224 91.2482 21.5543 93.0138 19.7177L93.5595 19.1378L94.8596 17.7845L93.4471 16.5441L92.8372 16.0285C90.9272 14.3692 88.4072 12.2266 86.754 10.825L90.1247 7.02303L93.6237 3.25328C95.2287 4.83206 97.54 7.11969 99.3377 8.85957L99.9155 9.40731L101.28 10.7122L102.5 9.29454L103.013 8.68236C104.65 6.79748 106.753 4.30043 108.198 2.56055L112.018 5.97587L115.741 9.45564C114.072 11.1794 111.825 13.4831 110.172 15.2391L109.626 15.803L108.326 17.1723L109.755 18.3967L110.348 18.9122C112.258 20.5716 114.827 22.7464 116.432 24.0997Z" fill="#9381FF"/>
<path d="M132.959 9.68262L152.267 17.8987L150.887 21.1691L141.562 17.1899L139.924 16.4972L139.218 18.1404L137.838 21.4268L137.148 23.0701L138.785 23.7628L148.126 27.742L146.746 31.0123L137.405 27.0331L135.767 26.3404L135.077 27.9836L133.681 31.2701L132.991 32.9133L134.628 33.606L143.969 37.5691L142.589 40.8394L123.28 32.6394L132.959 9.68262Z" fill="#9381FF"/>
<path d="M158.932 50.0865L160.216 51.3431L168.145 59.1564L165.625 61.7018L149.735 46.3167L167.246 28.5796L173.763 35.0719L160.184 48.8138L158.932 50.0865Z" fill="#9381FF"/>
<path d="M198.612 86.4628L196.91 86.8817L192.127 88.09L190.362 88.541L190.843 90.297L192.111 94.9045L192.577 96.5961L194.262 96.1611L199.045 94.9528L200.827 94.5017L200.329 92.7458L199.061 88.1383L198.612 86.4628ZM188.05 89.2499L186.333 89.7171L177.778 92.0369L175.354 83.0153L199.302 76.5391L205.818 100.785L192.143 104.474L188.516 90.9737L188.05 89.2499Z" fill="#9381FF"/>
<path d="M203.728 116.975L202.396 126.48L177.839 123.033L179.155 113.528L203.728 116.975Z" fill="#9381FF"/>
<path d="M187.362 143.524C189.737 142.687 192.851 141.575 194.89 140.834L196.479 145.667L197.987 150.581C195.82 151.193 192.691 152.063 190.283 152.772L189.529 152.981L187.731 153.513L188.341 155.285L188.598 156.042C189.416 158.41 190.524 161.487 191.294 163.614L186.447 165.209L181.568 166.723C180.926 164.403 180.059 161.31 179.385 158.99L179.16 158.217L178.63 156.429L176.865 157.041L176.11 157.299C173.719 158.136 170.573 159.28 168.583 159.989L166.994 155.124L165.485 150.242C167.668 149.63 170.814 148.744 173.173 148.068L173.944 147.842L175.741 147.31L175.131 145.538L174.874 144.781C174.088 142.493 173.013 139.481 172.194 137.209L177.025 135.614L181.921 134.1C182.498 136.194 183.381 139.384 184.088 141.833L184.312 142.59L184.826 144.411L186.607 143.782L187.362 143.524Z" fill="#9381FF"/>
<path d="M159.127 178.516L157.699 179.595L149.609 185.733L147.475 182.898L155.564 176.76L156.993 175.696L155.917 174.263L153.783 171.411L152.707 169.993L151.295 171.073L143.189 177.195L141.07 174.359L157.811 161.681L172.754 181.577L156.014 194.255L153.895 191.42L161.984 185.298L163.397 184.219L162.337 182.785L160.187 179.949L159.127 178.516Z" fill="#9381FF"/>
<path d="M111.551 183.961L132.77 177.839L139.302 201.923L130.458 204.356L125.386 185.684L124.921 183.945L123.187 184.428L112.482 187.424L111.551 183.961Z" fill="#9381FF"/>
<path d="M73.7029 200.247L74.1683 198.555L75.5326 193.787L76.0302 192.031L74.2647 191.564L69.6581 190.372L67.9728 189.937L67.4913 191.612L66.1431 196.381L65.6455 198.137L67.411 198.604L72.0176 199.796L73.7029 200.247ZM76.5599 189.663L77.0254 187.939L79.3045 179.352L88.2929 181.753L81.9208 205.805L57.7325 199.345L61.376 185.603L74.8425 189.212L76.5599 189.663Z" fill="#9381FF"/>
<path d="M52.5145 163.902L37.2666 183.524L44.8133 189.432L60.0612 169.81L52.5145 163.902Z" fill="#9381FF"/>
<path d="M43.11 151.902L42.0827 156.912L40.9431 161.922C38.8565 161.374 35.6464 160.553 33.1746 159.941L32.4042 159.747L30.5905 159.296L30.2374 161.149L30.0929 161.938C29.6114 164.403 29.0336 167.689 28.6484 169.816L23.6727 168.785L18.6809 167.641C19.2427 165.45 20.0452 162.293 20.6391 159.86L20.8317 159.087L21.2811 157.25L19.4353 156.896L18.6649 156.751C16.2092 156.284 12.999 155.704 10.7841 155.301L11.8273 150.291L12.9669 145.297C15.2943 145.909 18.392 146.698 20.7354 147.262L21.5059 147.455L23.3196 147.89L23.6727 146.054L23.8171 145.264C24.2987 142.767 24.8925 139.465 25.2617 137.386L30.2534 138.434L35.2291 139.561C34.6673 141.768 33.8488 144.942 33.2549 147.342L33.0783 148.116L32.6289 149.936L34.4587 150.291L35.2452 150.452C37.6046 150.903 40.7505 151.483 43.11 151.902Z" fill="#9381FF"/>
<path d="M17.5061 119.457L19.2717 119.231L22.8028 118.796L24.5683 118.587L24.3436 116.815L23.1077 106.714L26.6228 106.279L29.1909 127.157L4.53721 130.218L1.96912 109.324L5.4842 108.889L6.72009 118.99L6.9448 120.762L8.71036 120.552L12.2415 120.117L14.0071 119.892L13.7824 118.12L12.5465 108.019L16.0455 107.584L17.2974 117.685L17.5061 119.457Z" fill="#9381FF"/>
<path d="M33.0982 75.815L27.7855 97.3219L3.70959 90.9745L6.05298 82.0657L24.7038 86.9954L26.4372 87.4464L26.8706 85.7066L29.6473 74.9128L33.0982 75.815Z" fill="#9381FF"/>
<path d="M196.909 86.881L198.61 86.4622L199.059 88.1376L200.327 92.7451L200.825 94.5011L199.043 94.9521L194.26 96.1604L192.575 96.5954L192.11 94.9038L190.842 90.2963L190.36 88.5404L192.126 88.0893L196.909 86.881ZM198.61 93.2284L197.358 88.6209L192.559 89.8292L193.827 94.4366L198.61 93.2284Z" fill="#9381FF"/>
<path d="M203.727 116.975L179.154 113.528L177.837 123.033L202.395 126.48L203.727 116.975ZM177.645 111.514L205.733 115.445L203.904 128.51L175.815 124.563L177.645 111.514Z" fill="#9381FF"/>
<path d="M186.332 89.7171L188.049 89.2499L188.515 90.9737L192.142 104.474L205.817 100.785L199.301 76.5391L175.353 83.0153L177.777 92.037L186.332 89.7171ZM176.525 94.2279L173.17 81.7588L200.552 74.3481L208 102.041L190.874 106.665L186.797 91.4409L176.525 94.2279Z" fill="#9381FF"/>
<path d="M176.681 158.989C173.583 160.068 169.185 161.663 167.468 162.291L165.285 155.67L163.246 149.001C165.012 148.517 169.522 147.261 172.668 146.343L173.438 146.117L173.182 145.36C172.106 142.251 170.517 137.82 169.891 136.08L176.472 133.906L183.133 131.844C183.63 133.632 184.866 138.159 185.781 141.332L186.006 142.089L186.76 141.832C189.874 140.752 194.272 139.157 195.989 138.529L198.172 145.134L200.211 151.82C198.445 152.303 193.935 153.56 190.773 154.478L190.019 154.704L190.275 155.461C191.351 158.57 192.956 163 193.582 164.724L186.969 166.915L180.324 168.977C179.843 167.189 178.591 162.662 177.66 159.488L177.435 158.731L176.681 158.989ZM175.124 145.537L175.734 147.309L173.936 147.841L173.165 148.066C170.806 148.743 167.66 149.629 165.477 150.241L166.986 155.123L168.575 159.988C170.565 159.279 173.711 158.135 176.103 157.297L176.857 157.04L178.623 156.427L179.152 158.216L179.377 158.989C180.051 161.309 180.918 164.402 181.56 166.722L186.439 165.207L191.287 163.612C190.516 161.486 189.409 158.409 188.59 156.041L188.333 155.284L187.723 153.512L189.521 152.98L190.275 152.77C192.683 152.062 195.813 151.192 197.98 150.579L196.471 145.666L194.882 140.833C192.844 141.574 189.73 142.686 187.354 143.523L186.6 143.781L184.818 144.409L184.305 142.589L184.08 141.832C183.374 139.383 182.491 136.193 181.913 134.099L177.018 135.613L172.186 137.208C173.005 139.48 174.08 142.492 174.867 144.78L175.124 145.537Z" fill="#9381FF"/>
<path d="M165.658 64.2147L147.2 46.3487L167.247 26.0662L176.283 35.0556L161.453 50.0701L170.682 59.1401L165.658 64.2147ZM168.146 59.1562L160.217 51.3428L158.933 50.0862L160.185 48.8135L173.763 35.0717L167.247 28.5793L149.736 46.3165L165.626 61.7015L168.146 59.1562Z" fill="#9381FF"/>
<path d="M158.144 159.183L175.254 181.93L155.672 196.767L151.387 191.08L160.905 183.863L158.77 181.028L149.252 188.229L144.982 182.542L154.5 175.341L152.35 172.49L142.848 179.707L138.562 174.02L158.144 159.183ZM160.182 179.948L162.333 182.784L163.392 184.218L161.98 185.297L153.89 191.419L156.009 194.254L172.75 181.576L157.807 161.68L141.066 174.358L143.185 177.194L151.29 171.072L152.703 169.992L153.778 171.41L155.913 174.262L156.988 175.695L155.56 176.759L147.47 182.897L149.605 185.732L157.694 179.594L159.123 178.515L160.182 179.948Z" fill="#9381FF"/>
<path d="M150.893 21.1684L152.273 17.898L132.964 9.6819L123.286 32.6387L142.595 40.8387L143.975 37.5684L134.634 33.6053L132.996 32.9126L133.687 31.2693L135.083 27.9829L135.773 26.3397L137.41 27.0324L146.752 31.0116L148.132 27.7412L138.791 23.7621L137.153 23.0693L137.844 21.4261L139.224 18.1397L139.93 16.4964L141.567 17.1892L150.893 21.1684ZM154.617 16.9475L151.84 23.5043L140.877 18.8485L139.481 22.1188L150.459 26.7908L147.699 33.3475L136.72 28.6756L135.34 31.9621L146.302 36.634L143.542 43.1908L120.942 33.5892L132.033 7.34595L154.617 16.9475Z" fill="#9381FF"/>
<path d="M139.301 201.924L132.768 177.84L111.549 183.961L112.48 187.425L123.186 184.429L124.919 183.945L125.385 185.685L130.457 204.357L139.301 201.924ZM123.668 186.152L111.228 189.632L109.366 182.737L134.004 175.616L141.484 203.181L129.205 206.548L123.668 186.152Z" fill="#9381FF"/>
<path d="M88.8044 5.81572L93.5554 0.692731C94.8715 1.98153 98.194 5.28409 100.569 7.57171L101.147 8.11946L101.661 7.52339C103.812 5.02633 106.829 1.41768 108.017 0L113.201 4.6558L118.305 9.40826C117.005 10.7132 113.715 14.0802 111.452 16.4645L110.906 17.0444L111.516 17.5599C113.988 19.7187 117.567 22.7474 118.979 23.9234L114.341 29.1269L109.622 34.2499C108.306 32.945 104.967 29.6586 102.608 27.3709L102.03 26.8232L101.516 27.4193C99.3496 29.9163 96.3321 33.5089 95.1444 34.9265L89.9761 30.2869L84.872 25.5344C86.1561 24.2134 89.4464 20.8625 91.7256 18.4782L92.2713 17.8982L91.6614 17.3827C89.1896 15.224 85.6103 12.1953 84.1979 11.0193L88.8044 5.81572ZM94.8555 17.7855L93.5554 19.1387L93.0097 19.7187C91.2441 21.5552 88.9328 23.9234 87.424 25.47L91.1638 28.9658L94.9678 32.3651C96.5247 30.5124 98.5792 28.0798 100.168 26.2432L100.682 25.6472L101.918 24.2295L103.266 25.5344L103.844 26.0821C105.609 27.7898 107.953 30.0935 109.558 31.6723L113.025 27.9348L116.427 24.1006C114.822 22.7474 112.254 20.5725 110.344 18.9132L109.75 18.3977L108.322 17.1733L109.622 15.8039L110.168 15.2401C111.821 13.4841 114.068 11.1804 115.737 9.45659L112.014 5.97682L108.194 2.5615C106.749 4.30138 104.646 6.79843 103.009 8.68331L102.496 9.29549L101.276 10.7132L99.9114 9.40826L99.3336 8.86052C97.5359 7.12063 95.2246 4.83301 93.6196 3.25423L90.1205 7.02397L86.7499 10.8259C88.4031 12.2275 90.9231 14.3701 92.8331 16.0295L93.443 16.545L94.8555 17.7855Z" fill="#9381FF"/>
<path d="M72.4647 198.073L73.8129 193.305L69.2064 192.096L67.8582 196.881L72.4647 198.073ZM76.0279 192.032L75.5304 193.788L74.166 198.557L73.7006 200.248L72.0153 199.797L67.4088 198.605L65.6432 198.138L66.1408 196.382L67.489 191.613L67.9705 189.938L69.6558 190.373L74.2624 191.565L76.0279 192.032Z" fill="#9381FF"/>
<path d="M71.055 38.1492L79.9149 34.5405L70.6216 11.471L61.7457 15.0796L71.055 38.1492ZM71.6007 9.13501L82.2423 35.5232L70.0599 40.4851L59.4183 14.0969L71.6007 9.13501Z" fill="#9381FF"/>
<path d="M81.9195 205.806L88.2915 181.754L79.3032 179.353L77.024 187.94L76.5586 189.664L74.8412 189.213L61.3747 185.604L57.7312 199.346L81.9195 205.806ZM90.4744 180.497L83.1714 207.997L55.5483 200.619L60.1228 183.429L75.3066 187.489L78.0352 177.162L90.4744 180.497Z" fill="#9381FF"/>
<path d="M37.2689 183.526L44.8127 189.438L60.0607 169.816L52.517 163.904L37.2689 183.526ZM45.1176 191.951L34.765 183.832L52.212 161.391L62.5646 169.494L45.1176 191.951Z" fill="#9381FF"/>
<path d="M42.5314 30.1269L43.8154 28.8381L45.0834 30.143L48.5183 33.7034L49.7381 34.9599L48.5183 36.2004L45.1797 39.6157L43.8957 40.9045L42.6277 39.5996L39.1768 36.0393L37.973 34.7827L39.1929 33.5423L42.5314 30.1269ZM47.2503 34.9599L43.7994 31.3835L40.4609 34.7988L43.8957 38.3592L47.2503 34.9599Z" fill="#9381FF"/>
<path d="M26.5474 39.1478L46.723 18.833L59.2745 31.3827L48.1836 42.5631L55.7113 50.1026L46.6266 59.237L26.5474 39.1478ZM29.0673 39.1316L46.6266 56.7077L53.1913 50.1026L46.9316 43.8197L45.6636 42.5631L46.9156 41.2904L56.7546 31.3988L46.723 21.3462L29.0673 39.1316Z" fill="#9381FF"/>
<path d="M18.9211 159.441L19.1137 158.651L18.3273 158.506C15.1011 157.894 10.4785 157.073 8.66479 156.75L10.0933 149.904L11.6342 143.105C13.4158 143.572 17.9581 144.748 21.1522 145.522L21.9226 145.715L22.067 144.926C22.693 141.687 23.5116 137.064 23.8326 135.26L30.6381 136.677L37.4114 138.24C36.9459 140.012 35.7742 144.555 34.9878 147.761L34.7952 148.534L35.5816 148.695C38.8078 149.324 43.4304 150.145 45.228 150.467L43.8156 157.282L42.2587 164.113C40.4931 163.645 35.9508 162.453 32.7567 161.68L31.9863 161.487L31.8419 162.26C31.2159 165.498 30.3973 170.138 30.0763 171.942L23.2869 170.54L16.4975 168.962C16.9629 167.19 18.1346 162.63 18.9211 159.441ZM21.2806 157.25L20.8311 159.086L20.6385 159.86C20.0447 162.292 19.2421 165.45 18.6804 167.641L23.6721 168.784L28.6478 169.816C29.033 167.689 29.6108 164.403 30.0923 161.938L30.2368 161.148L30.5899 159.296L32.4036 159.747L33.174 159.94C35.6458 160.552 38.856 161.374 40.9425 161.922L42.0821 156.911L43.1094 151.901C40.7499 151.482 37.604 150.902 35.2446 150.451L34.4581 150.29L32.6283 149.936L33.0777 148.115L33.2543 147.342C33.8482 144.942 34.6668 141.768 35.2285 139.561L30.2528 138.433L25.2611 137.386C24.8919 139.464 24.2981 142.767 23.8166 145.264L23.6721 146.053L23.319 147.89L21.5053 147.455L20.7348 147.262C18.3915 146.698 15.2937 145.908 12.9664 145.296L11.8268 150.29L10.7835 155.3C12.9985 155.703 16.2086 156.283 18.6643 156.75L19.4347 156.895L21.2806 157.25Z" fill="#9381FF"/>
<path d="M24.7036 86.9937L6.05282 82.064L3.70943 90.9729L27.7853 97.3202L33.0981 75.8133L29.6472 74.9112L26.8704 85.7049L26.4371 87.4448L24.7036 86.9937ZM4.78482 79.8892L25.153 85.2699L28.3631 72.7202L35.2488 74.5407L29.0694 99.5112L1.5426 92.2456L4.78482 79.8892Z" fill="#9381FF"/>
<path d="M22.8079 118.795L19.2768 119.23L17.5112 119.456L17.3025 117.684L16.0506 107.583L12.5516 108.018L13.7875 118.119L14.0122 119.891L12.2466 120.116L8.71547 120.551L6.94991 120.761L6.7252 118.988L5.4893 108.887L1.97422 109.322L4.54232 130.217L29.196 127.156L26.6279 106.278L23.1129 106.713L24.3487 116.814L24.5735 118.586L22.8079 118.795ZM19.0681 117.458L22.5832 117.023L21.1226 105.15L28.1688 104.28L31.1703 128.719L3.00146 132.215L0 107.776L7.04621 106.906L8.50681 118.779L12.0219 118.344L10.5613 106.471L17.6075 105.585L19.0681 117.458Z" fill="#9381FF"/>
</svg>
