<svg width="174" height="164" viewBox="0 0 174 164" fill="none" xmlns="http://www.w3.org/2000/svg">
<path d="M13.7381 1.12996C0.138062 10.23 -3.96194 29.93 4.13806 44.03C13.2381 60.13 35.238 62.73 50.438 53.93C56.738 50.33 64.2381 43.43 59.1381 35.73C54.2381 28.33 42.3381 29.43 35.3381 32.83C27.0381 36.93 22.6381 46.03 23.0381 55.13C23.4381 64.63 28.8381 72.93 36.3381 78.63C44.4381 84.73 54.7381 88.03 64.7381 87.7299C73.2381 87.4299 85.0381 84.83 90.2381 77.33C94.5381 71.23 91.8381 62.63 85.2381 59.53C77.2381 55.73 67.038 60.33 62.438 67.33C57.238 75.13 58.0381 85.53 62.5381 93.33C67.4381 101.73 76.238 106.73 85.438 108.93C95.238 111.33 106.038 110.43 114.938 105.63C121.538 102.03 128.038 94.9299 121.738 87.7299C114.638 79.63 103.738 85.4299 99.438 93.2299C94.238 102.93 99.4381 113.43 107.138 120.03C116.538 128.13 128.638 130.23 140.138 133.93C151.638 137.53 165.038 145.33 163.138 159.43C162.438 164.23 172.438 164.23 173.138 159.23C174.838 146.43 164.738 136.03 154.038 130.83C141.138 124.63 124.938 124.63 113.938 114.53C109.438 110.43 105.638 103.93 107.838 97.63C108.238 96.43 111.138 91.13 112.538 91.33C115.738 91.63 113.538 96.33 112.538 97.33C102.538 106.43 83.5381 103.53 74.6381 94.33C70.1381 89.63 67.7381 82.53 69.0381 76.13C69.8381 72.33 75.9381 62.23 80.7381 66.63C85.9381 71.43 78.8381 76.43 74.7381 78.13C68.2381 80.73 60.6381 80.93 54.0381 78.83C41.7381 74.93 30.4381 63.83 33.2381 49.93C34.5381 43.33 39.738 37.33 46.938 37.93C49.438 38.13 51.2381 39.83 50.3381 42.53C49.5381 45.03 46.0381 47.13 43.8381 48.33C32.1381 54.83 16.8381 51.2299 11.6381 38.33C7.13806 27.13 10.5381 13.23 20.6381 6.42996C22.6381 5.12996 22.2381 2.42996 20.5381 1.12996C18.7381 -0.570044 15.7381 -0.170044 13.7381 1.12996Z" fill="#E1DBFC"/>
</svg>
