<svg width="147" height="179" viewBox="0 0 147 179" fill="none" xmlns="http://www.w3.org/2000/svg">
<path d="M6.18418 78.0789C11.1312 82.4636 18.65 83.301 23.1927 88.1934C26.9783 92.2704 27.893 98.3514 27.0241 103.902C26.1933 109.393 23.9046 114.643 22.1326 119.879C18.1662 131.696 16.8485 144.418 18.2288 156.89C18.9819 163.631 20.9031 170.939 26.3982 174.991C30.8397 178.295 36.9388 178.832 42.3144 177.557C47.69 176.283 52.6073 173.45 57.2819 170.464C84.5141 153.306 108.397 131.244 129.619 107.085C137.557 98.1072 145.446 87.9977 146.784 76.051C148.528 60.6336 139.07 46.4638 129.795 34.0192C118.933 19.389 105.916 3.74132 87.8498 1.09189C75.6919 -0.717817 63.3841 3.89954 52.4556 9.55465C39.6087 16.3736 26.1577 24.4213 16.382 35.3757C7.36109 45.5347 -7.96708 65.4438 6.18418 78.0789Z" fill="#FCDAA4"/>
</svg>
