<svg width="151" height="161" viewBox="0 0 151 161" fill="none" xmlns="http://www.w3.org/2000/svg">
<path d="M83.3 16.3235C80.5784 9.03019 70.2911 9.03019 67.5695 16.3235L63.1435 28.1843L54.2895 19.1542C48.8451 13.6015 39.4472 17.7975 39.9191 25.5704L40.6864 38.211L28.9353 33.573C21.7095 30.7211 14.8259 38.3876 18.4096 45.296L24.2375 56.5308L11.6213 57.0868C3.86339 57.4288 0.684448 67.2401 6.76028 72.0895L16.6411 79.976L5.34113 85.6299C-1.60736 89.1066 -0.532059 99.3663 6.9854 101.318L19.2107 104.493L11.1808 114.267C6.24318 120.277 11.3868 129.211 19.0461 127.928L31.5019 125.842L28.1306 138.046C26.0576 145.551 34.3801 151.614 40.8568 147.318L51.3895 140.332L53.2597 152.856C54.4097 160.557 64.4722 162.702 68.6464 156.136L75.4347 145.457L82.2231 156.136C86.3973 162.702 96.4598 160.557 97.6098 152.856L99.48 140.332L110.013 147.318C116.489 151.614 124.812 145.551 122.739 138.046L119.368 125.842L131.823 127.928C139.483 129.211 144.626 120.277 139.689 114.267L131.659 104.493L143.884 101.318C151.402 99.3663 152.477 89.1066 145.528 85.6299L134.228 79.976L144.109 72.0895C150.185 67.2401 147.006 57.4288 139.248 57.0868L126.632 56.5308L132.46 45.296C136.044 38.3876 129.16 30.7211 121.934 33.573L110.183 38.211L110.95 25.5704C111.422 17.7975 102.024 13.6015 96.5799 19.1542L87.726 28.1843L83.3 16.3235Z" fill="#D1CAF8"/>
<mask id="mask0_203_1173" style="mask-type:alpha" maskUnits="userSpaceOnUse" x="0" y="10" width="151" height="150">
<path d="M83.2925 16.3896C80.5735 9.10322 70.2961 9.10322 67.5771 16.3896L63.1554 28.239L54.3098 19.2176C48.8706 13.6702 39.4817 17.8622 39.9531 25.6276L40.7197 38.2562L28.9798 33.6226C21.7609 30.7734 14.8839 38.4326 18.4642 45.3344L24.2865 56.5585L11.6823 57.114C3.93184 57.4556 0.755936 67.2575 6.82597 72.1023L16.6974 79.9812L5.40816 85.6298C-1.53369 89.1031 -0.459412 99.353 7.05087 101.303L19.2645 104.474L11.2423 114.239C6.30936 120.244 11.4481 129.169 19.1 127.888L31.544 125.803L28.1759 137.996C26.1048 145.493 34.4194 151.551 40.8899 147.259L51.4126 140.279L53.281 152.792C54.4299 160.486 64.4827 162.628 68.653 156.068L75.4348 145.4L82.2167 156.068C86.3869 162.628 96.4398 160.486 97.5887 152.792L99.4571 140.279L109.98 147.259C116.45 151.551 124.765 145.493 122.694 137.996L119.326 125.803L131.77 127.888C139.422 129.169 144.56 120.244 139.627 114.239L131.605 104.474L143.819 101.303C151.329 99.353 152.403 89.1031 145.462 85.6298L134.172 79.9812L144.044 72.1023C150.114 67.2575 146.938 57.4556 139.187 57.114L126.583 56.5585L132.406 45.3344C135.986 38.4326 129.109 30.7734 121.89 33.6226L110.15 38.2562L110.917 25.6276C111.388 17.8622 101.999 13.6702 96.5598 19.2176L87.7143 28.239L83.2925 16.3896Z" fill="white"/>
</mask>
<g mask="url(#mask0_203_1173)">
<path d="M104.199 42.5469C103.57 41.897 102.933 41.1757 102.289 40.4116C102.239 40.5544 102.196 40.6901 102.146 40.8258C101.91 40.5615 101.673 40.283 101.423 39.9902C101.416 39.9974 101.416 40.0045 101.416 40.0045C101.673 40.3187 101.91 40.5973 102.139 40.8543C102.775 41.5828 103.326 42.097 103.999 42.6825C104.049 42.7325 104.099 42.7754 104.149 42.8182C104.157 42.8182 104.157 42.8111 104.164 42.8111C104.114 42.7682 104.063 42.7254 104.013 42.6754C104.078 42.6397 104.135 42.5969 104.199 42.5469Z" fill="#EF6E22" stroke="black" stroke-width="0.181723" stroke-miterlimit="10"/>
<path d="M51.8438 162.621C47.8078 162.335 43.0204 165.149 39.149 165.585C33.46 166.228 36.7017 163.621 37.6391 160.243C35.1345 159.972 33.6747 162.643 30.9411 162.271C31.0985 161.586 30.8839 160.722 30.8266 159.886C29.6387 159.922 28.6011 160.072 27.6637 160.936C26.7048 160.079 28.9088 153.009 29.0949 151.616C27.3917 152.08 24.4721 154.458 21.9818 156.608C18.8475 162.793 16.9726 170.548 16.4502 181.374C34.1255 175.076 44.9096 169.191 51.8438 162.621Z" fill="#A35525" stroke="black" stroke-width="0.181723" stroke-miterlimit="10"/>
<path d="M35.4417 100.434L35.7134 100.427C35.5918 100.413 35.506 100.413 35.4417 100.434Z" fill="#A57C52" stroke="black" stroke-width="0.181723" stroke-miterlimit="10"/>
<path d="M40.8479 102.265C40.6976 102.201 40.5473 102.137 40.4042 102.072C40.2754 102.772 40.1609 103.486 40.0679 104.215C40.0607 104.272 40.0535 104.329 40.0464 104.386C39.1734 110.592 38.9658 117.676 40.2396 126.26C41.0912 125.96 42.1932 125.782 43.1449 125.803C43.8605 125.817 44.7407 126.053 45.5637 126.353C45.7211 121.326 46.5226 117.019 46.8016 114.777C47.0521 112.777 47.2453 111.013 48.562 105.107C46.0216 104.465 43.2093 103.293 40.8479 102.265Z" fill="#EF6E22" stroke="black" stroke-width="0.181723" stroke-miterlimit="10"/>
<path d="M35.5335 100.927C36.9361 102.891 38.675 103.969 39.3548 104.347C39.4479 103.619 39.5624 102.905 39.6912 102.205C39.8343 102.269 39.8808 102.079 39.7391 102.017C37.8528 101.195 36.3643 100.533 35.7124 100.427L35.4405 100.434C35.3045 100.477 35.326 100.634 35.5335 100.927Z" fill="#A57C52" stroke="black" stroke-width="0.181723" stroke-miterlimit="10"/>
<path d="M42.8303 85.1164C43.2525 84.1808 43.6389 83.3239 43.9466 82.5883C44.3831 81.5814 44.698 80.8101 44.8411 80.3959C44.8554 80.3602 44.8626 80.3245 44.8769 80.2959C44.9055 80.3173 44.9341 80.3459 44.9699 80.3816C45.0558 80.453 45.1416 80.5459 45.2347 80.6458C45.4422 80.8744 45.6569 81.1314 45.8358 81.3243C45.8358 81.3243 45.8358 81.3171 45.8429 81.3171C45.8429 81.3243 45.8501 81.3314 45.8644 81.3457C45.8715 81.3814 45.893 81.4171 45.9145 81.4528C46.9449 82.8811 48.047 85.0521 48.8699 87.2445C48.9844 87.5587 49.0917 87.8729 49.1991 88.1872C49.4209 88.8299 49.6213 89.4798 49.8216 90.1439C50.3226 91.8578 50.7448 93.6146 51.0954 95.2786C51.5033 97.2068 51.8039 99.0064 51.9971 100.47C51.9828 100.62 51.9398 101.263 51.9112 101.649C51.8969 101.784 51.8897 101.913 51.8826 102.027C51.8683 102.227 51.8468 102.434 51.8325 102.641C51.1026 102.099 50.2295 101.592 49.285 101.106C46.716 99.7991 43.5888 98.6779 41.1128 97.471C39.8748 96.8711 38.8014 96.2498 38.0429 95.5714L38.0071 95.5571C39.4812 92.4077 41.3919 88.3086 42.8303 85.1164Z" fill="#E6E8E6" stroke="black" stroke-width="0.181723" stroke-miterlimit="10"/>
<path d="M45.8417 81.3168C45.6413 81.074 45.4409 80.8455 45.2334 80.6455C45.4409 80.874 45.6556 81.1311 45.8345 81.3239C45.8345 81.3239 45.8345 81.3168 45.8417 81.3168Z" fill="#E6E8E6" stroke="black" stroke-width="0.181723" stroke-miterlimit="10"/>
<path d="M46.9613 39.4047C48.5643 37.4551 50.4534 35.8554 52.7147 34.927C53.0725 34.927 51.7558 34.0986 50.0885 31.9562C50.0885 31.9562 51.1619 31.4777 54.8615 31.7134C54.8615 31.7134 54.0243 30.9993 51.9991 26.2431C54.2962 27.2786 57.1514 28.4141 59.377 28.2855C53.7738 24.015 42.0952 3.87619 35.7837 1.75519C35.6262 1.7052 35.476 1.66236 35.3328 1.63379C37.68 11.2461 39.927 34.8342 46.9613 39.4047Z" fill="#A35525" stroke="black" stroke-width="0.181723" stroke-miterlimit="10"/>
<path d="M46.2799 59.3354L46.2799 59.3425C43.0598 64.9985 51.4036 72.1757 57.0068 77.5389C58.624 79.0885 60.6635 80.3526 62.7745 81.5023C66.8606 83.7376 71.2257 85.5658 73.3725 88.2795C73.7876 88.9008 74.1454 89.5364 74.4245 90.172C74.5246 90.472 74.6034 90.7862 74.6534 91.1075L74.632 92.1073L72.75 92.0573C71.1112 91.436 69.265 90.6076 67.3114 89.6007C60.2628 86.4085 50.4519 81.4381 48.1763 79.4456L48.1834 79.4385C48.026 79.3314 47.8829 79.2314 47.7326 79.1243C47.2961 78.8243 46.8667 78.5315 46.4159 78.2173C46.2799 78.1245 46.1225 78.0173 45.9579 77.8959C44.5554 76.939 42.3012 75.425 41.464 74.8108C41.3638 74.7394 41.2851 74.6823 41.2278 74.6394C40.0685 72.8969 46.3014 58.8141 46.2799 59.3354Z" fill="#E6E8E6" stroke="black" stroke-width="0.181723" stroke-miterlimit="10"/>
<path d="M45.9092 81.4528C46.9397 82.8811 48.0417 85.0521 48.8646 87.2445C48.0989 85.1164 47.1973 83.1882 46.1668 81.7599C46.0666 81.6171 45.9593 81.4742 45.8591 81.3457C45.8663 81.3814 45.8877 81.4171 45.9092 81.4528Z" fill="#E6E8E6" stroke="black" stroke-width="0.181723" stroke-miterlimit="10"/>
<path d="M46.2082 78.3963C46.2798 78.332 46.3442 78.2749 46.4157 78.2178C46.8665 78.532 47.2959 78.8248 47.7324 79.1247C47.0168 79.7675 46.337 80.6459 45.8576 81.2957C45.8504 81.3029 45.8432 81.31 45.8432 81.3171C45.6429 81.0743 45.4425 80.8458 45.235 80.6459C45.142 80.5459 45.0561 80.453 44.9702 80.3816C44.9344 80.3459 44.9058 80.3173 44.8772 80.2959C45.1777 79.4247 45.7001 78.8319 46.2082 78.3963Z" fill="#E6E8E6" stroke="black" stroke-width="0.181723" stroke-miterlimit="10"/>
<path d="M49.3518 130.437C49.18 130.601 49.0298 130.758 48.8938 130.908C36.5068 139.949 27.3686 145.941 21.9801 156.61C24.4704 154.46 27.39 152.082 29.0932 151.618C28.9071 153.011 26.7031 160.081 27.662 160.937C28.5994 160.073 29.637 159.923 30.8249 159.888C30.8822 160.723 31.0969 161.587 30.9394 162.273C33.673 162.644 35.1328 159.973 37.6374 160.245C36.7 163.623 33.4583 166.229 39.1473 165.587C43.0187 165.151 47.8061 162.337 51.8421 162.623C52.8081 161.709 53.7026 160.773 54.5327 159.823C52.207 151.925 51.1622 147.205 51.5129 138.049C50.9333 137.856 50.3393 137.585 49.7454 137.278C49.7167 137.271 49.6881 137.249 49.6595 137.235C49.681 137.228 49.7096 137.214 49.7382 137.214C49.6022 136.078 49.5021 134.836 49.4448 133.529C49.3947 132.536 49.3661 131.501 49.3518 130.437Z" fill="#EF6E22" stroke="black" stroke-width="0.181723" stroke-miterlimit="10"/>
<path d="M49.7511 137.278C50.345 137.585 50.939 137.856 51.5186 138.049C51.5329 137.599 51.5544 137.142 51.583 136.671C50.9461 136.835 50.3307 137.014 49.7439 137.214C49.7439 137.235 49.7439 137.256 49.7511 137.278Z" fill="#A57C52" stroke="black" stroke-width="0.181723" stroke-miterlimit="10"/>
<path d="M50.355 105.64C50.7843 105.705 51.1922 105.74 51.5858 105.74C51.6717 104.633 51.7575 103.591 51.8291 102.641C51.0992 102.098 50.2262 101.591 49.2816 101.106C46.7126 99.7986 43.5854 98.6774 41.1094 97.4705C39.8714 96.8707 38.798 96.2494 38.0395 95.5709L38.0037 95.5566C36.687 98.3489 35.3703 100.434 35.3703 100.434L35.4419 100.434C35.5063 100.413 35.5922 100.413 35.7138 100.427C36.4151 100.541 38.0825 101.298 40.172 102.205C42.6193 103.277 45.632 104.555 48.3298 105.24C49.0311 105.419 49.7109 105.562 50.355 105.64Z" fill="#E6E8E6" stroke="black" stroke-width="0.181723" stroke-miterlimit="10"/>
<path d="M51.5184 138.05C51.5327 137.6 51.5542 137.143 51.5828 136.671C51.6114 136.657 51.6472 136.65 51.6759 136.643C51.7259 136.628 51.7689 136.614 51.8333 136.6C52.2412 136.486 52.6634 136.386 53.0927 136.286C57.4436 135.257 62.646 134.622 68.335 134.329C69.2438 134.279 70.1598 134.243 71.09 134.215C73.2798 134.143 75.5268 134.122 77.8167 134.136C84.4932 134.186 91.5132 134.607 98.383 135.314C98.5333 135.329 98.6764 135.343 98.8267 135.357C98.5404 149.854 96.0573 153.818 90.676 168.372C88.9228 168.886 83.5987 168.686 82.4394 165.722C81.9929 164.581 83.1279 161.815 83.1923 160.535C83.2695 158.999 83.1228 158.183 83.8277 156.689C84.0832 156.147 84.6528 155.75 84.8517 155.387C85.5373 154.137 83.7633 153.547 83.9844 152.121C84.2077 150.681 84.1354 149.224 84.154 147.773C84.169 146.587 84.5619 145.164 84.2971 144.015C84.2034 143.61 68.9984 144.262 67.5564 144.263C66.7972 144.263 66.03 144.295 65.2744 144.218C65.1377 145.599 65.7438 147.116 65.7395 148.542C65.7345 150.226 65.4533 151.944 64.7649 153.489C64.1967 154.765 63.9849 154.931 64.7248 156.203C65.0404 156.746 65.4776 157.149 65.5821 157.784C65.7803 158.99 65.2171 160.343 65.278 161.603C65.3595 163.299 65.4998 164.995 65.6579 166.687C64.3341 169.615 58.9742 169.472 57.2353 168.843C56.1977 165.323 55.3032 162.402 54.5375 159.824C52.2126 151.925 51.1678 147.205 51.5184 138.05Z" fill="#00567D" stroke="black" stroke-width="0.181723" stroke-miterlimit="10"/>
<path d="M99.438 131.502C90.1066 130.452 65.6188 129.159 49.4749 133.523C49.4606 133.53 49.4534 133.53 49.4463 133.53C49.5035 134.837 49.6037 136.079 49.7397 137.215C50.3264 137.015 50.9419 136.836 51.5787 136.672C51.6074 136.658 51.6431 136.65 51.6718 136.643C51.7219 136.629 51.7648 136.615 51.822 136.6L51.8292 136.6C52.2371 136.486 52.6593 136.386 53.0886 136.286C57.4395 135.258 62.6419 134.622 68.3309 134.33C69.2397 134.28 70.1557 134.244 71.086 134.215C73.2757 134.144 75.5227 134.122 77.8126 134.137C84.4891 134.187 91.5092 134.608 98.3789 135.315C98.5292 135.329 98.6723 135.344 98.8226 135.358C98.9228 135.365 99.0229 135.372 99.1231 135.386C99.2448 134.187 99.3306 132.994 99.4022 131.773L99.438 131.502Z" fill="#E6E8E6" stroke="black" stroke-width="0.181723" stroke-miterlimit="10"/>
<path d="M45.8377 58.9275C45.8377 58.9275 46.0388 58.2355 46.4438 57.7363C47.1952 59.9287 48.7481 62.3925 50.6372 64.892C51.224 65.6776 51.8538 66.4631 52.4978 67.2487C53.514 68.4913 54.5802 69.7196 55.6321 70.9051C56.2189 71.5692 56.8057 72.2191 57.3782 72.8475C57.3925 72.8618 57.4068 72.8833 57.4211 72.8975C61.5931 77.5109 69.7366 82.7384 73.3718 88.2801C71.225 85.5664 66.8599 83.7382 62.7738 81.5029C60.6628 80.3532 58.6233 79.0891 57.0061 77.5395C51.4029 72.1763 42.6175 64.5835 45.8377 58.9275Z" fill="#E6E8E6" stroke="black" stroke-width="0.181723" stroke-miterlimit="10"/>
<path d="M73.3734 88.2822C73.7884 88.9035 74.1462 89.5391 74.4253 90.1747C74.1963 89.4963 73.8385 88.8678 73.3734 88.2822Z" fill="#E6E8E6" stroke="black" stroke-width="0.181723" stroke-miterlimit="10"/>
<path d="M81.8096 69.4483C80.6217 71.3479 77.0437 75.7542 74.6536 73.2547C72.2707 75.7542 68.6927 71.3479 67.4976 69.4483C66.3097 67.5415 61.5367 58.6148 59.8693 56.5938C58.2306 54.6085 56.3772 56.6152 55.5113 59.6003C55.6974 59.7217 55.8834 59.8574 56.0624 59.9931C55.819 61.4928 57.5222 63.4281 61.1789 66.556C64.9358 69.7697 67.9771 72.9833 69.6802 74.9543C71.3762 76.9111 73.4299 78.0751 74.9542 78.0751C76.4784 78.0751 78.5322 76.9111 80.2281 74.9543C81.9312 72.9833 84.9725 69.7697 88.7294 66.556C92.3861 63.4281 94.0893 61.4928 93.846 59.9931C93.8388 59.9502 93.8317 59.9074 93.8245 59.8645L93.8603 59.8074C93.023 56.708 91.1124 54.5656 89.445 56.5938C87.7777 58.6148 83.0046 67.5415 81.8096 69.4483Z" fill="#F28B4E" stroke="black" stroke-width="0.181723" stroke-miterlimit="10"/>
<path d="M74.6997 90.8574C74.621 90.6289 74.528 90.4004 74.4206 90.1719C74.5208 90.4718 74.5995 90.786 74.6496 91.1074C74.6639 91.0217 74.6782 90.936 74.6997 90.8574Z" fill="#A35525" stroke="black" stroke-width="0.181723" stroke-miterlimit="10"/>
<path d="M46.791 56.2656C49.7321 56.8869 52.9666 57.8796 55.507 59.6007C55.6931 59.7221 55.8791 59.8578 56.058 59.9934C55.8147 61.4931 57.5178 63.4285 61.1745 66.5564C64.9314 69.77 67.9727 72.9837 69.6759 74.9547C71.3718 76.9114 73.4256 78.0755 74.9498 78.0755C76.474 78.0755 78.5278 76.9114 80.2238 74.9547C81.9269 72.9837 84.9682 69.77 88.7251 66.5564C92.3818 63.4285 94.0849 61.4931 93.8416 59.9934C96.4035 58.0653 99.8169 56.9726 102.937 56.3013C101.584 58.9079 99.8598 61.6074 97.9349 64.2711C96.5394 66.2065 95.0438 68.1204 93.5125 69.9628C89.6625 74.5976 85.5765 78.8039 82.2847 81.8247C79.5797 84.3099 77.9482 85.9596 76.932 87.2236C75.7871 88.2734 74.9784 89.4518 74.6994 90.8586C74.6206 90.6301 74.5276 90.4016 74.4203 90.173C74.1913 89.4946 73.8335 88.8662 73.3683 88.2806C69.7331 82.7388 61.5896 77.5113 57.4176 72.898C57.4033 72.8837 57.389 72.8623 57.3747 72.848C56.8022 72.2195 56.2154 71.5697 55.6287 70.9055C54.5767 69.72 53.5105 68.4917 52.4943 67.2491C51.8503 66.4636 51.2206 65.678 50.6338 64.8924C48.7446 62.393 47.1917 59.9292 46.4404 57.7368C46.5191 57.2583 46.6336 56.7655 46.791 56.2656Z" fill="#A35525" stroke="black" stroke-width="0.181723" stroke-miterlimit="10"/>
<path d="M98.5188 95.2799C97.8247 94.63 97.288 95.7441 97.5599 99.679C97.5742 99.929 97.5957 100.193 97.6171 100.472C97.8104 99.0077 98.1109 97.2081 98.5188 95.2799Z" fill="#EF9F20" stroke="black" stroke-width="0.181723" stroke-miterlimit="10"/>
<path d="M86.1573 88.6507C82.8798 90.1646 79.8528 91.3644 77.6345 92.1785L74.629 92.1071L72.7469 92.0571C71.1082 91.4358 69.262 90.6074 67.3084 89.6005C60.2597 86.4083 50.4489 81.4378 48.1804 79.4382C48.023 79.3311 47.8799 79.2311 47.7296 79.124C47.014 79.7668 46.3342 80.6451 45.8547 81.295C45.8547 81.3093 45.8547 81.3307 45.8619 81.345C45.9621 81.4735 46.0694 81.6164 46.1696 81.7592C47.2001 83.1875 48.1017 85.1157 48.8674 87.2438C48.9819 87.558 49.0892 87.8723 49.1966 88.1865C49.4184 88.8292 49.6188 89.4791 49.8191 90.1432C50.3201 91.8572 50.7423 93.6139 51.0929 95.2779C51.5008 97.2061 51.8014 99.0057 51.9946 100.47C51.9803 100.62 51.9373 101.262 51.9087 101.648C51.9015 101.741 51.8944 101.819 51.8944 101.869C51.8872 101.919 51.8872 101.969 51.8801 102.027C51.8658 102.226 51.8443 102.434 51.83 102.641C51.7584 103.591 51.6725 104.633 51.5867 105.74C51.1931 105.74 50.7852 105.704 50.3558 105.64C50.2199 107.418 50.0195 110.689 49.8335 114.503C49.8263 114.703 49.812 114.902 49.8048 115.102C49.7283 117.233 49.3554 119.524 49.6059 121.648C49.7097 122.53 50.1047 122.629 50.4088 123.369C50.7308 124.153 50.1469 124.59 49.8141 125.217C49.3447 126.102 49.3712 126.424 49.417 127.422C49.5093 129.449 49.3912 131.49 49.4749 133.52C65.6189 129.157 90.1066 130.449 99.4381 131.499L99.5096 130.964C99.6599 127.956 99.4044 124.907 99.2212 121.907C99.1289 120.396 99.5175 118.699 99.252 117.264C98.9736 115.759 97.9217 114.513 97.639 112.999C97.3993 111.712 98.2237 111.215 98.5171 110.092C98.8341 108.879 98.3038 107.742 98.0942 106.585C97.8616 105.307 97.8831 103.935 97.7786 102.641C97.7142 101.841 97.6569 101.112 97.614 100.47C97.5925 100.191 97.5711 99.927 97.5567 99.677C97.2848 95.7421 97.8215 94.628 98.5156 95.2779C98.8663 93.6139 99.2885 91.8572 99.7894 90.1432C99.9898 89.4791 100.19 88.8292 100.412 88.1865C101.249 85.687 102.258 83.3946 103.439 81.7592C102.859 81.0165 102.151 80.2595 101.299 79.5168C99.6534 80.9237 97.7786 82.252 95.7964 83.5017C92.6764 85.4585 89.2987 87.201 86.1573 88.6507Z" fill="#E6E8E6" stroke="black" stroke-width="0.181723" stroke-miterlimit="10"/>
<path d="M111.566 95.5719C110.807 96.2503 109.734 96.8716 108.496 97.4715C106.02 98.6784 102.893 99.7996 100.324 101.106C99.3793 101.592 98.5062 102.099 97.7763 102.642C97.8479 103.592 97.9337 104.634 98.0196 105.741C99 105.734 100.109 105.541 101.276 105.241C103.973 104.556 106.986 103.277 109.433 102.206C111.523 101.299 113.19 100.542 113.892 100.428L113.892 100.392C113.892 100.392 112.918 98.3499 111.602 95.5576L111.566 95.5719Z" fill="#E6E8E6" stroke="black" stroke-width="0.181723" stroke-miterlimit="10"/>
<path d="M74.6437 73.254C77.0338 75.7535 80.6118 71.3472 81.7997 69.4476C82.9948 67.5408 87.7678 58.6141 89.4351 56.5931C91.1025 54.5649 93.0131 56.7073 93.8504 59.8067L93.8146 59.8638C93.8218 59.9067 93.8289 59.9495 93.8361 59.9924C96.3979 58.0642 99.8113 56.9715 102.931 56.3003C102.989 56.286 103.046 56.2788 103.103 56.2645C104.327 56.0003 105.5 55.8075 106.552 55.6504C107.819 55.4647 108.914 55.3362 109.715 55.2148L109.708 55.1648C109.236 52.4225 106.13 49.0946 101.479 45.8809C103.869 45.2811 105.057 45.6381 106.373 44.5669C105.694 44.0456 104.949 43.3529 104.191 42.5459C104.126 42.5959 104.069 42.6387 104.005 42.6744C104.055 42.7244 104.105 42.7673 104.155 42.8101C104.148 42.8101 104.148 42.8173 104.141 42.8173C104.091 42.7744 104.041 42.7316 103.99 42.6816C103.318 42.096 102.767 41.5818 102.13 40.8534C101.901 40.5963 101.665 40.3178 101.407 40.0035C101.407 40.0035 101.407 39.9964 101.414 39.9893C101.665 40.2821 101.901 40.5606 102.137 40.8248C102.187 40.6891 102.23 40.5534 102.28 40.4106C98.9741 36.5043 95.5464 31.5767 93.9649 30.1698C93.879 30.0984 93.7931 30.0199 93.7073 29.9484C91.4388 28.0274 88.0612 26.5848 86.4511 26.2421C86.4439 26.1992 86.4368 26.1564 86.4368 26.1135C86.2221 24.4924 86.3652 23.0141 87.41 22.4285C83.5887 22.5499 80.7263 23.2641 78.9373 25.4065C80.0107 22.0715 80.4902 20.2861 82.043 19.6934C73.4558 21.2431 65.1048 23.9782 64.0314 27.0705C62.3712 17.8366 57.5266 8.60991 35.7795 1.72559L35.7724 1.75415C42.084 3.87515 53.7625 24.0139 59.3657 28.2845C57.1402 28.413 54.2849 27.2776 51.9879 26.2421C54.013 30.9982 54.8503 31.7124 54.8503 31.7124C51.1506 31.4767 50.0772 31.9552 50.0772 31.9552C51.7446 34.0976 53.0613 34.926 52.7035 34.926C50.4422 35.8544 48.553 37.4541 46.95 39.4037C45.6763 40.9534 44.5886 42.7316 43.6368 44.5669C46.0198 45.6381 48.2882 45.9952 48.7677 45.8809C44.1664 48.3519 40.1518 52.2225 39.9443 55.179C40.8245 55.3147 42.1484 55.4647 43.6941 55.7075C44.4311 55.8146 45.2111 55.9503 46.0269 56.1074C46.2774 56.1574 46.5278 56.2074 46.7855 56.2645C49.7266 56.8859 52.9611 57.8785 55.5014 59.5996C56.3673 56.6145 58.2207 54.6077 59.8594 56.5931C61.5268 58.6141 66.2998 67.5408 67.4877 69.4476C68.6828 71.3472 72.2608 75.7535 74.6437 73.254Z" fill="#EF6E22" stroke="black" stroke-width="0.181723" stroke-miterlimit="10"/>
<path d="M102.289 40.4111C103.054 38.183 104.07 35.155 103.877 33.9767C102.804 35.5264 101.015 35.405 101.015 35.405C101.015 35.405 102.324 31.8343 103.992 29.4562C99.9414 30.8845 98.3886 30.5274 98.3886 30.5274C98.3886 30.5274 101.637 26.6568 103.562 23.1289C99.5693 26.3854 95.7981 28.9063 93.7157 29.949C93.8016 30.0204 93.8874 30.0989 93.9733 30.1703C95.5548 31.5772 98.9825 36.5048 102.289 40.4111Z" fill="#C57251" stroke="black" stroke-width="0.181723" stroke-miterlimit="10"/>
<path d="M104.73 80.2951C104.329 79.1525 103.828 78.5169 103.127 78.0313C102.369 78.6311 101.76 79.131 101.438 79.3953C101.381 79.4453 101.331 79.481 101.295 79.5167C102.147 80.2594 102.855 81.0164 103.435 81.7591C103.843 81.1806 104.279 80.6879 104.73 80.2951Z" fill="#E6E8E6" stroke="black" stroke-width="0.181723" stroke-miterlimit="10"/>
<path d="M98.5175 95.2796C98.8682 93.6156 99.2904 91.8588 99.7913 90.1449C99.9917 89.4807 100.192 88.8309 100.414 88.1881C101.251 85.6886 102.26 83.3962 103.441 81.7609C103.849 81.1824 104.285 80.6897 104.736 80.2969C104.75 80.3254 104.758 80.3611 104.772 80.3969C104.865 80.6682 105.029 81.0967 105.258 81.6395C105.609 82.475 106.096 83.5819 106.661 84.846C108.114 88.0739 110.089 92.3159 111.606 95.5581L111.57 95.5724C110.812 96.2508 109.738 96.8721 108.5 97.472C106.024 98.6789 102.897 99.8001 100.328 101.107C99.3834 101.593 98.5104 102.1 97.7805 102.642C97.7161 101.843 97.6588 101.114 97.6159 100.471C97.8091 99.0074 98.1096 97.2077 98.5175 95.2796Z" fill="#E6E8E6" stroke="black" stroke-width="0.181723" stroke-miterlimit="10"/>
<path d="M74.6506 91.1076C74.6649 91.0219 74.6792 90.9362 74.7007 90.8577C74.9798 89.4508 75.7884 88.2725 76.9334 87.2227C79.4308 84.9089 83.5384 83.2092 87.2738 81.0954C89.12 80.0527 90.8732 78.9101 92.3044 77.5389C97.4496 72.6185 104.906 66.1555 103.589 60.7566C103.704 59.3926 109.479 72.7778 108.384 74.0468C108.234 74.221 108.005 74.3182 107.811 74.4467C107.826 74.4753 107.84 74.5038 107.847 74.5396C106.359 75.5251 104.505 76.9462 103.131 78.0317C102.373 78.6316 101.765 79.1315 101.443 79.3957C101.385 79.4457 101.335 79.4814 101.3 79.5171C99.6536 80.924 97.7788 82.2523 95.7966 83.502C92.6766 85.4588 89.2989 87.2013 86.1574 88.651C82.88 90.165 79.853 91.3647 77.6347 92.1788L74.6292 92.1074L74.6506 91.1076Z" fill="#E6E8E6" stroke="black" stroke-width="0.181723" stroke-miterlimit="10"/>
<path d="M82.2822 81.8247C85.574 78.8039 89.66 74.5976 93.51 69.9628C95.0413 68.1204 96.5369 66.2065 97.9324 64.2711C99.8573 61.6074 101.582 58.9079 102.934 56.3013C102.992 56.287 103.049 56.2799 103.106 56.2656C103.6 57.8653 104.491 59.215 104.376 60.579C105.693 65.9779 97.4458 72.6195 92.3006 77.5399C90.8694 78.911 89.1162 80.0537 87.2699 81.0963C83.5345 83.2102 79.427 84.9098 76.9295 87.2236C77.9457 85.9596 79.5772 84.3099 82.2822 81.8247Z" fill="#E6E8E6" stroke="black" stroke-width="0.181723" stroke-miterlimit="10"/>
<path d="M110.508 104.518C110.408 103.732 110.286 102.961 110.15 102.204C107.703 103.275 104.69 104.554 101.992 105.239C103.309 111.145 103.502 112.909 103.753 114.909C104.032 117.151 104.833 121.457 104.991 126.485C105.814 126.185 106.694 125.949 107.409 125.935C108.361 125.914 109.463 126.092 110.315 126.392C111.588 117.808 111.381 110.724 110.508 104.518Z" fill="#EF6E22" stroke="black" stroke-width="0.181723" stroke-miterlimit="10"/>
<path d="M109.439 102.206C109.575 102.963 109.696 103.734 109.796 104.519L109.961 104.498C109.961 104.498 112.287 103.427 114.076 100.927C114.376 100.506 114.283 100.37 113.897 100.427C113.196 100.542 111.528 101.299 109.439 102.206Z" fill="#A57C52" stroke="black" stroke-width="0.181723" stroke-miterlimit="10"/>
<path d="M117.707 6.83984C112.933 9.575 103.158 13.9813 100.89 15.6452C98.8505 17.1449 89.3187 22.6724 86.442 26.1145C86.442 26.1574 86.4492 26.2002 86.4563 26.2431C88.0664 26.5858 91.4441 28.0284 93.7125 29.9495C95.7949 28.9068 99.5661 26.3859 103.559 23.1294C109.284 18.4518 115.46 12.2745 117.707 6.83984Z" fill="#EF6E22" stroke="black" stroke-width="0.181723" stroke-miterlimit="10"/>
<path d="M117.707 6.83984C115.46 12.2745 109.285 18.4518 103.56 23.1294C101.635 26.6573 98.3863 30.5279 98.3863 30.5279C98.3863 30.5279 99.9391 30.885 103.989 29.4567C102.322 31.8348 101.013 35.4055 101.013 35.4055C101.013 35.4055 102.802 35.5269 103.875 33.9772C104.068 35.1555 103.052 38.1835 102.286 40.4116C102.93 41.1757 103.567 41.897 104.197 42.5469C115.847 34.6556 117.106 14.2455 117.808 6.84699L117.707 6.83984Z" fill="#A35525" stroke="black" stroke-width="0.181723" stroke-miterlimit="10"/>
<path d="M96.1766 138.614C96.6847 137.828 97.7295 137.607 98.9889 136.593C99.2394 136.393 99.497 136.157 99.7618 135.878C99.8834 135.757 99.9908 135.621 100.091 135.486C101.322 133.815 101.229 131.322 102.724 129.394L102.703 129.38C102.667 129.358 102.631 129.337 102.596 129.308C103.118 129.201 103.633 128.973 104.284 128.766C105.351 128.423 106.796 128.123 109.272 128.451C109.365 128.466 109.465 128.48 109.565 128.494L109.558 128.544C109.716 128.623 109.866 128.716 110.009 128.83C112.585 130.637 112.557 135.543 112.607 136.578C112.657 137.671 112.678 139.963 113.315 142.163C113.952 144.362 113.995 145.984 113.143 146.841C112.421 147.576 111.562 147.312 110.768 146.99C110.732 147.34 110.632 147.662 110.46 147.94C110.41 148.026 110.345 148.105 110.281 148.183C109.472 149.119 107.798 148.862 106.896 148.219C106.174 149.14 104.649 149.19 104.07 148.983C102.481 148.404 102.903 145.784 103.733 143.491C104.456 141.499 104.055 139.128 103.662 137.999C103.261 136.878 102.216 138.021 101.651 139.335C101.1 140.62 99.633 142.327 97.9871 142.184C97.937 142.184 97.8941 142.177 97.844 142.17C96.1409 141.913 95.5612 139.556 96.1766 138.614Z" fill="#754D24" stroke="black" stroke-width="0.181723" stroke-miterlimit="10"/>
<path d="M101.679 127.757C101.986 127.493 103.067 126.915 104.269 126.486C105.092 126.186 105.972 125.951 106.688 125.936C107.64 125.915 108.742 126.093 109.593 126.393C110.309 126.629 110.845 126.95 110.946 127.3C111.153 128 111.182 128.436 110.008 128.829C109.865 128.714 109.715 128.621 109.557 128.543L109.564 128.493C109.464 128.479 109.364 128.464 109.271 128.45C106.795 128.122 105.35 128.422 104.283 128.764C103.632 128.971 103.117 129.2 102.595 129.307C101.822 128.843 101.185 128.172 101.679 127.757Z" fill="#754D24" stroke="black" stroke-width="0.181723" stroke-miterlimit="10"/>
<path d="M52.9408 138.613C52.4327 137.827 51.3879 137.606 50.1285 136.592C49.878 136.392 49.6204 136.156 49.3556 135.877C49.234 135.756 49.1266 135.62 49.0264 135.485C47.7956 133.814 47.8886 131.321 46.393 129.393L46.4145 129.379C46.4503 129.357 46.4861 129.336 46.5218 129.307C45.9995 129.2 45.4842 128.972 44.833 128.765C43.7668 128.422 42.3213 128.122 39.8453 128.45C39.7523 128.465 39.6521 128.479 39.5519 128.493L39.5591 128.543C39.4016 128.622 39.2514 128.715 39.1082 128.829C36.5321 130.636 36.5607 135.542 36.5106 136.577C36.4605 137.67 36.4391 139.962 35.8022 142.162C35.1653 144.361 35.1224 145.983 35.9739 146.84C36.6967 147.575 37.5554 147.311 38.3497 146.99C38.3855 147.339 38.4857 147.661 38.6574 147.939C38.7075 148.025 38.7719 148.104 38.8363 148.182C39.6449 149.118 41.3194 148.861 42.2211 148.218C42.9438 149.139 44.4681 149.189 45.0477 148.982C46.6363 148.404 46.2141 145.783 45.384 143.49C44.6613 141.498 45.062 139.127 45.4556 137.998C45.8563 136.877 46.9011 138.02 47.4664 139.334C48.0174 140.619 49.4844 142.326 51.1303 142.183C51.1804 142.183 51.2233 142.176 51.2734 142.169C52.9765 141.912 53.5562 139.555 52.9408 138.613Z" fill="#754D24" stroke="black" stroke-width="0.181723" stroke-miterlimit="10"/>
<path d="M47.4408 127.758C47.1331 127.494 46.0525 126.916 44.8503 126.487C44.0274 126.187 43.1472 125.952 42.4316 125.937C41.4799 125.916 40.3778 126.094 39.5263 126.394C38.8107 126.63 38.274 126.951 38.1738 127.301C37.9663 128.001 37.9377 128.437 39.1112 128.83C39.2544 128.715 39.4046 128.622 39.5621 128.544L39.5549 128.494C39.6551 128.48 39.7553 128.465 39.8483 128.451C42.3243 128.123 43.7698 128.422 44.836 128.765C45.4872 128.972 46.0025 129.201 46.5248 129.308C47.2977 128.844 47.9346 128.173 47.4408 127.758Z" fill="#754D24" stroke="black" stroke-width="0.181723" stroke-miterlimit="10"/>
<path d="M65.6327 54.068C65.6327 54.068 65.579 53.9702 65.4853 53.7981C65.4366 53.7138 65.3779 53.611 65.31 53.4931C65.2377 53.3774 65.1761 53.2368 65.0717 53.1032C64.8548 52.844 64.6309 52.4948 64.3246 52.1948C64.1686 52.0463 64.0076 51.8927 63.8444 51.7363C63.6762 51.5849 63.4837 51.4557 63.3013 51.3129C63.1224 51.1636 62.9241 51.0429 62.7195 50.9386C62.5163 50.833 62.3273 50.7058 62.1191 50.633C61.9137 50.5552 61.7148 50.4795 61.5237 50.4166C61.3348 50.3488 61.1394 50.3302 60.9684 50.2895C60.7945 50.2602 60.64 50.2095 60.4933 50.2174C60.3494 50.2145 60.2235 50.2124 60.1197 50.2109C59.9143 50.2124 59.797 50.2138 59.797 50.2138L59.797 50.7515C59.797 50.7515 59.9007 50.7701 60.0825 50.8015C60.1727 50.8151 60.2822 50.8308 60.4074 50.8494C60.5326 50.8608 60.6693 50.9194 60.8217 50.9515C60.9713 50.9972 61.1402 51.0193 61.3062 51.0915C61.4722 51.1629 61.6497 51.2286 61.8336 51.2964C62.0182 51.3628 62.1914 51.4757 62.3803 51.5614C62.5699 51.6478 62.7531 51.7513 62.9299 51.8699C63.1081 51.9849 63.297 52.087 63.4651 52.212C63.6304 52.3427 63.7929 52.4719 63.9503 52.5962C64.2752 52.8375 64.5257 53.1118 64.7733 53.326C65.2277 53.8109 65.5368 54.1373 65.5368 54.1373L65.6327 54.068Z" fill="black"/>
<path d="M60.761 48.6559C59.6457 46.2375 60.1239 43.642 61.8292 42.8587C63.5345 42.0754 65.8211 43.4009 66.9365 45.8193C68.0519 48.2377 67.5736 50.8332 65.8683 51.6165C64.163 52.3998 61.8764 51.0743 60.761 48.6559Z" fill="black"/>
<path d="M63.8541 46.4351C63.2119 46.4351 62.6913 45.9357 62.6913 45.3196C62.6913 44.7035 63.2119 44.2041 63.8541 44.2041C64.4963 44.2041 65.017 44.7035 65.017 45.3196C65.017 45.9357 64.4963 46.4351 63.8541 46.4351Z" fill="white"/>
<path d="M83.9936 54.1344C83.9936 54.1344 84.3027 53.808 84.7571 53.3231C85.0047 53.1081 85.2559 52.8339 85.5801 52.5932C85.7375 52.4683 85.8999 52.3397 86.0652 52.209C86.2334 52.0833 86.423 51.9819 86.6005 51.867C86.778 51.7491 86.9612 51.6449 87.1501 51.5584C87.3383 51.4728 87.5122 51.3606 87.6968 51.2935C87.8807 51.2249 88.0582 51.1592 88.2242 51.0885C88.3902 51.0164 88.5584 50.9943 88.7087 50.9486C88.8611 50.9164 88.9978 50.8579 89.123 50.8464C89.2482 50.8279 89.3577 50.8115 89.4479 50.7986C89.6296 50.7665 89.7334 50.7486 89.7334 50.7486L89.7334 50.2109C89.7334 50.2109 89.616 50.2102 89.4107 50.208C89.3069 50.2102 89.1817 50.2123 89.0371 50.2144C88.8904 50.2066 88.7359 50.2573 88.562 50.2866C88.3909 50.3273 88.1963 50.3458 88.0067 50.4137C87.8156 50.4765 87.6167 50.5522 87.4113 50.6301C87.2038 50.7036 87.0141 50.83 86.8109 50.9357C86.6055 51.04 86.4073 51.16 86.2291 51.3099C86.0466 51.4528 85.8549 51.582 85.686 51.7334C85.5221 51.8898 85.3618 52.0434 85.2058 52.1919C84.8988 52.4925 84.6755 52.841 84.4587 53.1003C84.3535 53.2338 84.2927 53.3745 84.2204 53.4902C84.1524 53.608 84.0938 53.7109 84.0451 53.7951C83.9514 53.9672 83.8977 54.0651 83.8977 54.0651L83.9936 54.1344Z" fill="black"/>
<path d="M83.6608 51.6159C81.9555 50.8326 81.4772 48.2371 82.5926 45.8187C83.7079 43.4003 85.9946 42.0748 87.6999 42.8581C89.4052 43.6414 89.8834 46.2369 88.7681 48.6553C87.6527 51.0737 85.3661 52.3992 83.6608 51.6159Z" fill="black"/>
<path d="M85.6858 46.4331C85.0436 46.4331 84.5229 45.9337 84.5229 45.3176C84.5229 44.7016 85.0436 44.2021 85.6858 44.2021C86.328 44.2021 86.8486 44.7016 86.8486 45.3176C86.8486 45.9337 86.328 46.4331 85.6858 46.4331Z" fill="white"/>
<path d="M92.3771 41.3444C89.1569 38.1308 87.0101 37.4166 84.8633 37.0596" stroke="black" stroke-width="0.621447" stroke-miterlimit="10"/>
<path d="M57.7595 41.3434C60.9797 38.1298 63.1265 37.4157 65.2733 37.0586" stroke="black" stroke-width="0.621447" stroke-miterlimit="10"/>
<path d="M74.5948 71.8832L74.7594 71.8832C77.7291 71.8832 79.6398 67.4412 80.2767 65.9629C80.9136 64.4775 79.2176 63.3135 74.6592 63.3135C70.1009 63.3135 68.4049 64.4775 69.0346 65.9629C69.6715 67.4412 71.5821 71.8832 74.5519 71.8832L74.5948 71.8832Z" fill="black"/>
<path d="M72.4695 64.354C74.2671 64.2219 78.1041 63.782 78.4998 65.5487C78.7095 66.485 77.4773 67.6897 76.5634 67.4948C75.684 67.307 76.3724 65.7958 75.4349 65.4888C74.2614 65.1046 73.2881 64.9089 71.0125 64.8667C71.0125 64.8675 70.6726 64.4861 72.4695 64.354Z" fill="#676767"/>
<path d="M108.402 18.6221C108.584 21.4451 105.159 23.419 104.673 26.0927C105.218 25.6956 105.905 25.3871 106.595 25.4328C106.183 26.4148 105.642 27.6167 105.017 28.4187C105.461 28.1287 105.944 28.2151 106.407 28.1109C106.728 30.1926 105.008 33.0292 103.93 34.6895" stroke="black" stroke-width="0.173582" stroke-miterlimit="10"/>
<path d="M56.707 25.9437C52.6245 25.848 49.0279 18.7437 45.5559 16.6006C47.7041 19.7592 49.6112 27.487 52.2202 30.2021C50.2123 29.508 46.9799 27.3198 44.8403 27.432C45.807 27.7298 48.7968 30.8241 49.1696 31.6261C47.9739 31.7068 45.9323 31.2326 45.0571 32.0053C49.4917 33.5622 50.0877 35.2875 51.8767 35.2875" stroke="black" stroke-width="0.173582" stroke-miterlimit="10"/>
<path d="M64.1592 28.1439C67.9755 29.9293 71.9764 27.5019 74.3944 25.8887C74.4209 26.9435 73.102 27.4798 73.0025 28.4803C82.2874 30.1671 82.4062 26.2393 87.0576 27.4298" stroke="black" stroke-width="0.173582" stroke-miterlimit="10"/>
<path d="M51.5132 96.8811C50.7246 95.8749 44.8338 89.5404 43.8183 92.4777C43.1943 94.2845 50.8391 99.2156 51.871 100.987" stroke="black" stroke-width="0.173582" stroke-miterlimit="10"/>
<path d="M98.6286 95.275C101.379 96.7611 105.048 88.2914 107.703 90.2374C109.49 91.5472 102.182 97.2781 101.133 98.2501" stroke="black" stroke-width="0.173582" stroke-miterlimit="10"/>
<path d="M50.4417 118.483C50.4417 123.482 59.2235 123.317 62.3557 123.463C64.7587 123.575 71.0581 123.692 72.2417 126.06C69.3636 126.692 66.3638 126.094 63.4384 126.348C60.1996 126.629 56.5701 127.217 53.4236 128.006" stroke="black" stroke-width="0.173582" stroke-miterlimit="10"/>
<path d="M43.4152 167.005C42.2752 167.031 41.2626 167.885 40.2214 168.366C38.6972 169.07 37.0492 169.51 35.4591 170.003C33.6694 170.557 31.3266 171.558 29.4324 171.361C29.8388 169.411 31.6335 167.818 31.9906 165.896C30.115 165.487 29.1383 168.191 27.3528 168.323C27.2877 167.35 27.6591 166.427 27.8945 165.553C26.2072 165.367 24.5498 168.242 22.8396 168.838C21.5944 164.817 23.7562 160.649 24.7008 156.838" stroke="black" stroke-width="0.173582" stroke-miterlimit="10"/>
<path d="M82.4329 81.1992C79.3916 76.468 85.2953 72.451 90.4834 72.6295C90.0497 71.7062 89.4107 71.1656 88.3881 70.6342C90.3238 68.9032 92.3632 68.3761 93.768 65.9452C95.2364 63.4036 96.8644 61.204 96.2382 58.6152" stroke="black" stroke-width="0.173518" stroke-miterlimit="10"/>
<path d="M66.9875 81.289C70.0288 76.5579 63.894 72.8679 58.7059 73.0464C59.1395 72.123 59.7786 71.5824 60.8011 71.0511C58.8655 69.32 56.826 68.793 55.4213 66.3621C53.9529 63.8204 52.4065 60.7575 53.1221 58.4365" stroke="black" stroke-width="0.173518" stroke-miterlimit="10"/>
<path d="M87.12 153.954C87.671 155.511 90.8705 155.767 91.9768 157.162C91.3292 157.959 90.0891 157.648 89.1015 157.702C87.6882 157.78 86.3644 158.282 84.974 158.417" stroke="black" stroke-width="0.173582" stroke-miterlimit="10"/>
<path d="M63.5016 153.418C63.0393 154.101 60.2091 154.838 60.7094 155.982C60.9162 156.455 63.7871 157.059 64.3961 157.346" stroke="black" stroke-width="0.173582" stroke-miterlimit="10"/>
<path d="M79.4932 89.001C79.2613 91.6033 80.8206 94.1742 81.3365 96.7037C81.9498 99.7124 81.9391 103.206 82.1115 106.257C82.4164 111.673 82.6847 117.427 81.1634 122.566" stroke="black" stroke-width="1.36276" stroke-miterlimit="10"/>
<path d="M70.858 89.001C71.0899 91.6033 69.5306 94.1742 69.0146 96.7037C68.4014 99.7124 68.4121 103.206 68.2396 106.257C67.9348 111.673 67.6664 117.427 69.1878 122.566" stroke="black" stroke-width="1.36276" stroke-miterlimit="10"/>
</g>
<g clip-path="url(#clip0_203_1173)">
<path d="M104.192 42.5459C103.562 41.896 102.925 41.1747 102.281 40.4106C102.231 40.5534 102.188 40.6891 102.138 40.8248C101.902 40.5606 101.666 40.2821 101.415 39.9893C101.408 39.9964 101.408 40.0035 101.408 40.0035C101.666 40.3178 101.902 40.5963 102.131 40.8534C102.768 41.5818 103.319 42.096 103.991 42.6816C104.041 42.7316 104.092 42.7744 104.142 42.8173C104.149 42.8173 104.149 42.8101 104.156 42.8101C104.106 42.7673 104.056 42.7244 104.006 42.6744C104.07 42.6387 104.127 42.5959 104.192 42.5459Z" fill="#EF6E22" stroke="black" stroke-width="0.181723" stroke-miterlimit="10"/>
<path d="M35.4337 100.433L35.7054 100.426C35.5839 100.412 35.4981 100.412 35.4337 100.433Z" fill="#A57C52" stroke="black" stroke-width="0.181723" stroke-miterlimit="10"/>
<path d="M40.8399 102.264C40.6896 102.2 40.5394 102.136 40.3962 102.071C40.2674 102.771 40.1529 103.485 40.0599 104.214C40.0528 104.271 40.0456 104.328 40.0385 104.385C39.1654 110.591 38.9579 117.675 40.2317 126.259C41.0832 125.959 42.1852 125.781 43.137 125.802C43.8526 125.816 44.7328 126.052 45.5557 126.352C45.7131 121.325 46.5146 117.018 46.7937 114.776C47.0442 112.776 47.2374 111.012 48.5541 105.106C46.0137 104.464 43.2014 103.292 40.8399 102.264Z" fill="#EF6E22" stroke="black" stroke-width="0.181723" stroke-miterlimit="10"/>
<path d="M35.5257 100.926C36.9283 102.89 38.6672 103.968 39.347 104.346C39.44 103.618 39.5545 102.904 39.6834 102.204C39.8265 102.268 39.873 102.078 39.7313 102.016C37.845 101.194 36.3565 100.532 35.7046 100.426L35.4327 100.433C35.2967 100.476 35.3182 100.633 35.5257 100.926Z" fill="#A57C52" stroke="black" stroke-width="0.181723" stroke-miterlimit="10"/>
<path d="M42.8223 85.1154C43.2445 84.1798 43.6309 83.3229 43.9386 82.5873C44.3752 81.5804 44.69 80.8091 44.8331 80.3949C44.8475 80.3592 44.8546 80.3235 44.8689 80.2949C44.8976 80.3163 44.9262 80.3449 44.962 80.3806C45.0478 80.452 45.1337 80.5449 45.2267 80.6449C45.4343 80.8734 45.6489 81.1305 45.8278 81.3233C45.8278 81.3233 45.8278 81.3161 45.835 81.3161C45.835 81.3233 45.8421 81.3304 45.8565 81.3447C45.8636 81.3804 45.8851 81.4161 45.9065 81.4518C46.937 82.8801 48.039 85.0511 48.862 87.2435C48.9765 87.5577 49.0838 87.872 49.1911 88.1862C49.413 88.8289 49.6133 89.4788 49.8137 90.1429C50.3146 91.8569 50.7368 93.6137 51.0875 95.2776C51.4954 97.2058 51.7959 99.0054 51.9891 100.469C51.9748 100.619 51.9319 101.262 51.9033 101.648C51.889 101.783 51.8818 101.912 51.8746 102.026C51.8603 102.226 51.8389 102.433 51.8245 102.64C51.0946 102.098 50.2216 101.591 49.277 101.105C46.708 99.7981 43.5809 98.6769 41.1049 97.47C39.8669 96.8701 38.7935 96.2488 38.035 95.5704L37.9992 95.5561C39.4733 92.4068 41.384 88.3076 42.8223 85.1154Z" fill="#E6E8E6" stroke="black" stroke-width="0.181723" stroke-miterlimit="10"/>
<path d="M45.8339 81.3158C45.6335 81.073 45.4331 80.8445 45.2256 80.6445C45.4331 80.8731 45.6478 81.1301 45.8267 81.323C45.8267 81.323 45.8267 81.3158 45.8339 81.3158Z" fill="#E6E8E6" stroke="black" stroke-width="0.181723" stroke-miterlimit="10"/>
<path d="M46.9536 39.4037C48.5566 37.4541 50.4457 35.8544 52.707 34.9261C53.0648 34.9261 51.7481 34.0977 50.0808 31.9552C50.0808 31.9552 51.1542 31.4768 54.8538 31.7124C54.8538 31.7124 54.0166 30.9983 51.9914 26.2421C54.2885 27.2776 57.1438 28.4131 59.3693 28.2846C53.7661 24.014 42.0875 3.87522 35.776 1.75422C35.6185 1.70423 35.4683 1.66138 35.3251 1.63281C37.6723 11.2452 39.9193 34.8332 46.9536 39.4037Z" fill="#A35525" stroke="black" stroke-width="0.181723" stroke-miterlimit="10"/>
<path d="M46.2721 59.3344L46.2721 59.3416C43.0519 64.9976 51.3958 72.1747 56.999 77.5379C58.6162 79.0876 60.6557 80.3516 62.7667 81.5014C66.8528 83.7366 71.2179 85.5648 73.3647 88.2786C73.7798 88.8999 74.1376 89.5354 74.4166 90.171C74.5168 90.471 74.5955 90.7852 74.6456 91.1066L74.6242 92.1064L72.7421 92.0564C71.1034 91.4351 69.2572 90.6067 67.3036 89.5997C60.2549 86.4075 50.4441 81.4371 48.1685 79.4446L48.1756 79.4375C48.0182 79.3304 47.8751 79.2304 47.7248 79.1233C47.2883 78.8233 46.8589 78.5305 46.4081 78.2163C46.2721 78.1235 46.1147 78.0164 45.9501 77.895C44.5475 76.938 42.2934 75.424 41.4562 74.8099C41.356 74.7384 41.2773 74.6813 41.22 74.6385C40.0607 72.896 46.2936 58.8131 46.2721 59.3344Z" fill="#E6E8E6" stroke="black" stroke-width="0.181723" stroke-miterlimit="10"/>
<path d="M45.9014 81.4518C46.9319 82.8801 48.0339 85.0511 48.8568 87.2435C48.0911 85.1154 47.1895 83.1872 46.159 81.7589C46.0588 81.6161 45.9515 81.4733 45.8513 81.3447C45.8585 81.3804 45.8799 81.4161 45.9014 81.4518Z" fill="#E6E8E6" stroke="black" stroke-width="0.181723" stroke-miterlimit="10"/>
<path d="M46.2003 78.3953C46.2718 78.3311 46.3362 78.2739 46.4078 78.2168C46.8586 78.531 47.288 78.8238 47.7245 79.1238C47.0089 79.7665 46.3291 80.6449 45.8496 81.2947C45.8425 81.3019 45.8353 81.309 45.8353 81.3162C45.6349 81.0734 45.4346 80.8448 45.227 80.6449C45.134 80.5449 45.0481 80.4521 44.9623 80.3806C44.9265 80.3449 44.8979 80.3164 44.8692 80.2949C45.1698 79.4237 45.6922 78.831 46.2003 78.3953Z" fill="#E6E8E6" stroke="black" stroke-width="0.181723" stroke-miterlimit="10"/>
<path d="M50.347 105.639C50.7764 105.704 51.1843 105.739 51.5779 105.739C51.6637 104.632 51.7496 103.59 51.8212 102.64C51.0913 102.097 50.2182 101.59 49.2736 101.105C46.7046 99.7977 43.5775 98.6765 41.1015 97.4696C39.8635 96.8697 38.7901 96.2484 38.0316 95.57L37.9958 95.5557C36.6791 98.348 35.3624 100.433 35.3624 100.433L35.434 100.433C35.4984 100.412 35.5842 100.412 35.7059 100.426C36.4072 100.54 38.0745 101.297 40.1641 102.204C42.6114 103.276 45.6241 104.554 48.3219 105.239C49.0232 105.418 49.703 105.561 50.347 105.639Z" fill="#E6E8E6" stroke="black" stroke-width="0.181723" stroke-miterlimit="10"/>
<path d="M45.8299 58.9265C45.8299 58.9265 46.031 58.2345 46.436 57.7354C47.1874 59.9278 48.7403 62.3915 50.6294 64.891C51.2162 65.6766 51.846 66.4622 52.49 67.2477C53.5061 68.4903 54.5724 69.7186 55.6243 70.9041C56.2111 71.5683 56.7979 72.2181 57.3704 72.8466C57.3847 72.8609 57.399 72.8823 57.4133 72.8966C61.5853 77.5099 69.7288 82.7374 73.364 88.2792C71.2172 85.5654 66.8521 83.7372 62.766 81.502C60.655 80.3522 58.6155 79.0882 56.9983 77.5385C51.3951 72.1753 42.6097 64.5825 45.8299 58.9265Z" fill="#E6E8E6" stroke="black" stroke-width="0.181723" stroke-miterlimit="10"/>
<path d="M73.3654 88.2803C73.7805 88.9016 74.1383 89.5372 74.4174 90.1727C74.1884 89.4943 73.8306 88.8659 73.3654 88.2803Z" fill="#E6E8E6" stroke="black" stroke-width="0.181723" stroke-miterlimit="10"/>
<path d="M81.8017 69.4473C80.6138 71.3469 77.0358 75.7532 74.6457 73.2537C72.2627 75.7532 68.6847 71.3469 67.4897 69.4473C66.3018 67.5406 61.5287 58.6138 59.8614 56.5928C58.2227 54.6075 56.3693 56.6142 55.5034 59.5993C55.6895 59.7207 55.8755 59.8564 56.0544 59.9921C55.8111 61.4918 57.5142 63.4271 61.1709 66.5551C64.9278 69.7687 67.9691 72.9823 69.6723 74.9534C71.3682 76.9101 73.422 78.0741 74.9462 78.0741C76.4705 78.0741 78.5242 76.9101 80.2202 74.9534C81.9233 72.9823 84.9646 69.7687 88.7215 66.5551C92.3782 63.4271 94.0813 61.4918 93.838 59.9921C93.8309 59.9492 93.8237 59.9064 93.8166 59.8635L93.8523 59.8064C93.0151 56.707 91.1044 54.5646 89.4371 56.5928C87.7698 58.6138 82.9967 67.5406 81.8017 69.4473Z" fill="#F28B4E" stroke="black" stroke-width="0.181723" stroke-miterlimit="10"/>
<path d="M74.6918 90.8565C74.6131 90.6279 74.52 90.3994 74.4127 90.1709C74.5129 90.4708 74.5916 90.7851 74.6417 91.1064C74.656 91.0207 74.6703 90.935 74.6918 90.8565Z" fill="#A35525" stroke="black" stroke-width="0.181723" stroke-miterlimit="10"/>
<path d="M46.7832 56.2647C49.7243 56.886 52.9588 57.8786 55.4992 59.5997C55.6852 59.7211 55.8713 59.8568 56.0502 59.9925C55.8069 61.4922 57.51 63.4275 61.1667 66.5554C64.9236 69.7691 67.9649 72.9827 69.668 74.9537C71.364 76.9105 73.4178 78.0745 74.942 78.0745C76.4662 78.0745 78.52 76.9105 80.216 74.9537C81.9191 72.9827 84.9604 69.7691 88.7173 66.5554C92.374 63.4275 94.0771 61.4922 93.8338 59.9925C96.3957 58.0643 99.8091 56.9716 102.929 56.3004C101.577 58.907 99.852 61.6064 97.927 64.2702C96.5316 66.2055 95.036 68.1194 93.5046 69.9619C89.6547 74.5966 85.5687 78.8029 82.2769 81.8238C79.5719 84.309 77.9404 85.9586 76.9242 87.2227C75.7793 88.2725 74.9706 89.4508 74.6915 90.8576C74.6128 90.6291 74.5198 90.4006 74.4125 90.1721C74.1835 89.4936 73.8257 88.8652 73.3605 88.2796C69.7253 82.7379 61.5818 77.5103 57.4098 72.897C57.3955 72.8827 57.3812 72.8613 57.3669 72.847C56.7944 72.2186 56.2076 71.5687 55.6208 70.9045C54.5689 69.7191 53.5027 68.4907 52.4865 67.2481C51.8425 66.4626 51.2127 65.677 50.626 64.8915C48.7368 62.392 47.1839 59.9282 46.4325 57.7358C46.5113 57.2573 46.6258 56.7645 46.7832 56.2647Z" fill="#A35525" stroke="black" stroke-width="0.181723" stroke-miterlimit="10"/>
<path d="M98.5109 95.2789C97.8167 94.6291 97.28 95.7431 97.552 99.678C97.5663 99.928 97.5877 100.192 97.6092 100.471C97.8024 99.0067 98.103 97.2071 98.5109 95.2789Z" fill="#EF9F20" stroke="black" stroke-width="0.181723" stroke-miterlimit="10"/>
<path d="M86.1493 88.6497C82.8719 90.1637 79.8449 91.3634 77.6265 92.1775L74.621 92.1061L72.739 92.0561C71.1003 91.4348 69.254 90.6064 67.3004 89.5995C60.2518 86.4073 50.4409 81.4369 48.1725 79.4373C48.0151 79.3302 47.8719 79.2302 47.7217 79.123C47.0061 79.7658 46.3262 80.6442 45.8468 81.294C45.8468 81.3083 45.8468 81.3297 45.854 81.344C45.9541 81.4726 46.0615 81.6154 46.1617 81.7582C47.1921 83.1865 48.0938 85.1147 48.8595 87.2428C48.974 87.5571 49.0813 87.8713 49.1886 88.1855C49.4105 88.8282 49.6108 89.4781 49.8112 90.1422C50.3121 91.8562 50.7343 93.613 51.085 95.2769C51.4929 97.2051 51.7934 99.0047 51.9866 100.469C51.9723 100.619 51.9294 101.261 51.9008 101.647C51.8936 101.74 51.8864 101.818 51.8864 101.868C51.8793 101.918 51.8793 101.968 51.8721 102.026C51.8578 102.226 51.8364 102.433 51.822 102.64C51.7505 103.59 51.6646 104.632 51.5787 105.739C51.1852 105.739 50.7773 105.703 50.3479 105.639C50.2119 107.417 50.0116 110.688 49.8255 114.502C49.8184 114.702 49.8041 114.902 49.7969 115.101C49.7203 117.232 49.3475 119.523 49.598 121.647C49.7017 122.529 50.0967 122.628 50.4009 123.368C50.7229 124.153 50.139 124.589 49.8062 125.216C49.3368 126.101 49.3632 126.423 49.409 127.421C49.5014 129.448 49.3833 131.489 49.467 133.519C65.6109 129.156 90.0987 130.448 99.4301 131.498L99.5017 130.963C99.652 127.955 99.3965 124.906 99.2133 121.906C99.121 120.395 99.5096 118.698 99.2441 117.263C98.9657 115.758 97.9138 114.512 97.6311 112.998C97.3914 111.711 98.2157 111.214 98.5091 110.091C98.8262 108.878 98.2959 107.741 98.0862 106.584C97.8537 105.306 97.8751 103.934 97.7706 102.64C97.7062 101.84 97.649 101.111 97.6061 100.469C97.5846 100.19 97.5631 99.926 97.5488 99.676C97.2769 95.7411 97.8136 94.627 98.5077 95.2769C98.8584 93.613 99.2806 91.8562 99.7815 90.1422C99.9818 89.4781 100.182 88.8282 100.404 88.1855C101.241 85.686 102.25 83.3936 103.431 81.7582C102.851 81.0155 102.143 80.2585 101.291 79.5158C99.6455 80.9227 97.7706 82.251 95.7884 83.5007C92.6684 85.4575 89.2908 87.2 86.1493 88.6497Z" fill="#E6E8E6" stroke="black" stroke-width="0.181723" stroke-miterlimit="10"/>
<path d="M111.558 95.5709C110.799 96.2494 109.726 96.8707 108.488 97.4705C106.012 98.6774 102.885 99.7986 100.316 101.106C99.3713 101.591 98.4983 102.098 97.7684 102.641C97.8399 103.591 97.9258 104.633 98.0117 105.74C98.9921 105.733 100.101 105.54 101.268 105.24C103.965 104.555 106.978 103.277 109.425 102.205C111.515 101.298 113.182 100.541 113.884 100.427L113.884 100.391C113.884 100.391 112.91 98.3489 111.594 95.5566L111.558 95.5709Z" fill="#E6E8E6" stroke="black" stroke-width="0.181723" stroke-miterlimit="10"/>
<path d="M74.6358 73.253C77.0259 75.7525 80.6039 71.3462 81.7918 69.4466C82.9868 67.5399 87.7599 58.6131 89.4272 56.5921C91.0946 54.5639 93.0052 56.7063 93.8425 59.8057L93.8067 59.8628C93.8138 59.9057 93.821 59.9485 93.8281 59.9914C96.39 58.0632 99.8034 56.9706 102.923 56.2993C102.981 56.285 103.038 56.2779 103.095 56.2636C104.319 55.9993 105.492 55.8065 106.544 55.6494C107.811 55.4637 108.906 55.3352 109.707 55.2138L109.7 55.1638C109.228 52.4215 106.122 49.0936 101.471 45.88C103.861 45.2801 105.049 45.6371 106.365 44.5659C105.686 44.0446 104.941 43.3519 104.183 42.5449C104.118 42.5949 104.061 42.6378 103.997 42.6735C104.047 42.7235 104.097 42.7663 104.147 42.8091C104.14 42.8091 104.14 42.8163 104.133 42.8163C104.083 42.7734 104.033 42.7306 103.982 42.6806C103.31 42.095 102.759 41.5808 102.122 40.8524C101.893 40.5953 101.657 40.3168 101.399 40.0026C101.399 40.0026 101.399 39.9954 101.406 39.9883C101.657 40.2811 101.893 40.5596 102.129 40.8238C102.179 40.6881 102.222 40.5525 102.272 40.4096C98.9661 36.5033 95.5384 31.5757 93.9569 30.1689C93.8711 30.0974 93.7852 30.0189 93.6993 29.9475C91.4309 28.0264 88.0533 26.5839 86.4432 26.2411C86.436 26.1982 86.4288 26.1554 86.4288 26.1125C86.2142 24.4914 86.3573 23.0132 87.4021 22.4276C83.5808 22.549 80.7184 23.2631 78.9294 25.4055C80.0028 22.0705 80.4822 20.2851 82.0351 19.6924C73.4479 21.2421 65.0968 23.9772 64.0234 27.0695C62.3633 17.8356 57.5187 8.60893 35.7716 1.72461L35.7645 1.75318C42.076 3.87418 53.7546 24.013 59.3577 28.2835C57.1322 28.4121 54.277 27.2766 51.9799 26.2411C54.0051 30.9973 54.8423 31.7114 54.8423 31.7114C51.1427 31.4757 50.0693 31.9542 50.0693 31.9542C51.7366 34.0966 53.0533 34.925 52.6955 34.925C50.4342 35.8534 48.545 37.4531 46.9421 39.4027C45.6683 40.9524 44.5806 42.7306 43.6289 44.5659C46.0118 45.6371 48.2803 45.9942 48.7597 45.88C44.1584 48.3509 40.1439 52.2215 39.9364 55.1781C40.8166 55.3138 42.1404 55.4637 43.6861 55.7065C44.4232 55.8137 45.2032 55.9493 46.019 56.1065C46.2694 56.1565 46.5199 56.2064 46.7775 56.2636C49.7186 56.8849 52.9531 57.8775 55.4935 59.5986C56.3594 56.6135 58.2128 54.6068 59.8515 56.5921C61.5189 58.6131 66.2919 67.5399 67.4798 69.4466C68.6748 71.3462 72.2528 75.7525 74.6358 73.253Z" fill="#EF6E22" stroke="black" stroke-width="0.181723" stroke-miterlimit="10"/>
<path d="M102.281 40.4101C103.046 38.182 104.062 35.1541 103.869 33.9757C102.796 35.5254 101.007 35.404 101.007 35.404C101.007 35.404 102.316 31.8333 103.984 29.4552C99.9335 30.8835 98.3806 30.5264 98.3806 30.5264C98.3806 30.5264 101.629 26.6558 103.554 23.1279C99.5614 26.3844 95.7902 28.9053 93.7078 29.948C93.7936 30.0194 93.8795 30.0979 93.9654 30.1694C95.5469 31.5762 98.9746 36.5038 102.281 40.4101Z" fill="#C57251" stroke="black" stroke-width="0.181723" stroke-miterlimit="10"/>
<path d="M104.723 80.2941C104.322 79.1515 103.821 78.5159 103.12 78.0303C102.362 78.6302 101.753 79.1301 101.431 79.3943C101.374 79.4443 101.324 79.48 101.288 79.5157C102.14 80.2584 102.848 81.0154 103.428 81.7581C103.836 81.1796 104.272 80.6869 104.723 80.2941Z" fill="#E6E8E6" stroke="black" stroke-width="0.181723" stroke-miterlimit="10"/>
<path d="M98.5097 95.2786C98.8604 93.6146 99.2826 91.8578 99.7835 90.1439C99.9839 89.4798 100.184 88.8299 100.406 88.1872C101.243 85.6877 102.252 83.3953 103.433 81.7599C103.841 81.1814 104.277 80.6887 104.728 80.2959C104.743 80.3245 104.75 80.3602 104.764 80.3959C104.857 80.6673 105.022 81.0957 105.251 81.6385C105.601 82.474 106.088 83.5809 106.653 84.845C108.106 88.0729 110.081 92.3149 111.598 95.5571L111.562 95.5714C110.804 96.2498 109.73 96.8711 108.492 97.471C106.016 98.6779 102.889 99.7991 100.32 101.106C99.3756 101.592 98.5026 102.099 97.7727 102.641C97.7082 101.842 97.651 101.113 97.6081 100.47C97.8013 99.0064 98.1018 97.2068 98.5097 95.2786Z" fill="#E6E8E6" stroke="black" stroke-width="0.181723" stroke-miterlimit="10"/>
<path d="M74.6427 91.1067C74.657 91.021 74.6713 90.9353 74.6928 90.8567C74.9719 89.4498 75.7805 88.2715 76.9254 87.2217C79.4229 84.9079 83.5304 83.2083 87.2658 81.0944C89.1121 80.0517 90.8653 78.9091 92.2965 77.538C97.4417 72.6175 104.898 66.1546 103.582 60.7557C103.696 59.3916 109.471 72.7768 108.376 74.0458C108.226 74.2201 107.997 74.3172 107.804 74.4457C107.818 74.4743 107.832 74.5029 107.839 74.5386C106.351 75.5241 104.497 76.9452 103.124 78.0307C102.365 78.6306 101.757 79.1305 101.435 79.3947C101.377 79.4447 101.327 79.4804 101.292 79.5161C99.6457 80.923 97.7708 82.2513 95.7886 83.5011C92.6686 85.4578 89.291 87.2003 86.1495 88.65C82.8721 90.164 79.8451 91.3637 77.6267 92.1779L74.6212 92.1065L74.6427 91.1067Z" fill="#E6E8E6" stroke="black" stroke-width="0.181723" stroke-miterlimit="10"/>
<path d="M82.2743 81.8238C85.566 78.8029 89.6521 74.5966 93.502 69.9619C95.0334 68.1194 96.529 66.2055 97.9244 64.2702C99.8494 61.6064 101.574 58.907 102.926 56.3004C102.984 56.2861 103.041 56.2789 103.098 56.2646C103.592 57.8643 104.483 59.214 104.368 60.5781C105.685 65.977 97.4378 72.6185 92.2927 77.5389C90.8615 78.9101 89.1082 80.0527 87.262 81.0953C83.5266 83.2092 79.419 84.9088 76.9216 87.2227C77.9377 85.9586 79.5693 84.309 82.2743 81.8238Z" fill="#E6E8E6" stroke="black" stroke-width="0.181723" stroke-miterlimit="10"/>
<path d="M110.5 104.517C110.4 103.731 110.278 102.96 110.142 102.203C107.695 103.274 104.682 104.553 101.984 105.238C103.301 111.144 103.494 112.908 103.745 114.908C104.024 117.15 104.825 121.456 104.983 126.484C105.806 126.184 106.686 125.948 107.401 125.934C108.353 125.913 109.455 126.091 110.307 126.391C111.58 117.807 111.373 110.723 110.5 104.517Z" fill="#EF6E22" stroke="black" stroke-width="0.181723" stroke-miterlimit="10"/>
<path d="M109.431 102.205C109.567 102.962 109.688 103.733 109.789 104.518L109.953 104.497C109.953 104.497 112.279 103.426 114.068 100.926C114.368 100.505 114.275 100.369 113.889 100.426C113.188 100.541 111.52 101.298 109.431 102.205Z" fill="#A57C52" stroke="black" stroke-width="0.181723" stroke-miterlimit="10"/>
<path d="M117.699 6.83887C112.926 9.57403 103.151 13.9803 100.883 15.6442C98.8431 17.1439 89.3113 22.6714 86.4346 26.1135C86.4346 26.1564 86.4417 26.1992 86.4489 26.2421C88.059 26.5849 91.4366 28.0274 93.7051 29.9485C95.7875 28.9058 99.5587 26.3849 103.552 23.1284C109.276 18.4508 115.452 12.2735 117.699 6.83887Z" fill="#EF6E22" stroke="black" stroke-width="0.181723" stroke-miterlimit="10"/>
<path d="M117.699 6.83887C115.453 12.2735 109.277 18.4508 103.552 23.1284C101.627 26.6563 98.3783 30.5269 98.3783 30.5269C98.3783 30.5269 99.9312 30.884 103.981 29.4557C102.314 31.8338 101.005 35.4045 101.005 35.4045C101.005 35.4045 102.794 35.5259 103.867 33.9762C104.06 35.1546 103.044 38.1825 102.278 40.4106C102.922 41.1748 103.559 41.8961 104.189 42.5459C115.839 34.6547 117.098 14.2445 117.8 6.84601L117.699 6.83887Z" fill="#A35525" stroke="black" stroke-width="0.181723" stroke-miterlimit="10"/>
<path d="M65.6227 54.0661C65.6227 54.0661 65.569 53.9682 65.4753 53.7961C65.4266 53.7118 65.3679 53.609 65.2999 53.4912C65.2277 53.3755 65.1661 53.2348 65.0616 53.1013C64.8448 52.842 64.6208 52.4928 64.3146 52.1929C64.1586 52.0443 63.9976 51.8908 63.8344 51.7344C63.6662 51.583 63.4737 51.4537 63.2913 51.3109C63.1124 51.1616 62.9141 51.041 62.7095 50.9367C62.5062 50.831 62.3173 50.7039 62.1091 50.631C61.9037 50.5532 61.7048 50.4775 61.5137 50.4147C61.3248 50.3468 61.1294 50.3282 60.9584 50.2875C60.7845 50.2583 60.6299 50.2076 60.4833 50.2154C60.3394 50.2126 60.2135 50.2104 60.1097 50.209C59.9043 50.2104 59.787 50.2118 59.787 50.2118L59.787 50.7496C59.787 50.7496 59.8907 50.7682 60.0725 50.7996C60.1627 50.8131 60.2721 50.8289 60.3974 50.8474C60.5226 50.8589 60.6593 50.9174 60.8117 50.9495C60.9613 50.9953 61.1301 51.0174 61.2962 51.0895C61.4622 51.1609 61.6397 51.2266 61.8236 51.2945C62.0082 51.3609 62.1814 51.4737 62.3703 51.5594C62.5599 51.6458 62.7431 51.7494 62.9199 51.8679C63.098 51.9829 63.287 52.085 63.4551 52.21C63.6204 52.3407 63.7829 52.47 63.9403 52.5942C64.2652 52.8356 64.5156 53.1098 64.7632 53.3241C65.2176 53.809 65.5268 54.1353 65.5268 54.1353L65.6227 54.0661Z" fill="black"/>
<path d="M60.7521 48.6549C59.6368 46.2365 60.115 43.641 61.8203 42.8577C63.5256 42.0744 65.8122 43.4 66.9276 45.8184C68.043 48.2368 67.5647 50.8322 65.8594 51.6155C64.1541 52.3988 61.8675 51.0733 60.7521 48.6549Z" fill="black"/>
<path d="M63.8453 46.4341C63.2031 46.4341 62.6825 45.9347 62.6825 45.3186C62.6825 44.7025 63.2031 44.2031 63.8453 44.2031C64.4876 44.2031 65.0082 44.7025 65.0082 45.3186C65.0082 45.9347 64.4876 46.4341 63.8453 46.4341Z" fill="white"/>
<path d="M83.9847 54.1344C83.9847 54.1344 84.2938 53.808 84.7482 53.3231C84.9958 53.1081 85.247 52.8339 85.5712 52.5932C85.7286 52.4683 85.891 52.3397 86.0563 52.209C86.2245 52.0833 86.4141 51.9819 86.5916 51.867C86.7691 51.7491 86.9523 51.6449 87.1412 51.5584C87.3294 51.4728 87.5033 51.3606 87.6879 51.2935C87.8718 51.2249 88.0493 51.1592 88.2153 51.0885C88.3813 51.0164 88.5495 50.9943 88.6998 50.9486C88.8522 50.9164 88.9889 50.8579 89.1141 50.8464C89.2393 50.8279 89.3488 50.8115 89.439 50.7986C89.6207 50.7665 89.7245 50.7486 89.7245 50.7486L89.7245 50.2109C89.7245 50.2109 89.6071 50.2102 89.4018 50.208C89.298 50.2102 89.1728 50.2123 89.0282 50.2144C88.8815 50.2066 88.7269 50.2573 88.5531 50.2866C88.382 50.3273 88.1874 50.3458 87.9977 50.4137C87.8067 50.4765 87.6077 50.5522 87.4024 50.6301C87.1948 50.7036 87.0052 50.83 86.802 50.9357C86.5966 51.04 86.3984 51.16 86.2202 51.3099C86.0377 51.4528 85.8459 51.582 85.6771 51.7334C85.5132 51.8898 85.3529 52.0434 85.1969 52.1919C84.8899 52.4925 84.6666 52.841 84.4498 53.1003C84.3446 53.2338 84.2838 53.3745 84.2115 53.4902C84.1435 53.608 84.0849 53.7109 84.0362 53.7951C83.9424 53.9672 83.8888 54.0651 83.8888 54.0651L83.9847 54.1344Z" fill="black"/>
<path d="M83.6509 51.613C81.9456 50.8297 81.4673 48.2342 82.5827 45.8158C83.6981 43.3974 85.9847 42.0719 87.69 42.8552C89.3953 43.6385 89.8735 46.2339 88.7582 48.6523C87.6428 51.0707 85.3562 52.3963 83.6509 51.613Z" fill="black"/>
<path d="M85.6759 46.4312C85.0337 46.4312 84.513 45.9318 84.513 45.3157C84.513 44.6996 85.0337 44.2002 85.6759 44.2002C86.3181 44.2002 86.8387 44.6996 86.8387 45.3157C86.8387 45.9318 86.3181 46.4312 85.6759 46.4312Z" fill="white"/>
<path d="M92.3693 41.3434C89.1491 38.1298 87.0023 37.4157 84.8555 37.0586" stroke="black" stroke-width="0.621447" stroke-miterlimit="10"/>
<path d="M57.7516 41.3425C60.9718 38.1288 63.1186 37.4147 65.2654 37.0576" stroke="black" stroke-width="0.621447" stroke-miterlimit="10"/>
<path d="M74.5869 71.8822L74.7515 71.8822C77.7212 71.8822 79.6319 67.4402 80.2687 65.962C80.9056 64.4765 79.2097 63.3125 74.6513 63.3125C70.0929 63.3125 68.397 64.4765 69.0267 65.962C69.6636 67.4402 71.5742 71.8822 74.5439 71.8822L74.5869 71.8822Z" fill="black"/>
<path d="M72.4616 64.353C74.2591 64.2209 78.0962 63.781 78.4919 65.5478C78.7016 66.484 77.4693 67.6888 76.5555 67.4938C75.676 67.306 76.3644 65.7949 75.427 65.4878C74.2534 65.1036 73.2802 64.9079 71.0046 64.8658C71.0046 64.8665 70.6647 64.4851 72.4616 64.353Z" fill="#676767"/>
<path d="M108.395 18.6211C108.576 21.4441 105.152 23.418 104.665 26.0917C105.21 25.6947 105.897 25.3862 106.587 25.4319C106.176 26.4138 105.635 27.6157 105.009 28.4177C105.453 28.1277 105.937 28.2141 106.4 28.1099C106.72 30.1916 105.001 33.0282 103.922 34.6886" stroke="black" stroke-width="0.173582" stroke-miterlimit="10"/>
<path d="M56.6991 25.9427C52.6166 25.847 49.02 18.7427 45.5479 16.5996C47.6961 19.7583 49.6032 27.486 52.2123 30.2011C50.2043 29.507 46.972 27.3189 44.8323 27.431C45.7991 27.7288 48.7889 30.8232 49.1617 31.6251C47.9659 31.7058 45.9243 31.2316 45.0492 32.0043C49.4837 33.5612 50.0798 35.2865 51.8688 35.2865" stroke="black" stroke-width="0.173582" stroke-miterlimit="10"/>
<path d="M64.1512 28.143C67.9675 29.9283 71.9684 27.5009 74.3864 25.8877C74.4129 26.9425 73.0941 27.4788 72.9946 28.4793C82.2795 30.1661 82.3983 26.2383 87.0497 27.4288" stroke="black" stroke-width="0.173582" stroke-miterlimit="10"/>
<path d="M51.5052 96.8801C50.7166 95.8739 44.8258 89.5394 43.8104 92.4767C43.1864 94.2835 50.8311 99.2146 51.863 100.986" stroke="black" stroke-width="0.173582" stroke-miterlimit="10"/>
<path d="M98.6204 95.274C101.371 96.7601 105.04 88.2904 107.695 90.2364C109.482 91.5462 102.173 97.2772 101.125 98.2491" stroke="black" stroke-width="0.173582" stroke-miterlimit="10"/>
<path d="M82.4249 81.1983C79.3837 76.4671 85.2873 72.45 90.4754 72.6286C90.0418 71.7052 89.4027 71.1646 88.3802 70.6333C90.3159 68.9022 92.3553 68.3751 93.76 65.9442C95.2284 63.4026 96.8564 61.203 96.2303 58.6143" stroke="black" stroke-width="0.173518" stroke-miterlimit="10"/>
<path d="M66.9796 81.2881C70.0209 76.5569 63.886 72.8669 58.6979 73.0454C59.1316 72.1221 59.7706 71.5815 60.7932 71.0501C58.8575 69.3191 56.8181 68.792 55.4133 66.3611C53.9449 63.8195 52.3985 60.7565 53.1141 58.4355" stroke="black" stroke-width="0.173518" stroke-miterlimit="10"/>
<path d="M79.4852 89C79.2534 91.6023 80.8127 94.1732 81.3286 96.7027C81.9419 99.7114 81.9311 103.205 82.1036 106.257C82.4085 111.672 82.6768 117.426 81.1554 122.565" stroke="black" stroke-width="1.36276" stroke-miterlimit="10"/>
<path d="M70.8502 89C71.082 91.6023 69.5228 94.1732 69.0068 96.7027C68.3935 99.7114 68.4043 103.205 68.2318 106.257C67.927 111.672 67.6586 117.426 69.18 122.565" stroke="black" stroke-width="1.36276" stroke-miterlimit="10"/>
</g>
<defs>
<clipPath id="clip0_203_1173">
<rect width="102.336" height="117.312" fill="white" transform="matrix(-1 0 0 1 118.693 0.794922)"/>
</clipPath>
</defs>
</svg>
