<svg width="375" height="298" viewBox="0 0 375 298" fill="none" xmlns="http://www.w3.org/2000/svg">
<path d="M62.1561 199.372C62.703 188.688 64.3718 177.712 69.6832 168.343C74.9946 158.974 84.4912 151.492 95.223 150.973C107.754 150.277 118.613 158.679 128.975 165.738C139.336 172.797 152.551 178.998 163.95 173.901C176.48 168.299 180.014 151.687 177.051 138.292C174.088 124.898 166.541 112.927 162.931 99.7178C159.32 86.5087 161.015 69.9878 172.641 62.5975C183.175 55.8 197.265 59.5217 208.504 65.0401C219.743 70.5584 230.86 77.9058 243.394 78.1478C257.166 78.3578 270.065 69.1455 276.018 56.7755C281.971 44.4054 281.463 29.4959 276.421 16.8223C278.041 9.93892 288.171 8.54151 293.611 12.9993C299.098 17.3311 300.867 24.7872 301.976 31.703C304.757 50.2938 303.982 71.2055 291.393 85.0809C282.299 95.0973 268.324 99.5709 254.785 99.8828C241.295 100.069 228.008 96.5097 215.088 92.3692C209.365 90.544 202.489 88.7118 197.639 92.3418C192.48 96.2145 192.826 103.993 193.615 110.426C195.367 123.214 197.37 136.097 196.77 148.997C196.17 161.896 192.658 175.054 184.416 185.107C176.26 195.121 162.803 201.452 150.157 198.859C140.049 196.802 131.778 189.748 122.592 185.086C113.407 180.424 100.938 178.692 93.8315 186.149C87.2177 193.073 88.617 204.139 90.8158 213.49C95.8768 234.611 103.134 255.272 112.44 274.912C113.889 277.918 90.649 289.457 86.4956 288.809C78.7796 287.666 74.883 272.183 72.5463 266.025C64.7171 244.785 61.0073 222.016 62.1561 199.372Z" fill="#9381FF"/>
<path d="M191.259 135.527C190.85 139.122 190.77 143.507 193.52 145.788C195.618 147.554 198.576 147.564 201.273 147.367C205.151 147.152 209.119 146.689 212.299 144.545C217.69 141.079 219.62 133.286 216.49 127.738C213.935 123.07 205.95 119.507 200.596 120.249C193.635 121.415 191.993 129.648 191.259 135.527Z" fill="#FFC6BA"/>
<path d="M224.856 162.001C220.188 162.545 216.792 167.908 218.139 172.362C219.486 176.817 224.988 179.368 229.272 177.568C233.557 175.768 235.485 169.986 233.245 165.99C231.005 161.994 225.043 160.56 221.334 163.24" fill="#FFC6BA"/>
<path d="M185.228 203.513C183.332 205.508 181.579 207.723 180.451 210.219C179.323 212.716 179.079 215.7 180.209 218.288C181.825 222.002 185.831 223.9 189.804 224.501C201.97 226.394 213.71 216.512 210.697 203.856C207.103 189.257 192.594 195.678 185.228 203.513Z" fill="#FFC6BA"/>
<path d="M212.655 243.003C210.159 246.96 210.332 252.497 213.244 256.178C215.06 258.568 218.092 260.225 221.126 259.871C225.08 259.292 227.706 255.439 229.035 251.618C233.227 239.896 219.757 231.888 212.655 243.003Z" fill="#FFC6BA"/>
<path d="M277.554 194.998C273.133 195.632 268.89 197.782 266.367 201.505C263.844 205.229 263.495 210.354 265.928 213.973C268.976 218.82 275.509 220.069 281.24 219.519C285.688 219.119 290.48 217.614 292.769 213.918C299.432 203.091 287.342 193.739 277.554 194.998Z" fill="#FFC6BA"/>
<path d="M153.707 250.703C151.097 252.663 149.728 256.133 149.992 259.414C150.343 264.457 154.532 268.935 159.569 269.531C164.606 270.126 169.736 266.454 170.696 261.494C172.235 253.392 160.453 245.66 153.707 250.703Z" fill="#FFC6BA"/>
</svg>
