<svg width="109" height="99" viewBox="0 0 109 99" fill="none" xmlns="http://www.w3.org/2000/svg">
<path d="M0.880925 90.5174C5.3294 96.719 13.1867 99.2571 19.5448 98.5089C26.9985 97.6191 31.6661 92.0529 34.0581 85.8116C36.1269 80.3462 39.2643 70.6974 33.0008 64.6643C28.4641 60.2507 19.6663 62.5843 23.3093 68.8534C27.8201 76.6475 38.1783 71.7702 41.994 69.0378C49.0449 63.9712 52.7922 55.9689 58.3415 49.6133C61.2129 46.3275 64.5994 43.2982 68.9719 41.8008C73.3873 40.2831 78.3048 40.837 83.3831 41.6271C91.7253 42.8765 101.325 43.4714 106.025 37.2034C110.232 31.5426 107.848 22.6219 99.6173 18.4508C94.874 16.0683 89.8275 15.5751 85.0409 13.4625C80.8445 11.6334 74.6342 6.01185 77.6998 2.01086C78.6034 0.836869 76.6397 -0.296972 75.8759 0.748823C73.2191 4.18306 75.4135 9.57471 79.5758 12.8546C85.7549 17.6799 93.5196 17.0803 99.936 21.1702C107.833 26.1847 106.983 35.4424 100.987 38.6401C94.3356 42.2088 85.5767 39.3467 77.6738 38.8261C61.7501 37.7783 55.28 50.3687 47.7075 60.1721C45.5455 62.9991 43.2118 65.6574 40.2239 67.6881C37.4509 69.6176 32.9481 72.1744 28.6763 70.5679C26.8409 69.8727 24.5134 67.7874 24.9024 65.8576C25.4103 63.4352 28.8241 64.1981 30.6155 65.6626C34.2736 68.6185 34.3429 73.1395 33.9089 76.5875C32.9006 84.111 30.1943 92.5588 22.9097 95.6146C16.8607 98.151 7.64967 96.1255 2.81534 89.357C1.99015 88.0614 0.0340831 89.3567 0.880925 90.5174Z" fill="#E7E3FF"/>
</svg>
