<svg width="94" height="100" viewBox="0 0 94 100" fill="none" xmlns="http://www.w3.org/2000/svg">
<path d="M19.7039 70.8658C21.7667 71.3589 24.1444 71.5265 25.8743 70.1789C27.6794 68.8113 28.1612 66.1093 27.5777 63.9337C26.8131 61.083 24.3974 58.6742 21.5385 57.9118C10.5382 54.9869 9.61515 68.3401 19.7039 70.8658Z" fill="#F3C8DB"/>
<path d="M39.9184 47.8458C41.3808 48.4996 43.2331 48.8078 44.5182 47.9009C45.8033 46.9941 45.961 45.183 45.7837 43.6223C45.3193 40.6913 43.4437 37.8967 40.6196 36.9642C37.9657 36.0665 33.7079 37.2867 33.2919 40.5339C32.8758 43.781 37.3542 46.6828 39.9184 47.8458Z" fill="#F3C8DB"/>
<path d="M16.5363 22.7529C16.9904 21.7468 17.4043 20.5907 17.3276 19.4051C17.251 18.2195 16.6288 17.0996 15.602 16.5703C14.8608 16.2059 14.07 16.2567 13.2792 16.3076C8.34972 16.8231 -1.15312 22.1812 2.71904 28.2206C6.75217 34.8601 14.5751 27.1375 16.5363 22.7529Z" fill="#F3C8DB"/>
<path d="M51.8215 88.6356C55.647 89.7022 59.8863 89.6126 63.4578 87.9329C67.0293 86.2532 69.8928 82.8332 70.5232 78.8853C71.1535 74.9374 69.2708 70.6169 65.7145 68.7546C63.7561 67.7511 61.5084 67.4683 59.3613 67.5606C47.725 68.2633 35.0975 83.8655 51.8215 88.6356Z" fill="#F3C8DB"/>
<path d="M80.0008 38.3187C81.1505 37.2069 81.3229 35.1505 80.3402 33.8859C78.1442 31.0966 74.353 33.1568 73.8765 36.1789C73.2005 39.6566 77.8661 40.257 80.0008 38.3187Z" fill="#F3C8DB"/>
<path d="M46.5373 20.0252C47.9888 20.0386 49.6051 19.7668 50.3192 18.5304C50.7037 17.8646 50.7277 17.0541 50.6015 16.2838C50.2029 13.8979 47.9829 11.9191 45.5302 11.7716C43.1726 11.6791 39.9269 13.6736 40.0106 16.385C40.2846 19.2063 44.3499 19.9674 46.5373 20.0252Z" fill="#F3C8DB"/>
<path d="M62.2568 34.5483C62.7512 33.6923 62.885 32.6917 62.7186 31.7714C62.6473 30.906 62.2759 30.121 61.7544 29.3761C58.7661 25.4322 54.64 27.7428 54.976 31.9947C55.2316 35.9464 59.6056 39.3586 62.2568 34.5483Z" fill="#F3C8DB"/>
</svg>
