<svg width="263" height="219" viewBox="0 0 263 219" fill="none" xmlns="http://www.w3.org/2000/svg">
<path d="M149.22 0.0922931C131.861 14.3656 112.089 25.3178 92.6551 36.5173C73.1087 47.6344 53.6227 59.1416 37.1122 74.3817C20.6017 89.6219 7.01455 108.903 2.33625 130.897C-2.34206 152.892 2.89396 177.645 19.1032 193.307C30.5129 204.421 46.2677 210.069 61.8025 213.653C81.9002 218.328 102.94 220.061 123.207 215.523C149.542 209.545 172.324 193.533 194.273 177.95C217.107 161.63 240.054 145.392 262.888 129.072C226.232 86.5204 185.763 42.562 149.22 0.0922931ZM98.0159 186.373C90.4429 190.342 81.3367 192.153 73.2382 189.513C64.1864 186.522 57.5597 178.561 51.6911 170.983C47.3557 165.563 42.99 159.948 40.0115 153.619C37.033 147.291 35.4114 140.052 36.9489 133.224C38.2997 127.123 41.9774 121.859 45.6852 116.791C50.8762 109.696 56.6524 102.51 64.36 98.1202C95.6628 80.3884 126.717 119.015 123.855 148.218C122.149 164.26 112.247 178.975 98.0159 186.373Z" fill="#FCE9EE"/>
</svg>
