<svg width="188" height="197" viewBox="0 0 188 197" fill="none" xmlns="http://www.w3.org/2000/svg">
<path d="M144.018 196.851L102.373 175.437C116.631 148.233 130.928 120.779 139.468 91.2622C142.587 80.4868 144.86 68.7386 140.769 58.2028C134.702 42.6139 113.664 35.2046 99.0863 43.3173C89.3917 48.7378 83.5669 59.0188 78.2123 68.7342C64.696 93.4495 51.3318 117.346 37.8155 142.061L0.0728023 122.653C7.04065 109.103 26.4426 75.0349 38.0395 52.8311C49.6364 30.6274 66.5438 8.91182 90.6661 2.29857C106.02 -1.91631 130.281 4.45906 144.579 11.5424C161.326 19.7951 174.972 34.0782 182.558 51.0757C192.787 74.0971 184.288 96.9067 177.414 121.091C170.538 145.453 156.29 174.905 144.018 196.851Z" fill="#E9DFF7"/>
</svg>
