<svg width="140" height="117" viewBox="0 0 140 117" fill="none" xmlns="http://www.w3.org/2000/svg">
<path d="M79.5935 0.436227C70.3827 8.00955 59.8919 13.8208 49.5804 19.7632C39.2092 25.6618 28.87 31.7675 20.1096 39.8538C11.3493 47.9402 4.13995 58.1705 1.65767 69.8408C-0.824609 81.511 1.95359 94.6446 10.5541 102.955C16.6081 108.852 24.9675 111.849 33.2102 113.751C43.8739 116.231 55.0374 117.151 65.791 114.743C79.7641 111.571 91.8521 103.075 103.498 94.8064C115.614 86.1472 127.789 77.5317 139.905 68.8725C120.456 46.2946 98.9831 22.9704 79.5935 0.436227ZM52.4248 99.2758C48.4066 101.382 43.5749 102.343 39.2779 100.942C34.4751 99.3548 30.9589 95.131 27.8451 91.1098C25.5448 88.2341 23.2284 85.255 21.648 81.897C20.0676 78.5389 19.2072 74.6984 20.023 71.075C20.7397 67.8379 22.691 65.0453 24.6584 62.3562C27.4127 58.5914 30.4775 54.7785 34.5671 52.4494C51.1763 43.0409 67.6535 63.5361 66.1351 79.0309C65.2295 87.5427 59.9759 95.3506 52.4248 99.2758Z" fill="#FCE9EE"/>
</svg>
