<svg width="106" height="99" viewBox="0 0 106 99" fill="none" xmlns="http://www.w3.org/2000/svg">
<path d="M78.5202 98.555L55.8151 88.6381C64.4088 74.6854 73.0298 60.6066 78.4909 45.6076C80.4853 40.1321 82.0316 34.1849 80.0013 28.9751C76.9894 21.2669 65.4383 17.9694 57.12 22.3385C51.5874 25.2569 48.0964 30.5387 44.8809 35.5269C36.7598 48.2144 28.7429 60.4874 20.6218 73.1749L0.0441468 64.1873C4.24991 57.2401 15.8739 39.7359 22.8654 28.3487C29.857 16.9615 39.7972 5.71246 53.4004 1.904C62.059 -0.522873 75.431 2.19027 83.2331 5.45997C92.3722 9.26769 99.6397 16.1671 103.465 24.5522C108.62 35.9099 103.34 47.539 98.9345 59.8255C94.5232 72.2017 85.8819 87.2834 78.5202 98.555Z" fill="#E9DFF7"/>
</svg>
