<svg width="240" height="377" viewBox="0 0 240 377" fill="none" xmlns="http://www.w3.org/2000/svg">
<path d="M10.4407 1.16036C-7.80558 18.5087 0.4052 51.562 26.4973 54.6664C36.8977 55.9447 49.3051 50.4663 51.4947 39.1442C53.3193 29.283 45.1085 21.0653 35.2555 23.0741C24.6727 25.0829 21.0235 37.318 23.3955 46.814C26.8623 60.1449 40.182 66.1712 52.2245 69.4582C59.3406 71.467 66.8215 72.9279 73.2077 76.7628C85.2502 83.8848 88.1696 101.416 73.7551 107.99C72.1129 108.72 62.6249 111.46 61.5301 109.086C59.888 105.251 67.7338 104.703 69.376 104.703C79.5939 104.703 86.8924 111.46 88.5345 121.321C90.9066 136.478 90.3592 149.078 98.9349 162.592C106.416 174.462 118.093 183.592 131.413 187.61C153.126 194.001 192.173 187.062 194.728 158.939C195.64 148.713 189.984 137.391 178.671 137.026C168.453 136.66 161.884 145.974 163.892 155.652C166.811 169.531 180.678 172.818 191.808 177.566C206.77 184.14 221.732 195.827 229.578 210.254C241.256 231.985 217.9 244.586 202.756 254.812C188.341 264.491 174.657 275.995 164.621 290.057C146.923 314.892 141.266 349.772 160.06 375.52C163.344 380.086 167.723 372.964 165.169 369.311C147.835 345.206 155.316 313.797 172.65 292.065C181.043 281.656 191.261 272.891 202.209 265.221C211.514 258.647 221.915 252.986 229.943 244.586C246 227.785 239.796 207.332 225.746 191.627C217.353 182.314 206.953 174.644 195.64 169.348C190.166 166.792 184.327 165.331 179.036 162.409C176.481 160.948 171.008 157.296 171.008 154.009C171.008 151.452 174.839 146.887 176.846 146.156C179.401 145.243 182.868 146.522 184.875 148.165C192.721 154.922 186.334 165.879 180.131 170.809C174.474 175.192 167.541 178.114 160.607 179.575C146.193 182.679 130.501 179.757 118.641 171.175C107.328 163.139 99.2998 150.539 97.1103 136.66C95.2857 125.521 97.4752 113.468 89.6293 104.155C84.1555 97.5809 74.8499 94.2938 66.4566 95.5721C59.3406 96.6678 50.7648 102.146 53.1368 110.547C55.3264 118.582 65.3618 119.312 72.1129 117.668C81.0536 115.477 87.9872 108.355 90.3592 99.5896C93.2786 88.6328 89.2644 77.3106 80.3237 70.3713C68.6461 61.6058 53.1368 62.1536 40.7294 54.8491C36.5328 52.2924 31.9712 48.8228 30.8764 43.7096C29.5992 38.2311 31.9712 32.2048 38.1749 31.4744C45.1085 30.7439 46.3857 39.1442 40.9119 42.6139C37.4451 44.8053 33.066 45.5357 29.0518 45.1705C9.34587 43.5269 1.49999 21.0654 15.7321 7.36926C18.2865 4.63004 14.6373 -2.85716 10.4407 1.16036Z" fill="#DCD2F6"/>
</svg>
