<svg width="269" height="84" viewBox="0 0 269 84" fill="none" xmlns="http://www.w3.org/2000/svg">
<path d="M268.488 0.550425C270.26 18.6394 263.083 37.4102 249.643 49.6689C236.203 61.9277 216.852 67.3272 199.005 63.8656C176.162 59.4377 155.743 41.4674 132.57 44.459C107.02 47.7715 90.7734 75.1666 65.8847 81.9099C54.7633 84.9131 42.8008 83.493 31.8491 79.7927C20.8973 76.0924 10.8339 70.4354 0.847415 64.7705C5.23834 59.8123 9.63713 54.931 14.0281 49.9727C26.2528 58.5185 40.9177 67.359 55.5723 64.6943C64.5805 63.0734 72.0709 57.254 79.4547 51.912C96.3118 39.6148 115.357 28.1824 136.213 28.382C148.511 28.5238 160.449 32.7452 171.994 36.929C183.548 41.1897 195.34 45.5038 207.669 45.9534C219.999 46.4029 233.173 42.1792 240.392 32.1893C246.737 23.5327 247.597 12.1717 247.827 1.49705L268.488 0.550425Z" fill="#FE5C38"/>
</svg>
